<svg xmlns="http://www.w3.org/2000/svg" width="19.556" height="16" viewBox="0 0 19.556 16">
    <g id="Group_10316" data-name="Group 10316" transform="translate(-470 -35)">
        <path id="Path_333" data-name="Path 333"
              d="M474.1,36.778a2.485,2.485,0,0,0-2.326,2.642v7.16a2.485,2.485,0,0,0,2.326,2.642h11.433a2.36,2.36,0,0,0,2.238-2.6c0-.014,0-.027,0-.04V39.42a2.485,2.485,0,0,0-2.327-2.642ZM470,39.42A4.257,4.257,0,0,1,474.1,35h11.343a4.258,4.258,0,0,1,4.1,4.42v7.141A4.132,4.132,0,0,1,485.537,51H474.1a4.257,4.257,0,0,1-4.1-4.42Z"
              fill="#506069" fill-rule="evenodd"/>
        <path id="Path_334" data-name="Path 334"
              d="M474.116,39.451a.889.889,0,0,1,1.212-.335l4.159,2.357a1.492,1.492,0,0,0,1.472,0l4.159-2.357a.889.889,0,1,1,.876,1.547l-4.166,2.361-.014.008a3.271,3.271,0,0,1-3.182,0l-.014-.008-4.166-2.361A.889.889,0,0,1,474.116,39.451Z"
              transform="translate(-0.444 -0.444)" fill="#506069" fill-rule="evenodd"/>
    </g>
</svg>
