<svg xmlns="http://www.w3.org/2000/svg" width="18.1" height="20.1" viewBox="0 0 18.1 20.1">
    <g id="Group_10314" data-name="Group 10314" transform="translate(-1452 -80.312)">
        <path id="Path_990" data-name="Path 990"
              d="M1466.4,86.812h-.4v-1.4a4.974,4.974,0,0,0-5-5.1,5.121,5.121,0,0,0-5.1,5.1v1.5h-.3a3.585,3.585,0,0,0-3.6,3.6v6.3a3.585,3.585,0,0,0,3.6,3.6h10.9a3.585,3.585,0,0,0,3.6-3.6v-6.3A3.756,3.756,0,0,0,1466.4,86.812Zm-8.5-1.4a3.1,3.1,0,1,1,6.2,0v1.5h-6.2Zm10.3,11.3a1.759,1.759,0,0,1-1.8,1.6h-10.8a1.579,1.579,0,0,1-1.6-1.6v-6.3a1.58,1.58,0,0,1,1.6-1.6h11a1.58,1.58,0,0,1,1.6,1.6Z"
              fill="#506069"/>
    </g>
</svg>
