<svg width="524" height="85" viewBox="0 0 524 85" fill="none" xmlns="http://www.w3.org/2000/svg">
<g clip-path="url(#clip0_215_115)">
<path d="M184.589 19.0047C184.589 18.2705 185.123 17.5363 186.192 16.8022C187.106 16.1204 188.208 15.736 189.348 15.7009C190.206 15.6468 191.057 15.8947 191.752 16.4017C192.016 16.6064 192.236 16.8626 192.399 17.1548C192.561 17.447 192.663 17.7692 192.697 18.1017C194.099 36.1222 194.8 47.5187 194.8 52.2914C194.8 57.0641 194.734 60.6531 194.6 63.0583C194.441 65.6644 194.106 68.2568 193.598 70.818C193.231 73.1243 192.451 75.3454 191.294 77.3745C190.222 79.2027 188.661 80.6956 186.786 81.6854C184.911 82.6751 182.797 83.1225 180.682 82.9771C178.465 83.0562 176.256 82.6643 174.201 81.8271C172.146 80.99 170.292 79.7267 168.762 78.1206C165.69 74.8843 164.154 70.2293 164.154 64.1558C164.183 63.6079 164.338 63.0741 164.607 62.5962C164.877 62.1183 165.253 61.7095 165.708 61.4017C166.645 60.6031 167.833 60.1597 169.064 60.1493C170.534 60.1493 171.435 61.5176 171.769 64.254C172.637 71.9961 175.542 75.8671 180.484 75.8671C181.691 75.8914 182.86 75.4425 183.74 74.6167C184.638 73.7837 185.337 72.7599 185.785 71.6208C186.334 70.1174 186.704 68.5546 186.887 66.9646C187.321 63.6292 187.522 60.2675 187.488 56.9042C187.488 53.0004 187.004 45.876 186.037 35.5309C185.069 25.1859 184.586 19.6771 184.589 19.0047ZM241.084 17.503C241.45 17.023 241.918 16.6301 242.455 16.3524C242.991 16.0748 243.582 15.9194 244.186 15.8974C244.774 15.9134 245.349 16.0776 245.856 16.3748C246.364 16.672 246.789 17.0925 247.091 17.5974C248.282 24.0353 248.851 30.5727 248.792 37.1195V44.7281C248.884 48.1186 248.784 51.5115 248.491 54.8906C248.291 55.9244 248.09 57.0754 247.89 58.3435C247.69 59.6116 247.506 60.5794 247.338 61.2468C247.172 61.9142 246.92 62.8153 246.582 63.9499C245.903 66.3038 244.855 68.5352 243.477 70.5611C241.634 74.1194 238.915 77.1496 235.575 79.3654C232.643 81.3967 229.174 82.5141 225.607 82.5766C221.726 82.3722 218.039 80.8134 215.19 78.1716C211.542 75.1416 208.558 71.3929 206.424 67.1592C202.836 59.8441 201.05 51.7776 201.215 43.6325C201.215 40.4957 201.682 33.0539 202.617 21.3073C203.11 20.2061 203.846 19.2308 204.77 18.455C205.568 17.6904 206.619 17.2448 207.724 17.2026C209.193 17.2026 210.095 18.2037 210.429 20.206C209.498 31.7524 209.032 39.0607 209.032 42.1308C208.901 48.8873 210.377 55.5783 213.339 61.6529C214.97 65.1513 217.225 68.3231 219.994 71.0126C221.999 73.2221 224.784 74.5682 227.762 74.7678C231.969 74.7678 235.575 71.4974 238.58 64.9567C240.095 61.5275 240.814 57.8001 240.684 54.0538C240.651 53.1149 240.718 52.1753 240.884 51.2506L241.084 38.0281C241.127 32.3934 240.657 26.7665 239.682 21.2166C239.666 19.8467 240.167 18.521 241.084 17.503ZM295.176 16.9023C295.973 16.4701 296.873 16.2625 297.78 16.3016C298.332 16.3118 298.875 16.4372 299.375 16.6698C299.876 16.9024 300.322 17.237 300.685 17.6522C301.101 18.0649 301.43 18.5566 301.654 19.0982C301.878 19.6399 301.991 20.2207 301.987 20.8067C301.987 46.9029 302.104 62.6711 302.339 68.1112C302.573 73.5513 302.69 76.3381 302.69 76.4716C302.69 77.9424 302.273 79.3831 301.488 80.6273C300.685 81.9268 299.8 82.5766 298.831 82.5766C298.093 82.5943 297.355 82.5443 296.627 82.4274C296.17 82.3388 295.718 82.2221 295.276 82.0779C294.821 81.9059 294.412 81.6312 294.081 81.2751L293.08 80.274C292.669 79.8006 292.316 79.2799 292.029 78.7232C291.594 77.955 291.244 77.338 290.978 76.8721C290.712 76.4061 290.294 75.5876 289.725 74.4164C289.158 73.2478 287.922 70.8615 286.019 67.2574C284.115 63.6533 282.392 60.4169 280.851 57.5483C276.626 49.4892 271.698 41.8176 266.126 34.6223C266.126 56.3136 265.525 71.362 264.323 79.7678C264.128 81.3734 262.893 82.1762 260.617 82.1762C259.671 82.2111 258.739 81.9292 257.971 81.3753C257.601 81.0565 257.313 80.6539 257.13 80.2011C256.947 79.7484 256.875 79.2585 256.92 78.7723C256.92 77.571 257.172 70.9635 257.676 58.9499C258.18 46.9363 258.432 39.4435 258.432 36.4716V30.8199C258.432 26.0145 258.8 23.3114 259.534 22.7107C260.171 22.1471 260.988 21.8278 261.838 21.8097C265.511 21.8097 271.118 27.8165 278.659 39.8301C280.128 42.1661 282.933 47.0546 287.073 54.4958C291.213 61.9369 293.684 66.5251 294.486 68.2604L293.284 26.7039C293.276 20.9704 293.907 17.7032 295.176 16.9023ZM316.005 18.9045C317.087 18.2334 318.338 17.886 319.611 17.9034C320.947 17.9034 321.781 18.6709 322.115 20.206C322.182 27.9481 322.316 39.5279 322.516 54.9453C322.516 64.356 322.249 72.3317 321.715 78.8724C321.612 79.4195 321.393 79.9384 321.074 80.3944C320.755 80.8504 320.342 81.2331 319.862 81.5169C318.892 82.2407 317.719 82.6435 316.508 82.6692C316.119 82.7175 315.724 82.6747 315.355 82.5443C314.986 82.4139 314.652 82.1994 314.38 81.9177C314.108 81.6361 313.905 81.2951 313.787 80.9216C313.67 80.5481 313.641 80.1525 313.703 79.7659C314.371 73.0917 314.705 64.8156 314.705 54.9378L314.115 21.3073C314.433 20.304 315.105 19.4502 316.005 18.9045ZM360.28 16.0013C364.688 15.9 368.962 17.5155 372.2 20.5064C378.611 26.2462 381.816 35.3061 381.816 47.6862C381.816 60.0662 378.277 69.7942 371.198 76.8702C367.803 80.2807 363.285 82.344 358.482 82.6767C355.675 82.8198 352.873 82.306 350.299 81.1763C347.726 80.0466 345.451 78.3322 343.657 76.1694C340.151 71.8921 337.576 66.9305 336.097 61.6019C334.639 56.5395 333.88 51.3014 333.843 46.0334C333.537 38.5174 335.681 31.1054 339.951 24.9113C344.225 18.9713 351.003 16.0013 360.285 16.0013H360.28ZM359.579 24.3126C350.633 24.3126 345.057 28.5507 342.85 37.0269C342.112 39.8695 341.775 42.8011 341.849 45.7368C341.949 49.9138 342.623 54.0572 343.852 58.0507C345.655 64.3245 348.326 68.732 351.866 71.2733C354.024 72.904 356.674 73.7514 359.378 73.676C360.907 73.6391 362.409 73.2655 363.777 72.5818C365.145 71.898 366.345 70.9211 367.292 69.7206C369.746 66.8442 371.403 63.3756 372.1 59.6601C372.965 55.6126 373.402 51.4851 373.402 47.3462C373.402 40.0045 372.35 34.3314 370.246 30.3269C369.257 28.3878 367.718 26.7829 365.822 25.7129C363.926 24.6428 361.756 24.1551 359.584 24.3107L359.579 24.3126ZM397.248 78.2718C397.233 78.8979 397.082 79.5133 396.805 80.0753C396.528 80.6373 396.132 81.1324 395.645 81.5264C394.722 82.4344 393.485 82.9543 392.19 82.979C390.955 82.979 390.104 82.1781 389.635 80.5762C389.436 71.765 389.336 62.9872 389.336 54.2427L389.036 29.0141C388.879 26.7869 389.448 24.5689 390.658 22.6921C391.868 20.8152 393.653 19.3803 395.747 18.6023C399.788 16.8458 404.164 15.9917 408.569 16.0995C411.387 16.1612 414.163 16.7908 416.732 17.9506C419.673 19.2103 422.33 21.0489 424.545 23.3568C425.605 24.3471 426.457 25.5391 427.051 26.8628C427.645 28.1865 427.968 29.6153 428.002 31.0655C427.781 34.3812 426.439 37.5234 424.195 39.9756C421.526 43.2636 418.347 46.1028 414.779 48.3851C411.382 50.6518 407.714 52.4851 403.861 53.8422C409.753 57.9059 415.193 62.5882 420.088 67.809C424.696 72.7806 427 76.6347 427 79.3711C426.975 79.8506 426.846 80.3188 426.621 80.7431C426.396 81.1673 426.081 81.5371 425.698 81.8267C424.829 82.594 423.702 83.0049 422.543 82.9771C421.929 82.9749 421.323 82.8289 420.775 82.5507C420.227 82.2726 419.752 81.87 419.387 81.3753C417.393 77.1216 414.546 73.3226 411.022 70.2136C406.588 66.054 401.777 62.3167 396.649 59.05L397.248 78.2718ZM396.847 48.2377C402.272 47.6995 407.466 45.7682 411.924 42.6314C417.499 39.0941 420.287 35.9068 420.287 33.0696C420.292 31.6877 419.897 30.3338 419.151 29.1704C418.405 28.007 417.338 27.0837 416.08 26.5113C413.007 24.9122 409.577 24.1199 406.114 24.2087C402.998 24.0904 399.887 24.566 396.949 25.6102C396.881 29.0154 396.847 36.5579 396.847 48.2377Z" fill="#141517"/>
<mask id="mask0_215_115" style="mask-type:luminance" maskUnits="userSpaceOnUse" x="0" y="0" width="145" height="85">
<path d="M144.584 0H0V85H144.584V0Z" fill="white"/>
</mask>
<g mask="url(#mask0_215_115)">
<path d="M144.584 54.8321C141.187 53.4944 137.496 53.0774 133.885 53.6231C136.148 63.8768 137.152 74.3677 136.877 84.8642C136.391 84.9076 135.907 84.987 135.425 84.987C108.276 84.987 81.1262 85.0531 53.9766 84.9114C42.9152 85.0947 31.8977 83.4754 21.3574 80.1173C17.3808 78.8801 13.6715 76.9086 10.4219 74.3051C9.47856 73.5726 8.63145 72.724 7.9007 71.7796C6.71167 69.8487 4.91774 68.3646 2.79774 67.5578C-0.904737 66.2129 -0.878277 59.7206 2.60874 57.2121C4.33971 55.9663 6.47729 55.4193 8.59432 55.6802C9.54462 55.7457 10.4456 56.1276 11.1533 56.7648C11.8611 57.4019 12.3349 58.2577 12.499 59.1955C12.7787 60.3289 12.8921 61.5151 13.1171 62.9072C16.593 61.1596 19.6443 58.6729 22.0567 55.6216C25.343 51.5498 27.1286 46.4726 27.1143 41.2412C27.2132 36.2074 28.7905 31.3136 31.6502 27.1687C38.7017 16.3315 49.2462 8.22749 61.5365 4.19928C67.0769 2.52246 72.7009 1.13536 78.3857 0.0436275C78.8568 -0.00424722 79.3314 -0.00804156 79.8032 0.032294C77.6836 1.55426 76.0287 3.63487 75.0231 6.04203C74.0176 8.44918 73.701 11.0882 74.1087 13.6647C91.2849 5.6802 107.981 6.48677 124.645 15.9069C119.92 17.8298 115.762 20.0625 113.239 24.6205C130.186 27.8525 139.714 38.6458 144.582 54.8434M30.5087 43.9745C28.7472 56.5434 20.9794 63.846 9.66216 68.4456C10.5492 69.5614 11.5514 70.5807 12.6521 71.4868C15.0954 73.2303 17.7027 74.7321 20.437 75.9711C31.6597 80.4686 43.5288 81.177 55.4376 81.449C55.6835 81.4155 55.9171 81.3213 56.1174 81.1748C56.3177 81.0284 56.4784 80.8344 56.5848 80.6103C58.5598 71.432 57.6791 62.8241 51.1038 55.531C45.6229 49.4486 38.4787 46.245 30.503 43.9745" fill="url(#paint0_linear_215_115)"/>
<path d="M40.9601 61.7002C40.9356 64.5865 39.5275 66.1184 36.9401 66.0731C33.2906 66.0089 31.119 64.373 31.1265 61.7134C31.0142 60.399 31.4267 59.0935 32.2741 58.0821C33.1215 57.0706 34.3348 56.4353 35.6493 56.3149C36.3622 56.2808 37.0743 56.3974 37.7391 56.6569C38.404 56.9165 39.0066 57.3131 39.5077 57.8211C40.0088 58.3291 40.3972 58.9369 40.6474 59.605C40.8977 60.273 41.0042 60.9863 40.9601 61.6983" fill="url(#paint1_linear_215_115)"/>
</g>
</g>
<path d="M506.383 47.1952L493.084 48.4042C490.17 48.4042 488.713 47.1332 488.713 44.5912C488.713 41.9252 490.232 40.4992 493.27 40.3132C494.2 40.2512 500.183 40.2202 511.219 40.2202C513.513 40.2202 515.807 40.8402 518.101 42.0802C520.767 43.5682 522.1 45.9242 522.1 49.1482C522.1 52.3722 519.868 55.9062 515.404 59.7502C513.544 61.3622 511.56 62.9742 509.452 64.5862C502.57 69.7942 499.129 73.0802 499.129 74.4442C499.129 75.3742 500.276 75.8392 502.57 75.8392C504.926 75.8392 507.065 75.7152 508.987 75.4672C510.971 75.1572 513.079 74.8472 515.311 74.5372C517.543 74.1652 518.938 73.9792 519.496 73.9792C522.1 73.9792 523.402 74.9092 523.402 76.7692C523.402 80.9852 517.078 83.0932 504.43 83.0932C499.842 83.0932 496.556 82.5972 494.572 81.6052C492.65 80.6132 491.379 78.8462 490.759 76.3042C490.697 75.9322 490.666 75.5602 490.666 75.1882C490.666 73.4522 491.658 71.3442 493.642 68.8642C496.37 65.5162 499.935 62.3232 504.337 59.2852C509.359 55.8132 512.273 53.3642 513.079 51.9382C513.513 51.1322 513.668 50.4192 513.544 49.7992C513.172 48.0632 510.785 47.1952 506.383 47.1952Z" fill="#141517"/>
<path d="M452.007 61.2381C452.007 57.0841 453.092 53.3021 455.262 49.8921C457.494 46.4821 460.315 43.9401 463.725 42.2661C467.135 40.5301 470.452 39.6621 473.676 39.6621C476.9 39.6621 479.473 40.0651 481.395 40.8711C483.379 41.6151 484.371 42.6381 484.371 43.9401C484.371 45.1801 483.999 46.4511 483.255 47.7531C482.573 48.9931 481.643 49.6131 480.465 49.6131C480.031 49.6131 478.822 49.2721 476.838 48.5901C474.916 47.8461 473.676 47.4741 473.118 47.4741C469.522 47.4741 466.453 48.8071 463.911 51.4731C461.369 54.0771 460.098 57.5491 460.098 61.8891C460.098 66.2291 460.78 69.4841 462.144 71.6541C463.57 73.7621 465.988 74.8161 469.398 74.8161C470.762 74.8161 473.087 74.0411 476.373 72.4911C479.721 70.8791 481.798 70.0731 482.604 70.0731C483.41 70.0731 484.061 70.3211 484.557 70.8171C485.053 71.3131 485.301 71.9331 485.301 72.6771C485.301 74.1651 484.34 75.7461 482.418 77.4201C480.558 79.0321 478.233 80.3961 475.443 81.5121C472.653 82.5661 470.142 83.0931 467.91 83.0931C462.95 83.0931 459.044 81.1401 456.192 77.2341C453.402 73.3281 452.007 67.9961 452.007 61.2381Z" fill="#141517"/>
<path d="M439.836 71.8401C441.2 71.8401 442.378 72.3361 443.37 73.3281C444.362 74.3201 444.951 75.6841 445.137 77.4201C445.137 78.7841 444.641 80.0551 443.649 81.2331C442.657 82.3491 441.479 82.9071 440.115 82.9071C438.813 82.9071 437.635 82.5661 436.581 81.8841C435.527 81.1401 435 80.0241 435 78.5361C435 77.0481 435.465 75.5601 436.395 74.0721C437.387 72.5841 438.534 71.8401 439.836 71.8401Z" fill="#141517"/>
<defs>
<linearGradient id="paint0_linear_215_115" x1="72.2956" y1="0.00463867" x2="72.2956" y2="85.0024" gradientUnits="userSpaceOnUse">
<stop stop-color="#FFA674"/>
<stop offset="0.811" stop-color="#F7925B"/>
<stop offset="1" stop-color="#F49536"/>
</linearGradient>
<linearGradient id="paint1_linear_215_115" x1="36.0391" y1="56.3091" x2="36.0391" y2="66.0741" gradientUnits="userSpaceOnUse">
<stop stop-color="#FFA674"/>
<stop offset="0.811" stop-color="#F7925B"/>
<stop offset="1" stop-color="#F49536"/>
</linearGradient>
<clipPath id="clip0_215_115">
<rect width="428" height="85" fill="white"/>
</clipPath>
</defs>
</svg>
