<svg width="1600" height="1031" viewBox="0 0 1600 1031" fill="none" xmlns="http://www.w3.org/2000/svg">
<g opacity="0.8" clip-path="url(#clip0_4374_2056)">
<path d="M1626.68 937.923C1603.51 960.098 1580.28 982.183 1556.99 1004.24" stroke="url(#paint0_linear_4374_2056)" stroke-width="0.29" stroke-miterlimit="10"/>
<path d="M1626.98 705.583C1517.57 804.606 1412.79 906.352 1305.86 1004.63" stroke="url(#paint1_linear_4374_2056)" stroke-width="0.29" stroke-miterlimit="10"/>
<path d="M1626.83 518.042C1451.71 681.913 1275.09 843.509 1096.38 1003.58" stroke="url(#paint2_linear_4374_2056)" stroke-width="0.29" stroke-miterlimit="10"/>
<path d="M1626.89 363.119C1610.37 385.683 1586.42 400.645 1565.46 421.593C1529.54 454.511 1493.62 478.451 1457.7 511.369C1275.09 681.943 1092.49 837.554 916.348 1003.67" stroke="url(#paint3_linear_4374_2056)" stroke-width="0.29" stroke-miterlimit="10"/>
<path d="M1539.51 310.869C1379.83 454.511 1221.18 595.159 1059.53 735.808C1014.63 789.674 954.755 825.584 903.865 873.464C858.963 921.345 808.073 960.248 760.476 1004.33" stroke="url(#paint4_linear_4374_2056)" stroke-width="0.29" stroke-miterlimit="10"/>
<path d="M1445.81 281.842C1340.92 373.683 1239.14 466.451 1128.38 559.219C1125.39 562.212 1122.39 568.197 1119.4 571.189C948.768 717.823 790.111 858.472 625.528 1004.06" stroke="url(#paint5_linear_4374_2056)" stroke-width="0.29" stroke-miterlimit="10"/>
<path d="M1364.39 255.986C1355.92 262.959 1346.94 268.944 1337.95 280.914C1325.98 292.884 1314.01 298.869 1302.03 307.847C1299.04 310.839 1296.05 316.824 1293.05 319.817C1227.19 373.682 1167.32 427.548 1104.46 484.406C1074.53 508.346 1047.58 535.279 1014.66 559.219C1011.66 562.212 1008.67 568.197 1005.67 571.189C984.72 586.152 966.759 601.115 948.798 616.077C841.031 714.831 736.258 801.614 628.491 900.367C586.582 936.277 547.666 969.195 506.266 1004.36" stroke="url(#paint6_linear_4374_2056)" stroke-width="0.29" stroke-miterlimit="10"/>
<path d="M1292 233.692C1074.53 418.57 867.973 604.107 643.459 792.636C640.466 795.629 637.472 801.614 634.479 804.606C550.66 870.442 478.816 936.277 400.685 1004.54" stroke="url(#paint7_linear_4374_2056)" stroke-width="0.29" stroke-miterlimit="10"/>
<path d="M444.54 886.153C454.868 924.307 469.835 966.203 480.492 1004.21" stroke="url(#paint8_linear_4374_2056)" stroke-width="0.29" stroke-miterlimit="10"/>
<path d="M536.591 807.12L551.259 841.295C564.401 871.938 577.572 902.581 590.714 933.195C600.832 956.746 610.92 980.297 621.038 1003.85" stroke="url(#paint9_linear_4374_2056)" stroke-width="0.29" stroke-miterlimit="10"/>
<path d="M627.294 729.254C679.351 822.591 736.228 912.367 785.472 1004.45" stroke="url(#paint10_linear_4374_2056)" stroke-width="0.29" stroke-miterlimit="10"/>
<path d="M716.711 652.496C805.079 768.726 891.891 885.434 979.571 1004.45" stroke="url(#paint11_linear_4374_2056)" stroke-width="0.29" stroke-miterlimit="10"/>
<path d="M804.87 576.815C861.986 637.025 918.863 696.875 978.733 756.726C1038.6 819.569 1095.48 882.412 1158.34 945.255C1164.33 954.233 1170.32 963.21 1176.31 969.195C1185.29 975.18 1191.27 981.165 1197.26 990.143C1203.25 993.135 1209.23 999.12 1212.41 1004.27" stroke="url(#paint12_linear_4374_2056)" stroke-width="0.29" stroke-miterlimit="10"/>
<path d="M891.741 502.241C924.85 532.286 957.778 559.219 990.707 589.144C1164.33 732.786 1325.98 864.457 1495.08 1004.36" stroke="url(#paint13_linear_4374_2056)" stroke-width="0.29" stroke-miterlimit="10"/>
<path d="M977.416 428.685C1071.53 493.383 1161.34 550.241 1260.12 616.077C1388.85 699.868 1502.6 774.681 1626.56 855.3" stroke="url(#paint14_linear_4374_2056)" stroke-width="0.29" stroke-miterlimit="10"/>
<path d="M1061.86 356.176C1248.15 457.473 1439.73 550.242 1626.11 648.845" stroke="url(#paint15_linear_4374_2056)" stroke-width="0.29" stroke-miterlimit="10"/>
<path d="M1145.17 284.685C1203.25 307.847 1260.12 331.787 1317 352.735L1397.83 388.645C1475.66 415.578 1547.5 451.488 1626.62 479.618" stroke="url(#paint16_linear_4374_2056)" stroke-width="0.29" stroke-miterlimit="10"/>
<path d="M1626.56 337.832C1598.39 331.817 1568.46 319.847 1541.51 310.869C1481.64 292.914 1421.77 277.952 1361.9 254.011C1352.92 251.019 1340.95 251.019 1331.97 248.026C1296.05 233.064 1260.12 227.079 1224.2 215.109C1137.39 289.922 1053.57 364.735 960.772 439.548C939.818 460.496 918.863 478.451 894.915 499.399C858.993 529.324 823.07 559.249 787.148 592.167C760.207 619.1 730.271 640.047 700.336 663.987C655.433 702.89 613.524 741.793 568.621 780.696C529.706 813.614 487.796 843.539 448.881 879.449C430.92 897.405 412.959 915.36 392.004 933.315C377.036 942.292 365.062 951.27 353.088 963.24C344.108 975.21 353.088 990.173 357.608 1002.86" stroke="url(#paint17_linear_4374_2056)" stroke-width="0.29" stroke-miterlimit="10"/>
<path opacity="0.4" d="M1223.72 591.987L1331.85 496.226L1249.17 454.6L1150.11 542.192L1223.72 591.987Z" fill="url(#paint18_linear_4374_2056)"/>
<path opacity="0.4" d="M1242.91 638.102L1351.04 542.341L1268.33 500.715L1169.3 588.306L1242.91 638.102Z" fill="url(#paint19_linear_4374_2056)"/>
<path opacity="0.15" d="M845.073 755.289L738.175 849.374L790.472 919.37L712.49 989.365L547.158 985.714V923.948L791.669 700.676L845.073 755.289Z" fill="url(#paint20_linear_4374_2056)"/>
<path opacity="0.26" d="M1406.06 638.102L1575.1 741.314L1388.61 913.923L1239.65 790.392L1406.06 638.102Z" fill="url(#paint21_linear_4374_2056)"/>
<path opacity="0.06" d="M833.847 618.022L955.234 741.314L787.508 888.756L677.705 753.374L833.847 618.022Z" fill="url(#paint22_linear_4374_2056)"/>
<path opacity="0.1" d="M1044.5 423.179L1100.27 461.902L1005.77 544.316L954.037 501.433L1044.5 423.179Z" fill="url(#paint23_linear_4374_2056)"/>
<path style="mix-blend-mode:color-dodge" opacity="0.8" d="M1258.45 1027.64C1219.62 985.115 1196.03 929.484 1196.03 868.587C1196.03 734.94 1309.25 626.611 1448.92 626.611C1525.26 626.611 1593.63 659.02 1640 710.192V1026.98C1639.79 1027.22 1639.58 1027.43 1639.37 1027.67H1258.45V1027.64Z" fill="url(#paint24_radial_4374_2056)"/>
<path style="mix-blend-mode:color-dodge" opacity="0.8" d="M1389.62 806.312C1456.8 806.312 1511.22 754.212 1511.22 689.963C1511.22 625.713 1456.77 573.613 1389.62 573.613C1322.45 573.613 1268.03 625.713 1268.03 689.963C1268.03 754.212 1322.48 806.312 1389.62 806.312Z" fill="url(#paint25_radial_4374_2056)"/>
<path style="mix-blend-mode:color-dodge" opacity="0.8" d="M1535.86 639.449C1558.97 639.449 1577.71 623.469 1577.71 603.778C1577.71 584.087 1558.97 568.107 1535.86 568.107C1512.75 568.107 1494.01 584.087 1494.01 603.778C1494.01 623.499 1512.75 639.449 1535.86 639.449Z" fill="url(#paint26_radial_4374_2056)"/>
<path style="mix-blend-mode:screen" opacity="0.53" d="M-10.3758 2.0702C360.841 229.265 640.688 441.345 618.349 479.391C595.599 518.134 267.675 361.443 -114.072 129.409C-164.081 99.0031 -212.543 68.8203 -258.948 39.2376L-10.3758 2.0702Z" fill="url(#paint27_radial_4374_2056)"/>
<g opacity="0.61">
<path d="M153.85 258.204C106.014 214.932 101.793 140.388 144.481 91.7293C187.138 43.0708 260.539 38.7017 308.376 81.9737C356.212 125.246 360.433 199.789 317.746 248.448C275.088 297.106 201.687 301.475 153.85 258.204Z" fill="url(#paint28_radial_4374_2056)" style="mix-blend-mode:color-dodge"/>
</g>
</g>
<defs>
<linearGradient id="paint0_linear_4374_2056" x1="1626.68" y1="971.088" x2="1556.99" y2="971.088" gradientUnits="userSpaceOnUse">
<stop stop-color="#177F25"/>
<stop offset="1" stop-color="#19A638" stop-opacity="0"/>
</linearGradient>
<linearGradient id="paint1_linear_4374_2056" x1="1626.98" y1="855.138" x2="1305.86" y2="855.138" gradientUnits="userSpaceOnUse">
<stop stop-color="#177F25"/>
<stop offset="1" stop-color="#19A638" stop-opacity="0"/>
</linearGradient>
<linearGradient id="paint2_linear_4374_2056" x1="1626.83" y1="760.864" x2="1096.38" y2="760.864" gradientUnits="userSpaceOnUse">
<stop stop-color="#177F25"/>
<stop offset="1" stop-color="#19A638" stop-opacity="0"/>
</linearGradient>
<linearGradient id="paint3_linear_4374_2056" x1="1626.89" y1="683.464" x2="916.348" y2="683.464" gradientUnits="userSpaceOnUse">
<stop stop-color="#177F25"/>
<stop offset="1" stop-color="#19A638" stop-opacity="0"/>
</linearGradient>
<linearGradient id="paint4_linear_4374_2056" x1="1539.51" y1="657.674" x2="760.476" y2="657.674" gradientUnits="userSpaceOnUse">
<stop stop-color="#177F25"/>
<stop offset="1" stop-color="#19A638" stop-opacity="0"/>
</linearGradient>
<linearGradient id="paint5_linear_4374_2056" x1="1445.81" y1="643.029" x2="625.528" y2="643.029" gradientUnits="userSpaceOnUse">
<stop stop-color="#177F25"/>
<stop offset="1" stop-color="#19A638" stop-opacity="0"/>
</linearGradient>
<linearGradient id="paint6_linear_4374_2056" x1="1364.39" y1="630.253" x2="506.266" y2="630.253" gradientUnits="userSpaceOnUse">
<stop stop-color="#177F25"/>
<stop offset="1" stop-color="#19A638" stop-opacity="0"/>
</linearGradient>
<linearGradient id="paint7_linear_4374_2056" x1="1292" y1="619.198" x2="400.685" y2="619.198" gradientUnits="userSpaceOnUse">
<stop stop-color="#177F25"/>
<stop offset="1" stop-color="#19A638" stop-opacity="0"/>
</linearGradient>
<linearGradient id="paint8_linear_4374_2056" x1="480.492" y1="945.193" x2="444.54" y2="945.193" gradientUnits="userSpaceOnUse">
<stop stop-color="#177F25"/>
<stop offset="1" stop-color="#19A638" stop-opacity="0"/>
</linearGradient>
<linearGradient id="paint9_linear_4374_2056" x1="621.038" y1="905.506" x2="536.591" y2="905.506" gradientUnits="userSpaceOnUse">
<stop stop-color="#177F25"/>
<stop offset="1" stop-color="#19A638" stop-opacity="0"/>
</linearGradient>
<linearGradient id="paint10_linear_4374_2056" x1="785.472" y1="866.881" x2="627.294" y2="866.881" gradientUnits="userSpaceOnUse">
<stop stop-color="#177F25"/>
<stop offset="1" stop-color="#19A638" stop-opacity="0"/>
</linearGradient>
<linearGradient id="paint11_linear_4374_2056" x1="979.571" y1="828.51" x2="716.711" y2="828.51" gradientUnits="userSpaceOnUse">
<stop stop-color="#177F25"/>
<stop offset="1" stop-color="#19A638" stop-opacity="0"/>
</linearGradient>
<linearGradient id="paint12_linear_4374_2056" x1="1212.41" y1="790.588" x2="804.87" y2="790.588" gradientUnits="userSpaceOnUse">
<stop stop-color="#177F25"/>
<stop offset="1" stop-color="#19A638" stop-opacity="0"/>
</linearGradient>
<linearGradient id="paint13_linear_4374_2056" x1="1495.08" y1="753.354" x2="891.741" y2="753.354" gradientUnits="userSpaceOnUse">
<stop stop-color="#177F25"/>
<stop offset="1" stop-color="#19A638" stop-opacity="0"/>
</linearGradient>
<linearGradient id="paint14_linear_4374_2056" x1="1626.56" y1="642.039" x2="977.416" y2="642.039" gradientUnits="userSpaceOnUse">
<stop stop-color="#177F25"/>
<stop offset="1" stop-color="#19A638" stop-opacity="0"/>
</linearGradient>
<linearGradient id="paint15_linear_4374_2056" x1="1626.11" y1="502.543" x2="1061.86" y2="502.543" gradientUnits="userSpaceOnUse">
<stop stop-color="#177F25"/>
<stop offset="1" stop-color="#19A638" stop-opacity="0"/>
</linearGradient>
<linearGradient id="paint16_linear_4374_2056" x1="1626.62" y1="382.173" x2="1145.17" y2="382.173" gradientUnits="userSpaceOnUse">
<stop stop-color="#177F25"/>
<stop offset="1" stop-color="#19A638" stop-opacity="0"/>
</linearGradient>
<linearGradient id="paint17_linear_4374_2056" x1="1626.56" y1="609.071" x2="349.247" y2="609.071" gradientUnits="userSpaceOnUse">
<stop stop-color="#177F25"/>
<stop offset="1" stop-color="#19A638" stop-opacity="0"/>
</linearGradient>
<linearGradient id="paint18_linear_4374_2056" x1="1331.85" y1="523.309" x2="1150.11" y2="523.309" gradientUnits="userSpaceOnUse">
<stop stop-color="#177F25"/>
<stop offset="1" stop-color="#19A638" stop-opacity="0"/>
</linearGradient>
<linearGradient id="paint19_linear_4374_2056" x1="1351.04" y1="569.424" x2="1169.3" y2="569.424" gradientUnits="userSpaceOnUse">
<stop stop-color="#177F25"/>
<stop offset="1" stop-color="#19A638" stop-opacity="0"/>
</linearGradient>
<linearGradient id="paint20_linear_4374_2056" x1="845.073" y1="845.052" x2="547.158" y2="845.052" gradientUnits="userSpaceOnUse">
<stop stop-color="#177F25"/>
<stop offset="1" stop-color="#19A638" stop-opacity="0"/>
</linearGradient>
<linearGradient id="paint21_linear_4374_2056" x1="1575.1" y1="776.043" x2="1239.65" y2="776.043" gradientUnits="userSpaceOnUse">
<stop stop-color="#177F25"/>
<stop offset="1" stop-color="#19A638" stop-opacity="0"/>
</linearGradient>
<linearGradient id="paint22_linear_4374_2056" x1="955.234" y1="753.419" x2="677.705" y2="753.419" gradientUnits="userSpaceOnUse">
<stop stop-color="#177F25"/>
<stop offset="1" stop-color="#19A638" stop-opacity="0"/>
</linearGradient>
<linearGradient id="paint23_linear_4374_2056" x1="1100.27" y1="483.761" x2="954.037" y2="483.761" gradientUnits="userSpaceOnUse">
<stop stop-color="#177F25"/>
<stop offset="1" stop-color="#19A638" stop-opacity="0"/>
</linearGradient>
<radialGradient id="paint24_radial_4374_2056" cx="0" cy="0" r="1" gradientUnits="userSpaceOnUse" gradientTransform="translate(1526.39 865.924) rotate(89.98) scale(242.401 253.285)">
<stop stop-color="#F2E0F7"/>
<stop offset="0.09" stop-color="#18A437"/>
<stop offset="0.3" stop-color="#18A035" stop-opacity="0"/>
</radialGradient>
<radialGradient id="paint25_radial_4374_2056" cx="0" cy="0" r="1" gradientUnits="userSpaceOnUse" gradientTransform="translate(1448.99 712.465) rotate(89.9811) scale(140.644 138.742)">
<stop stop-color="#F2E0F7"/>
<stop offset="0.09" stop-color="#18A437"/>
<stop offset="0.3" stop-color="#18A035" stop-opacity="0"/>
</radialGradient>
<radialGradient id="paint26_radial_4374_2056" cx="0" cy="0" r="1" gradientUnits="userSpaceOnUse" gradientTransform="translate(1556.29 610.677) rotate(89.9788) scale(43.1192 47.7502)">
<stop stop-color="#F2E0F7"/>
<stop offset="0.09" stop-color="#18A437"/>
<stop offset="0.3" stop-color="#18A035" stop-opacity="0"/>
</radialGradient>
<radialGradient id="paint27_radial_4374_2056" cx="0" cy="0" r="1" gradientUnits="userSpaceOnUse" gradientTransform="translate(97.0453 30.0321) rotate(31.2966) scale(808.879 82.4092)">
<stop stop-color="#177F25"/>
<stop offset="1" stop-color="#19A638" stop-opacity="0"/>
</radialGradient>
<radialGradient id="paint28_radial_4374_2056" cx="0" cy="0" r="1" gradientUnits="userSpaceOnUse" gradientTransform="translate(287.785 192.894) rotate(89.9822) scale(142.535 132.453)">
<stop stop-color="#F2E0F7"/>
<stop offset="0.09" stop-color="#18A437"/>
<stop offset="0.3" stop-color="#18A035" stop-opacity="0"/>
</radialGradient>
<clipPath id="clip0_4374_2056">
<rect width="1600" height="1030" fill="white" transform="matrix(-1 0 0 1 1600 0.13916)"/>
</clipPath>
</defs>
</svg>
