<svg width="1601" height="1120" viewBox="0 0 1601 1120" fill="none" xmlns="http://www.w3.org/2000/svg">
<g opacity="0.5" clip-path="url(#clip0_4387_2402)">
<path d="M-25.7979 798.153C-2.62803 820.327 20.6017 842.412 43.8912 864.467" stroke="url(#paint0_linear_4387_2402)" stroke-width="0.29" stroke-miterlimit="10"/>
<path d="M-26.0977 565.813C83.3154 664.836 188.089 766.582 295.017 864.856" stroke="url(#paint1_linear_4387_2402)" stroke-width="0.29" stroke-miterlimit="10"/>
<path d="M-25.9482 378.271C149.173 542.142 325.79 703.739 504.503 863.809" stroke="url(#paint2_linear_4387_2402)" stroke-width="0.29" stroke-miterlimit="10"/>
<path d="M-26.0078 223.348C-9.4836 245.912 14.4645 260.874 35.4192 281.822C71.3414 314.74 107.264 338.68 143.186 371.598C325.79 542.172 508.395 697.783 684.534 863.898" stroke="url(#paint3_linear_4387_2402)" stroke-width="0.29" stroke-miterlimit="10"/>
<path d="M61.373 171.099C221.047 314.74 379.704 455.389 541.354 596.037C586.256 649.903 646.127 685.813 697.017 733.694C741.919 781.574 792.809 820.477 840.406 864.557" stroke="url(#paint4_linear_4387_2402)" stroke-width="0.29" stroke-miterlimit="10"/>
<path d="M155.07 142.071C259.963 233.912 361.743 326.68 472.503 419.449C475.496 422.441 478.49 428.426 481.483 431.419C652.114 578.052 810.77 718.701 975.354 864.288" stroke="url(#paint5_linear_4387_2402)" stroke-width="0.29" stroke-miterlimit="10"/>
<path d="M236.494 116.216C244.966 123.188 253.946 129.173 262.927 141.144C274.901 153.114 286.875 159.099 298.849 168.076C301.843 171.069 304.836 177.054 307.83 180.046C373.687 233.912 433.557 287.777 496.421 344.635C526.356 368.576 553.298 395.508 586.227 419.449C589.22 422.441 592.214 428.426 595.207 431.419C616.162 446.381 634.123 461.344 652.084 476.307C759.851 575.06 864.624 661.843 972.391 760.596C1014.3 796.507 1053.22 829.425 1094.62 864.587" stroke="url(#paint6_linear_4387_2402)" stroke-width="0.29" stroke-miterlimit="10"/>
<path d="M308.877 93.9214C526.356 278.8 732.909 464.336 957.423 652.865C960.416 655.858 963.41 661.843 966.403 664.836C1050.22 730.671 1122.07 796.507 1200.2 864.766" stroke="url(#paint7_linear_4387_2402)" stroke-width="0.29" stroke-miterlimit="10"/>
<path d="M1156.34 746.382C1146.02 784.537 1131.05 826.432 1120.39 864.437" stroke="url(#paint8_linear_4387_2402)" stroke-width="0.29" stroke-miterlimit="10"/>
<path d="M1064.29 667.349L1049.62 701.524C1036.48 732.167 1023.31 762.811 1010.17 793.424C1000.05 816.975 989.962 840.527 979.844 864.078" stroke="url(#paint9_linear_4387_2402)" stroke-width="0.29" stroke-miterlimit="10"/>
<path d="M973.588 589.484C921.53 682.821 864.654 772.597 815.41 864.677" stroke="url(#paint10_linear_4387_2402)" stroke-width="0.29" stroke-miterlimit="10"/>
<path d="M884.171 512.726C795.803 628.955 708.991 745.664 621.311 864.677" stroke="url(#paint11_linear_4387_2402)" stroke-width="0.29" stroke-miterlimit="10"/>
<path d="M796.012 437.044C738.896 497.254 682.019 557.105 622.149 616.955C562.278 679.798 505.401 742.641 442.538 805.484C436.551 814.462 430.564 823.439 424.576 829.424C415.596 835.409 409.609 841.395 403.622 850.372C397.635 853.365 391.648 859.35 388.475 864.497" stroke="url(#paint12_linear_4387_2402)" stroke-width="0.29" stroke-miterlimit="10"/>
<path d="M709.14 362.471C676.032 392.516 643.103 419.448 610.175 449.374C436.551 593.015 274.901 724.686 105.797 864.587" stroke="url(#paint13_linear_4387_2402)" stroke-width="0.29" stroke-miterlimit="10"/>
<path d="M623.466 288.915C529.349 353.613 439.544 410.471 340.758 476.307C212.037 560.097 98.2829 634.91 -25.6787 715.529" stroke="url(#paint14_linear_4387_2402)" stroke-width="0.29" stroke-miterlimit="10"/>
<path d="M539.019 216.406C352.732 317.703 161.147 410.471 -25.2295 509.075" stroke="url(#paint15_linear_4387_2402)" stroke-width="0.29" stroke-miterlimit="10"/>
<path d="M455.709 144.914C397.635 168.076 340.758 192.016 283.881 212.964L203.056 248.874C125.225 275.807 53.3804 311.717 -25.7383 339.847" stroke="url(#paint16_linear_4387_2402)" stroke-width="0.29" stroke-miterlimit="10"/>
<path d="M-25.6787 198.061C2.49029 192.046 32.4255 180.076 59.3671 171.099C119.237 153.144 179.108 138.181 238.978 114.241C247.959 111.248 259.933 111.248 268.913 108.256C304.836 93.293 340.758 87.308 376.68 75.3379C463.492 150.151 547.311 224.964 640.11 299.777C661.064 320.725 682.019 338.68 705.967 359.628C741.889 389.553 777.811 419.478 813.734 452.396C840.675 479.329 870.61 500.277 900.546 524.217C945.448 563.12 987.358 602.023 1032.26 640.925C1071.18 673.843 1113.09 703.768 1152 739.679C1169.96 757.634 1187.92 775.589 1208.88 793.544C1223.85 802.522 1235.82 811.499 1247.79 823.469C1256.77 835.44 1247.79 850.402 1243.27 863.09" stroke="url(#paint17_linear_4387_2402)" stroke-width="0.29" stroke-miterlimit="10"/>
<path opacity="0.4" d="M377.159 452.216L269.033 356.456L351.714 314.83L450.77 402.421L377.159 452.216Z" fill="url(#paint18_linear_4387_2402)"/>
<path opacity="0.4" d="M357.971 498.331L249.845 402.57L332.556 360.944L431.581 448.536L357.971 498.331Z" fill="url(#paint19_linear_4387_2402)"/>
<path opacity="0.15" d="M755.809 615.519L862.707 709.604L810.41 779.599L888.391 849.594L1053.72 845.943V784.177L809.213 560.905L755.809 615.519Z" fill="url(#paint20_linear_4387_2402)"/>
<path opacity="0.26" d="M194.823 498.331L25.7793 601.543L212.275 774.152L361.233 650.621L194.823 498.331Z" fill="url(#paint21_linear_4387_2402)"/>
<path opacity="0.06" d="M767.035 478.251L645.647 601.544L813.374 748.985L923.176 613.603L767.035 478.251Z" fill="url(#paint22_linear_4387_2402)"/>
<path opacity="0.1" d="M556.381 283.408L500.611 322.131L595.117 404.546L646.845 361.663L556.381 283.408Z" fill="url(#paint23_linear_4387_2402)"/>
<path style="mix-blend-mode:color-dodge" opacity="0.8" d="M342.436 887.868C381.262 845.345 404.85 789.714 404.85 728.816C404.85 595.17 291.636 486.84 151.958 486.84C75.6234 486.84 7.25142 519.249 -39.1182 570.421V887.21C-38.9086 887.45 -38.6991 887.659 -38.4895 887.898H342.436V887.868Z" fill="url(#paint24_radial_4387_2402)"/>
<path style="mix-blend-mode:color-dodge" opacity="0.8" d="M211.258 666.541C144.083 666.541 89.6611 614.441 89.6611 550.192C89.6611 485.942 144.113 433.842 211.258 433.842C278.432 433.842 332.854 485.942 332.854 550.192C332.854 614.441 278.402 666.541 211.258 666.541Z" fill="url(#paint25_radial_4387_2402)"/>
<path style="mix-blend-mode:color-dodge" opacity="0.8" d="M65.0242 499.678C41.9142 499.678 23.1748 483.698 23.1748 464.007C23.1748 444.316 41.9142 428.336 65.0242 428.336C88.1341 428.336 106.874 444.316 106.874 464.007C106.874 483.728 88.1341 499.678 65.0242 499.678Z" fill="url(#paint26_radial_4387_2402)"/>
<path style="mix-blend-mode:screen" opacity="0.53" d="M1611.26 162.619C1240.04 389.814 960.193 601.894 982.533 639.941C1005.28 678.683 1333.21 521.992 1714.95 289.958C1764.96 259.552 1813.43 229.369 1859.83 199.787L1611.26 162.619Z" fill="url(#paint27_radial_4387_2402)"/>
<g opacity="0.61">
<path d="M1445.8 420.034C1493.64 376.762 1497.86 302.219 1455.17 253.56C1412.52 204.902 1339.12 200.533 1291.28 243.804C1243.44 287.076 1239.22 361.62 1281.91 410.279C1324.57 458.937 1397.97 463.306 1445.8 420.034Z" fill="url(#paint28_radial_4387_2402)" style="mix-blend-mode:color-dodge"/>
</g>
</g>
<defs>
<linearGradient id="paint0_linear_4387_2402" x1="-25.7979" y1="831.317" x2="43.8912" y2="831.317" gradientUnits="userSpaceOnUse">
<stop stop-color="#177F25"/>
<stop offset="1" stop-color="#19A638" stop-opacity="0"/>
</linearGradient>
<linearGradient id="paint1_linear_4387_2402" x1="-26.0977" y1="715.367" x2="295.017" y2="715.367" gradientUnits="userSpaceOnUse">
<stop stop-color="#177F25"/>
<stop offset="1" stop-color="#19A638" stop-opacity="0"/>
</linearGradient>
<linearGradient id="paint2_linear_4387_2402" x1="-25.9482" y1="621.093" x2="504.503" y2="621.093" gradientUnits="userSpaceOnUse">
<stop stop-color="#177F25"/>
<stop offset="1" stop-color="#19A638" stop-opacity="0"/>
</linearGradient>
<linearGradient id="paint3_linear_4387_2402" x1="-26.0078" y1="543.693" x2="684.534" y2="543.693" gradientUnits="userSpaceOnUse">
<stop stop-color="#177F25"/>
<stop offset="1" stop-color="#19A638" stop-opacity="0"/>
</linearGradient>
<linearGradient id="paint4_linear_4387_2402" x1="61.373" y1="517.903" x2="840.406" y2="517.903" gradientUnits="userSpaceOnUse">
<stop stop-color="#177F25"/>
<stop offset="1" stop-color="#19A638" stop-opacity="0"/>
</linearGradient>
<linearGradient id="paint5_linear_4387_2402" x1="155.07" y1="503.258" x2="975.354" y2="503.258" gradientUnits="userSpaceOnUse">
<stop stop-color="#177F25"/>
<stop offset="1" stop-color="#19A638" stop-opacity="0"/>
</linearGradient>
<linearGradient id="paint6_linear_4387_2402" x1="236.494" y1="490.483" x2="1094.62" y2="490.483" gradientUnits="userSpaceOnUse">
<stop stop-color="#177F25"/>
<stop offset="1" stop-color="#19A638" stop-opacity="0"/>
</linearGradient>
<linearGradient id="paint7_linear_4387_2402" x1="308.877" y1="479.428" x2="1200.2" y2="479.428" gradientUnits="userSpaceOnUse">
<stop stop-color="#177F25"/>
<stop offset="1" stop-color="#19A638" stop-opacity="0"/>
</linearGradient>
<linearGradient id="paint8_linear_4387_2402" x1="1120.39" y1="805.422" x2="1156.34" y2="805.422" gradientUnits="userSpaceOnUse">
<stop stop-color="#177F25"/>
<stop offset="1" stop-color="#19A638" stop-opacity="0"/>
</linearGradient>
<linearGradient id="paint9_linear_4387_2402" x1="979.844" y1="765.735" x2="1064.29" y2="765.735" gradientUnits="userSpaceOnUse">
<stop stop-color="#177F25"/>
<stop offset="1" stop-color="#19A638" stop-opacity="0"/>
</linearGradient>
<linearGradient id="paint10_linear_4387_2402" x1="815.41" y1="727.11" x2="973.588" y2="727.11" gradientUnits="userSpaceOnUse">
<stop stop-color="#177F25"/>
<stop offset="1" stop-color="#19A638" stop-opacity="0"/>
</linearGradient>
<linearGradient id="paint11_linear_4387_2402" x1="621.311" y1="688.739" x2="884.171" y2="688.739" gradientUnits="userSpaceOnUse">
<stop stop-color="#177F25"/>
<stop offset="1" stop-color="#19A638" stop-opacity="0"/>
</linearGradient>
<linearGradient id="paint12_linear_4387_2402" x1="388.475" y1="650.817" x2="796.012" y2="650.817" gradientUnits="userSpaceOnUse">
<stop stop-color="#177F25"/>
<stop offset="1" stop-color="#19A638" stop-opacity="0"/>
</linearGradient>
<linearGradient id="paint13_linear_4387_2402" x1="105.797" y1="613.583" x2="709.14" y2="613.583" gradientUnits="userSpaceOnUse">
<stop stop-color="#177F25"/>
<stop offset="1" stop-color="#19A638" stop-opacity="0"/>
</linearGradient>
<linearGradient id="paint14_linear_4387_2402" x1="-25.6787" y1="502.268" x2="623.466" y2="502.268" gradientUnits="userSpaceOnUse">
<stop stop-color="#177F25"/>
<stop offset="1" stop-color="#19A638" stop-opacity="0"/>
</linearGradient>
<linearGradient id="paint15_linear_4387_2402" x1="-25.2295" y1="362.772" x2="539.019" y2="362.772" gradientUnits="userSpaceOnUse">
<stop stop-color="#177F25"/>
<stop offset="1" stop-color="#19A638" stop-opacity="0"/>
</linearGradient>
<linearGradient id="paint16_linear_4387_2402" x1="-25.7383" y1="242.402" x2="455.709" y2="242.402" gradientUnits="userSpaceOnUse">
<stop stop-color="#177F25"/>
<stop offset="1" stop-color="#19A638" stop-opacity="0"/>
</linearGradient>
<linearGradient id="paint17_linear_4387_2402" x1="-25.6787" y1="469.3" x2="1251.64" y2="469.3" gradientUnits="userSpaceOnUse">
<stop stop-color="#177F25"/>
<stop offset="1" stop-color="#19A638" stop-opacity="0"/>
</linearGradient>
<linearGradient id="paint18_linear_4387_2402" x1="269.033" y1="383.538" x2="450.77" y2="383.538" gradientUnits="userSpaceOnUse">
<stop stop-color="#177F25"/>
<stop offset="1" stop-color="#19A638" stop-opacity="0"/>
</linearGradient>
<linearGradient id="paint19_linear_4387_2402" x1="249.845" y1="429.653" x2="431.581" y2="429.653" gradientUnits="userSpaceOnUse">
<stop stop-color="#177F25"/>
<stop offset="1" stop-color="#19A638" stop-opacity="0"/>
</linearGradient>
<linearGradient id="paint20_linear_4387_2402" x1="755.809" y1="705.281" x2="1053.72" y2="705.281" gradientUnits="userSpaceOnUse">
<stop stop-color="#177F25"/>
<stop offset="1" stop-color="#19A638" stop-opacity="0"/>
</linearGradient>
<linearGradient id="paint21_linear_4387_2402" x1="25.7793" y1="636.272" x2="361.233" y2="636.272" gradientUnits="userSpaceOnUse">
<stop stop-color="#177F25"/>
<stop offset="1" stop-color="#19A638" stop-opacity="0"/>
</linearGradient>
<linearGradient id="paint22_linear_4387_2402" x1="645.647" y1="613.648" x2="923.176" y2="613.648" gradientUnits="userSpaceOnUse">
<stop stop-color="#177F25"/>
<stop offset="1" stop-color="#19A638" stop-opacity="0"/>
</linearGradient>
<linearGradient id="paint23_linear_4387_2402" x1="500.611" y1="343.99" x2="646.845" y2="343.99" gradientUnits="userSpaceOnUse">
<stop stop-color="#177F25"/>
<stop offset="1" stop-color="#19A638" stop-opacity="0"/>
</linearGradient>
<radialGradient id="paint24_radial_4387_2402" cx="0" cy="0" r="1" gradientUnits="userSpaceOnUse" gradientTransform="translate(74.4948 726.153) rotate(90.02) scale(242.401 253.285)">
<stop stop-color="#F2E0F7"/>
<stop offset="0.09" stop-color="#18A437"/>
<stop offset="0.3" stop-color="#18A035" stop-opacity="0"/>
</radialGradient>
<radialGradient id="paint25_radial_4387_2402" cx="0" cy="0" r="1" gradientUnits="userSpaceOnUse" gradientTransform="translate(151.895 572.695) rotate(90.0189) scale(140.644 138.742)">
<stop stop-color="#F2E0F7"/>
<stop offset="0.09" stop-color="#18A437"/>
<stop offset="0.3" stop-color="#18A035" stop-opacity="0"/>
</radialGradient>
<radialGradient id="paint26_radial_4387_2402" cx="0" cy="0" r="1" gradientUnits="userSpaceOnUse" gradientTransform="translate(44.5936 470.906) rotate(90.0212) scale(43.1192 47.7502)">
<stop stop-color="#F2E0F7"/>
<stop offset="0.09" stop-color="#18A437"/>
<stop offset="0.3" stop-color="#18A035" stop-opacity="0"/>
</radialGradient>
<radialGradient id="paint27_radial_4387_2402" cx="0" cy="0" r="1" gradientUnits="userSpaceOnUse" gradientTransform="translate(1503.84 190.581) rotate(148.703) scale(808.879 82.4092)">
<stop stop-color="#177F25"/>
<stop offset="1" stop-color="#19A638" stop-opacity="0"/>
</radialGradient>
<radialGradient id="paint28_radial_4387_2402" cx="0" cy="0" r="1" gradientUnits="userSpaceOnUse" gradientTransform="translate(1311.87 354.725) rotate(90.0178) scale(142.535 132.453)">
<stop stop-color="#F2E0F7"/>
<stop offset="0.09" stop-color="#18A437"/>
<stop offset="0.3" stop-color="#18A035" stop-opacity="0"/>
</radialGradient>
<clipPath id="clip0_4387_2402">
<rect width="1600" height="1119" fill="white" transform="translate(0.881836 0.5)"/>
</clipPath>
</defs>
</svg>
