<svg width="1600" height="1074" viewBox="0 0 1600 1074" fill="none" xmlns="http://www.w3.org/2000/svg">
<g clip-path="url(#clip0_4383_3037)">
<path d="M-26.6797 984.254C-3.50986 1006.43 19.7198 1028.51 43.0094 1050.57" stroke="url(#paint0_linear_4383_3037)" stroke-width="0.29" stroke-miterlimit="10"/>
<path d="M-26.9795 751.914C82.4336 850.937 187.207 952.683 294.135 1050.96" stroke="url(#paint1_linear_4383_3037)" stroke-width="0.29" stroke-miterlimit="10"/>
<path d="M-26.8301 564.373C148.291 728.244 324.908 889.84 503.621 1049.91" stroke="url(#paint2_linear_4383_3037)" stroke-width="0.29" stroke-miterlimit="10"/>
<path d="M-26.8896 409.45C-10.3654 432.013 13.5827 446.976 34.5373 467.924C70.4595 500.841 106.382 524.782 142.304 557.699C324.909 728.273 507.513 883.885 683.652 1050" stroke="url(#paint3_linear_4383_3037)" stroke-width="0.29" stroke-miterlimit="10"/>
<path d="M60.4912 357.2C220.165 500.841 378.822 641.49 540.472 782.139C585.375 836.004 645.245 871.915 696.135 919.795C741.037 967.676 791.927 1006.58 839.524 1050.66" stroke="url(#paint4_linear_4383_3037)" stroke-width="0.29" stroke-miterlimit="10"/>
<path d="M154.188 328.173C259.081 420.013 360.861 512.782 471.621 605.55C474.615 608.543 477.608 614.528 480.602 617.52C651.232 764.154 809.889 904.803 974.472 1050.39" stroke="url(#paint5_linear_4383_3037)" stroke-width="0.29" stroke-miterlimit="10"/>
<path d="M235.612 302.317C244.084 309.29 253.064 315.275 262.045 327.245C274.019 339.215 285.993 345.2 297.967 354.178C300.961 357.17 303.954 363.155 306.948 366.148C372.805 420.013 432.676 473.879 495.539 530.737C525.475 554.677 552.416 581.61 585.345 605.55C588.338 608.542 591.332 614.528 594.326 617.52C615.28 632.483 633.241 647.445 651.202 662.408C758.969 761.161 863.742 847.945 971.509 946.698C1013.42 982.608 1052.33 1015.53 1093.73 1050.69" stroke="url(#paint6_linear_4383_3037)" stroke-width="0.29" stroke-miterlimit="10"/>
<path d="M307.995 280.023C525.474 464.901 732.027 650.438 956.541 838.967C959.534 841.959 962.528 847.945 965.521 850.937C1049.34 916.773 1121.18 982.608 1199.31 1050.87" stroke="url(#paint7_linear_4383_3037)" stroke-width="0.29" stroke-miterlimit="10"/>
<path d="M1155.46 932.483C1145.13 970.638 1130.16 1012.53 1119.51 1050.54" stroke="url(#paint8_linear_4383_3037)" stroke-width="0.29" stroke-miterlimit="10"/>
<path d="M1063.41 853.451L1048.74 887.625C1035.6 918.269 1022.43 948.912 1009.29 979.526C999.168 1003.08 989.08 1026.63 978.962 1050.18" stroke="url(#paint9_linear_4383_3037)" stroke-width="0.29" stroke-miterlimit="10"/>
<path d="M972.706 775.585C920.649 868.922 863.772 958.698 814.528 1050.78" stroke="url(#paint10_linear_4383_3037)" stroke-width="0.29" stroke-miterlimit="10"/>
<path d="M883.289 698.827C794.921 815.057 708.109 931.765 620.429 1050.78" stroke="url(#paint11_linear_4383_3037)" stroke-width="0.29" stroke-miterlimit="10"/>
<path d="M795.13 623.146C738.014 683.356 681.137 743.206 621.267 803.057C561.396 865.9 504.52 928.743 441.656 991.586C435.669 1000.56 429.682 1009.54 423.695 1015.53C414.714 1021.51 408.727 1027.5 402.74 1036.47C396.753 1039.47 390.766 1045.45 387.593 1050.6" stroke="url(#paint12_linear_4383_3037)" stroke-width="0.29" stroke-miterlimit="10"/>
<path d="M708.259 548.572C675.15 578.617 642.222 605.55 609.293 635.475C435.669 779.116 274.019 910.788 104.915 1050.69" stroke="url(#paint13_linear_4383_3037)" stroke-width="0.29" stroke-miterlimit="10"/>
<path d="M622.584 475.016C528.468 539.714 438.662 596.572 339.876 662.408C211.155 746.199 97.401 821.012 -26.5605 901.63" stroke="url(#paint14_linear_4383_3037)" stroke-width="0.29" stroke-miterlimit="10"/>
<path d="M538.137 402.507C351.85 503.804 160.265 596.572 -26.1113 695.176" stroke="url(#paint15_linear_4383_3037)" stroke-width="0.29" stroke-miterlimit="10"/>
<path d="M454.827 331.016C396.753 354.178 339.876 378.118 282.999 399.066L202.174 434.976C124.343 461.909 52.4986 497.819 -26.6201 525.949" stroke="url(#paint16_linear_4383_3037)" stroke-width="0.29" stroke-miterlimit="10"/>
<path d="M-26.5605 384.163C1.60845 378.148 31.5436 366.178 58.4853 357.2C118.356 339.245 178.226 324.282 238.096 300.342C247.077 297.35 259.051 297.35 268.032 294.357C303.954 279.394 339.876 273.409 375.798 261.439C462.61 336.252 546.429 411.066 639.228 485.879C660.182 506.826 681.137 524.782 705.085 545.729C741.007 575.655 776.93 605.58 812.852 638.498C839.793 665.43 869.729 686.378 899.664 710.318C944.567 749.221 986.476 788.124 1031.38 827.027C1070.29 859.945 1112.2 889.87 1151.12 925.78C1169.08 943.735 1187.04 961.69 1208 979.646C1222.96 988.623 1234.94 997.601 1246.91 1009.57C1255.89 1021.54 1246.91 1036.5 1242.39 1049.19" stroke="url(#paint17_linear_4383_3037)" stroke-width="0.29" stroke-miterlimit="10"/>
<path opacity="0.4" d="M376.277 638.318L268.151 542.557L350.832 500.931L449.888 588.522L376.277 638.318Z" fill="url(#paint18_linear_4383_3037)"/>
<path opacity="0.4" d="M357.089 684.433L248.963 588.672L331.674 547.046L430.699 634.637L357.089 684.433Z" fill="url(#paint19_linear_4383_3037)"/>
<path opacity="0.15" d="M754.927 801.62L861.825 895.705L809.528 965.7L887.51 1035.7L1052.84 1032.04V970.279L808.331 747.007L754.927 801.62Z" fill="url(#paint20_linear_4383_3037)"/>
<path opacity="0.26" d="M193.941 684.433L24.8975 787.645L211.394 960.254L360.351 836.722L193.941 684.433Z" fill="url(#paint21_linear_4383_3037)"/>
<path opacity="0.06" d="M766.153 664.353L644.766 787.645L812.492 935.087L922.295 799.705L766.153 664.353Z" fill="url(#paint22_linear_4383_3037)"/>
<path opacity="0.1" d="M555.499 469.51L499.729 508.233L594.235 590.647L645.963 547.764L555.499 469.51Z" fill="url(#paint23_linear_4383_3037)"/>
<path style="mix-blend-mode:color-dodge" opacity="0.8" d="M341.554 1073.97C380.38 1031.45 403.969 975.815 403.969 914.917C403.969 781.271 290.754 672.942 151.076 672.942C74.7415 672.942 6.36959 705.351 -40 756.523V1073.31C-39.7905 1073.55 -39.5809 1073.76 -39.3714 1074H341.554V1073.97Z" fill="url(#paint24_radial_4383_3037)"/>
<path style="mix-blend-mode:color-dodge" opacity="0.8" d="M210.376 852.643C143.201 852.643 88.7793 800.543 88.7793 736.293C88.7793 672.044 143.231 619.944 210.376 619.944C277.551 619.944 331.973 672.044 331.973 736.293C331.973 800.543 277.521 852.643 210.376 852.643Z" fill="url(#paint25_radial_4383_3037)"/>
<path style="mix-blend-mode:color-dodge" opacity="0.8" d="M64.1423 685.78C41.0324 685.78 22.293 669.799 22.293 650.109C22.293 630.418 41.0324 614.438 64.1423 614.438C87.2523 614.438 105.992 630.418 105.992 650.109C105.992 669.829 87.2523 685.78 64.1423 685.78Z" fill="url(#paint26_radial_4383_3037)"/>
<path style="mix-blend-mode:screen" opacity="0.53" d="M1539.25 -8.56408C1061.09 288.575 700.508 565.773 729.148 615.311C758.315 665.757 1180.6 460.638 1672.33 157.162C1736.74 117.395 1799.17 77.9226 1858.95 39.2375L1539.25 -8.56408Z" fill="url(#paint27_radial_4383_3037)"/>
<g opacity="0.61">
<path d="M1459.29 194.158C1507.12 150.886 1511.34 76.3425 1468.66 27.684C1426 -20.9744 1352.6 -25.3435 1304.76 17.9284C1256.93 61.2003 1252.7 135.744 1295.39 184.403C1338.05 233.061 1411.45 237.43 1459.29 194.158Z" fill="url(#paint28_radial_4383_3037)" style="mix-blend-mode:color-dodge"/>
</g>
</g>
<defs>
<linearGradient id="paint0_linear_4383_3037" x1="-26.6797" y1="1017.42" x2="43.0094" y2="1017.42" gradientUnits="userSpaceOnUse">
<stop stop-color="#177F25"/>
<stop offset="1" stop-color="#19A638" stop-opacity="0"/>
</linearGradient>
<linearGradient id="paint1_linear_4383_3037" x1="-26.9795" y1="901.468" x2="294.135" y2="901.468" gradientUnits="userSpaceOnUse">
<stop stop-color="#177F25"/>
<stop offset="1" stop-color="#19A638" stop-opacity="0"/>
</linearGradient>
<linearGradient id="paint2_linear_4383_3037" x1="-26.8301" y1="807.194" x2="503.621" y2="807.194" gradientUnits="userSpaceOnUse">
<stop stop-color="#177F25"/>
<stop offset="1" stop-color="#19A638" stop-opacity="0"/>
</linearGradient>
<linearGradient id="paint3_linear_4383_3037" x1="-26.8896" y1="729.795" x2="683.652" y2="729.795" gradientUnits="userSpaceOnUse">
<stop stop-color="#177F25"/>
<stop offset="1" stop-color="#19A638" stop-opacity="0"/>
</linearGradient>
<linearGradient id="paint4_linear_4383_3037" x1="60.4912" y1="704.005" x2="839.524" y2="704.005" gradientUnits="userSpaceOnUse">
<stop stop-color="#177F25"/>
<stop offset="1" stop-color="#19A638" stop-opacity="0"/>
</linearGradient>
<linearGradient id="paint5_linear_4383_3037" x1="154.188" y1="689.36" x2="974.472" y2="689.36" gradientUnits="userSpaceOnUse">
<stop stop-color="#177F25"/>
<stop offset="1" stop-color="#19A638" stop-opacity="0"/>
</linearGradient>
<linearGradient id="paint6_linear_4383_3037" x1="235.612" y1="676.584" x2="1093.73" y2="676.584" gradientUnits="userSpaceOnUse">
<stop stop-color="#177F25"/>
<stop offset="1" stop-color="#19A638" stop-opacity="0"/>
</linearGradient>
<linearGradient id="paint7_linear_4383_3037" x1="307.995" y1="665.529" x2="1199.32" y2="665.529" gradientUnits="userSpaceOnUse">
<stop stop-color="#177F25"/>
<stop offset="1" stop-color="#19A638" stop-opacity="0"/>
</linearGradient>
<linearGradient id="paint8_linear_4383_3037" x1="1119.51" y1="991.524" x2="1155.46" y2="991.524" gradientUnits="userSpaceOnUse">
<stop stop-color="#177F25"/>
<stop offset="1" stop-color="#19A638" stop-opacity="0"/>
</linearGradient>
<linearGradient id="paint9_linear_4383_3037" x1="978.962" y1="951.836" x2="1063.41" y2="951.836" gradientUnits="userSpaceOnUse">
<stop stop-color="#177F25"/>
<stop offset="1" stop-color="#19A638" stop-opacity="0"/>
</linearGradient>
<linearGradient id="paint10_linear_4383_3037" x1="814.528" y1="913.212" x2="972.706" y2="913.212" gradientUnits="userSpaceOnUse">
<stop stop-color="#177F25"/>
<stop offset="1" stop-color="#19A638" stop-opacity="0"/>
</linearGradient>
<linearGradient id="paint11_linear_4383_3037" x1="620.429" y1="874.841" x2="883.289" y2="874.841" gradientUnits="userSpaceOnUse">
<stop stop-color="#177F25"/>
<stop offset="1" stop-color="#19A638" stop-opacity="0"/>
</linearGradient>
<linearGradient id="paint12_linear_4383_3037" x1="387.593" y1="836.919" x2="795.13" y2="836.919" gradientUnits="userSpaceOnUse">
<stop stop-color="#177F25"/>
<stop offset="1" stop-color="#19A638" stop-opacity="0"/>
</linearGradient>
<linearGradient id="paint13_linear_4383_3037" x1="104.915" y1="799.685" x2="708.259" y2="799.685" gradientUnits="userSpaceOnUse">
<stop stop-color="#177F25"/>
<stop offset="1" stop-color="#19A638" stop-opacity="0"/>
</linearGradient>
<linearGradient id="paint14_linear_4383_3037" x1="-26.5605" y1="688.37" x2="622.584" y2="688.37" gradientUnits="userSpaceOnUse">
<stop stop-color="#177F25"/>
<stop offset="1" stop-color="#19A638" stop-opacity="0"/>
</linearGradient>
<linearGradient id="paint15_linear_4383_3037" x1="-26.1113" y1="548.873" x2="538.137" y2="548.873" gradientUnits="userSpaceOnUse">
<stop stop-color="#177F25"/>
<stop offset="1" stop-color="#19A638" stop-opacity="0"/>
</linearGradient>
<linearGradient id="paint16_linear_4383_3037" x1="-26.6201" y1="428.503" x2="454.827" y2="428.503" gradientUnits="userSpaceOnUse">
<stop stop-color="#177F25"/>
<stop offset="1" stop-color="#19A638" stop-opacity="0"/>
</linearGradient>
<linearGradient id="paint17_linear_4383_3037" x1="-26.5605" y1="655.401" x2="1250.75" y2="655.401" gradientUnits="userSpaceOnUse">
<stop stop-color="#177F25"/>
<stop offset="1" stop-color="#19A638" stop-opacity="0"/>
</linearGradient>
<linearGradient id="paint18_linear_4383_3037" x1="268.151" y1="569.64" x2="449.888" y2="569.64" gradientUnits="userSpaceOnUse">
<stop stop-color="#177F25"/>
<stop offset="1" stop-color="#19A638" stop-opacity="0"/>
</linearGradient>
<linearGradient id="paint19_linear_4383_3037" x1="248.963" y1="615.754" x2="430.699" y2="615.754" gradientUnits="userSpaceOnUse">
<stop stop-color="#177F25"/>
<stop offset="1" stop-color="#19A638" stop-opacity="0"/>
</linearGradient>
<linearGradient id="paint20_linear_4383_3037" x1="754.927" y1="891.383" x2="1052.84" y2="891.383" gradientUnits="userSpaceOnUse">
<stop stop-color="#177F25"/>
<stop offset="1" stop-color="#19A638" stop-opacity="0"/>
</linearGradient>
<linearGradient id="paint21_linear_4383_3037" x1="24.8975" y1="822.373" x2="360.351" y2="822.373" gradientUnits="userSpaceOnUse">
<stop stop-color="#177F25"/>
<stop offset="1" stop-color="#19A638" stop-opacity="0"/>
</linearGradient>
<linearGradient id="paint22_linear_4383_3037" x1="644.766" y1="799.749" x2="922.295" y2="799.749" gradientUnits="userSpaceOnUse">
<stop stop-color="#177F25"/>
<stop offset="1" stop-color="#19A638" stop-opacity="0"/>
</linearGradient>
<linearGradient id="paint23_linear_4383_3037" x1="499.729" y1="530.092" x2="645.963" y2="530.092" gradientUnits="userSpaceOnUse">
<stop stop-color="#177F25"/>
<stop offset="1" stop-color="#19A638" stop-opacity="0"/>
</linearGradient>
<radialGradient id="paint24_radial_4383_3037" cx="0" cy="0" r="1" gradientUnits="userSpaceOnUse" gradientTransform="translate(73.6129 912.255) rotate(90.02) scale(242.401 253.285)">
<stop stop-color="#F2E0F7"/>
<stop offset="0.09" stop-color="#18A437"/>
<stop offset="0.3" stop-color="#18A035" stop-opacity="0"/>
</radialGradient>
<radialGradient id="paint25_radial_4383_3037" cx="0" cy="0" r="1" gradientUnits="userSpaceOnUse" gradientTransform="translate(151.013 758.796) rotate(90.0189) scale(140.644 138.742)">
<stop stop-color="#F2E0F7"/>
<stop offset="0.09" stop-color="#18A437"/>
<stop offset="0.3" stop-color="#18A035" stop-opacity="0"/>
</radialGradient>
<radialGradient id="paint26_radial_4383_3037" cx="0" cy="0" r="1" gradientUnits="userSpaceOnUse" gradientTransform="translate(43.7117 657.008) rotate(90.0212) scale(43.1192 47.7502)">
<stop stop-color="#F2E0F7"/>
<stop offset="0.09" stop-color="#18A437"/>
<stop offset="0.3" stop-color="#18A035" stop-opacity="0"/>
</radialGradient>
<radialGradient id="paint27_radial_4383_3037" cx="0" cy="0" r="1" gradientUnits="userSpaceOnUse" gradientTransform="translate(1400.98 28.1675) rotate(148.314) scale(1046.26 106.85)">
<stop stop-color="#177F25"/>
<stop offset="1" stop-color="#19A638" stop-opacity="0"/>
</radialGradient>
<radialGradient id="paint28_radial_4383_3037" cx="0" cy="0" r="1" gradientUnits="userSpaceOnUse" gradientTransform="translate(1325.35 128.849) rotate(90.0178) scale(142.535 132.453)">
<stop stop-color="#F2E0F7"/>
<stop offset="0.09" stop-color="#18A437"/>
<stop offset="0.3" stop-color="#18A035" stop-opacity="0"/>
</radialGradient>
<clipPath id="clip0_4383_3037">
<rect width="1600" height="1074" fill="white"/>
</clipPath>
</defs>
</svg>
