<svg xmlns="http://www.w3.org/2000/svg" width="92.224" height="68.775" viewBox="0 0 92.224 68.775"><defs><style>.a{fill:#151f2f;stroke:#fff;stroke-width:0.7px;}.b{fill:#fff;stroke:#44ce42;}.b,.c{stroke-width:2px;}.c,.e{fill:none;}.c{stroke:#151f2f;stroke-linecap:round;}.d{stroke:none;}</style></defs><g transform="translate(0.351 -0.15)"><path class="a" d="M6.08,24.042H63.61V34.02h2.339V24.042H69.69V14.219H65.341L51.621.5H40.83l13.72,13.72H15.3L29.015.5H18.224L4.5,14.219H0v9.822H3.741v27.44H56.126V49.142H6.08Zm40.4-21.2h4.176L62.034,14.219H57.858Zm-27.284,0h4.176L11.988,14.219H7.812ZM2.338,21.7V16.558H67.351V21.7Zm0,0"/><path class="a" d="M103.422,188.464v-19.8H96.094v19.8ZM98.433,171h2.65v15.123h-2.65Zm0,0" transform="translate(-81.127 -141.972)"/><path class="a" d="M207.523,188.464v-19.8H200.2v19.8ZM202.534,171h2.65v15.123h-2.65Zm0,0" transform="translate(-169.014 -141.972)"/><path class="a" d="M311.625,188.464v-19.8H304.3v19.8ZM306.636,171h2.65v15.123h-2.65Zm0,0" transform="translate(-256.902 -141.972)"/><path class="a" d="M184.18,112.609h2.495v2.339H184.18Zm0,0" transform="translate(-155.493 -94.648)"/><path class="a" d="M216.211,112.609h2.495v2.339h-2.495Zm0,0" transform="translate(-182.535 -94.648)"/><path class="a" d="M248.242,112.609h2.495v2.339h-2.495Zm0,0" transform="translate(-209.577 -94.648)"/><g class="b" transform="translate(72.588 30.354) rotate(45)"><circle class="d" cx="13.637" cy="13.637" r="13.637"/><circle class="e" cx="13.637" cy="13.637" r="12.637"/></g><g transform="translate(72.588 43.402) rotate(45)"><line class="c" y1="8.975" x2="8.975" transform="translate(0 0)"/><line class="c" x1="8.975" y1="8.975"/></g></g></svg>