<svg xmlns="http://www.w3.org/2000/svg" width="24" height="24" viewBox="0 0 24 24"><defs><style>.a,.d{fill:none;}.a{stroke:#43bbff;}.b{fill:#43bbff;}.c{stroke:none;}</style></defs><g transform="translate(-0.233 -0.175)"><g class="a" transform="translate(0.233 0.175)"><circle class="c" cx="12" cy="12" r="12"/><circle class="d" cx="12" cy="12" r="11.5"/></g><g transform="translate(5.825 7.388)"><g transform="translate(0 0)"><path class="b" d="M12.468,66.354a.507.507,0,0,0,.507-.507v-3.32A2.03,2.03,0,0,0,10.947,60.5H2.027A2.03,2.03,0,0,0,0,62.527v5.854a2.03,2.03,0,0,0,2.027,2.027h8.92a2.03,2.03,0,0,0,2.027-2.027.507.507,0,0,0-1.014,0,1.015,1.015,0,0,1-1.014,1.014H2.027a1.015,1.015,0,0,1-1.014-1.014V62.635l4.4,2.738a2.015,2.015,0,0,0,2.141,0l4.4-2.738v3.212A.507.507,0,0,0,12.468,66.354ZM7.022,64.512a1.007,1.007,0,0,1-1.07,0L1.437,61.7a1.008,1.008,0,0,1,.591-.19h8.92a1.008,1.008,0,0,1,.591.19Z" transform="translate(0 -60.5)"/></g></g></g></svg>