<svg xmlns="http://www.w3.org/2000/svg" width="24" height="24" viewBox="0 0 24 24"><defs><style>.a,.d{fill:none;}.a{stroke:#43bbff;}.b{fill:#43bbff;}.c{stroke:none;}</style></defs><g transform="translate(-0.233 -0.292)"><g class="a" transform="translate(0.233 0.292)"><circle class="c" cx="12" cy="12" r="12"/><circle class="d" cx="12" cy="12" r="11.5"/></g><g transform="translate(6.408 6.408)"><path class="b" d="M12.069,9.727A1.785,1.785,0,0,0,11.521,8.5,4.385,4.385,0,0,0,9.785,7.347a1.943,1.943,0,0,0-2,.566l0,0-.637.633A9.553,9.553,0,0,1,5.14,6.994l-.062-.062a9.554,9.554,0,0,1-1.554-2.01l.633-.637,0,0a1.943,1.943,0,0,0,.566-2A4.385,4.385,0,0,0,3.571.55a1.794,1.794,0,0,0-2.49-.09L1.068.473,1.049.49A3.825,3.825,0,0,0,0,3.292,8.953,8.953,0,0,0,2.85,9.222a11.491,11.491,0,0,0,1.13.984.471.471,0,0,0,.574-.748,10.557,10.557,0,0,1-1.037-.9A8.007,8.007,0,0,1,.943,3.287a2.913,2.913,0,0,1,.765-2.122l0,0A.848.848,0,0,1,2.893,1.2c1.221,1.266,1.132,1.863.593,2.417L2.611,4.5a.472.472,0,0,0-.1.524A9.527,9.527,0,0,0,4.411,7.6l.062.062a9.525,9.525,0,0,0,2.573,1.9.471.471,0,0,0,.524-.1l.881-.874C9,8.047,9.6,7.958,10.867,9.179a.848.848,0,0,1,.043,1.181l0,0a2.9,2.9,0,0,1-2.1.765H8.784a6.113,6.113,0,0,1-2.326-.551.471.471,0,0,0-.373.866,6.955,6.955,0,0,0,2.7.628h.026a3.817,3.817,0,0,0,2.776-1.049L11.6,11l.012-.014A1.785,1.785,0,0,0,12.069,9.727Z" transform="translate(0 -0.002)"/></g></g></svg>