<?xml version="1.0" encoding="utf-8"?>
<!-- Generator: Adobe Illustrator 24.0.0, SVG Export Plug-In . SVG Version: 6.00 Build 0)  -->
<svg version="1.1" id="Layer_1" xmlns="http://www.w3.org/2000/svg" xmlns:xlink="http://www.w3.org/1999/xlink" x="0px" y="0px"
	 viewBox="0 0 374.1 306.1" style="enable-background:new 0 0 374.1 306.1;" xml:space="preserve">
<style type="text/css">
	.st0{fill:#FFFFFF;}
	.st1{fill:#8A8888;}
	.st2{fill:#00A34B;}
	.st3{fill:#23211F;}
</style>
<path d="M293.7,233.4c-20,0-36.3,16.3-36.3,36.3c0,20.1,16.3,36.4,36.3,36.4c20.1,0,36.4-16.3,36.4-36.4
	C330,249.7,313.7,233.4,293.7,233.4z M293.7,291.2c-11.8,0-21.4-9.6-21.4-21.4c0-11.8,9.6-21.4,21.4-21.4c11.8,0,21.4,9.6,21.4,21.4
	C315.1,281.6,305.5,291.2,293.7,291.2z M145.9,233.4c-20.1,0-36.4,16.3-36.3,36.3c0,20.1,16.3,36.4,36.3,36.4
	c20.1,0,36.4-16.3,36.4-36.4C182.2,249.7,165.9,233.4,145.9,233.4z M145.8,291.2c-11.8,0-21.4-9.6-21.4-21.4
	c0-11.8,9.6-21.4,21.4-21.4c11.8,0,21.4,9.6,21.4,21.4C167.2,281.6,157.6,291.2,145.8,291.2z M370.7,30.7c-2.5-3.7-7.7-8.1-17.9-8.1
	c-11.2,0.2-129.5,0.1-207.7,0.1c-33.1,0-59.1-0.1-66.5-0.1c-1.3-4.5-2.1-7.4-2.3-8.2c-0.1-0.3-0.2-0.7-0.4-1C70.5,0.7,57.9,0,44.5,0
	H8.8C4.5,0,1,3.5,1,7.7c0,4.3,3.5,7.8,7.8,7.8h35.8c6.9,0,13.9,4.7,16.9,11.3c2.8,10.3,42.2,141.9,45.4,156.2
	c5.9,25.9,21.6,42.8,43.2,42.8h145.3c4.3,0,7.8-3.5,7.8-7.8c0-4.3-3.5-7.8-7.8-7.8H150c-15.2,0-22.6-13.2-26.1-23.9h167.8
	c17.6,0,22.7-6.3,27.5-14.6c0.5-0.9,1.1-1.8,1.6-2.7c5-7.8,41.3-91.7,49.5-109.2C375.3,47.3,375.4,37.5,370.7,30.7z M356.1,53.8
	c-7.7,16.2-43.8,99.7-48.4,106.9c-0.7,1.1-1.3,2.2-2,3.2c-3,5.1-4,6.9-14.1,6.9h-172c-6.9-25.9-26.4-95.5-36.8-132.6
	c40.8,0,254.5,0.2,270,0c2.5,0,4.4,0.5,5,1.3C358.8,40.8,359.3,45.4,356.1,53.8z"/>
<path class="st0" d="M356.1,53.8c-7.7,16.2-43.8,99.7-48.4,106.9c-0.7,1.1-1.3,2.2-2,3.2c-3,5.1-4,6.9-14.1,6.9h-172
	c-6.9-25.9-26.4-95.5-36.8-132.6c40.8,0,254.5,0.2,270,0c2.5,0,4.4,0.5,5,1.3C358.8,40.8,359.3,45.4,356.1,53.8z"/>
<g id="Layer_1_1_">
	<path class="st1" d="M257.6,129.8c0,0-64.5,25.9-85.6-29.1C172,100.7,168.2,205.1,257.6,129.8"/>
	<path class="st2" d="M167.9,136.5c0,0-12.8-68.3,45.3-78.2C212.9,58.3,111.4,34,167.9,136.5"/>
	<path class="st3" d="M204,50.3c0,0,65.5,23.6,44.7,78.5C248.7,128.8,320.8,53.2,204,50.3"/>
</g>
</svg>
