<svg xmlns="http://www.w3.org/2000/svg" xmlns:xlink="http://www.w3.org/1999/xlink" width="151.348" height="22.475" viewBox="0 0 151.348 22.475"><defs><style>.a{fill:url(#a);}.b{fill:url(#f);}</style><linearGradient id="a" x1="0.5" x2="0.5" y2="1" gradientUnits="objectBoundingBox"><stop offset="0" stop-color="#48d5fe"/><stop offset="1" stop-color="#0074ef"/></linearGradient><linearGradient id="f" x1="0.5" x2="0.5" y2="1" gradientUnits="objectBoundingBox"><stop offset="0" stop-color="#0174f0"/><stop offset="1" stop-color="#1920e6"/></linearGradient></defs><g transform="translate(-340 -6098)"><g transform="translate(340 6098.52)"><g transform="translate(0 0)"><path class="a" d="M0,21.706V.4H18.188V5.6H6.626V8.065h9.354v5.2H6.626V15.99H18.707v5.456H0Z" transform="translate(0 -0.4)"/></g><g transform="translate(17.928)"><path class="a" d="M21.335,21.706,13.8.4h7.535l3.638,14.29L28.74.4h7.405L28.22,21.706Z" transform="translate(-13.8 -0.4)"/></g><g transform="translate(40.273 7.795)"><path class="a" d="M31,19.911V6.4h5.586V19.911Z" transform="translate(-31 -6.4)"/></g><g transform="translate(40.403 0)"><path class="a" d="M36.556,3.128a2.728,2.728,0,1,1-5.456,0A2.744,2.744,0,0,1,33.828.4,2.834,2.834,0,0,1,36.556,3.128Z" transform="translate(-31.1 -0.4)"/></g><g transform="translate(46.509 0)"><path class="a" d="M35.93.4H46.843c3.508,0,6.236.909,8.055,2.728s2.728,4.417,2.728,7.925-.909,6.106-2.728,7.925-4.547,2.728-8.184,2.728H35.8V.4Zm6.626,5.326V16.119H45.8c1.689,0,2.988-.39,3.638-1.169.779-.779,1.169-2.079,1.169-4.027a5.377,5.377,0,0,0-1.169-3.9A4.894,4.894,0,0,0,45.8,5.856H42.555Z" transform="translate(-35.8 -0.4)"/></g></g><path class="b" d="M52.8,15.33h8.055a1.564,1.564,0,0,0,.909,1.3,4.428,4.428,0,0,0,2.079.52,3.651,3.651,0,0,0,1.949-.39,1.364,1.364,0,0,0,.65-1.169,1.182,1.182,0,0,0-.52-1.039A4.878,4.878,0,0,0,64.1,13.9l-4.937-.779a7.847,7.847,0,0,1-4.677-2.079A5.793,5.793,0,0,1,52.93,6.755c0-2.338.779-4.157,2.338-5.2S59.426,0,62.8,0c3.508,0,6.236.52,7.925,1.689a6.194,6.194,0,0,1,2.858,5.067H65.921A2.409,2.409,0,0,0,65.012,5.2a3.906,3.906,0,0,0-2.338-.52,2.948,2.948,0,0,0-1.689.39,1.325,1.325,0,0,0-.65,1.039.981.981,0,0,0,.52.909,7.827,7.827,0,0,0,2.079.65L68.649,8.7a7.843,7.843,0,0,1,4.287,2.079,6.2,6.2,0,0,1,1.429,4.157c0,2.6-.909,4.547-2.858,5.716-1.819,1.169-4.807,1.819-8.834,1.819a13.255,13.255,0,0,1-7.405-1.819A6.2,6.2,0,0,1,52.8,15.33Z" transform="translate(355.794 6098)"/><path class="b" d="M108.036,21.706V5.856H101.8V.4h19.1V5.856h-6.236V21.706Z" transform="translate(370.451 6098.12)"/><path class="b" d="M105.4,5.6V.4H87.6V21.706h7.275V13.781h8.574v-5.2H94.875V5.6Z" transform="translate(366.203 6098.12)"/><path class="b" d="M71.5,15.545A11.216,11.216,0,0,0,91.636,8.79V8.4A84.468,84.468,0,0,0,71.5,15.545Z" transform="translate(361.388 6100.513)"/><path class="b" d="M70.65,14.005A91.692,91.692,0,0,1,91.955,7.639c0-.39-.13-.65-.13-1.039A97.129,97.129,0,0,0,70,11.8,14.2,14.2,0,0,0,70.65,14.005Z" transform="translate(360.939 6099.974)"/><path class="b" d="M91.5,7.405A11.406,11.406,0,0,0,80.972,0,11.172,11.172,0,0,0,69.8,11.172v.26A101.492,101.492,0,0,1,91.5,7.405Z" transform="translate(360.879 6098)"/></g></svg>