<svg xmlns="http://www.w3.org/2000/svg" width="20.713" height="27.192" viewBox="0 0 20.713 27.192"><defs><style>.a{fill:#e9e9e9;}.b{fill:#abaeb2;}.c{fill:#fff;}</style></defs><g transform="translate(-61)"><g transform="translate(61)"><path class="a" d="M81.713,7.17,76.136,5.577,74.543,0H63.39A2.39,2.39,0,0,0,61,2.39V24.8a2.39,2.39,0,0,0,2.39,2.39H79.323a2.39,2.39,0,0,0,2.39-2.39Z" transform="translate(-61)"/><path class="a" d="M266.356,7.17V24.8a2.39,2.39,0,0,1-2.39,2.39H256V0h3.187l1.593,5.577Z" transform="translate(-245.644)"/><path class="b" d="M323.17,7.17h-5.577A1.6,1.6,0,0,1,316,5.577V0a.747.747,0,0,1,.558.239l6.373,6.373A.747.747,0,0,1,323.17,7.17Z" transform="translate(-302.457)"/><g transform="translate(4.78 11.206)"><path class="c" d="M161.356,212.593H151.8a.8.8,0,1,1,0-1.593h9.56a.8.8,0,0,1,0,1.593Z" transform="translate(-151 -211)"/></g><g transform="translate(4.78 14.393)"><path class="c" d="M161.356,272.593H151.8a.8.8,0,1,1,0-1.593h9.56a.8.8,0,0,1,0,1.593Z" transform="translate(-151 -271)"/></g><g transform="translate(4.78 17.579)"><path class="c" d="M161.356,332.593H151.8a.8.8,0,1,1,0-1.593h9.56a.8.8,0,0,1,0,1.593Z" transform="translate(-151 -331)"/></g><g transform="translate(4.78 20.766)"><path class="c" d="M158.17,392.593H151.8a.8.8,0,1,1,0-1.593h6.373a.8.8,0,1,1,0,1.593Z" transform="translate(-151 -391)"/></g></g><g transform="translate(71.356 11.206)"><g transform="translate(0 9.56)"><path class="c" d="M256,392.593h1.593a.8.8,0,1,0,0-1.593H256Z" transform="translate(-256 -391)"/></g><g transform="translate(0 6.373)"><path class="c" d="M256,332.593h4.78a.8.8,0,0,0,0-1.593H256Z" transform="translate(-256 -331)"/></g><g transform="translate(0 3.187)"><path class="c" d="M256,272.593h4.78a.8.8,0,0,0,0-1.593H256Z" transform="translate(-256 -271)"/></g><path class="c" d="M256,212.593h4.78a.8.8,0,0,0,0-1.593H256Z" transform="translate(-256 -211)"/></g></g></svg>