<svg xmlns="http://www.w3.org/2000/svg" viewBox="0 0 355.56 242.92"><defs><style>.cls-1{fill:#8a8888;}.cls-2{fill:#00a34b;}.cls-3{fill:#23211f;}.cls-4{fill:#1d1d1b;}</style></defs><title>Logo</title><g id="Layer_2" data-name="Layer 2"><g id="Layer_1-2" data-name="Layer 1"><path class="cls-1" d="M236.77,97s-78.93,31.58-104.65-35.5c0,0-4.47,127.74,104.65,35.5"/><path class="cls-2" d="M126.88,105.31S111.36,21.73,182.19,9.64c0,0-124.4-29.4-55.31,95.67"/><path class="cls-3" d="M171.28,0s80,28.76,54.71,96c0,0,88.12-92.58-54.71-96"/><path class="cls-3" d="M263.85,167.35v30.09l-30.66-30.09H224v34.42h-9.26l-22.35-34.42H184.8l-22.22,34.33h-9.31V167.35H142.74l-20.23,31.46L102.2,167.35H91.68v34.24H35.2L25.46,193c10-1.23,15.48-5.58,15.48-12.37,0-9.05-8.16-13.27-25.71-13.27H0v40.06H7.81V172.86h7c16,0,18.21,3.65,18.21,7.6,0,5.19-3.06,7.65-20.46,7.65H9.88l21.64,19.29h68V176.11l19.88,31.31h6.1l19.92-31.32v31.32h22l8.38-12.8h25.56l8.3,12.8h22.16v-32l32.68,32h7.2V167.35ZM179.26,189.1l9.34-14.47,9.14,14.47Z"/><rect class="cls-3" x="49.35" y="167.39" width="34.22" height="6.24"/><rect class="cls-3" x="49.35" y="183.74" width="34.22" height="6.24"/><rect class="cls-2" x="321.34" y="184.59" width="34.22" height="6.24"/><rect class="cls-2" x="321.26" y="201.13" width="34.22" height="6.24"/><polygon class="cls-2" points="355.46 167.41 278.09 167.41 278.09 173.28 291.04 173.28 291.04 207.43 298.51 207.43 298.51 173.29 355.45 173.29 355.46 167.41"/><path class="cls-4" d="M2.09,218.87a24.93,24.93,0,0,1,4.6-.39c2.56,0,4.21.47,5.37,1.52a4.62,4.62,0,0,1,1.46,3.52,4.87,4.87,0,0,1-3.5,4.73v.08c1.43.5,2.28,1.82,2.73,3.74a29.47,29.47,0,0,0,1.43,5.09H11.7a24,24,0,0,1-1.24-4.43c-.55-2.56-1.54-3.52-3.72-3.61H4.49v8H2.09Zm2.4,8.45H6.94c2.56,0,4.18-1.4,4.18-3.52,0-2.4-1.74-3.44-4.27-3.47a9.8,9.8,0,0,0-2.37.22Z"/><path class="cls-4" d="M18.28,230.95c.05,3.28,2.15,4.63,4.57,4.63a8.75,8.75,0,0,0,3.69-.69l.41,1.73a10.78,10.78,0,0,1-4.43.83c-4.1,0-6.55-2.7-6.55-6.72s2.37-7.18,6.25-7.18c4.35,0,5.51,3.83,5.51,6.28a9.25,9.25,0,0,1-.08,1.13Zm7.1-1.73c0-1.54-.63-3.94-3.36-3.94-2.45,0-3.52,2.26-3.72,3.94Z"/><path class="cls-4" d="M30.72,227.45c0-1.38,0-2.5-.11-3.6h2.12l.11,2.15h.08a4.59,4.59,0,0,1,4.18-2.45,3.94,3.94,0,0,1,3.77,2.67h.05a5.5,5.5,0,0,1,1.49-1.73,4.55,4.55,0,0,1,2.95-.93c1.76,0,4.38,1.16,4.38,5.78v7.85H47.38v-7.54c0-2.56-.94-4.1-2.89-4.1a3.14,3.14,0,0,0-2.86,2.2,4,4,0,0,0-.19,1.21v8.23H39.06v-8c0-2.12-.94-3.66-2.78-3.66a3.61,3.61,0,0,0-3.19,3.61v8H30.72Z"/><path class="cls-4" d="M61.06,237.17l-.19-1.68h-.08a5,5,0,0,1-4.07,2,3.8,3.8,0,0,1-4.07-3.83c0-3.22,2.86-5,8-5v-.28a2.75,2.75,0,0,0-3-3.08,6.64,6.64,0,0,0-3.47,1l-.55-1.6A8.28,8.28,0,0,1,58,223.55c4.07,0,5.07,2.78,5.07,5.45v5a18.77,18.77,0,0,0,.22,3.19Zm-.36-6.8c-2.64-.05-5.64.41-5.64,3a2.14,2.14,0,0,0,2.29,2.31,3.31,3.31,0,0,0,3.22-2.23,2.53,2.53,0,0,0,.14-.77Z"/><path class="cls-4" d="M67,227.45c0-1.38,0-2.5-.11-3.6H69l.14,2.2h.05a4.9,4.9,0,0,1,4.4-2.51c1.84,0,4.71,1.1,4.71,5.67v8H75.87v-7.68c0-2.15-.8-3.93-3.08-3.93A3.44,3.44,0,0,0,69.54,228a3.52,3.52,0,0,0-.16,1.13v8H67Z"/><path class="cls-4" d="M93.38,233.54c0,1.38,0,2.59.11,3.63H91.34L91.21,235h-.05a5,5,0,0,1-4.4,2.48c-2.09,0-4.6-1.16-4.6-5.84v-7.79h2.42v7.38c0,2.53.77,4.24,3,4.24a3.5,3.5,0,0,0,3.19-2.2A3.54,3.54,0,0,0,91,232v-8.17h2.42Z"/><path class="cls-4" d="M97.65,237.17V225.69H95.78v-1.84h1.87v-.63a6.28,6.28,0,0,1,1.54-4.65,4.63,4.63,0,0,1,3.25-1.24,5.6,5.6,0,0,1,2.06.38l-.33,1.87a3.63,3.63,0,0,0-1.54-.3c-2.06,0-2.59,1.82-2.59,3.85v.72h3.22v1.84H100v11.48Z"/><path class="cls-4" d="M112.82,237.17l-.19-1.68h-.08a5,5,0,0,1-4.07,2,3.8,3.8,0,0,1-4.07-3.83c0-3.22,2.86-5,8-5v-.28a2.75,2.75,0,0,0-3-3.08,6.64,6.64,0,0,0-3.47,1l-.55-1.6a8.28,8.28,0,0,1,4.38-1.18c4.07,0,5.07,2.78,5.07,5.45v5a18.77,18.77,0,0,0,.22,3.19Zm-.36-6.8c-2.64-.05-5.64.41-5.64,3a2.14,2.14,0,0,0,2.29,2.31,3.31,3.31,0,0,0,3.22-2.23,2.53,2.53,0,0,0,.14-.77Z"/><path class="cls-4" d="M128.2,236.67a8.91,8.91,0,0,1-3.83.77c-4,0-6.63-2.73-6.63-6.8a6.77,6.77,0,0,1,7.16-7.08,8.11,8.11,0,0,1,3.36.69l-.55,1.87a5.61,5.61,0,0,0-2.81-.63c-3.05,0-4.71,2.26-4.71,5,0,3.08,2,5,4.62,5a6.9,6.9,0,0,0,3-.66Z"/><path class="cls-4" d="M134.32,220v3.83h3.47v1.84h-3.47v7.18c0,1.65.47,2.59,1.82,2.59a5.44,5.44,0,0,0,1.4-.16l.11,1.82a5.92,5.92,0,0,1-2.15.33,3.36,3.36,0,0,1-2.62-1,4.94,4.94,0,0,1-.94-3.47v-7.27h-2.07v-1.84h2.07v-3.19Z"/><path class="cls-4" d="M151.66,233.54c0,1.38,0,2.59.11,3.63h-2.15l-.14-2.17h-.05a5,5,0,0,1-4.4,2.48c-2.09,0-4.6-1.16-4.6-5.84v-7.79h2.42v7.38c0,2.53.77,4.24,3,4.24a3.5,3.5,0,0,0,3.19-2.2,3.54,3.54,0,0,0,.22-1.24v-8.17h2.42Z"/><path class="cls-4" d="M155.68,228c0-1.57,0-2.92-.11-4.16h2.12l.08,2.61h.11a4,4,0,0,1,3.69-2.92,2.61,2.61,0,0,1,.69.08v2.28a3.69,3.69,0,0,0-.82-.08,3.4,3.4,0,0,0-3.25,3.11,6.72,6.72,0,0,0-.11,1.13v7.1h-2.39Z"/><path class="cls-4" d="M167.46,220.1a1.5,1.5,0,0,1-3,0,1.48,1.48,0,0,1,1.51-1.51,1.44,1.44,0,0,1,1.49,1.51m-2.7,3.74h2.42v13.32h-2.42Z"/><path class="cls-4" d="M171.21,227.45c0-1.38,0-2.5-.11-3.6h2.15l.14,2.2h.05a4.9,4.9,0,0,1,4.4-2.51c1.84,0,4.71,1.1,4.71,5.67v8h-2.42v-7.68c0-2.15-.8-3.93-3.08-3.93a3.44,3.44,0,0,0-3.25,2.48,3.52,3.52,0,0,0-.16,1.13v8h-2.42Z"/><path class="cls-4" d="M198,223.85c-.06,1-.11,2-.11,3.66v7.74c0,3.05-.61,4.93-1.9,6.08a7.06,7.06,0,0,1-4.85,1.6,8.59,8.59,0,0,1-4.43-1.1l.6-1.84a7.51,7.51,0,0,0,3.91,1c2.48,0,4.29-1.29,4.29-4.65v-1.49h-.05a4.76,4.76,0,0,1-4.24,2.23c-3.3,0-5.67-2.81-5.67-6.5,0-4.52,2.95-7.08,6-7.08a4.43,4.43,0,0,1,4.16,2.31h.06l.11-2Zm-2.5,5.26a3.43,3.43,0,0,0-.14-1.1,3.49,3.49,0,0,0-3.39-2.56c-2.31,0-4,2-4,5,0,2.61,1.32,4.79,3.94,4.79a3.54,3.54,0,0,0,3.36-2.48,4.23,4.23,0,0,0,.19-1.29Z"/><polygon class="cls-4" points="210.22 220.65 204.57 220.65 204.57 218.62 218.31 218.62 218.31 220.65 212.64 220.65 212.64 237.17 210.22 237.17 210.22 220.65"/><path class="cls-4" d="M219.69,230.95c.05,3.28,2.15,4.63,4.57,4.63a8.75,8.75,0,0,0,3.69-.69l.41,1.73a10.78,10.78,0,0,1-4.43.83c-4.1,0-6.55-2.7-6.55-6.72s2.37-7.18,6.25-7.18c4.35,0,5.51,3.83,5.51,6.28a9.26,9.26,0,0,1-.08,1.13Zm7.1-1.73c0-1.54-.63-3.94-3.36-3.94-2.45,0-3.52,2.26-3.72,3.94Z"/><path class="cls-4" d="M241.63,236.67a8.91,8.91,0,0,1-3.83.77c-4,0-6.63-2.73-6.63-6.8a6.77,6.77,0,0,1,7.16-7.08,8.11,8.11,0,0,1,3.36.69l-.55,1.87a5.61,5.61,0,0,0-2.81-.63c-3.05,0-4.71,2.26-4.71,5,0,3.08,2,5,4.62,5a6.9,6.9,0,0,0,3-.66Z"/><path class="cls-4" d="M244.46,217.63h2.42v8.31h.06a4.5,4.5,0,0,1,1.73-1.71,5,5,0,0,1,2.48-.69c1.79,0,4.65,1.1,4.65,5.7v7.93h-2.42v-7.65c0-2.15-.8-4-3.08-4A3.48,3.48,0,0,0,247,228a2.92,2.92,0,0,0-.16,1.16v8h-2.42Z"/><path class="cls-4" d="M259.74,227.45c0-1.38,0-2.5-.11-3.6h2.15l.14,2.2H262a4.9,4.9,0,0,1,4.4-2.51c1.84,0,4.71,1.1,4.71,5.67v8h-2.42v-7.68c0-2.15-.8-3.93-3.08-3.93a3.44,3.44,0,0,0-3.25,2.48,3.52,3.52,0,0,0-.16,1.13v8h-2.42Z"/><path class="cls-4" d="M287.08,230.4c0,4.93-3.41,7.08-6.63,7.08-3.61,0-6.39-2.64-6.39-6.85,0-4.46,2.92-7.07,6.61-7.07s6.41,2.78,6.41,6.85m-10.57.14c0,2.92,1.68,5.12,4,5.12s4-2.17,4-5.17c0-2.26-1.13-5.12-4-5.12s-4.1,2.64-4.1,5.18"/><rect class="cls-4" x="290.13" y="217.63" width="2.42" height="19.54"/><path class="cls-4" d="M308.69,230.4c0,4.93-3.41,7.08-6.63,7.08-3.61,0-6.39-2.64-6.39-6.85,0-4.46,2.92-7.07,6.61-7.07s6.41,2.78,6.41,6.85m-10.57.14c0,2.92,1.68,5.12,4,5.12s4-2.17,4-5.17c0-2.26-1.13-5.12-4-5.12s-4.1,2.64-4.1,5.18"/><path class="cls-4" d="M323.22,223.85c-.05,1-.11,2-.11,3.66v7.74c0,3.05-.61,4.93-1.9,6.08a7.06,7.06,0,0,1-4.85,1.6,8.59,8.59,0,0,1-4.43-1.1l.6-1.84a7.51,7.51,0,0,0,3.91,1c2.48,0,4.29-1.29,4.29-4.65v-1.49h-.05a4.76,4.76,0,0,1-4.24,2.23c-3.3,0-5.67-2.81-5.67-6.5,0-4.52,2.95-7.08,6-7.08a4.43,4.43,0,0,1,4.16,2.31H321l.11-2Zm-2.5,5.26a3.43,3.43,0,0,0-.14-1.1,3.49,3.49,0,0,0-3.39-2.56c-2.31,0-4,2-4,5,0,2.61,1.32,4.79,3.94,4.79a3.54,3.54,0,0,0,3.36-2.48,4.26,4.26,0,0,0,.19-1.29Z"/><path class="cls-4" d="M329.69,220.1a1.5,1.5,0,0,1-3,0,1.48,1.48,0,0,1,1.51-1.51,1.44,1.44,0,0,1,1.49,1.51m-2.7,3.74h2.42v13.32H327Z"/><path class="cls-4" d="M334.79,230.95c.05,3.28,2.15,4.63,4.57,4.63a8.75,8.75,0,0,0,3.69-.69l.41,1.73a10.78,10.78,0,0,1-4.43.83c-4.1,0-6.55-2.7-6.55-6.72s2.37-7.18,6.25-7.18c4.35,0,5.51,3.83,5.51,6.28a9.26,9.26,0,0,1-.08,1.13Zm7.1-1.73c0-1.54-.63-3.94-3.36-3.94-2.45,0-3.52,2.26-3.72,3.94Z"/><path class="cls-4" d="M346.9,234.69a6.35,6.35,0,0,0,3.19,1c1.76,0,2.59-.88,2.59-2s-.69-1.79-2.48-2.45c-2.39-.85-3.52-2.17-3.52-3.77,0-2.15,1.73-3.91,4.6-3.91a6.63,6.63,0,0,1,3.28.83l-.61,1.76a5.18,5.18,0,0,0-2.73-.77c-1.43,0-2.23.83-2.23,1.82s.8,1.6,2.53,2.26c2.31.88,3.5,2,3.5,4,0,2.34-1.82,4-5,4a7.59,7.59,0,0,1-3.74-.91Z"/></g></g></svg>