<?xml version="1.0" encoding="utf-8"?>
<!-- Generator: Adobe Illustrator 24.0.0, SVG Export Plug-In . SVG Version: 6.00 Build 0)  -->
<svg version="1.1" xmlns="http://www.w3.org/2000/svg" xmlns:xlink="http://www.w3.org/1999/xlink" x="0px" y="0px"
	 viewBox="0 0 168.5 33.4" style="enable-background:new 0 0 168.5 33.4;" xml:space="preserve">
<style type="text/css">
	.st0{fill:#00A34B;}
	.st1{fill:#8A8888;}
	.st2{fill:#23211F;}
</style>
<g id="Layer_1">
	<rect x="157" y="15.7" class="st0" width="11.5" height="2.1"/>
	<rect x="157" y="21.3" class="st0" width="11.5" height="2.1"/>
	<path class="st0" d="M168.5,10h-26v2h4.4v11.5h2.5V11.9h19.1L168.5,10z"/>
	<path class="st1" d="M33.5,24.9c0,0-20.2,8.1-26.8-9.1C6.7,15.8,5.5,48.5,33.5,24.9"/>
	<path class="st0" d="M5.4,27c0,0-4-21.4,14.2-24.5C19.5,2.5-12.3-5.1,5.4,27"/>
</g>
<g id="black">
	<path class="st2" d="M137.7,9.9V20L127.4,9.9h-3.1v11.6h-3.1l-7.5-11.6h-2.5l-7.5,11.5h-3.1V9.9h-3.5l-6.8,10.6L83.4,9.9h-3.5v11.5
		H61l-3.3-2.9c3.4-0.4,5.2-1.9,5.2-4.2c0-3-2.7-4.5-8.6-4.5h-5.2v13.4h2.6V11.8h2.4c5.4,0,6.1,1.2,6.1,2.6c0,1.7-1,2.6-6.9,2.6h-0.9
		l7.3,6.5h22.8V12.9l6.7,10.5h2.1l6.7-10.5v10.5h7.4l2.8-4.3h8.6l2.8,4.3h7.5V12.7l11,10.7h2.4V9.9H137.7z M109.3,17.3l3.1-4.9
		l3.1,4.9L109.3,17.3z"/>
	<path class="st2" d="M65.7,10h11.5v2.1H65.7V10z"/>
	<path class="st2" d="M65.7,15.5h11.5v2.1H65.7V15.5z"/>
	<path class="st2" d="M16.7,0c0,0,20.5,7.4,14,24.6C30.7,24.6,53.3,0.9,16.7,0"/>
</g>
</svg>
