<svg xmlns="http://www.w3.org/2000/svg" width="76.715" height="58.885" viewBox="0 0 76.715 58.885"><defs><style>.a{fill:#fff;stroke:#44ce42;}.a,.b{stroke-width:2px;}.b,.d{fill:none;}.b{stroke:#151f2f;stroke-linecap:round;}.c{stroke:none;}</style></defs><g transform="translate(-8693.286 -2143.115)"><g transform="translate(8693.286 2142.923)"><path d="M54.013,38.387H46.462V25.966a.812.812,0,1,0-1.624,0V38.387H30.73V34.869a.812.812,0,0,0-.812-.812H21.765V14.7h9.221v3.34a1.3,1.3,0,0,0,1.3,1.3h2.038a1.3,1.3,0,0,0,1.3-1.3V14.7h9.221v8.017a.812.812,0,1,0,1.624,0V14.492a1.415,1.415,0,0,0-1.414-1.414H27.96V1.606A1.415,1.415,0,0,0,26.546.192H11.634A1.415,1.415,0,0,0,10.22,1.606V6.739a.812.812,0,0,0,1.624,0V1.816h4.93v3.34a1.3,1.3,0,0,0,1.3,1.3h2.038a1.3,1.3,0,0,0,1.3-1.3V1.816h4.93V13.078H20.954a.812.812,0,0,0-.812.812v6.766h-8.3V9.985a.812.812,0,1,0-1.624,0V20.656H5.44A1.415,1.415,0,0,0,4.026,22.07V34.057H1.414A1.415,1.415,0,0,0,0,35.471V54.765a.812.812,0,0,0,.812.812h8.6a.812.812,0,1,0,0-1.624H1.624V35.681H13.05v3.34a1.3,1.3,0,0,0,1.3,1.3h2.038a1.3,1.3,0,0,0,1.3-1.3v-3.34H29.106V53.953H12.655a.812.812,0,1,0,0,1.624H54.615a.812.812,0,0,0,.812-.812V39.8a1.415,1.415,0,0,0-1.413-1.414ZM19.781,4.828H18.4V1.816h1.383ZM33.993,14.7v3.013H32.61V14.7ZM12.2,22.28h1.383v3.013H12.2Zm-6.554,0h4.93v3.34a1.3,1.3,0,0,0,1.3,1.3h2.038a1.3,1.3,0,0,0,1.3-1.3V22.28h4.93V34.057H5.65ZM16.057,38.694H14.673V35.681h1.383Zm26.9,1.318v3.013H41.575V40.011ZM53.8,53.953H30.73V40.011h9.221v3.34a1.3,1.3,0,0,0,1.3,1.3h2.038a1.3,1.3,0,0,0,1.3-1.3v-3.34H53.8V53.953Z"/></g><g class="a" transform="translate(8728 2160)"><circle class="c" cx="21" cy="21" r="21"/><circle class="d" cx="21" cy="21" r="20"/></g><g transform="translate(8739.727 2171.727)"><line class="b" y1="18.784" x2="18.784"/><line class="b" x1="18.784" y1="18.784"/></g></g></svg>