<svg xmlns="http://www.w3.org/2000/svg" width="25.782" height="29.465" viewBox="0 0 25.782 29.465"><defs><style>.a{fill:#e2574c;}.b{fill:#b53629;}.c{fill:#fff;}</style></defs><path class="a" d="M21.171,0H36.818l8.294,8.261V27.624a1.842,1.842,0,0,1-1.842,1.842h-22.1a1.842,1.842,0,0,1-1.842-1.842V1.842A1.842,1.842,0,0,1,21.171,0Z" transform="translate(-19.329)"/><path class="b" d="M211.217,8.462H204.8a1.842,1.842,0,0,1-1.842-1.842V.193Z" transform="translate(-185.462 -0.175)"/><path class="c" d="M99.5,136.48a.535.535,0,0,0,0-1.06H97.741a.549.549,0,0,0-.535.6v4.318c0,.385.219.6.516.6s.515-.214.515-.6v-1.185H99.3a.5.5,0,0,0,.494-.538.49.49,0,0,0-.494-.523H98.236v-1.61Zm-5.938-1.06H92.274a.568.568,0,0,0-.6.595v4.325a.566.566,0,0,0,.611.579h1.349a2.5,2.5,0,0,0,2.651-2.672A2.567,2.567,0,0,0,93.559,135.42Zm.062,4.433h-.784v-3.366h.706c1.069,0,1.534.717,1.534,1.707C95.078,139.12,94.621,139.853,93.621,139.853Zm-4.709-4.433H87.639a.536.536,0,0,0-.561.6v4.318a.542.542,0,1,0,1.079,0v-1.261h.8a1.743,1.743,0,0,0,1.8-1.82A1.764,1.764,0,0,0,88.912,135.42Zm-.021,2.643h-.734v-1.629h.734a.818.818,0,0,1,0,1.629Z" transform="translate(-80.623 -122.518)"/></svg>