<svg xmlns="http://www.w3.org/2000/svg" viewBox="0 0 286.35 312.72"><defs><style>.cls-1{fill:#d0d1d3;}.cls-2{fill:#e6e7e8;}.cls-3{fill:#6d6e71;}.cls-4{fill:#bcbdbf;}</style></defs><g id="Layer_2" data-name="Layer 2"><g id="Layer_1-2" data-name="Layer 1"><path class="cls-1" d="M276.77,148.55c3.65,1,6.67,2.89,8.25,6.36a21.81,21.81,0,0,1,1.95,6.83c.83,8.68-1.59,16.78-4.93,24.67a29.5,29.5,0,0,1-5.22,8.68,17.43,17.43,0,0,1-13.55,5.78c-.91,0-1.32.11-1.53,1.2-1,5.15-2,10.33-3.31,15.39A83.09,83.09,0,0,1,245,245.36c-2.29,3.11-4.85,6-7.28,9a10.56,10.56,0,0,0-.64,1c-1.39,1.42-2.75,2.87-4.17,4.27q-4.48,4.41-9,8.78a65.47,65.47,0,0,1-11.51,9.08c-4.64,2.82-9.55,4.7-15.15,4a26,26,0,0,1-10.18-3.59,75.45,75.45,0,0,1-14.42-11.54c-3.13-3.07-6.18-6.23-9.26-9.36-2.59-3-5.34-5.93-7.72-9.11a114.37,114.37,0,0,1-7.23-10.83,85.34,85.34,0,0,1-9.12-23.46c-.94-3.94-1.59-8-2.31-11.94-.16-.89-.71-.83-1.31-.81a18,18,0,0,1-8.79-1.94,19.36,19.36,0,0,1-8.37-8.59,61.12,61.12,0,0,1-6.15-17.18c-1-5.19-1.47-10.42.11-15.62,1.51-4.94,4.72-8,9.85-9,.4,1.66.79,3.33,1.21,5q2.64,10.45,5.31,20.88c.09.36.44.91.69.93,1.66.08,3.33,0,5.1,0-.05-.88-.08-1.6-.14-2.31-.45-5.44-1.12-10.87-1.3-16.32-.19-5.82-.12-11.66.24-17.47s1-11.77,1.91-17.6a60.45,60.45,0,0,1,5.86-18.79C144,97.66,147.55,93.19,153,90.5a39.59,39.59,0,0,1,14-3.59,105.14,105.14,0,0,1,22.6.5A175.82,175.82,0,0,1,213,91.93c12.36,3.24,24.38,7.38,35.67,13.44,5,2.67,9.77,5.64,13.69,9.8,2.1,2.23,4.07,4.58,3.49,8a13.84,13.84,0,0,0-.21,1.77c-.17,4.42-.32,8.84-.49,13.26-.15,4.14-.33,8.27-.48,12.41-.1,2.79-.17,5.58-.24,8.37-.08,3.19-.18,6.37-.23,9.56,0,2.18,0,4.35,0,6.65,1.52,0,3.15,0,4.78,0,.78,0,1.08-.24,1.28-1C272.43,165.64,274.61,157.1,276.77,148.55Z" transform="translate(-57.1 -43.93)"/><path class="cls-2" d="M254.89,288.25c1.68.6,3.38,1.15,5,1.81,13,5.19,26,10.35,39,15.64,7,2.88,14.05,5.89,21,9.08A43.64,43.64,0,0,1,332,322.6a32.92,32.92,0,0,1,4.88,6.3,43.69,43.69,0,0,1,5.79,16.72c.52,3.29.55,6.65.81,10,.06.77-.22,1.13-1,1a7.42,7.42,0,0,0-.84,0H59c-.32,0-.64,0-1,0-.66.05-.91-.21-.92-.89A54.11,54.11,0,0,1,61,334.16c1.77-4.32,3.9-8.49,7.51-11.53a48.4,48.4,0,0,1,8.53-5.88c5.25-2.77,10.62-5.37,16.11-7.62,14.06-5.76,28.22-11.26,42.32-16.9,3.18-1.27,6.32-2.66,9.48-4a6.07,6.07,0,0,1,.92-.23,9.19,9.19,0,0,0,.36,1.38,60.64,60.64,0,0,0,15,21.34,58.78,58.78,0,0,0,17.57,11.15,56.64,56.64,0,0,0,16.18,4,58,58,0,0,0,8.82,0,60.18,60.18,0,0,0,8.61-1.11,56.39,56.39,0,0,0,22-9.87A62.56,62.56,0,0,0,245.93,304,61.19,61.19,0,0,0,254,290.7C254.36,289.91,254.59,289.07,254.89,288.25Z" transform="translate(-57.1 -43.93)"/><path class="cls-3" d="M276.77,148.55c-2.17,8.55-4.34,17.1-6.47,25.65-.19.78-.49,1-1.28,1-1.63-.05-3.26,0-4.78,0,0-2.3,0-4.48,0-6.65.05-3.19.15-6.37.23-9.56.07-2.79.14-5.58.24-8.37.15-4.14.32-8.27.48-12.41.17-4.42.32-8.84.49-13.26a13.84,13.84,0,0,1,.21-1.77c.58-3.43-1.39-5.78-3.49-8-3.91-4.16-8.7-7.13-13.69-9.8C237.43,99.31,225.4,95.17,213,91.93a175.82,175.82,0,0,0-23.49-4.52,105.14,105.14,0,0,0-22.6-.5,39.59,39.59,0,0,0-14,3.59c-5.44,2.68-9,7.16-11.73,12.42a60.45,60.45,0,0,0-5.86,18.79c-.88,5.83-1.55,11.71-1.91,17.6s-.43,11.65-.24,17.47c.17,5.45.85,10.88,1.3,16.32.06.71.09,1.42.14,2.31-1.77,0-3.44,0-5.1,0-.25,0-.6-.57-.69-.93q-2.68-10.43-5.31-20.88c-.42-1.66-.81-3.33-1.21-5-.8-4.19-1.67-8.37-2.39-12.58s-1.4-8.46-1.88-12.72a95.44,95.44,0,0,1-.71-11.19,30.6,30.6,0,0,1,2-10.89c1.92-5,4.14-7.16,9.94-9.82,0-1.87,0-3.75,0-5.62,0-8.06,3.14-14.86,8.14-21,7.73-9.48,17.8-15.12,29.48-18.15a70.28,70.28,0,0,1,17.14-2.44c1.95,0,3.9-.28,5.84-.2,3.29.13,6.58.3,9.85.7,18.91,2.34,36.31,9.07,52.74,18.45a65.55,65.55,0,0,1,19,16.09,42.57,42.57,0,0,1,8.79,19.31,33.55,33.55,0,0,1,.25,9.28c-.27,2.73-.26,5.49-.51,8.23-.65,7.12-1.37,14.23-2.09,21.34C277.61,141.09,277.18,144.81,276.77,148.55Z" transform="translate(-57.1 -43.93)"/><path class="cls-4" d="M163.44,257c3.08,3.12,6.13,6.28,9.26,9.36a75.45,75.45,0,0,0,14.42,11.54,26,26,0,0,0,10.18,3.59c5.59.66,10.5-1.23,15.15-4A65.47,65.47,0,0,0,224,268.4q4.52-4.37,9-8.78c1.42-1.4,2.78-2.84,4.17-4.27a96.44,96.44,0,0,0-.7,16.69,42,42,0,0,0,1.12,6.67,2.52,2.52,0,0,0,1.22,1.44c3.4,1.77,6.84,3.45,10.26,5.18a8.44,8.44,0,0,1,1,.74c-1.84,3.29-3.52,6.7-5.59,9.85-1.74,2.64-3.94,5-5.93,7.44-1,.71-2,1.41-3,2.13-2.9,2.14-5.86,4.22-9.48,4.9a38.72,38.72,0,0,1-10.93.46,25.94,25.94,0,0,1-8.83-2.36c-4.07-2-7.25-5.06-10.43-8.12-3.74-3.6-7.36-7.34-10.91-11.12-3.87-4.13-7.69-8.3-11.38-12.59A63.62,63.62,0,0,1,164.87,264a3.73,3.73,0,0,0-.69-.75Z" transform="translate(-57.1 -43.93)"/><path class="cls-1" d="M164.18,263.27a3.73,3.73,0,0,1,.69.75,63.62,63.62,0,0,0,8.76,12.65c3.69,4.29,7.51,8.47,11.38,12.59,3.55,3.79,7.17,7.52,10.91,11.12,3.18,3.06,6.36,6.17,10.43,8.12a25.94,25.94,0,0,0,8.83,2.36,38.72,38.72,0,0,0,10.93-.46c3.62-.68,6.58-2.76,9.48-4.9,1-.73,2-1.42,3-2.13a5.55,5.55,0,0,1-.65,1c-1,.95-2,1.85-3,2.78a48.69,48.69,0,0,1-10.7,7.59,47.45,47.45,0,0,1-18.17,5.51,53.21,53.21,0,0,1-13.9-.36,48.39,48.39,0,0,1-15-5.15,56.05,56.05,0,0,1-14.33-11.22,75.13,75.13,0,0,1-12-17.39l4.64-2.39c2.12-1.11,4.25-2.2,6.35-3.36a1.89,1.89,0,0,0,.9-1,38.24,38.24,0,0,0,1.06-5.74C164.11,270.14,164.1,266.7,164.18,263.27Z" transform="translate(-57.1 -43.93)"/></g></g></svg>