<?xml version="1.0" encoding="UTF-8" standalone="no"?>
<svg
   width="16.524"
   height="15.022"
   viewBox="0 0 16.524 15.022"
   version="1.1"
   id="svg239"
   sodipodi:docname="adjust-alt.svg"
   inkscape:version="1.2.1 (9c6d41e410, 2022-07-14)"
   xmlns:inkscape="http://www.inkscape.org/namespaces/inkscape"
   xmlns:sodipodi="http://sodipodi.sourceforge.net/DTD/sodipodi-0.dtd"
   xmlns="http://www.w3.org/2000/svg"
   xmlns:svg="http://www.w3.org/2000/svg">
  <defs
     id="defs243" />
  <sodipodi:namedview
     id="namedview241"
     pagecolor="#ffffff"
     bordercolor="#000000"
     borderopacity="0.25"
     inkscape:showpageshadow="2"
     inkscape:pageopacity="0.0"
     inkscape:pagecheckerboard="0"
     inkscape:deskcolor="#d1d1d1"
     showgrid="false"
     inkscape:zoom="55.185726"
     inkscape:cx="8.2630062"
     inkscape:cy="7.5200605"
     inkscape:window-width="1920"
     inkscape:window-height="1009"
     inkscape:window-x="1912"
     inkscape:window-y="-8"
     inkscape:window-maximized="1"
     inkscape:current-layer="Glyph" />
  <g
     id="Glyph"
     transform="translate(-1 -2)"
     style="fill:#000000">
    <path
       id="Path_20361"
       data-name="Path 20361"
       d="m 13.018,4.253 c 0,-1.0036741 0.606698,-1.7567411 1.390801,-2.081485 0.784103,-0.3247438 1.745611,-0.2211644 2.45523,0.4884543 0.709618,0.7096188 0.813198,1.6711265 0.488454,2.4552294 C 17.027741,5.8993017 16.274674,6.506 15.271,6.506 14.648851,6.506 14.085601,6.2538244 13.677888,5.8461116 13.270176,5.4383988 13.018,4.8751488 13.018,4.253 Z M 1.751,5 h 4.5065 4.5065 c 0.474838,-0.024529 0.712257,-0.3872644 0.712257,-0.75 0,-0.3627356 -0.237419,-0.7254713 -0.712257,-0.75 H 6.2575 1.751 C 1.2245052,3.4728029 0.96125774,3.8614014 0.96125774,4.25 0.96125774,4.6385986 1.2245052,5.0271971 1.751,5 Z M 6.258,7.258 C 5.7817372,7.2593004 5.3316138,7.4102868 4.9608677,7.673205 4.5901217,7.9361231 4.2987531,8.3109728 4.14,8.76 H 2.9455 1.751 C 1.2245052,8.7328029 0.96125774,9.1214014 0.96125774,9.51 c 0,0.3885986 0.26324746,0.777197 0.78974226,0.75 H 2.9455 4.14 c 0.3034403,0.863411 1.0310488,1.375302 1.8147481,1.484442 0.7836994,0.109139 1.6234895,-0.184474 2.1512931,-0.932071 C 8.6338449,10.064774 8.6294219,9.1751469 8.2642544,8.4731862 7.8990868,7.7712256 7.1731747,7.2569314 6.258,7.26 V 7.259 Z m 10.516,1.5 h -3.005 -3.005 c -0.526495,-0.027197 -0.7897423,0.3614014 -0.7897423,0.75 0,0.3885986 0.2632473,0.777197 0.7897423,0.75 h 3.0045 3.0045 c 0.526495,0.0272 0.789742,-0.3614014 0.789742,-0.75 0,-0.3885986 -0.263247,-0.7771971 -0.789742,-0.75 h 5e-4 z M 7.76,14.018 H 4.7555 1.751 c -0.5264948,-0.0272 -0.78974226,0.361401 -0.78974226,0.75 0,0.388599 0.26324746,0.777197 0.78974226,0.75 H 4.7555 7.76 c 0.5264948,0.0272 0.7897423,-0.361401 0.7897423,-0.75 0,-0.388599 -0.2632475,-0.777197 -0.7897423,-0.75 z m 9.013,0 h -1.194 -1.194 c -0.421986,-1.195348 -1.51615,-1.640592 -2.504817,-1.470626 -0.988667,0.169965 -1.871837,0.955139 -1.871837,2.220626 0,1.265487 0.88317,2.050661 1.871837,2.220626 C 12.86885,17.158592 13.963014,16.713348 14.385,15.518 h 1.1945 1.1945 c 0.526495,0.0272 0.789742,-0.361401 0.789742,-0.75 0,-0.388599 -0.263247,-0.777197 -0.789742,-0.75 h -5e-4 z"
       fill="#fff"
       style="fill:#000000"
       sodipodi:nodetypes="ssssssscccscccsccscccscccsssccccccscccsccccccscccsccccssscccsccc" />
  </g>
</svg>
