<?xml version="1.0" encoding="utf-8"?>
<!-- Generator: Adobe Illustrator 24.0.0, SVG Export Plug-In . SVG Version: 6.00 Build 0)  -->
<svg version="1.1" id="Layer_1" xmlns="http://www.w3.org/2000/svg" xmlns:xlink="http://www.w3.org/1999/xlink" x="0px" y="0px"
	 viewBox="0 0 15.4 15.2" style="enable-background:new 0 0 15.4 15.2;" xml:space="preserve">
<path class="st0" d="M2.7,8.2v1c0,0.1,0.1,0.3,0.2,0.4C3,9.7,3.1,9.7,3.2,9.7h2.4c0.3,0,0.5-0.2,0.5-0.5v-1c0-0.1,0-0.1,0.1-0.1
	c0,0,0,0,0,0h9.1v-1H6.2c-0.1,0-0.1,0-0.1-0.1V5.9c0-0.3-0.2-0.5-0.5-0.5H3.2C3,5.4,2.7,5.7,2.7,5.9V7c0,0.1,0,0.1-0.1,0.1H0.1v1
	h2.5C2.7,8.1,2.7,8.1,2.7,8.2C2.7,8.2,2.7,8.2,2.7,8.2z M3.7,6.5C3.7,6.5,3.7,6.4,3.7,6.5C3.8,6.4,3.8,6.4,3.7,6.5L5,6.4
	c0.1,0,0.1,0,0.1,0.1v2.1c0,0.1,0,0.1-0.1,0.1c0,0,0,0,0,0H3.8c0,0-0.1,0-0.1-0.1c0,0,0,0,0,0L3.7,6.5z"/>
<polygon class="st0" points="0.1,7 0.1,7 0.1,7 " />
<polygon class="st0" points="0,8.2 0,8.2 0,8.2 "/>
<path class="st0" d="M9.5,13.7v1.1c0,0.3,0.2,0.5,0.5,0.5h2.4c0.3,0,0.5-0.2,0.5-0.5v-1.1c0-0.1,0-0.1,0.1-0.1h0h2.3v-1H13
	c-0.1,0-0.1,0-0.1-0.1v-1.1c0-0.3-0.2-0.5-0.5-0.5H10c-0.3,0-0.5,0.2-0.5,0.5v1.1c0,0.1,0,0.1-0.1,0.1H0.1v1h9.3
	C9.4,13.6,9.5,13.6,9.5,13.7z M10.5,12c0-0.1,0-0.1,0.1-0.1h0h1.2c0.1,0,0.1,0,0.1,0.1v0v2.1c0,0.1,0,0.1-0.1,0.1h-1.2
	c-0.1,0-0.1,0-0.1-0.1V12z"/>
<polygon class="st0" points="15.4,12.5 15.4,12.5 15.4,12.5 "/>
<polygon class="st0" points="0.1,12.5 0.1,12.5 0.1,12.5 "/>
<polygon class="st0" points="0,13.6 0,13.6 0,13.6 "/>
<path class="st0" d="M13,1.6V0.5C13,0.2,12.8,0,12.5,0H10C9.7,0,9.5,0.2,9.5,0.5v1.1c0,0.1,0,0.1-0.1,0.1H0.1v1h9.3
	c0.1,0,0.1,0,0.1,0.1v1c0,0.3,0.2,0.5,0.5,0.5h2.4c0.3,0,0.5-0.2,0.5-0.5v-1c0-0.1,0-0.1,0.1-0.1l0,0h2.3v-1h-2.3
	C13,1.7,13,1.6,13,1.6z M12,3.2c0,0.1,0,0.1-0.1,0.1h-1.3c-0.1,0-0.1,0-0.1-0.1V1.1c0-0.1,0-0.1,0.1-0.1l0,0h1.2
	c0.1,0,0.1,0,0.1,0.1c0,0,0,0,0,0L12,3.2z"/>
<polygon class="st0" points="15.4,1.6 15.4,1.6 15.4,1.6 "/>
<polygon class="st0" points="0.1,1.6 0.1,1.6 0.1,1.6 "/>
<polygon class="st0" points="0,2.7 0,2.7 0,2.7 "/>
</svg>
