<?xml version="1.0" encoding="UTF-8" standalone="no"?>
<!-- Generator: Adobe Illustrator 24.0.0, SVG Export Plug-In . SVG Version: 6.00 Build 0)  -->

<svg
   version="1.1"
   id="Layer_1"
   x="0px"
   y="0px"
   viewBox="0 0 463.24286 512"
   xml:space="preserve"
   sodipodi:docname="an.svg"
   inkscape:version="1.2.2 (732a01da63, 2022-12-09)"
   width="463.24286"
   height="512"
   xmlns:inkscape="http://www.inkscape.org/namespaces/inkscape"
   xmlns:sodipodi="http://sodipodi.sourceforge.net/DTD/sodipodi-0.dtd"
   xmlns="http://www.w3.org/2000/svg"
   xmlns:svg="http://www.w3.org/2000/svg"><defs
   id="defs2798" /><sodipodi:namedview
   id="namedview2796"
   pagecolor="#ffffff"
   bordercolor="#000000"
   borderopacity="0.25"
   inkscape:showpageshadow="2"
   inkscape:pageopacity="0.0"
   inkscape:pagecheckerboard="0"
   inkscape:deskcolor="#d1d1d1"
   showgrid="false"
   inkscape:zoom="0.58053221"
   inkscape:cx="428.05549"
   inkscape:cy="516.76719"
   inkscape:window-width="1920"
   inkscape:window-height="1009"
   inkscape:window-x="1912"
   inkscape:window-y="-8"
   inkscape:window-maximized="1"
   inkscape:current-layer="Layer_1" />


<g
   id="g966"
   transform="matrix(0.27524153,0,0,-0.27524153,-121.92632,621.85869)"><path
     d="m 979,2189 c 113,-26 218,-104 265,-198 43,-85 46,-140 46,-854 V 460 h -80 -80 v 380 380 l -197,2 -198,3 -3,48 -3,47 h 201 202 l -4,283 c -5,310 -10,338 -69,410 -45,55 -102,81 -174,81 -94,-1 -165,-50 -209,-144 -21,-44 -21,-56 -24,-768 l -3,-722 h -80 -80 l 3,728 3,727 27,57 c 78,166 274,260 457,217 z"
     id="path906" /><path
     d="m 1785,2196 c 28,-7 70,-23 94,-35 52,-27 132,-104 157,-152 43,-84 44,-100 44,-846 V 450 h -95 -95 v 715 c 0,695 -1,716 -20,769 -24,62 -78,117 -135,136 -60,20 -130.572,5.4546 -183,-27 -45.6022,-28.2292 -92,-88.1625 -92,-132 L 1437,450 h -54 -55 c 0,0 6.3085,544.7267 4,780 -7,633 -21.1336,698.1959 -25,718 -3.8664,19.8041 -12.625,34.5 -12.625,34.5 39.5596,79.577 104.5871,174.1539 262.625,216.5 58,14 172,12 228,-3 z"
     id="path904"
     sodipodi:nodetypes="cccscccscsaccccczccc" /></g></svg>
