<?xml version="1.0" encoding="utf-8"?>
<!-- Generator: Adobe Illustrator 24.0.0, SVG Export Plug-In . SVG Version: 6.00 Build 0)  -->
<svg version="1.1" id="Layer_1" xmlns="http://www.w3.org/2000/svg" xmlns:xlink="http://www.w3.org/1999/xlink" x="0px" y="0px"
	 viewBox="0 0 21 21" style="enable-background:new 0 0 21 21;" xml:space="preserve">
<path class="st0" d="M11.6,0.4c-0.2,0-0.3,0.1-0.3,0.3c0,0,0,0,0,0v8.6c0,0.2,0.1,0.3,0.3,0.3l0,0h8.6c0.2,0,0.3-0.1,0.3-0.3
	c0,0,0,0,0,0C20.6,4.4,16.6,0.4,11.6,0.4z M12,9V1c4.3,0.2,7.8,3.7,8,8H12z"/>
<path class="st0" d="M18,11.3H9.7V3c0-0.2-0.1-0.3-0.3-0.3c-4.9,0-9,4-9,9s4,9,9,9s9-4,9-9c0,0,0,0,0,0C18.3,11.5,18.2,11.3,18,11.3
	z M9.4,20c-4.6,0-8.3-3.7-8.3-8.3c0-4.5,3.5-8.1,8-8.3v8.3C9,11.8,9.2,12,9.4,12h8.3C17.5,16.4,13.8,20,9.4,20z"/>
</svg>
