<?xml version="1.0" encoding="UTF-8" standalone="no"?>
<!-- Generator: Adobe Illustrator 24.0.0, SVG Export Plug-In . SVG Version: 6.00 Build 0)  -->

<svg
   version="1.1"
   id="Layer_1"
   x="0px"
   y="0px"
   viewBox="0 0 606.14411 512"
   xml:space="preserve"
   sodipodi:docname="barcode.svg"
   width="606.1441"
   height="512"
   inkscape:version="1.3 (0e150ed6c4, 2023-07-21)"
   xmlns:inkscape="http://www.inkscape.org/namespaces/inkscape"
   xmlns:sodipodi="http://sodipodi.sourceforge.net/DTD/sodipodi-0.dtd"
   xmlns="http://www.w3.org/2000/svg"
   xmlns:svg="http://www.w3.org/2000/svg"><defs
   id="defs2" /><sodipodi:namedview
   id="namedview2"
   pagecolor="#ffffff"
   bordercolor="#000000"
   borderopacity="0.25"
   inkscape:showpageshadow="2"
   inkscape:pageopacity="0.0"
   inkscape:pagecheckerboard="0"
   inkscape:deskcolor="#d1d1d1"
   inkscape:zoom="0.60491072"
   inkscape:cx="-629.84501"
   inkscape:cy="-19.01107"
   inkscape:window-width="1920"
   inkscape:window-height="1009"
   inkscape:window-x="1912"
   inkscape:window-y="-8"
   inkscape:window-maximized="1"
   inkscape:current-layer="Layer_1" />&#10;&#10;&#10;<g
   id="barcode (3) 1"
   style="fill:#000000;fill-opacity:1;stroke:none"
   transform="matrix(19.311609,0,0,19.311609,-73.504812,-120.57686)"><g
     id="Group"
     style="fill:#000000;fill-opacity:1;stroke:none"><path
       id="Vector"
       d="m 33.0563,8.53125 v -0.15 h -0.1501 -4.875 c -0.5902,0 -1.0687,-0.4785 -1.0687,-1.06875 0,-0.59025 0.4785,-1.06875 1.0687,-1.06875 h 6.0938 c 0.5903,0 1.0688,0.4785 1.0688,1.06875 v 6.0937 c 0,0.5903 -0.4785,1.0688 -1.0688,1.0688 -0.5903,0 -1.0687,-0.4785 -1.0687,-1.0688 z"
       fill="#AAC1D7"
       stroke="white"
       stroke-width="0.3"
       style="fill:#000000;fill-opacity:1;stroke:none" /><path
       id="Vector_2"
       d="m 5.94375,30.4688 v 0.15 h 0.15 4.87505 c 0.5902,0 1.0687,0.4784 1.0687,1.0687 0,0.5903 -0.4785,1.0688 -1.0687,1.0688 H 4.875 c -0.59025,0 -1.06875,-0.4785 -1.06875,-1.0688 v -6.0937 c 0,-0.5903 0.4785,-1.0688 1.06875,-1.0688 0.59025,0 1.06875,0.4785 1.06875,1.0688 z"
       fill="#AAC1D7"
       stroke="white"
       stroke-width="0.3"
       style="fill:#000000;fill-opacity:1;stroke:none" /><path
       id="Vector_3"
       d="m 32.9062,30.6188 h 0.1501 v -0.15 -4.875 c 0,-0.5903 0.4784,-1.0688 1.0687,-1.0688 0.5903,0 1.0688,0.4785 1.0688,1.0688 v 6.0937 c 0,0.5903 -0.4785,1.0688 -1.0688,1.0688 h -6.0938 c -0.5902,0 -1.0687,-0.4785 -1.0687,-1.0688 0,-0.5903 0.4785,-1.0687 1.0687,-1.0687 z"
       fill="#AAC1D7"
       stroke="white"
       stroke-width="0.3"
       style="fill:#000000;fill-opacity:1;stroke:none" /><path
       id="Vector_4"
       d="m 6.09375,8.38125 h -0.15 v 0.15 4.87495 c 0,0.5903 -0.4785,1.0688 -1.06875,1.0688 -0.59025,0 -1.06875,-0.4785 -1.06875,-1.0688 V 7.3125 c 0,-0.59025 0.4785,-1.06875 1.06875,-1.06875 h 6.0938 c 0.5902,0 1.0687,0.4785 1.0687,1.06875 0,0.59025 -0.4785,1.06875 -1.0687,1.06875 z"
       fill="#AAC1D7"
       stroke="white"
       stroke-width="0.3"
       style="fill:#000000;fill-opacity:1;stroke:none" /><path
       id="Vector_5"
       d="m 12.1875,12.3375 c 0.5903,0 1.0687,0.4785 1.0687,1.0687 v 12.1876 c 0,0.5902 -0.4784,1.0687 -1.0687,1.0687 -0.5903,0 -1.0687,-0.4785 -1.0687,-1.0687 V 13.4062 c 0,-0.5902 0.4784,-1.0687 1.0687,-1.0687 z"
       fill="#AAC1D7"
       stroke="white"
       stroke-width="0.3"
       style="fill:#000000;fill-opacity:1;stroke:none" /><path
       id="Vector_6"
       d="m 26.8125,12.3375 c 0.5903,0 1.0687,0.4785 1.0687,1.0687 v 12.1876 c 0,0.5902 -0.4784,1.0687 -1.0687,1.0687 -0.5903,0 -1.0687,-0.4785 -1.0687,-1.0687 V 13.4062 c 0,-0.5902 0.4784,-1.0687 1.0687,-1.0687 z"
       fill="#AAC1D7"
       stroke="white"
       stroke-width="0.3"
       style="fill:#000000;fill-opacity:1;stroke:none" /><path
       id="Vector_7"
       d="m 21.9375,12.3375 c 0.5903,0 1.0687,0.4785 1.0687,1.0687 v 12.1876 c 0,0.5902 -0.4784,1.0687 -1.0687,1.0687 -0.5903,0 -1.0687,-0.4785 -1.0687,-1.0687 V 13.4062 c 0,-0.5902 0.4784,-1.0687 1.0687,-1.0687 z"
       fill="#AAC1D7"
       stroke="white"
       stroke-width="0.3"
       style="fill:#000000;fill-opacity:1;stroke:none" /><path
       id="Vector_8"
       d="m 17.0625,12.3375 c 0.5903,0 1.0687,0.4785 1.0687,1.0687 v 12.1876 c 0,0.5902 -0.4784,1.0687 -1.0687,1.0687 -0.5903,0 -1.0687,-0.4785 -1.0687,-1.0687 V 13.4062 c 0,-0.5902 0.4784,-1.0687 1.0687,-1.0687 z"
       fill="#AAC1D7"
       stroke="white"
       stroke-width="0.3"
       style="fill:#000000;fill-opacity:1;stroke:none" /></g></g></svg>
