<?xml version="1.0" encoding="UTF-8" standalone="no"?>
<!-- Generator: Adobe Illustrator 24.0.0, SVG Export Plug-In . SVG Version: 6.00 Build 0)  -->

<svg
   version="1.1"
   id="Layer_1"
   x="0px"
   y="0px"
   viewBox="0 0 484.50782 512"
   xml:space="preserve"
   sodipodi:docname="box-alt.svg"
   width="484.50781"
   height="512"
   inkscape:version="1.3 (0e150ed6c4, 2023-07-21)"
   xmlns:inkscape="http://www.inkscape.org/namespaces/inkscape"
   xmlns:sodipodi="http://sodipodi.sourceforge.net/DTD/sodipodi-0.dtd"
   xmlns="http://www.w3.org/2000/svg"
   xmlns:svg="http://www.w3.org/2000/svg"><defs
   id="defs2" /><sodipodi:namedview
   id="namedview2"
   pagecolor="#ffffff"
   bordercolor="#000000"
   borderopacity="0.25"
   inkscape:showpageshadow="2"
   inkscape:pageopacity="0.0"
   inkscape:pagecheckerboard="0"
   inkscape:deskcolor="#d1d1d1"
   inkscape:zoom="0.60491072"
   inkscape:cx="-317.40221"
   inkscape:cy="199.20295"
   inkscape:window-width="1920"
   inkscape:window-height="1009"
   inkscape:window-x="1912"
   inkscape:window-y="-8"
   inkscape:window-maximized="1"
   inkscape:current-layer="Layer_1" />&#10;&#10;&#10;<path
   id="Vector"
   d="M 237.02771,511.21889 8.5275868,417.34789 C 3.3680833,415.2294 0,410.20386 0,404.62567 V 107.62369 C 0,102.04647 3.3690528,97.020122 8.5274252,94.901314 v 0 L 237.02609,1.031624 c 0,-3.23e-5 0.002,-8.08e-5 0.002,-1.131e-4 3.34821,-1.37538287 7.10363,-1.37535055 10.45184,1.131e-4 l 228.49899,93.869528 c 5.15966,2.119939 8.52888,7.145478 8.52888,12.722538 v 297.00198 c 0,5.57819 -3.36922,10.60373 -8.52727,12.72222 v 0 l -203.05294,83.41755 -23.00276,9.44672 c -4.5827,2.17837 -8.27786,2.17698 -12.89674,1.00673 z m 4.30484,-323.61264 0.92108,0.37812 0.92108,-0.37812 187.58202,-77.05998 5.457,-2.24211 -5.457,-2.2421 -89.82471,-36.900575 -0.95017,-0.390085 -0.94047,0.410446 -181.95051,79.373524 -5.24692,2.28864 5.2954,2.17504 z M 30.852793,130.8779 27.50798,129.50371 v 3.61629 260.66278 1.62401 l 1.502815,0.61728 196.143055,80.57836 3.34498,1.37354 v -3.61645 -260.66247 -1.624 l -1.50282,-0.61729 -91.14815,-37.44433 -3.34482,-1.37516 v 3.61645 70.89732 c 0,7.59649 -6.15847,13.7548 -13.75399,13.7548 -7.59551,0 -13.75399,-6.15831 -13.75399,-13.7548 v -84.18835 -1.62561 l -1.50281,-0.61729 z M 243.17471,29.001096 l -0.92108,-0.378451 -0.92108,0.378451 -187.581864,77.059994 -5.457643,2.2421 5.457643,2.24211 61.713344,25.35265 0.94936,0.38992 0.94079,-0.41028 181.95148,-79.373524 5.24531,-2.288642 -5.29379,-2.175042 z m 14.33491,182.454664 -1.50281,0.61729 v 1.624 260.66247 3.61647 l 3.34497,-1.37354 196.14484,-80.57834 1.50282,-0.61729 V 393.78279 133.12 129.50371 l -3.34498,1.37419 z"
   fill="#aac1d7"
   stroke="#ffffff"
   stroke-width="4.84779"
   sodipodi:nodetypes="ccssscccccsssccccccccccccccccccccccccccccccccssscccccccccccccccccccccccccccccc"
   style="stroke:none" /></svg>
