<?xml version="1.0" encoding="UTF-8" standalone="no"?>
<svg
   width="16.779"
   height="17.846"
   viewBox="0 0 16.779 17.846"
   version="1.1"
   id="svg613"
   sodipodi:docname="box.svg"
   inkscape:version="1.2.1 (9c6d41e410, 2022-07-14)"
   xmlns:inkscape="http://www.inkscape.org/namespaces/inkscape"
   xmlns:sodipodi="http://sodipodi.sourceforge.net/DTD/sodipodi-0.dtd"
   xmlns="http://www.w3.org/2000/svg"
   xmlns:svg="http://www.w3.org/2000/svg">
  <defs
     id="defs617" />
  <sodipodi:namedview
     id="namedview615"
     pagecolor="#ffffff"
     bordercolor="#000000"
     borderopacity="0.25"
     inkscape:showpageshadow="2"
     inkscape:pageopacity="0.0"
     inkscape:pagecheckerboard="0"
     inkscape:deskcolor="#d1d1d1"
     showgrid="false"
     inkscape:zoom="23.226493"
     inkscape:cx="1.5499542"
     inkscape:cy="8.7400196"
     inkscape:window-width="1920"
     inkscape:window-height="1009"
     inkscape:window-x="1912"
     inkscape:window-y="-8"
     inkscape:window-maximized="1"
     inkscape:current-layer="svg613" />
  <path
     id="path896"
     style="fill:#000000;stroke:none"
     d="M 587.34766 33.3 C 586.99601 33.3 586.64455 33.375875 586.31836 33.528516 L 583.26953 35.053906 L 580.21875 36.579297 C 579.84287 36.766307 579.53589 37.051662 579.32422 37.395703 C 579.11256 37.739743 578.99505 38.141891 578.99805 38.561719 L 578.99805 42.184766 L 578.99805 45.807812 C 578.99405 46.248774 579.11965 46.670493 579.3457 47.028516 C 579.57175 47.386535 579.89897 47.680459 580.29883 47.866406 L 583.34961 49.391797 L 586.39844 50.917187 C 586.55326 50.991097 586.71665 51.048709 586.88281 51.087109 C 587.04897 51.125509 587.2191 51.146156 587.39062 51.147656 C 587.56265 51.150456 587.73399 51.131419 587.90039 51.092969 C 588.06679 51.054519 588.22749 50.995164 588.38086 50.917187 L 591.43164 49.391797 L 594.48047 47.866406 C 594.87592 47.675487 595.20022 47.381849 595.42578 47.024609 C 595.65133 46.667373 595.77925 46.246934 595.78125 45.807812 L 595.78125 42.184766 L 595.78125 38.563672 C 595.78425 38.132453 595.65624 37.721741 595.42969 37.376172 C 595.20315 37.030602 594.87699 36.7488 594.48047 36.579297 L 591.43164 35.053906 L 588.38086 33.528516 L 588.37891 33.528516 C 588.05272 33.375875 587.69931 33.3 587.34766 33.3 z M 587.30664 34.747266 C 587.33328 34.745393 587.35987 34.744416 587.38672 34.747266 C 587.46322 34.747266 587.52076 34.747531 587.56836 34.757031 C 587.61596 34.766531 587.65338 34.785438 587.69141 34.823437 L 590.51367 36.235547 L 593.33594 37.645703 L 590.36133 39.132031 L 587.38672 40.620312 L 584.41211 39.132031 L 581.4375 37.645703 L 584.25977 36.235547 L 587.08203 34.823437 C 587.12683 34.793218 587.17693 34.771844 587.22852 34.758984 C 587.25432 34.752544 587.28 34.749138 587.30664 34.747266 z M 580.52539 38.866406 L 583.57617 40.391797 L 586.62695 41.917187 L 586.62695 45.655469 L 586.62695 49.391797 L 583.76562 47.981641 L 580.90625 46.569531 C 580.8502 46.529692 580.80076 46.485106 580.75586 46.434766 C 580.71097 46.384431 580.67117 46.329343 580.63867 46.270703 C 580.60617 46.212068 580.57965 46.149886 580.56055 46.085156 C 580.54145 46.020426 580.52939 45.952604 580.52539 45.883984 L 580.52539 42.376172 L 580.52539 38.866406 z M 594.25781 38.866406 L 594.25781 42.376172 L 594.25781 45.883984 C 594.25881 46.034494 594.21472 46.17829 594.13477 46.298047 C 594.05477 46.417804 593.9403 46.513071 593.80078 46.569531 L 590.97656 47.981641 L 588.15234 49.391797 L 588.1543 45.655469 L 588.1582 41.917187 L 591.20703 40.391797 L 594.25781 38.866406 z "
     transform="translate(-579,-33.3)" />
</svg>
