<?xml version="1.0" encoding="UTF-8" standalone="no"?>
<svg
   width="19.939"
   height="18.693"
   viewBox="0 0 19.939 18.693"
   version="1.1"
   id="svg3"
   sodipodi:docname="business.svg"
   inkscape:version="1.2.1 (9c6d41e410, 2022-07-14)"
   xmlns:inkscape="http://www.inkscape.org/namespaces/inkscape"
   xmlns:sodipodi="http://sodipodi.sourceforge.net/DTD/sodipodi-0.dtd"
   xmlns="http://www.w3.org/2000/svg"
   xmlns:svg="http://www.w3.org/2000/svg">
  <defs
     id="defs7" />
  <sodipodi:namedview
     id="namedview5"
     pagecolor="#ffffff"
     bordercolor="#000000"
     borderopacity="0.25"
     inkscape:showpageshadow="2"
     inkscape:pageopacity="0.0"
     inkscape:pagecheckerboard="0"
     inkscape:deskcolor="#d1d1d1"
     showgrid="false"
     inkscape:zoom="44.34815"
     inkscape:cx="9.9665939"
     inkscape:cy="3.9460496"
     inkscape:window-width="1920"
     inkscape:window-height="1009"
     inkscape:window-x="1912"
     inkscape:window-y="-8"
     inkscape:window-maximized="1"
     inkscape:current-layer="svg3" />
  <path
     id="suitcase"
     d="m 19.16,12.462 c 0.43023,0 0.779,-0.34877 0.779,-0.779 V 6.309 C 19.937898,5.4492733 19.589011,4.6710743 19.025469,4.1075314 18.461926,3.5439885 17.683727,3.1951019 16.824,3.194 H 13.552 V 3.1545 3.115 C 13.550898,2.2552733 13.202011,1.4770743 12.638469,0.91353139 12.074926,0.34998852 11.296727,0.00110186 10.437,0 H 9.424 C 8.5642733,0.00110186 7.7860743,0.34998852 7.2225314,0.91353139 6.6589885,1.4770743 6.3101019,2.2552733 6.309,3.115 V 3.154 3.193 H 3.115 C 2.2550784,3.1941024 1.4767416,3.5431415 0.91317859,4.1068854 0.34961559,4.6706293 8.2640684e-4,5.4490781 0,6.309 v 9.269 c 0.00110186,0.859727 0.34998852,1.637926 0.91353139,2.201469 C 1.4770743,18.343011 2.2552733,18.691898 3.115,18.693 h 13.709 c 0.859727,-0.0011 1.637926,-0.349989 2.201469,-0.913531 0.563542,-0.563543 0.912429,-1.341742 0.913531,-2.201469 0,-0.519333 -0.3895,-0.779 -0.779,-0.779 -0.3895,0 -0.779,0.259667 -0.779,0.779 -5.51e-4,0.430001 -0.17505,0.819226 -0.456912,1.101088 C 17.642226,16.96095 17.253001,17.135449 16.823,17.136 H 3.115 C 2.6849986,17.135449 2.2957741,16.96095 2.0139121,16.679088 1.7320502,16.397226 1.5575509,16.008001 1.557,15.578 v -7 c 0.3385185,0.3310226 0.6947062,0.6434797 1.067,0.936 1.9010219,1.514452 4.218895,2.412784 6.644,2.575 v 1.077 c 0,0.519333 0.3895,0.779 0.779,0.779 0.3895,0 0.779,-0.259667 0.779,-0.779 v -1.08 C 13.232899,11.928448 15.530822,11.024519 17.4,9.5 17.742209,9.2237229 18.069661,8.9296506 18.381,8.619 v 3.059 c -0.0028,0.432181 0.34681,0.784009 0.779,0.784 z M 7.867,3.115 C 7.8678254,2.6853887 8.0422697,2.2965514 8.3239105,2.0149105 8.6055514,1.7332697 8.9943887,1.5588254 9.424,1.558 h 1.013 c 0.430001,5.509e-4 0.819226,0.1750502 1.101088,0.4569121 C 11.81995,2.2967741 11.994449,2.6859986 11.995,3.116 V 3.155 3.194 H 7.867 V 3.1545 Z m 2.181,7.438 C 7.7175708,10.561289 5.4541178,9.7738785 3.632,8.321 2.850743,7.7165683 2.153891,7.0102994 1.56,6.221 1.5838171,5.8088487 1.7661479,5.4416665 2.045734,5.1773632 2.3253201,4.9130599 2.7021616,4.7516356 3.115,4.751 h 13.709 c 0.415043,5.317e-4 0.793534,0.1635262 1.073519,0.4300155 C 18.177504,5.4475048 18.358982,5.8174889 18.38,6.232 c -1.926317,2.6907755 -5.023867,4.297353 -8.333,4.322 z"
     fill="#fff"
     style="fill:#000000"
     sodipodi:nodetypes="cscsccccsccsccccsccsccscscsccsccccsssccccccsccscccccccccsccsccc" />
</svg>
