<?xml version="1.0" encoding="utf-8"?>
<!-- Generator: Adobe Illustrator 24.0.0, SVG Export Plug-In . SVG Version: 6.00 Build 0)  -->
<svg version="1.1" id="Layer_1" xmlns="http://www.w3.org/2000/svg" xmlns:xlink="http://www.w3.org/1999/xlink" x="0px" y="0px"
	 viewBox="0 0 484 357" style="enable-background:new 0 0 484 357;" xml:space="preserve">
<path d="M241.8,132.1c41.5,0,75.2,33.7,75.2,75.2s-33.7,75.2-75.2,75.2s-75.2-33.7-75.2-75.2S200.3,132.1,241.8,132.1z"/>
<path d="M463,59H338.7L335,30c0-16.6-13.4-30-30-30H177c-16.6,0-30,13.4-30,30l-3.7,29H20C9,59,0,67.5,0,78.5v258
	c0,11,9,20.5,20,20.5h443c11,0,20-9.5,20-20.5v-258C483,67.5,474,59,463,59z M241.6,330.6c-67.9,0-123-55.1-123-123
	c0-67.9,55.1-123,123-123s123,55.1,123,123C364.6,275.5,309.5,330.6,241.6,330.6z M460,112H355V81h105V112z"/>
</svg>
