<?xml version="1.0" encoding="UTF-8" standalone="no"?>
<svg
   version="1.1"
   id="Layer_1"
   x="0px"
   y="0px"
   viewBox="0 0 661.92268 512"
   xml:space="preserve"
   width="661.92267"
   height="512"
   sodipodi:docname="car-alt.svg"
   inkscape:version="1.3 (0e150ed6c4, 2023-07-21)"
   xmlns:inkscape="http://www.inkscape.org/namespaces/inkscape"
   xmlns:sodipodi="http://sodipodi.sourceforge.net/DTD/sodipodi-0.dtd"
   xmlns="http://www.w3.org/2000/svg"
   xmlns:svg="http://www.w3.org/2000/svg"><sodipodi:namedview
   id="namedview1"
   pagecolor="#ffffff"
   bordercolor="#000000"
   borderopacity="0.25"
   inkscape:showpageshadow="2"
   inkscape:pageopacity="0.0"
   inkscape:pagecheckerboard="0"
   inkscape:deskcolor="#d1d1d1"
   inkscape:zoom="0.56140411"
   inkscape:cx="799.78039"
   inkscape:cy="236.01537"
   inkscape:window-width="1920"
   inkscape:window-height="1009"
   inkscape:window-x="-8"
   inkscape:window-y="-8"
   inkscape:window-maximized="1"
   inkscape:current-layer="Layer_1" /><path
   id="path1"
   d="M 154.5884,0 C 129.97848,0 107.91492,15.41549 99.28729,38.46962 L 49.35912,173.25967 28.56906,192.49448 C 10.46521,207.91102 0,230.5398 0,254.30109 V 453.16021 C 0.14144,485.69057 26.58843,512 59.11879,512 h 37.33977 c 32.53036,0 58.98011,-26.30943 59.12155,-58.83979 v -28.85082 h 350.76248 v 28.85082 C 506.48399,485.69057 532.93099,512 565.46129,512 h 37.3398 c 32.5304,0 58.9801,-26.30943 59.1216,-58.83979 V 249.06906 c -0.1415,-22.20551 -9.194,-43.42046 -25.3177,-58.83702 L 622.17679,174.95579 571.54419,38.46962 C 562.91659,15.41549 540.85299,0.14144 516.24309,0 Z m 0,28.28729 h 361.79559 c 12.7293,0 24.184,7.92046 28.7099,19.80111 l 44.1299,118.80663 h -32.9558 c -7.779,-53.03863 -57.141,-89.67182 -110.1796,-81.7514 -42.2894,6.223209 -75.5254,39.46194 -81.7486,81.7514 H 81.74862 L 125.87845,48.0884 c 4.52597,-12.02209 15.98068,-19.80111 28.70995,-19.80111 z m 305.92819,83.95304 c 4.5729,0.0221 9.2094,0.49999 13.8591,1.47237 26.59,5.65746 47.3812,26.45086 53.0387,53.18233 h -134.5055 c 6.8066,-32.54804 35.5972,-54.8094 67.6077,-54.6547 z m -393.6188,82.94199 h 535.6216 l 13.5773,14.56629 c 0.1414,0.28287 0.5658,0.42431 0.7072,0.70718 10.6077,10.04199 16.6878,24.04533 16.6878,38.61327 v 116.68508 h 0.1437 c -0.1415,16.83091 -14.0034,30.40939 -30.8343,30.26796 H 59.11879 C 42.28786,396.16353 28.42873,382.72649 28.28729,365.75414 V 254.30109 c 0,-15.55798 6.92875,-30.40829 18.8094,-40.45027 l 0.56629,-0.5663 z m 13.72099,56.57459 c -7.77899,0 -14.14364,6.36464 -14.14364,14.14364 v 73.54696 c 0,7.77899 6.36465,14.14365 14.14364,14.14365 h 106.07735 c 7.77899,0 14.14365,-6.36466 14.14365,-14.14365 v -73.54696 c 0,-7.779 -6.36466,-14.14364 -14.14365,-14.14364 z m 394.60771,0 c -7.779,0 -14.1436,6.36464 -14.1436,14.14364 v 73.54696 c 0,7.77899 6.3646,14.14365 14.1436,14.14365 h 106.0774 c 7.779,0 14.1436,-6.36466 14.1436,-14.14365 v -73.54696 c 0,-7.779 -6.3646,-14.14364 -14.1436,-14.14364 z m -212.5801,15.55801 c -7.779,0 -14.1436,6.36464 -14.1436,14.14364 0,7.77899 6.3646,14.14365 14.1436,14.14365 h 136.6271 c 7.779,0 14.1437,-6.36466 14.1437,-14.14365 0,-7.779 -6.3647,-14.14364 -14.1437,-14.14364 z M 94.76243,280.0442 h 77.79005 v 45.25967 H 94.76243 Z m 394.60776,0 h 77.79 v 45.25967 h -77.79 z m -226.7238,31.11602 c -7.779,0 -14.1436,6.36464 -14.1436,14.14365 0,7.77899 6.3646,14.14364 14.1436,14.14364 h 136.6271 c 7.779,0 14.1437,-6.36465 14.1437,-14.14364 0,-7.77901 -6.3647,-14.14365 -14.1437,-14.14365 z M 28.28729,416.10496 c 8.48619,5.51602 19.65803,8.20443 30.8315,8.20443 h 68.17403 v 28.85082 c -0.14144,16.97236 -13.8619,30.5525 -30.83426,30.5525 H 59.11879 c -16.97237,0 -30.69006,-13.58014 -30.8315,-30.5525 z m 605.3481,0 v 37.05525 c -0.1415,16.97236 -13.8619,30.5525 -30.8343,30.5525 h -37.3398 c -16.9723,0 -30.69,-13.72158 -30.8314,-30.5525 v -28.85082 h 68.1712 c 11.1735,0 22.3481,-2.68841 30.8343,-8.20443 z"
   style="stroke-width:1.41436"
   sodipodi:nodetypes="scccscssccccssccccccssscccccccsscccsccccscccccscccsssssssssssssssssssssssssccccccccccssssssscsccssccccssccsc" />&#10;	&#10;   &#10;   &#10;	&#10;</svg>
