<?xml version="1.0" encoding="UTF-8" standalone="no"?>
<svg
   id="Vrstva_2"
   viewBox="0 0 33.34 13.34"
   version="1.1"
   sodipodi:docname="car.svg"
   inkscape:version="1.2.2 (732a01da63, 2022-12-09)"
   xmlns:inkscape="http://www.inkscape.org/namespaces/inkscape"
   xmlns:sodipodi="http://sodipodi.sourceforge.net/DTD/sodipodi-0.dtd"
   xmlns="http://www.w3.org/2000/svg"
   xmlns:svg="http://www.w3.org/2000/svg">
  <sodipodi:namedview
     id="namedview10"
     pagecolor="#ffffff"
     bordercolor="#000000"
     borderopacity="0.25"
     inkscape:showpageshadow="2"
     inkscape:pageopacity="0.0"
     inkscape:pagecheckerboard="0"
     inkscape:deskcolor="#d1d1d1"
     showgrid="false"
     inkscape:zoom="14.049822"
     inkscape:cx="8.5766213"
     inkscape:cy="12.455674"
     inkscape:window-width="1920"
     inkscape:window-height="1009"
     inkscape:window-x="1912"
     inkscape:window-y="-8"
     inkscape:window-maximized="1"
     inkscape:current-layer="Vrstva_1-2" />
  <defs
     id="defs4">
    <style
       id="style2">.cls-1{fill:#49b382;}</style>
  </defs>
  <g
     id="Vrstva_1-2">
    <path
       class="cls-1"
       d="m 3.9020001,3.4999597 h -0.5225 -0.5225 c 0,0 -0.505875,-0.02375 -1.01175,0.1626875 -0.505875,0.1864375 -1.01175002,0.5830625 -1.01175002,1.4238125 v 2.432 2.432 c 0,0.4037503 0.152,0.7742503 0.40375002,1.0556883 0.25175,0.281437 0.60325,0.473812 1.00225,0.521312 l 1.22075,0.133 1.22075,0.133 c 0.53675,0.684 1.3015,1.08775 2.1030625,1.186312 0.8015625,0.09856 1.6399375,-0.108062 2.3239375,-0.644812 0.076,-0.057 0.14725,-0.11875 0.2149375,-0.184063 0.067687,-0.06531 0.1318125,-0.134187 0.1935625,-0.205437 H 16.39925 23.282 c 0.5795,0.65075 1.368,1.004625 2.174313,1.050938 0.806312,0.04631 1.630437,-0.214938 2.281187,-0.794438 0.0475,-0.038 0.09263,-0.08075 0.135375,-0.124687 0.04275,-0.04394 0.08312,-0.08906 0.121125,-0.131813 h 1.463 1.463 c 0.437,0 0.833625,-0.178125 1.121,-0.4655 0.287375,-0.287375 0.4655,-0.684 0.4655,-1.121 v -1.5627503 -1.56275 c 0,-0.44175 -0.13775,-0.857375 -0.377625,-1.20175 C 31.889,5.6873347 31.547,5.4142097 31.1385,5.2574597 30.0555,4.8489597 28.93925,4.5402097 27.802812,4.3335847 26.666375,4.1269597 25.50975,4.0224597 24.346,4.0224597 H 23.23925 22.1325 l -1.805,-1.406 -1.805,-1.406 C 18.152,0.93020967 17.73875,0.71170967 17.300562,0.56327217 16.862375,0.41483467 16.39925,0.33645967 15.929,0.33645967 h -2.185 -2.185 c -0.456,0 -0.90725,0.073625 -1.335937,0.216125 -0.4286879,0.1425 -0.8348129,0.353875 -1.2005629,0.62937503 l -1.5485,1.159 -1.5485,1.159 h -1.0165 -1.0165 0.00475 z m -1.5485,6.9730003 c -0.133,-0.01425 -0.25175,-0.07837 -0.3360625,-0.173375 -0.084313,-0.095 -0.1341875,-0.220875 -0.1294375,-0.3586253 v -0.285 -0.285 l 1.05925,0.133 1.05925,0.133 c 0,0.03325 -0.00238,0.0665 -0.00475,0.098562 -0.00237,0.032063 -0.00475,0.062938 -0.00475,0.091438 0,0.1425 0.0095,0.2826253 0.0285,0.4215623 0.019,0.138938 0.0475,0.276688 0.0855,0.414438 l -0.87875,-0.09975 -0.87875,-0.09975 v 0.0047 z m 4.807,1.4725 c -0.58425,0 -1.1115,-0.2375 -1.4926875,-0.619875 C 5.2866251,10.94321 5.0515001,10.41596 5.0515001,9.8364597 c 0,-0.5795 0.2375,-1.10675 0.619875,-1.489125 0.382375,-0.382375 0.909625,-0.619875 1.489125,-0.619875 0.5795,0 1.10675,0.2375 1.489125,0.619875 0.382375,0.382375 0.619875,0.909625 0.619875,1.489125 0,0.5795003 -0.2375,1.1067503 -0.619875,1.4891253 -0.382375,0.382375 -0.909625,0.619875 -1.489125,0.619875 z M 10.1435,10.89096 c 0.06175,-0.171 0.106875,-0.344375 0.136563,-0.520125 0.02969,-0.17575 0.04394,-0.353875 0.04394,-0.5343753 h 6.0705 6.0705 c 0,0.1805003 0.01663,0.3586253 0.0475,0.5343753 0.03088,0.17575 0.076,0.349125 0.133,0.520125 h -6.25575 -6.25575 0.0047 z m 15.4945,1.0545 c -0.58425,0 -1.1115,-0.2375 -1.492688,-0.619875 C 23.764125,10.94321 23.529,10.41596 23.529,9.8364597 c 0,-0.5795 0.2375,-1.10675 0.619875,-1.489125 0.382375,-0.382375 0.909625,-0.619875 1.489125,-0.619875 0.5795,0 1.10675,0.2375 1.489125,0.619875 0.382375,0.382375 0.619875,0.909625 0.619875,1.489125 0,0.5795003 -0.2375,1.1067503 -0.619875,1.4891253 C 26.74475,11.70796 26.2175,11.94546 25.638,11.94546 Z m 5.282,-1.0545 H 29.7705 28.621 c 0.06175,-0.171 0.106875,-0.344375 0.136562,-0.520125 0.02969,-0.17575 0.04394,-0.353875 0.04394,-0.5343753 h 1.3205 1.3205 v 0.2660003 0.266 c 0,0.14725 -0.05938,0.28025 -0.155563,0.376437 -0.09619,0.09619 -0.229187,0.155563 -0.376437,0.155563 l 0.0047,-0.0047 z m -13.0435,-8.8350003 1.26825,0.988 1.26825,0.988 H 16.95975 13.5065 v -1.3205 -1.3205 h 1.216 1.216 c 0.3515,0 0.69825,0.059375 1.027187,0.1721875 0.328938,0.1128125 0.640063,0.2790625 0.920313,0.4928125 h -0.0047 z m -8.2079999,-0.0285 C 9.9440001,1.8232097 10.248,1.6640847 10.568625,1.5560222 10.88925,1.4479597 11.2265,1.3909597 11.5685,1.3909597 h 0.44175 0.44175 v 1.3205 1.3205 H 10.913 9.3740001 c -0.34675,0 -0.6935,-0.019 -1.0390625,-0.057 -0.3455625,-0.038 -0.6899375,-0.095 -1.0319375,-0.171 l 1.18275,-0.88825 z m -3.6195,2.5365 c 0.53675,0.17575 1.085375,0.306375 1.641125,0.39425 0.55575,0.087875 1.118625,0.133 1.683875,0.13775 H 16.86475 24.3555 c 1.09725,0 2.18975,0.097375 3.26325,0.2909375 1.0735,0.1935625 2.128,0.4833125 3.14925,0.8680625 0.20425,0.076 0.37525,0.21375 0.495187,0.387125 0.119938,0.173375 0.188813,0.382375 0.188813,0.600875 v 0.7695 0.7695 H 30.04125 28.6305 c -0.28975,-0.82175 -0.885875,-1.44875 -1.615,-1.797875 -0.729125,-0.349125 -1.59125,-0.420375 -2.413,-0.130625 -0.45125,0.15675 -0.855,0.41325 -1.185125,0.743375 C 23.08725,7.9269597 22.83075,8.3307097 22.674,8.7819597 H 16.41825 10.1625 c -0.2897499,-0.82175 -0.8882499,-1.44875 -1.6197499,-1.797875 -0.7315,-0.349125 -1.596,-0.420375 -2.41775,-0.130625 -0.42275,0.14725 -0.80275,0.382375 -1.1198125,0.6828125 C 4.6881251,7.8367097 4.4340001,8.2024597 4.2630001,8.6109597 l -1.178,-0.14725 -1.178,-0.14725 v -1.615 -1.615 c 0,-0.14725 0.059375,-0.28025 0.1555625,-0.3764375 0.096187,-0.096188 0.2291875,-0.1555625 0.3764375,-0.1555625 h 1.80975 1.80975 l -0.00475,0.00475 z"
       id="path6"
       sodipodi:nodetypes="cccsscsscccscscccscsccssscsscssccccsscssccccccccscccccssscccccssssssssscscccscccccssssssssscccsccccsscccccccccccssccccsscccccssccccsccsscssccccscscccscsccccssscccc"
       style="stroke-width:0.95" />
  </g>
</svg>
