<?xml version="1.0" encoding="UTF-8" standalone="no"?>
<svg
   width="19px"
   height="20px"
   viewBox="0 0 19 20"
   version="1.1"
   id="svg11"
   sodipodi:docname="cart.svg"
   inkscape:version="1.2.1 (9c6d41e410, 2022-07-14)"
   xmlns:inkscape="http://www.inkscape.org/namespaces/inkscape"
   xmlns:sodipodi="http://sodipodi.sourceforge.net/DTD/sodipodi-0.dtd"
   xmlns="http://www.w3.org/2000/svg"
   xmlns:svg="http://www.w3.org/2000/svg">
  <defs
     id="defs15" />
  <sodipodi:namedview
     id="namedview13"
     pagecolor="#ffffff"
     bordercolor="#000000"
     borderopacity="0.25"
     inkscape:showpageshadow="2"
     inkscape:pageopacity="0.0"
     inkscape:pagecheckerboard="0"
     inkscape:deskcolor="#d1d1d1"
     showgrid="false"
     inkscape:zoom="256"
     inkscape:cx="13.179688"
     inkscape:cy="18.808594"
     inkscape:window-width="1920"
     inkscape:window-height="1009"
     inkscape:window-x="1912"
     inkscape:window-y="-8"
     inkscape:window-maximized="1"
     inkscape:current-layer="g334" />
  <title
     id="title2">Group 10499</title>
  <g
     id="g334"
     transform="translate(1.8281063,1.3872136)">
    <path
       d="m 8.9984213,6.473867 c -0.256614,1.2095671 -1.3245116,2.0746741 -2.561,2.0746741 -1.2364884,0 -2.3043857,-0.865107 -2.561,-2.0746741 C 3.8121579,6.1186052 3.4754577,5.880065 3.1189885,5.9372526 2.7625193,5.9944402 2.5173322,6.3263312 2.5674213,6.683867 c 0.377776,1.8368417 1.9947128,3.1550722 3.87,3.1550722 1.8752872,0 3.492224,-1.3182305 3.8699997,-3.1550722 C 10.35751,6.3263312 10.112323,5.9944402 9.7558543,5.9372526 9.3993853,5.880065 9.0626843,6.1186052 8.9984213,6.473867 Z"
       id="Path_12198"
       style="fill:#000000" />
    <path
       d="M 11.591421,17.154867 H 0.5664213 c -0.1733529,-0.0088 -0.3361005,-0.08613 -0.4523926,-0.214994 -0.1162921,-0.12886 -0.1765886,-0.298663 -0.1676074,-0.472006 l 0.531,-11.255 c 0,-0.3611942 0.2928058,-0.654 0.654,-0.654 l 10.5859997,-0.028 c 0.361356,5.517e-4 0.654,0.2936436 0.654,0.655 l 0.11,2.344 c 0.004,0.2393568 0.137858,0.4575974 0.34941,0.5696403 0.211551,0.112043 0.4673,0.1001522 0.667543,-0.031037 0.200243,-0.1311885 0.313281,-0.3609086 0.295047,-0.5996033 l -0.11,-2.346 c -0.0445,-1.0515908 -0.910468,-1.8809413 -1.963,-1.88 h -1.368 v -0.489 c 0.02263,-1.4177378 -0.7207727,-2.7375721 -1.9449373,-3.45305309 -1.2241648,-0.71548091 -2.73896,-0.71548091 -3.9631248,0 C 3.2201941,0.0162949 2.4767953,1.3361292 2.4994213,2.753867 v 0.485 h -1.368 c -1.0525316,-9.413e-4 -1.91849703,0.8284092 -1.963,1.88 l -0.531,11.277 v 0.1 c 5.297e-4,0.520702 0.208023,1.019837 0.57677734,1.387466 0.3687543,0.367629 0.86852156,0.573596 1.38922266,0.572534 l 10.9909997,0.005 c 0.422452,0 0.616864,-0.3265 0.608081,-0.653 -0.0088,-0.3265 -0.220758,-0.653 -0.611081,-0.653 z m -7.7839997,-14.4 v 0 C 3.7889038,1.8075291 4.2837069,0.9241197 5.1011785,0.4450244 c 0.8174716,-0.4790952 1.8300141,-0.4790952 2.6474856,0 0.8174716,0.4790953 1.3122752,1.3625047 1.2937572,2.3098426 v 0.485 h -5.234 z"
       id="Path_12199"
       style="fill:#000000"
       sodipodi:nodetypes="ccsccccccsscccccssccccccsccsccssscccc" />
    <path
       d="m 16.523421,12.417867 c -0.122464,-0.122284 -0.290025,-0.188512 -0.463,-0.183 h -2.292 V 9.9438672 c 0.0093,-0.237037 -0.111818,-0.46017 -0.315685,-0.581462 -0.203866,-0.121293 -0.457763,-0.121293 -0.66163,0 -0.203867,0.121292 -0.325009,0.344425 -0.315685,0.581462 v 2.2909998 h -2.291 c -0.2370367,-0.0093 -0.4601697,0.111818 -0.5814617,0.315685 -0.121292,0.203866 -0.121292,0.457763 0,0.66163 0.121292,0.203867 0.344425,0.325009 0.5814617,0.315685 h 2.291 v 2.278 c -0.0039,0.174469 0.06196,0.343287 0.183,0.469 0.255986,0.255036 0.670015,0.255036 0.926,0 0.121792,-0.125303 0.188096,-0.294308 0.184,-0.469 v -2.278 h 2.292 c 0.260934,-0.0036 0.494828,-0.161774 0.595366,-0.402589 0.100538,-0.240814 0.04854,-0.518333 -0.132366,-0.706411 z"
       id="Path_12200"
       style="fill:#000000" />
  </g>
</svg>
