<?xml version="1.0" encoding="utf-8"?>
<!-- Generator: Adobe Illustrator 24.0.0, SVG Export Plug-In . SVG Version: 6.00 Build 0)  -->
<svg version="1.1" id="Layer_1" xmlns="http://www.w3.org/2000/svg" xmlns:xlink="http://www.w3.org/1999/xlink" x="0px" y="0px"
	 viewBox="0 0 19.7 13.8" style="enable-background:new 0 0 19.7 13.8;" xml:space="preserve">
<path d="M0.4,13.8l0.4-0.8c0.2-0.4,0.4-0.9,0.6-1.3c0.1-0.2,0.1-0.4-0.1-0.5c-0.5-0.5-0.8-1-1.1-1.6c-0.5-1.2-0.4-2.6,0.3-3.7
	c0.6-1,1.5-1.8,2.6-2.3c1.3-0.6,2.7-0.8,4.1-0.6c1.1,0.1,2.2,0.5,3.1,1.1c1.1,0.7,1.9,1.7,2.2,3c0.3,1,0.1,2.1-0.4,3
	c-0.5,1-1.3,1.8-2.3,2.3c-2,1.1-4.4,1.2-6.5,0.3c-0.2-0.1-0.4-0.1-0.6,0C2,12.9,1.3,13.3,0.4,13.8L0.4,13.8z M8.1,8.9V8.1
	C8.1,8,8,7.9,8,7.9H7.4c-0.1,0-0.1,0-0.1-0.1c0-0.5,0.3-1,0.7-1.2c0.1,0,0.1,0,0-0.1L7.9,5.9c0-0.1,0-0.1-0.1,0
	C7.6,6,7.5,6.1,7.3,6.2C6.9,6.5,6.7,7,6.6,7.5C6.6,8.2,6.5,9,6.6,9.7c0,0.1,0,0.1,0.1,0.1h1.3C8,9.8,8,9.7,8,9.7L8.1,8.9z M5.6,8.9
	V8.1c0-0.1,0-0.1-0.1-0.1H5c-0.2,0-0.1,0-0.1-0.1c0-0.5,0.3-1,0.8-1.2c0,0,0.1,0,0-0.1C5.6,6.3,5.5,6.1,5.4,5.9c0,0,0-0.1-0.1,0
	C5,6,4.7,6.3,4.5,6.5C4.3,6.9,4.1,7.4,4.1,7.8c-0.1,0.6,0,1.2,0,1.8c0,0.1,0,0.1,0.1,0.1h1.3c0.1,0,0.1,0,0.1-0.1
	C5.6,9.4,5.6,9.1,5.6,8.9L5.6,8.9z"/>
<path d="M19.2,10.3c-0.1,0-0.1,0-0.1,0l-1.6-0.8l-0.7-0.3c-0.1-0.1-0.3-0.1-0.4,0c-0.7,0.3-1.5,0.5-2.2,0.5h-0.1
	c0.2-0.4,0.3-0.8,0.4-1.1c0.2-0.8,0.1-1.6-0.1-2.3c-0.1-0.3-0.2-0.7-0.4-1c-0.1-0.1-0.1-0.2-0.1-0.3c0-0.1,0-0.3,0-0.4V3.1
	c0-0.1,0-0.1-0.1-0.1h-1.1c-0.2,0-0.2,0-0.2,0.2c0,0,0,0.1,0,0.1s-0.1,0-0.1-0.1c-0.9-0.7-2-1.2-3.2-1.4L8.7,1.7c0,0-0.1,0-0.1,0
	s0-0.1,0-0.1c0.2-0.2,0.4-0.3,0.6-0.5c0.7-0.4,1.4-0.7,2.2-0.9C12,0.1,12.5,0,13,0c0.8,0,1.5,0,2.3,0.2c1,0.2,1.9,0.6,2.7,1.2
	c0.7,0.5,1.3,1.3,1.6,2.1c0.2,0.5,0.3,1,0.2,1.5c0,0.8-0.3,1.5-0.8,2.1c-0.2,0.2-0.4,0.5-0.6,0.7c-0.2,0.1-0.2,0.4-0.1,0.6
	L19.2,10.3z M14.9,3.9v0.8c0,0.1,0,0.1,0.1,0.1h0.5c0.2,0,0.1,0,0.1,0.1c0,0.1,0,0.3-0.1,0.4c-0.1,0.3-0.3,0.6-0.7,0.8
	c0,0-0.1,0-0.1,0.1c0,0,0,0,0,0c0.1,0.2,0.2,0.4,0.2,0.6c0,0.1,0,0.1,0.1,0c0.4-0.2,0.7-0.5,0.9-0.9c0.2-0.4,0.3-0.9,0.3-1.4V3.1
	c0-0.1,0-0.1-0.1-0.1h-1.2c-0.1,0-0.1,0-0.1,0.1C14.9,3.4,14.9,3.6,14.9,3.9L14.9,3.9z"/>
</svg>
