<?xml version="1.0" encoding="utf-8"?>
<!-- Generator: Adobe Illustrator 24.0.0, SVG Export Plug-In . SVG Version: 6.00 Build 0)  -->
<svg version="1.1" id="Layer_1" xmlns="http://www.w3.org/2000/svg" xmlns:xlink="http://www.w3.org/1999/xlink" x="0px" y="0px"
	 viewBox="0 0 62.9 62.9" style="enable-background:new 0 0 62.9 62.9;" xml:space="preserve">
<path d="M61.1,0.7c-1.8-1.2-4.3-0.7-5.5,1.2L24.1,52.2L6.7,35.3c-1.6-1.5-4.1-1.4-5.6,0.2c-1.5,1.6-1.4,4.2,0.2,5.6l20.9,20.4
	l0.1,0.1l0.3,0.3l0.5,0.2l0.7,0.3l0.7,0.1l1,0l0.4-0.1L27,62l0.2-0.1l0.7-0.5l0.3-0.5l0,0l34-54.6C63.5,4.3,62.9,1.9,61.1,0.7z"/>
</svg>
