<?xml version="1.0" encoding="UTF-8" standalone="no"?>
<!-- Generator: Adobe Illustrator 24.0.0, SVG Export Plug-In . SVG Version: 6.00 Build 0)  -->

<svg
   version="1.1"
   id="Layer_1"
   x="0px"
   y="0px"
   viewBox="0 0 17 17"
   style="enable-background:new 0 0 17 17;"
   xml:space="preserve"
   sodipodi:docname="cog-o.svg"
   inkscape:version="1.2.1 (9c6d41e410, 2022-07-14)"
   xmlns:inkscape="http://www.inkscape.org/namespaces/inkscape"
   xmlns:sodipodi="http://sodipodi.sourceforge.net/DTD/sodipodi-0.dtd"
   xmlns="http://www.w3.org/2000/svg"
   xmlns:svg="http://www.w3.org/2000/svg"><defs
   id="defs681" /><sodipodi:namedview
   id="namedview679"
   pagecolor="#ffffff"
   bordercolor="#000000"
   borderopacity="0.25"
   inkscape:showpageshadow="2"
   inkscape:pageopacity="0.0"
   inkscape:pagecheckerboard="0"
   inkscape:deskcolor="#d1d1d1"
   showgrid="false"
   inkscape:zoom="137.92742"
   inkscape:cx="14.739637"
   inkscape:cy="8.5262236"
   inkscape:window-width="1920"
   inkscape:window-height="1009"
   inkscape:window-x="1912"
   inkscape:window-y="-8"
   inkscape:window-maximized="1"
   inkscape:current-layer="Layer_1" />
<path
   class="st0"
   d="M 17,8 C 17,7.1 16.3,6.4 15.4,6.4 v 0 H 15.1 C 15.1,6.4 15,6.4 15,6.3 14.9,6 14.8,5.7 14.6,5.4 V 5.3 L 14.8,5.1 C 15.1,4.8 15.3,4.4 15.3,4 15.3,3.6 15.1,3.2 14.8,2.9 L 14,2.1 C 13.7,1.8 13.3,1.6 12.9,1.6 12.5,1.6 12.1,1.8 11.8,2 l -0.2,0.2 h -0.1 v 0 C 11.2,2.1 10.8,2 10.5,1.9 c 0,0 -0.1,0 -0.1,-0.1 V 1.6 C 10.6,0.7 9.9,0 9.1,0 V 0 H 8 C 7.1,0 6.4,0.7 6.4,1.6 V 1.6 1.9 2 2 C 6,2.1 5.7,2.2 5.4,2.4 v 0 H 5.3 L 5.1,2.2 C 4.5,1.6 3.5,1.6 2.9,2.2 L 2.2,2.9 C 1.9,3.2 1.7,3.6 1.7,4 1.7,4.4 1.9,4.8 2.2,5.1 L 2.4,5.3 V 5.4 C 2.2,5.7 2.1,6 2,6.3 2,6.3 2,6.4 1.9,6.4 H 1.6 C 0.7,6.4 0,7.1 0,8 v 0 1.1 c 0,0.9 0.7,1.6 1.6,1.6 h 0.3 c 0,0 0.1,0 0.1,0.1 0.1,0.3 0.2,0.6 0.4,0.9 v 0.1 L 2.2,12 c -0.3,0.3 -0.5,0.7 -0.5,1.1 0,0.4 0.2,0.8 0.5,1.1 L 3,15 c 0.3,0.3 0.7,0.5 1.1,0.5 0.4,0 0.8,-0.2 1.1,-0.5 l 0.2,-0.2 h 0.1 v 0 c 0.2,0.1 0.5,0.2 0.8,0.3 0,0 0.1,0 0.1,0.1 v 0.3 C 6.4,16.3 7.1,17 8,17 h 1.1 c 0.9,0 1.6,-0.7 1.6,-1.6 v -0.3 c 0,0 0,-0.1 0.1,-0.1 0.3,-0.1 0.6,-0.2 0.9,-0.4 v 0 h 0.1 l 0.2,0.2 c 0.3,0.3 0.7,0.5 1.1,0.5 0.4,0 0.8,-0.2 1.1,-0.5 L 15,14 c 0.3,-0.3 0.5,-0.7 0.5,-1.1 0,-0.4 -0.2,-0.7 -0.4,-1 l -0.2,-0.2 v -0.1 c 0.2,-0.3 0.3,-0.6 0.4,-0.9 0,0 0,-0.1 0.1,-0.1 h 0.3 C 16.6,10.6 17.004245,9.8 17.004245,9 17.00746,8.6689872 17.001751,8.3233299 17,8 Z m -1,1.1 c 0,0.3 -0.3,0.6 -0.6,0.6 h -0.7 c -0.2,0 -0.4,0.2 -0.5,0.4 -0.1,0.5 -0.4,1.1 -0.6,1.5 -0.1,0.2 -0.1,0.4 0.1,0.6 l 0.5,0.5 c 0.2,0.2 0.2,0.6 0,0.8 l -0.8,0.8 c -0.1,0.1 -0.3,0.2 -0.4,0.2 -0.2,0 -0.3,-0.1 -0.4,-0.2 l -0.5,-0.5 c -0.1,-0.1 -0.2,-0.1 -0.4,-0.1 -0.1,0 -0.2,0 -0.3,0.1 -0.5,0.3 -1,0.5 -1.5,0.6 -0.2,0.1 -0.4,0.3 -0.4,0.5 v 0.7 C 9.6,15.8 9.3,16 9,16 H 8 C 7.7,16 7.4,15.7 7.4,15.4 V 14.7 C 7.4,14.5 7.2,14.3 7,14.2 6.5,14.1 6,13.8 5.5,13.6 v 0 C 5.4,13.6 5.4,13.5 5.3,13.5 5.2,13.5 5,13.5 5,13.6 L 4.5,14.1 C 4.4,14.2 4.2,14.3 4.1,14.3 4,14.3 3.8,14.2 3.7,14.1 L 2.9,13.3 C 2.7,13.1 2.7,12.7 2.9,12.5 L 3.4,12 C 3.6,11.8 3.6,11.6 3.5,11.4 3.2,10.9 3,10.4 2.9,9.9 2.7,9.8 2.5,9.6 2.3,9.6 H 1.6 C 1.3,9.6 1,9.4 1,9.1 V 8 C 1,7.7 1.3,7.4 1.6,7.4 H 2.3 C 2.5,7.4 2.7,7.2 2.8,7 2.9,6.5 3.2,5.9 3.4,5.5 3.5,5.3 3.5,5 3.4,4.9 L 2.8,4.4 C 2.6,4.2 2.6,3.8 2.8,3.6 v 0 L 3.6,2.8 C 3.7,2.7 3.8,2.6 4,2.7 c 0.2,0 0.3,0.1 0.4,0.2 l 0.5,0.5 c 0.1,0 0.2,0.1 0.4,0.1 0.1,0 0.2,0 0.3,-0.1 C 6,3.1 6.5,2.9 7,2.8 7.2,2.7 7.4,2.5 7.4,2.3 V 1.6 C 7.4,1.3 7.6,1 7.9,1 H 8 9.1 c 0.3,0 0.6,0.3 0.6,0.6 v 0.7 c 0,0.2 0.2,0.4 0.4,0.5 0.5,0.1 1.1,0.4 1.5,0.6 0.1,0 0.2,0.1 0.3,0.1 0.1,0 0.3,0 0.4,-0.1 l 0.5,-0.5 c 0.1,-0.1 0.3,-0.2 0.4,-0.2 0.1,0 0.3,0.1 0.4,0.2 l 0.8,0.8 c 0.1,0.1 0.2,0.3 0.2,0.4 0,0.2 -0.1,0.3 -0.2,0.4 L 13.9,5 c -0.2,0.2 -0.2,0.4 -0.1,0.6 0.3,0.5 0.5,1 0.6,1.5 0.1,0.2 0.3,0.4 0.5,0.4 h 0.7 C 15.8,7.4 16,7.7 16,8 v 0 z"
   id="path674"
   sodipodi:nodetypes="cscccccssssscccscscscsscccssccssssscccssscssccccssssssccscsssssccsccsssssccccssccssscsssssssssccscsssscssscssssssccsssssscsccscscscsccssscsssccsssssssssccscscs" />
<path
   class="st0"
   d="M8.5,4.8c-2,0-3.7,1.7-3.7,3.7s1.7,3.7,3.7,3.7s3.7-1.7,3.7-3.7C12.2,6.5,10.6,4.8,8.5,4.8z M8.5,11.2  c-1.5,0-2.7-1.2-2.7-2.7S7,5.8,8.5,5.8h0.1c1.5,0,2.7,1.2,2.7,2.7S10,11.2,8.5,11.2z"
   id="path676" />
</svg>
