<?xml version="1.0" encoding="utf-8"?>
<!-- Generator: Adobe Illustrator 24.0.0, SVG Export Plug-In . SVG Version: 6.00 Build 0)  -->
<svg version="1.1" id="Layer_1" xmlns="http://www.w3.org/2000/svg" xmlns:xlink="http://www.w3.org/1999/xlink" x="0px" y="0px"
	 viewBox="0 0 20 20" style="enable-background:new 0 0 20 20;" xml:space="preserve">
<path class="st0" d="M16.6,6.5L18,3.9l-1.8-1.8l-2.6,1.4c-0.4-0.2-0.9-0.4-1.4-0.5l-1-3H8.8l-1,2.9C7.3,3,6.9,3.2,6.5,3.4L3.9,2
	L2,3.9l1.4,2.6C3.2,6.9,3,7.3,2.9,7.8L0,8.8v2.5l2.9,1c0.1,0.5,0.4,0.9,0.5,1.4L2,16.3L3.8,18l2.6-1.4c0.4,0.2,0.9,0.4,1.4,0.5
	l1,2.9h2.5l1-2.9c0.5-0.1,0.9-0.4,1.4-0.5l2.6,1.4l1.8-1.8l-1.4-2.6c0.2-0.4,0.4-0.9,0.5-1.4l2.9-1V8.8l-2.9-1
	C17,7.3,16.8,6.9,16.6,6.5z M10,13.8c-2,0-3.7-1.6-3.8-3.6c0,0,0-0.1,0-0.1c0-2,1.6-3.7,3.6-3.8c0,0,0.1,0,0.1,0
	c2,0,3.7,1.6,3.8,3.6c0,0,0,0.1,0,0.1c0,2-1.6,3.7-3.6,3.8C10.1,13.8,10,13.8,10,13.8z"/>
</svg>
