<?xml version="1.0" encoding="utf-8"?>
<!-- Generator: Adobe Illustrator 24.0.0, SVG Export Plug-In . SVG Version: 6.00 Build 0)  -->
<svg version="1.1" id="Layer_1" xmlns="http://www.w3.org/2000/svg" xmlns:xlink="http://www.w3.org/1999/xlink" x="0px" y="0px"
	 viewBox="0 0 17.4 16.4" style="enable-background:new 0 0 17.4 16.4;" xml:space="preserve">
<path d="M8.6,4.2L8.4,4.1C8.3,4,8.2,4,8.2,3.9C7.9,3.7,7.9,3.3,8.1,3C8.6,2.3,8.6,2.3,8,1.6C7.7,1.2,7.7,1.2,7.2,1.4L6.8,1.5
	C6.4,1.7,6.1,1.5,6,1C6,0.8,5.9,0.6,5.9,0.4c0-0.1-0.1-0.2-0.2-0.2C5.3,0.1,5,0,4.6,0C4.5,0,4.4,0.1,4.3,0.2
	C4.2,0.4,4.1,0.7,3.9,0.9C3.8,1.2,3.5,1.2,3.3,1.1C3.1,1,2.8,0.8,2.6,0.6c-0.1-0.1-0.2-0.1-0.3,0C1.9,0.8,1.6,1.1,1.4,1.3
	C1.3,1.4,1.3,1.5,1.3,1.6c0.1,0.3,0.2,0.5,0.3,0.8c0,0.1,0,0.2,0,0.3C1.4,3.1,1.1,3,0.9,3.1C0.1,3.2,0.1,3.2,0,4
	C0,4.6,0,4.6,0.5,4.9C0.6,5,0.7,5,0.8,5.1C1,5.1,1.1,5.3,1.1,5.5c0,0.2,0,0.3-0.1,0.5C0.9,6.1,0.8,6.3,0.6,6.5
	c-0.1,0.1-0.1,0.2,0,0.3C0.8,7.2,1,7.4,1.3,7.7c0.1,0.1,0.2,0.2,0.3,0.1c0.3-0.1,0.5-0.2,0.8-0.3h0.1c0.3,0.1,0.5,0.4,0.6,0.8
	C3.3,8.9,3.2,8.9,3.9,9s0.7,0.1,1-0.5l0-0.1c0,0,0,0,0-0.1c0.2-0.4,0.7-0.5,1-0.2C6.8,8.6,6.8,8.6,7.5,8c0.2-0.2,0.3-0.3,0.3-0.4
	c0-0.1,0-0.2-0.1-0.4c0-0.1,0-0.2-0.1-0.3c0-0.1,0-0.1,0-0.2c0-0.4,0.2-0.8,0.6-0.8C9,5.8,9,5.8,9.1,5C9.1,4.4,9.1,4.4,8.6,4.2z
	 M6.3,4.7c0,1-0.8,1.7-1.7,1.7c-1,0-1.7-0.8-1.7-1.7c0-1,0.8-1.7,1.7-1.7C5.5,2.9,6.3,3.7,6.3,4.7L6.3,4.7z"/>
<path d="M15,15.3l-0.1-0.1c-0.1-0.1-0.2-0.1-0.3-0.2c-0.3-0.3-0.7-0.2-1-0.1c-0.1,0-0.1,0.1-0.1,0.1c-0.1,0.2-0.2,0.4-0.3,0.7
	c0,0.1-0.1,0.2-0.3,0.2c-0.4,0-0.7-0.1-1.1-0.1c-0.1,0-0.3-0.1-0.3-0.3c0-0.1-0.1-0.3-0.1-0.4c0-0.3-0.2-0.6-0.5-0.7
	c-0.1,0-0.2,0-0.2,0c-0.2,0.1-0.4,0.1-0.6,0.2c-0.2,0.1-0.4,0-0.5-0.1c-0.2-0.2-0.4-0.5-0.6-0.8c-0.1-0.1-0.1-0.2,0-0.3
	c0.1-0.2,0.2-0.3,0.3-0.5c0.2-0.2,0.2-0.6,0-0.8c-0.1-0.1-0.2-0.1-0.2-0.1h0c-0.8-0.4-0.8-0.4-0.6-1.2C8.5,9.9,8.5,10,9.1,9.8
	l0.4-0.1c0.3,0,0.5-0.3,0.5-0.5c0-0.1,0-0.1-0.1-0.2c0-0.2-0.1-0.4-0.2-0.5C9.6,8.3,9.6,8.1,9.8,7.9c0,0,0,0,0,0l0,0
	c0.8-0.7,0.8-0.7,1.6-0.1c0.4,0.3,0.6,0.2,0.9-0.2c0.1-0.1,0.1-0.2,0.2-0.4c0.1-0.4,0.3-0.5,0.7-0.4c0.9,0.1,0.9,0.1,1.1,1
	c0,0.2,0.1,0.5,0.3,0.6c0.1,0.1,0.2,0.1,0.4,0c0.2-0.1,0.5-0.1,0.7-0.2c0.1-0.1,0.2,0,0.3,0.1c0.3,0.3,0.5,0.6,0.7,0.9
	c0.1,0.1,0.1,0.2,0,0.3c-0.1,0.1-0.2,0.3-0.3,0.5c-0.2,0.2-0.3,0.5-0.1,0.8c0,0.1,0.1,0.2,0.2,0.2c0.2,0.1,0.5,0.2,0.7,0.4
	c0.1,0,0.2,0.1,0.2,0.2c0,0.4-0.1,0.7-0.2,1.1c0,0.1-0.1,0.2-0.2,0.2c-0.1,0-0.3,0.1-0.4,0.1c-0.3,0-0.6,0.2-0.7,0.5
	c-0.1,0.1-0.1,0.3,0,0.4c0.1,0.1,0.1,0.3,0.1,0.4c0.1,0.2,0.1,0.5-0.1,0.7c0,0,0,0,0,0c-0.2,0.2-0.4,0.3-0.7,0.5
	C15.1,15.2,15.1,15.3,15,15.3z M14.6,11.3c0-1-0.8-1.7-1.7-1.7c-1,0-1.7,0.8-1.7,1.7c0,1,0.8,1.7,1.7,1.7
	C13.8,13.1,14.6,12.3,14.6,11.3C14.6,11.3,14.6,11.3,14.6,11.3z"/>
<path d="M6.6,15.4c-0.2,0-0.3-0.1-0.4-0.1c-0.2,0-0.5,0.1-0.5,0.3c0,0,0,0,0,0c-0.1,0.5-0.1,0.5-0.6,0.6c-0.2,0-0.3,0-0.4-0.2
	c-0.1-0.1-0.1-0.3-0.3-0.4c-0.2-0.1-0.4,0-0.5,0.2c-0.2,0.3-0.4,0.1-0.7,0s-0.4-0.3-0.3-0.6C3,15.3,3,15.1,2.9,15
	c-0.1-0.2-0.3-0.2-0.5-0.2c-0.2,0-0.4-0.1-0.4-0.3c0,0,0,0,0-0.1c0-0.1,0-0.2-0.1-0.3c0-0.1,0-0.3,0.1-0.3c0.1-0.1,0.2-0.1,0.3-0.2
	c0.1-0.1,0.2-0.3,0.1-0.4c0,0,0,0,0-0.1c0,0-0.1-0.1-0.1-0.1c-0.3-0.4-0.3-0.3,0-0.7C2.4,12,2.6,11.9,2.9,12c0,0,0,0,0,0
	c0.4,0.1,0.5,0,0.6-0.4c0-0.1,0-0.3,0.1-0.4C3.8,11.1,4,11,4.3,11c0.1,0,0.1,0.1,0.1,0.1l0.2,0.3c0.2,0.3,0.3,0.3,0.6,0.1
	c0.1-0.1,0.2-0.3,0.4-0.3c0.2,0.1,0.5,0.2,0.6,0.4c0,0,0.1,0.1,0,0.1c0,0.1,0,0.2-0.1,0.3c-0.1,0.4,0,0.5,0.5,0.6
	c0.1,0,0.3-0.1,0.4,0.1c0.1,0.2,0.2,0.5,0.2,0.7c0,0.1-0.1,0.1-0.1,0.2c-0.6,0.4-0.6,0.5-0.2,1c0.1,0.1,0.1,0.3,0,0.4
	C6.8,15.1,6.8,15.3,6.6,15.4z M3.6,13.7c0,0.6,0.4,1,1,1c0.6,0,1-0.4,1-1c0-0.6-0.4-1-1-1c0,0,0,0,0,0C4,12.7,3.6,13.2,3.6,13.7z"/>
</svg>
