<?xml version="1.0" encoding="UTF-8" standalone="no"?>
<svg
   width="442.18286"
   height="512"
   viewBox="0 0 442.18286 512"
   fill="none"
   version="1.1"
   id="svg1"
   sodipodi:docname="copy.svg"
   inkscape:version="1.3 (0e150ed6c4, 2023-07-21)"
   xmlns:inkscape="http://www.inkscape.org/namespaces/inkscape"
   xmlns:sodipodi="http://sodipodi.sourceforge.net/DTD/sodipodi-0.dtd"
   xmlns="http://www.w3.org/2000/svg"
   xmlns:svg="http://www.w3.org/2000/svg">
  <defs
     id="defs1" />
  <sodipodi:namedview
     id="namedview1"
     pagecolor="#ffffff"
     bordercolor="#000000"
     borderopacity="0.25"
     inkscape:showpageshadow="2"
     inkscape:pageopacity="0.0"
     inkscape:pagecheckerboard="0"
     inkscape:deskcolor="#d1d1d1"
     inkscape:zoom="17.964932"
     inkscape:cx="13.804673"
     inkscape:cy="15.502425"
     inkscape:window-width="1920"
     inkscape:window-height="1009"
     inkscape:window-x="1912"
     inkscape:window-y="-8"
     inkscape:window-maximized="1"
     inkscape:current-layer="svg1" />
  <g
     id="copy 27"
     transform="matrix(34.909164,0,0,34.909164,-46.545436,-23.272683)">
    <path
       id="Vector"
       fill-rule="evenodd"
       clip-rule="evenodd"
       d="M 3.33333,2 C 2.96515,2 2.66667,2.29848 2.66667,2.66666 v 8.00004 c 0,0.3682 -0.29848,0.6666 -0.66667,0.6666 -0.36819,0 -0.66667,-0.2984 -0.66667,-0.6666 V 2.66666 c 0,-1.10456 0.89544,-1.999996 2,-1.999996 H 10 c 0.3682,0 0.6667,0.29848 0.6667,0.666666 C 10.6667,1.70152 10.3682,2 10,2 Z M 4,5.33333 c 0,-1.10457 0.89543,-2 2,-2 h 6 c 1.1046,0 2,0.89543 2,2 v 7.99997 c 0,1.1046 -0.8954,2 -2,2 H 6 c -1.10457,0 -2,-0.8954 -2,-2 z M 6,4.66666 c -0.36819,0 -0.66667,0.29848 -0.66667,0.66667 V 13.3333 C 5.33333,13.7015 5.63181,14 6,14 h 6 c 0.3682,0 0.6667,-0.2985 0.6667,-0.6667 V 5.33333 C 12.6667,4.96514 12.3682,4.66666 12,4.66666 Z"
       fill="#aac1d7" />
  </g>
</svg>
