<?xml version="1.0" encoding="UTF-8" standalone="no"?>
<svg
   width="16.201"
   height="16.199"
   viewBox="0 0 16.201 16.199"
   version="1.1"
   id="svg3"
   sodipodi:docname="crate.svg"
   inkscape:version="1.2.1 (9c6d41e410, 2022-07-14)"
   xmlns:inkscape="http://www.inkscape.org/namespaces/inkscape"
   xmlns:sodipodi="http://sodipodi.sourceforge.net/DTD/sodipodi-0.dtd"
   xmlns="http://www.w3.org/2000/svg"
   xmlns:svg="http://www.w3.org/2000/svg">
  <defs
     id="defs7" />
  <sodipodi:namedview
     id="namedview5"
     pagecolor="#ffffff"
     bordercolor="#000000"
     borderopacity="0.25"
     inkscape:showpageshadow="2"
     inkscape:pageopacity="0.0"
     inkscape:pagecheckerboard="0"
     inkscape:deskcolor="#d1d1d1"
     showgrid="false"
     inkscape:zoom="51.176"
     inkscape:cx="8.1092699"
     inkscape:cy="4.9828044"
     inkscape:window-width="1920"
     inkscape:window-height="1009"
     inkscape:window-x="1912"
     inkscape:window-y="-8"
     inkscape:window-maximized="1"
     inkscape:current-layer="svg3" />
  <path
     id="Path_24524"
     data-name="Path 24524"
     d="m -73.084,443.224 v -1.313 c 2e-6,-0.41628 -0.16836,-0.79334 -0.440792,-1.06667 -0.272432,-0.27334 -0.648934,-0.44295 -1.065208,-0.44433 h -6.594 -6.594 c -0.415383,0.001 -0.79131,0.17018 -1.063802,0.44249 -0.272493,0.27231 -0.441552,0.64813 -0.443198,1.06351 v 1.313 c 4.59e-4,0.058 0.0092,0.11553 0.026,0.171 l 1.332,4.26 h -0.788 c -0.157206,0 -0.299568,0.0636 -0.402698,0.1666 -0.103129,0.10294 -0.167026,0.24519 -0.167302,0.4024 v 3.906 3.906 c 2.76e-4,0.15713 0.06421,0.29926 0.167363,0.40205 0.10315,0.10279 0.245512,0.16623 0.402637,0.16595 h 7.531 7.531 c 0.15693,0 0.299042,-0.0635 0.401991,-0.1663 0.102948,-0.10277 0.166733,-0.24477 0.167009,-0.4017 v -3.906 -3.906 c -2.75e-4,-0.15701 -0.06402,-0.29912 -0.166948,-0.40205 -0.102929,-0.10293 -0.245041,-0.16667 -0.402052,-0.16695 h -0.789 l 1.331,-4.26 c 0.01684,-0.0538 0.02593,-0.10966 0.027,-0.166 z m -1.135,10.641 v 1.6 h -1.6 c 0.103333,-0.39117 0.307751,-0.7395 0.584126,-1.01587 0.276375,-0.27638 0.624709,-0.4808 1.015874,-0.58413 z m -12.326,1.6 h -1.6 v -1.6 c 0.391461,0.10406 0.739918,0.3092 1.016282,0.58626 0.276363,0.27705 0.480633,0.62602 0.583718,1.01774 z m 4.055,-4.064 v -2.617 h 2.61 v 2.616 z m -0.57,1.134 h 1.875 1.875 c 0.157206,0 0.299568,-0.0637 0.402698,-0.1666 0.103129,-0.10294 0.167026,-0.24519 0.167302,-0.4024 v -3.178 h 4.519 v 3.911 c -0.705457,0.12473 -1.33434,0.46326 -1.818042,0.94696 -0.483702,0.4837 -0.822224,1.11258 -0.946958,1.81804 h -4.2 -4.2 c -0.124721,-0.70519 -0.463129,-1.33382 -0.946652,-1.81735 -0.483523,-0.48352 -1.112163,-0.82193 -1.817348,-0.94665 v -3.915 h 4.519 v 3.181 c -0.0011,0.1583 0.06249,0.30183 0.165939,0.40564 0.103454,0.10382 0.246761,0.16792 0.405061,0.16736 v -0.002 z m -3.675,-4.888 -1.207,-3.859 h 13.515 l -1.205,3.859 z m -1.412,-5 v -0.744 c 0,-0.1019 0.0413,-0.19415 0.108078,-0.26092 0.06677,-0.0668 0.159025,-0.10808 0.260922,-0.10808 h 6.594 6.594 c 0.101783,2.7e-4 0.193895,0.0416 0.260631,0.10837 0.06674,0.0667 0.108094,0.15885 0.108369,0.26063 v 0.744 z"
     transform="translate(89.285,-440.405)"
     fill="#fff"
     style="fill:#000000"
     sodipodi:nodetypes="ccscccsccccsscccscccscccscccccccsccccsccccccccccsccccscccsccccscccccccccsssccsccc" />
</svg>
