<?xml version="1.0" encoding="UTF-8" standalone="no"?>
<svg
   width="24.521"
   height="17"
   viewBox="0 0 24.521 17"
   version="1.1"
   id="svg1107"
   sodipodi:docname="delivery.svg"
   inkscape:version="1.2.1 (9c6d41e410, 2022-07-14)"
   xmlns:inkscape="http://www.inkscape.org/namespaces/inkscape"
   xmlns:sodipodi="http://sodipodi.sourceforge.net/DTD/sodipodi-0.dtd"
   xmlns="http://www.w3.org/2000/svg"
   xmlns:svg="http://www.w3.org/2000/svg">
  <defs
     id="defs1111" />
  <sodipodi:namedview
     id="namedview1109"
     pagecolor="#ffffff"
     bordercolor="#000000"
     borderopacity="0.25"
     inkscape:showpageshadow="2"
     inkscape:pageopacity="0.0"
     inkscape:pagecheckerboard="0"
     inkscape:deskcolor="#d1d1d1"
     showgrid="false"
     inkscape:zoom="48.764706"
     inkscape:cx="12.242461"
     inkscape:cy="11.791315"
     inkscape:window-width="1920"
     inkscape:window-height="1009"
     inkscape:window-x="1912"
     inkscape:window-y="-8"
     inkscape:window-maximized="1"
     inkscape:current-layer="svg1107" />
  <g
     id="delivery"
     transform="translate(0 -78.521)">
    <g
       id="Group_10543"
       data-name="Group 10543"
       transform="translate(15.429 89.339)">
      <g
         id="Group_10542"
         data-name="Group 10542">
        <path
           id="Path_24486"
           d="m 309.68489,293.585 c -0.4968,0.0179 -0.74609,0.39613 -0.74609,0.77344 0,0.37731 0.24929,0.7536 0.74609,0.77148 h 12.10547 v 5.40821 c 0,0.21345 0.0867,0.40698 0.22656,0.54687 0.13989,0.13988 0.33342,0.22656 0.54688,0.22656 h 6.00976 l 1.12305,1.45313 v 3.98437 h -1.45508 c -0.13733,-0.55473 -0.42311,-1.05202 -0.81445,-1.44336 -0.55924,-0.55924 -1.33234,-0.90542 -2.18555,-0.90625 -1.37699,0 -2.40994,0.83246 -2.85547,1.90821 -0.059,0.14249 -0.1067,0.28979 -0.14453,0.43945 h -4.5625 c -0.13752,-0.55395 -0.42162,-1.05052 -0.8125,-1.44141 -0.55924,-0.55924 -1.33234,-0.90542 -2.18555,-0.90625 -1.37698,0 -2.40993,0.83246 -2.85546,1.90821 -0.059,0.14249 -0.10671,0.28979 -0.14454,0.43945 h -1.99609 c -0.53386,-0.0192 -0.80078,0.37562 -0.80078,0.77148 0,0.39586 0.26692,0.79265 0.80078,0.77344 h 2.00195 c 0.13207,0.4936 0.39468,0.97084 0.8086,1.38477 0.97356,0.97356 2.29339,1.11545 3.36914,0.66992 0.85529,-0.35423 1.55702,-1.08007 1.80859,-2.05469 h 4.57422 c 0.13207,0.4936 0.39467,0.97084 0.80859,1.38477 0.97356,0.97356 2.2934,1.11545 3.36915,0.66992 0.85462,-0.35395 1.55456,-1.07927 1.80664,-2.05274 h 2.23828 c 0.21345,0 0.40699,-0.0867 0.54687,-0.22656 0.13989,-0.13988 0.22656,-0.33342 0.22656,-0.54687 v -5.02344 c 2e-5,-0.0858 -0.0156,-0.16991 -0.043,-0.25 -0.0274,-0.0801 -0.0666,-0.15677 -0.11914,-0.22461 l -1.45313,-1.875 -2.30469,-4.5918 c -0.0657,-0.13065 -0.16542,-0.23716 -0.28529,-0.31098 -0.11987,-0.0738 -0.25988,-0.11495 -0.40611,-0.1148 h -3.29688 v -0.77148 c 0,-0.21346 -0.0867,-0.40699 -0.22656,-0.54688 -0.13989,-0.13988 -0.33342,-0.22656 -0.54688,-0.22656 z m 13.65039,3.08984 h 2.82031 l 1.55079,3.08985 h -4.3711 z m -8.70312,9.26954 c 0.22032,-0.006 0.43898,0.0356 0.64062,0.11914 0.53771,0.22269 0.95313,0.73946 0.95313,1.42773 2.8e-4,0.427 -0.17162,0.81364 -0.45118,1.09375 -0.27957,0.28012 -0.66675,0.45258 -1.09375,0.45313 v -0.002 c -0.68826,0 -1.20504,-0.41541 -1.42773,-0.95312 -0.0524,-0.12648 -0.0872,-0.26039 -0.10547,-0.39649 0.0234,-0.11971 0.0217,-0.24457 -0.006,-0.36328 0.0339,-0.32793 0.17574,-0.65231 0.44727,-0.92383 0.30413,-0.30414 0.67575,-0.44587 1.04297,-0.45507 z m 10.56054,0 c 0.22033,-0.006 0.43899,0.0356 0.64063,0.11914 0.53771,0.22269 0.95312,0.73946 0.95312,1.42773 2.8e-4,0.427 -0.17161,0.81364 -0.45117,1.09375 -0.27957,0.28012 -0.66675,0.45258 -1.09375,0.45313 v -0.002 c -0.68827,0 -1.20504,-0.41541 -1.42773,-0.95312 -0.2227,-0.5377 -0.1507,-1.19698 0.33593,-1.6836 0.30414,-0.30414 0.67576,-0.44587 1.04297,-0.45507 z"
           transform="translate(-322.151,-304.403)"
           sodipodi:nodetypes="csccscsccccscscccccccscccccccscscscccccsccscscccccccccsccscccccccsccccc" />
      </g>
    </g>
    <g
       id="Group_10545"
       data-name="Group 10545"
       transform="translate(4.868 89.339)">
      <g
         id="Group_10544"
         data-name="Group 10544" />
    </g>
    <g
       id="Group_10547"
       data-name="Group 10547"
       transform="translate(15.841 80.066)">
      <g
         id="Group_10546"
         data-name="Group 10546" />
    </g>
    <g
       id="Group_10549"
       data-name="Group 10549"
       transform="translate(10.355 91.683)">
      <g
         id="Group_10548"
         data-name="Group 10548" />
    </g>
    <g
       id="Group_10551"
       data-name="Group 10551"
       transform="translate(2.189 91.683)">
      <g
         id="Group_10550"
         data-name="Group 10550" />
    </g>
    <g
       id="Group_10553"
       data-name="Group 10553"
       transform="translate(2.189 78.521)">
      <g
         id="Group_10552"
         data-name="Group 10552" />
    </g>
    <g
       id="Group_10555"
       data-name="Group 10555"
       transform="translate(1.262 87.768)">
      <g
         id="Group_10554"
         data-name="Group 10554">
        <path
           id="Path_24491"
           data-name="Path 24491"
           d="m 30.68,271.6 h -1.777 -1.777 c -0.496801,0.0179 -0.745201,0.39519 -0.745201,0.7725 0,0.37731 0.2484,0.75462 0.745201,0.7725 h 1.777 1.777 c 0.496801,-0.0179 0.745201,-0.39519 0.745201,-0.7725 0,-0.37731 -0.2484,-0.75462 -0.745201,-0.7725 z"
           transform="translate(-26.353,-271.597)"
           fill="#24c586"
           sodipodi:nodetypes="cccscccsc" />
      </g>
    </g>
    <g
       id="Group_10557"
       data-name="Group 10557"
       transform="translate(0 84.729)">
      <g
         id="Group_10556"
         data-name="Group 10556">
        <path
           id="Path_24492"
           data-name="Path 24492"
           d="M 7.367,208.134 H 4.07 0.773 c -0.49680091,0.0179 -0.74520136,0.39519 -0.74520136,0.7725 0,0.37731 0.24840045,0.75462 0.74520136,0.7725 H 4.07 7.367 c 0.4968009,-0.0179 0.7452014,-0.39519 0.7452014,-0.7725 0,-0.37731 -0.2484005,-0.75462 -0.7452014,-0.7725 z"
           transform="translate(0,-208.134)"
           fill="#24c586"
           sodipodi:nodetypes="cccscccsc" />
      </g>
    </g>
    <g
       id="Group_10559"
       data-name="Group 10559"
       transform="translate(1.262 81.689)">
      <g
         id="Group_10558"
         data-name="Group 10558">
        <path
           id="Path_24493"
           data-name="Path 24493"
           d="m 33.72,144.672 h -3.297 -3.297 c -0.496801,0.0179 -0.745201,0.39519 -0.745201,0.7725 0,0.37731 0.2484,0.75462 0.745201,0.7725 h 3.297 3.297 c 0.496801,-0.0179 0.745201,-0.39519 0.745201,-0.7725 0,-0.37731 -0.2484,-0.75462 -0.745201,-0.7725 z"
           transform="translate(-26.353,-144.672)"
           fill="#24c586"
           sodipodi:nodetypes="cccscccsc" />
      </g>
    </g>
  </g>
</svg>
