<?xml version="1.0" encoding="UTF-8" standalone="no"?>
<svg
   width="23.216"
   height="17.872"
   viewBox="0 0 23.216 17.872"
   version="1.1"
   id="svg941"
   sodipodi:docname="delivery-box.svg"
   inkscape:version="1.2.1 (9c6d41e410, 2022-07-14)"
   xmlns:inkscape="http://www.inkscape.org/namespaces/inkscape"
   xmlns:sodipodi="http://sodipodi.sourceforge.net/DTD/sodipodi-0.dtd"
   xmlns="http://www.w3.org/2000/svg"
   xmlns:svg="http://www.w3.org/2000/svg">
  <defs
     id="defs945" />
  <sodipodi:namedview
     id="namedview943"
     pagecolor="#ffffff"
     bordercolor="#000000"
     borderopacity="0.25"
     inkscape:showpageshadow="2"
     inkscape:pageopacity="0.0"
     inkscape:pagecheckerboard="0"
     inkscape:deskcolor="#d1d1d1"
     showgrid="false"
     inkscape:zoom="46.385408"
     inkscape:cx="11.576917"
     inkscape:cy="5.4974185"
     inkscape:window-width="1920"
     inkscape:window-height="1009"
     inkscape:window-x="1912"
     inkscape:window-y="-8"
     inkscape:window-maximized="1"
     inkscape:current-layer="Group_10538" />
  <g
     id="Layer_1"
     transform="translate(-1.53 -4.86)">
    <g
       id="Group_10538"
       data-name="Group 10538"
       transform="translate(1.53 4.86)">
      <path
         id="Path_24477"
         d="m 18.746775,14.4593 c 0.506666,0 0.76,-0.38 0.76,-0.76 0,-0.38 -0.253334,-0.76 -0.76,-0.76 H 17.5569 16.367025 c -0.506666,0 -0.76,0.38 -0.76,0.76 0,0.38 0.253334,0.76 0.76,0.76 H 17.5569 Z M 1.3418247,4.6609999 h 2.35125 2.35125 c 0.5066664,0 0.76,-0.38 0.76,-0.76 0,-0.38 -0.2533336,-0.76 -0.76,-0.76 h -2.35125 -2.35125 c -0.50666648,0 -0.75999975,0.38 -0.75999975,0.76 0,0.38 0.25333327,0.76 0.75999975,0.76 z M 20.174625,0.44869987 H 3.7377247 c -0.5066664,0 -0.7599997,0.38 -0.7599997,0.76000003 0,0.38 0.2533333,0.76 0.7599997,0.76 h 7.9002003 v 4.58755 c 0,0.2098683 0.08506,0.3998683 0.222599,0.5374017 0.137533,0.1375324 0.327533,0.2225983 0.537401,0.2225983 h 3.97005 c 0.209868,0 0.399868,-0.085063 0.537402,-0.2225983 0.137532,-0.1375334 0.222598,-0.3275334 0.222598,-0.5374017 v -4.58375 h 3.04 c 0.258292,2.618e-4 0.492098,0.1050535 0.661398,0.2743526 0.169298,0.1692993 0.27409,0.4031057 0.274352,0.6613974 V 14.9666 c -2.62e-4,0.258292 -0.105054,0.492098 -0.274352,0.661398 -0.1693,0.169298 -0.403106,0.27409 -0.661398,0.274352 H 8.1162747 C 7.857983,15.902088 7.6241766,15.797296 7.4548771,15.627998 7.2855786,15.458698 7.1807869,15.224892 7.1805247,14.9666 V 6.5894999 c 0,-0.2098683 -0.085063,-0.3998683 -0.2225992,-0.5374008 C 6.820393,5.9145657 6.630393,5.8294999 6.4205247,5.8294999 h -2.0159 c -0.5066664,0 -0.7599997,0.38 -0.7599997,0.76 0,0.38 0.2533333,0.76 0.7599997,0.76 h 1.2559 V 14.9647 c 7.857e-4,0.678861 0.2762429,1.293356 0.7212182,1.738332 0.4449762,0.444975 1.0594713,0.720432 1.7383318,0.721218 H 20.174625 c 0.678752,-0.001 1.293116,-0.276557 1.738054,-0.721496 0.444939,-0.444938 0.72045,-1.059302 0.721496,-1.738054 V 2.9082499 C 22.63339,2.2293123 22.357971,1.6147107 21.913015,1.1695818 21.468058,0.72445295 20.853562,0.44879677 20.174625,0.44774987 v 4.75e-4 z m -4.56665,5.34945003 h -2.44245 v -3.82565 h 2.44625 z"
         style="stroke-width:0.95" />
    </g>
  </g>
</svg>
