<?xml version="1.0" encoding="UTF-8" standalone="no"?>
<svg
   width="21.186"
   height="22.019"
   viewBox="0 0 21.186 22.019"
   version="1.1"
   id="svg15"
   sodipodi:docname="discount.svg"
   inkscape:version="1.2.1 (9c6d41e410, 2022-07-14)"
   xmlns:inkscape="http://www.inkscape.org/namespaces/inkscape"
   xmlns:sodipodi="http://sodipodi.sourceforge.net/DTD/sodipodi-0.dtd"
   xmlns="http://www.w3.org/2000/svg"
   xmlns:svg="http://www.w3.org/2000/svg">
  <defs
     id="defs19" />
  <sodipodi:namedview
     id="namedview17"
     pagecolor="#ffffff"
     bordercolor="#000000"
     borderopacity="0.25"
     inkscape:showpageshadow="2"
     inkscape:pageopacity="0.0"
     inkscape:pagecheckerboard="0"
     inkscape:deskcolor="#d1d1d1"
     showgrid="false"
     inkscape:zoom="37.649304"
     inkscape:cx="10.624366"
     inkscape:cy="11.02278"
     inkscape:window-width="1920"
     inkscape:window-height="1009"
     inkscape:window-x="1912"
     inkscape:window-y="-8"
     inkscape:window-maximized="1"
     inkscape:current-layer="discount_1_" />
  <g
     id="discount_1_"
     data-name="discount (1)"
     transform="translate(-10.183 0.208)"
     style="fill:#000000">
    <g
       id="Group_10567"
       data-name="Group 10567"
       transform="translate(10.359 -0.002)"
       style="fill:#000000">
      <g
         id="Group_10566"
         data-name="Group 10566"
         transform="translate(0 0)"
         style="fill:#000000">
        <path
           id="Path_24496"
           data-name="Path 24496"
           d="m 30.188,11.135 c -0.04363,-0.08859 -0.06544,-0.184793 -0.06544,-0.281 0,-0.09621 0.02181,-0.192414 0.06544,-0.281 L 30.594,9.7445 31,8.916 C 31.225337,8.458001 31.247901,7.9519261 31.101223,7.5008884 30.954546,7.0498507 30.638627,6.6538502 30.187,6.416 L 29.3725,5.984 28.558,5.552 C 28.470465,5.5060202 28.396114,5.4409897 28.339447,5.3630944 28.282781,5.2851991 28.243798,5.194439 28.227,5.097 L 28.0675,4.189 27.908,3.281 C 27.821651,2.7771478 27.542343,2.3536395 27.158151,2.0744734 26.773959,1.7953073 26.284884,1.6604834 25.779,1.734 l -0.913,0.129 -0.913,0.129 c -0.09784,0.014158 -0.196195,0.00516 -0.287785,-0.024629 C 23.573624,1.9375831 23.488796,1.8870043 23.418,1.818 L 22.755,1.176 22.092,0.534 c -0.366054,-0.35694597 -0.841027,-0.53541895 -1.316,-0.53541895 -0.474973,0 -0.949946,0.17847298 -1.316,0.53541895 L 18.7975,1.175 18.135,1.816 c -0.0708,0.069004 -0.155624,0.1195831 -0.247215,0.1493714 C 17.796195,1.9951597 17.697843,2.0041575 17.6,1.99 L 16.687,1.861 15.774,1.732 C 15.268116,1.6584834 14.779041,1.7933073 14.394849,2.0724734 14.010657,2.3516395 13.731349,2.7751478 13.645,3.279 L 13.4855,4.187 13.326,5.095 c -0.01639,0.096766 -0.05467,0.1870363 -0.110456,0.2647301 C 13.159755,5.4374239 13.086452,5.5025409 13,5.549 L 12.1855,5.981 11.371,6.413 C 10.919373,6.6508502 10.603454,7.0468507 10.456777,7.4978884 10.310099,7.9489261 10.332663,8.455001 10.558,8.913 l 0.405,0.8285 0.405,0.8285 c 0.04363,0.08859 0.06544,0.184793 0.06544,0.281 0,0.09621 -0.02181,0.192414 -0.06544,0.281 l -0.405,0.8285 -0.405,0.8285 c -0.225337,0.457999 -0.247901,0.964074 -0.101223,1.415112 0.146677,0.451037 0.462596,0.847038 0.914223,1.084888 L 12.1855,15.724 13,16.159 c 0.08754,0.04598 0.161886,0.11101 0.218553,0.188906 0.05667,0.0779 0.09565,0.168655 0.112447,0.266094 l 0.1595,0.908 0.1595,0.908 c 0.07637,0.451817 0.309756,0.843386 0.638609,1.122467 0.328853,0.27908 0.75317,0.445672 1.211391,0.447533 0.04533,10e-6 0.09064,-0.0016 0.135834,-0.0047 0.04519,-0.0032 0.09028,-0.0079 0.135166,-0.01426 l 0.913,-0.129 0.913,-0.129 c 0.09784,-0.01416 0.196195,-0.0052 0.287785,0.02463 0.09159,0.02979 0.176419,0.08037 0.247215,0.149371 l 0.6625,0.641 0.6625,0.641 c 0.366054,0.356946 0.841027,0.535419 1.316,0.535419 0.474973,0 0.949946,-0.178473 1.316,-0.535419 l 0.6625,-0.641 0.6625,-0.641 c 0.07084,-0.06894 0.155668,-0.119477 0.24725,-0.149262 0.09158,-0.02979 0.189914,-0.03882 0.28775,-0.02474 l 0.913,0.129 0.913,0.129 c 0.505884,0.07352 0.994959,-0.06131 1.379151,-0.340473 0.384192,-0.279166 0.6635,-0.702675 0.749849,-1.206527 l 0.1595,-0.908 0.1595,-0.908 c 0.0168,-0.09744 0.05578,-0.188199 0.112447,-0.266094 0.05667,-0.0779 0.131018,-0.142926 0.218553,-0.188906 l 0.8145,-0.432 0.8145,-0.432 c 0.451627,-0.23785 0.767546,-0.633851 0.914223,-1.084888 C 31.243901,13.763074 31.221337,13.256999 30.996,12.799 l -0.404,-0.832 z m -0.59,3.053 -0.8145,0.432 -0.8145,0.432 c -0.25843,0.136145 -0.477897,0.328464 -0.645148,0.558712 C 27.156601,15.84096 27.041566,16.109137 26.992,16.397 l -0.1595,0.908 -0.1595,0.908 c -0.02937,0.170283 -0.123859,0.313394 -0.253762,0.407754 C 26.289335,18.715115 26.124019,18.760723 25.953,18.736 L 25.04,18.607 24.127,18.478 c -0.289119,-0.04182 -0.579744,-0.01524 -0.850402,0.07275 C 23.005941,18.638743 22.75525,18.788154 22.546,18.992 l -0.6625,0.641 -0.6625,0.641 c -0.123844,0.120543 -0.284422,0.180814 -0.445,0.180814 -0.160578,0 -0.321156,-0.06027 -0.445,-0.180814 L 19.6685,19.633 19.006,18.992 C 18.830582,18.821133 18.625273,18.687888 18.402598,18.597357 18.179923,18.506827 17.939882,18.45901 17.695,18.459 c -0.045,1.4e-5 -0.08997,0.0016 -0.134834,0.0048 -0.04486,0.0032 -0.08961,0.0079 -0.134166,0.01422 l -0.913,0.129 -0.913,0.129 c -0.171019,0.02472 -0.336335,-0.02088 -0.466238,-0.115246 C 15.003859,18.526394 14.909369,18.383283 14.88,18.213 L 14.72,17.3065 14.56,16.4 C 14.510506,16.112107 14.395497,15.8439 14.228241,15.613644 14.060985,15.383389 13.841482,15.191086 13.583,15.055 L 12.7685,14.623 11.954,14.191 C 11.800933,14.110455 11.693903,13.976255 11.64428,13.823415 11.594657,13.670576 11.602441,13.499099 11.679,13.344 l 0.405,-0.8285 0.405,-0.8285 c 0.129011,-0.261978 0.193517,-0.546489 0.193517,-0.831 0,-0.284511 -0.06451,-0.569022 -0.193517,-0.831 L 12.084,9.1965 11.679,8.368 C 11.602441,8.2129012 11.594657,8.0414236 11.64428,7.8885845 11.693903,7.7357454 11.800933,7.6015448 11.954,7.521 L 12.7685,7.089 13.583,6.657 C 13.84143,6.5208549 14.060897,6.3285361 14.228148,6.0982881 14.395399,5.86804 14.510434,5.5998625 14.56,5.312 L 14.7195,4.404 14.879,3.496 C 14.908369,3.3257171 15.002859,3.1826056 15.132762,3.0882455 15.262665,2.9938854 15.427981,2.9482769 15.599,2.973 l 0.913,0.129 0.913,0.129 c 0.289113,0.041743 0.579717,0.015132 0.850366,-0.072858 C 18.546015,3.0701506 18.796709,2.9207792 19.006,2.717 L 19.668,2.0755 20.33,1.434 c 0.123844,-0.1205427 0.284422,-0.180814 0.445,-0.180814 0.160578,0 0.321156,0.060271 0.445,0.180814 l 0.6625,0.641 0.6625,0.641 c 0.20925,0.2038465 0.459941,0.3532571 0.730598,0.4412507 C 23.546256,3.2452444 23.836881,3.2718212 24.126,3.23 l 0.913,-0.129 0.913,-0.129 c 0.171019,-0.024723 0.336335,0.020885 0.466238,0.1152455 0.129903,0.09436 0.224393,0.2374716 0.253762,0.4077545 l 0.1595,0.908 0.1595,0.908 c 0.04949,0.2878931 0.164503,0.5561002 0.331759,0.7863555 C 27.490015,6.3276108 27.709518,6.5199143 27.968,6.656 L 28.784,7.088 29.6,7.52 c 0.153067,0.080545 0.260097,0.2147454 0.30972,0.3675845 C 29.959343,8.0404236 29.951559,8.2119012 29.875,8.367 L 29.47,9.1955 29.065,10.024 c -0.129011,0.261978 -0.193517,0.546489 -0.193517,0.831 0,0.284511 0.06451,0.569022 0.193517,0.831 l 0.405,0.8285 0.405,0.8285 c 0.07623,0.154974 0.08387,0.326208 0.03426,0.478832 C 29.859648,13.974456 29.752783,14.108469 29.6,14.189 l -0.001,-5e-4 z"
           transform="translate(-10.359,0.002)"
           fill="#fff"
           stroke="#fff"
           stroke-width="0.2"
           style="fill:#000000;stroke:none"
           sodipodi:nodetypes="cscccscccscccscccscccscccscccscccscccscccscccscccscccscscccscccscccscccscccscccsccccccscccscccscccscccscscccscccscccscccscccscccscccscccscccscccscccscccscccscccscccsccc" />
      </g>
    </g>
    <g
       id="Group_10569"
       data-name="Group 10569"
       transform="translate(16.017 6.096)"
       style="fill:#000000">
      <g
         id="Group_10568"
         data-name="Group 10568"
         style="fill:#000000">
        <path
           id="Path_24497"
           data-name="Path 24497"
           d="m 153.125,143.975 c -0.12222,-0.12213 -0.28236,-0.1832 -0.4425,-0.1832 -0.16014,0 -0.32028,0.0611 -0.4425,0.1832 l -4.132,4.132 -4.132,4.132 c -0.3106,0.2949 -0.2368,0.67145 -0.0116,0.89663 0.22518,0.22517 0.60173,0.29897 0.89663,-0.0116 l 4.132,-4.132 4.132,-4.132 c 0.12213,-0.12222 0.1832,-0.28236 0.1832,-0.4425 0,-0.16014 -0.0611,-0.32028 -0.1832,-0.4425 z"
           transform="translate(-143.792,-143.792)"
           fill="#fff"
           stroke="#fff"
           stroke-width="0.2"
           style="fill:#000000;stroke:none"
           sodipodi:nodetypes="cscccscccsc" />
      </g>
    </g>
    <g
       id="Group_10571"
       data-name="Group 10571"
       transform="translate(15.975 5.219)"
       style="fill:#000000">
      <g
         id="Group_10570"
         data-name="Group 10570"
         style="fill:#000000">
        <path
           id="Path_24498"
           data-name="Path 24498"
           d="m 145.1,123.116 c -1.02461,0 -1.79339,0.61935 -2.12491,1.41981 -0.33152,0.80047 -0.22578,1.78203 0.49865,2.50645 0.72442,0.72443 1.70598,0.83017 2.50645,0.49865 0.80046,-0.33152 1.41981,-1.1003 1.41981,-2.12491 0,-0.63513 -0.25744,-1.21013 -0.67365,-1.62635 -0.41622,-0.41621 -0.99122,-0.67365 -1.62635,-0.67365 z m 0,3.339 c -0.46508,0 -0.81404,-0.28113 -0.96452,-0.64447 -0.15048,-0.36334 -0.10249,-0.80889 0.22634,-1.13771 0.32882,-0.32883 0.77437,-0.37682 1.13771,-0.22634 0.36334,0.15048 0.64447,0.49944 0.64447,0.96452 -2.8e-4,0.28818 -0.11719,0.54904 -0.30607,0.73793 -0.18889,0.18888 -0.44975,0.30579 -0.73793,0.30607 z"
           transform="translate(-142.802,-123.116)"
           fill="#fff"
           stroke="#fff"
           stroke-width="0.2"
           style="fill:#000000;stroke:none"
           sodipodi:nodetypes="ssssssscssscsc" />
      </g>
    </g>
    <g
       id="Group_10573"
       data-name="Group 10573"
       transform="translate(20.984 11.898)"
       style="fill:#000000">
      <g
         id="Group_10572"
         data-name="Group 10572"
         style="fill:#000000">
        <path
           id="Path_24499"
           data-name="Path 24499"
           d="m 263.218,280.61 c -1.02461,0 -1.79339,0.61935 -2.12491,1.41981 -0.33152,0.80047 -0.22578,1.78203 0.49865,2.50645 0.72442,0.72443 1.70598,0.83017 2.50645,0.49865 0.80046,-0.33152 1.41981,-1.1003 1.41981,-2.12491 0,-0.63513 -0.25744,-1.21013 -0.67365,-1.62635 -0.41622,-0.41621 -0.99122,-0.67365 -1.62635,-0.67365 z m 0,3.339 c -0.46508,0 -0.81404,-0.28113 -0.96452,-0.64447 -0.15048,-0.36334 -0.10249,-0.80889 0.22634,-1.13771 0.32882,-0.32883 0.77437,-0.37682 1.13771,-0.22634 0.36334,0.15048 0.64447,0.49944 0.64447,0.96452 -2.8e-4,0.28818 -0.11719,0.54904 -0.30607,0.73793 -0.18889,0.18888 -0.44975,0.30579 -0.73793,0.30607 z"
           transform="translate(-260.922,-280.61)"
           fill="#fff"
           stroke="#ffffff"
           stroke-width="0.2"
           style="fill:#000000;stroke:none"
           sodipodi:nodetypes="ssssssscssscsc" />
      </g>
    </g>
  </g>
</svg>
