<?xml version="1.0" encoding="utf-8"?>
<!-- Generator: Adobe Illustrator 24.0.0, SVG Export Plug-In . SVG Version: 6.00 Build 0)  -->
<svg version="1.1" id="Layer_1" xmlns="http://www.w3.org/2000/svg" xmlns:xlink="http://www.w3.org/1999/xlink" x="0px" y="0px"
	 viewBox="0 0 13.2 12.6" style="enable-background:new 0 0 13.2 12.6;" xml:space="preserve">
<path class="st0" d="M0,11.8c0.1,0,0.2-0.1,0.4-0.1c1,0,1.9,0,2.9,0c0.3,0,0.4,0.1,0.4,0.4s-0.1,0.4-0.4,0.4c-1,0-1.9,0-2.9,0
	c-0.1,0-0.3,0-0.4,0L0,11.8z"/>
<path class="st0" d="M13.1,2c-0.1,0.1-0.2,0.3-0.2,0.4c-0.1,0.2-0.4,0.3-0.6,0.2c0,0-0.1,0-0.1-0.1c-0.8-0.4-1.6-0.9-2.3-1.3
	C9.6,1.2,9.5,1,9.6,0.7c0,0,0-0.1,0.1-0.1c0.4-0.7,0.5-0.7,1.2-0.3c0.7,0.4,1.5,0.8,2.2,1.3c0,0,0.1,0.1,0.1,0.1
	C13.1,1.6,13.2,1.7,13.1,2z"/>
<path class="st0" d="M4.3,9.3c0-0.1,0.1-0.3,0.1-0.4c1.4-2.4,2.7-4.7,4.1-7.1c0.1-0.2,0.3-0.4,0.6-0.3c0.1,0,0.1,0,0.1,0.1
	c1,0.5,1.9,1.1,2.9,1.7c0.2,0.1,0.3,0.3,0.3,0.6c0,0.1,0,0.1-0.1,0.1c-1.4,2.4-2.7,4.7-4.1,7.1c-0.1,0.2-0.2,0.3-0.4,0.3
	c-0.9,0.3-1.7,0.7-2.6,1c-0.3,0.1-0.4,0.1-0.4-0.2C4.6,11.3,4.5,10.4,4.3,9.3C4.3,9.4,4.3,9.4,4.3,9.3z M11,4.1
	c0-0.2-0.1-0.3-0.2-0.4C10.4,3.5,10,3.3,9.6,3.1C9.4,2.9,9.2,2.9,9,3.1c0,0-0.1,0.1-0.1,0.1c-1,1.7-2,3.5-3,5.2C5.8,8.6,5.8,8.9,6,9
	c0,0,0.1,0.1,0.1,0.1c0.4,0.2,0.7,0.4,1.1,0.6c0.3,0.2,0.5,0.1,0.7-0.2c1-1.7,2-3.4,3-5.1C10.9,4.3,11,4.2,11,4.1L11,4.1z"/>
</svg>
