<?xml version="1.0" encoding="utf-8"?>
<!-- Generator: Adobe Illustrator 24.0.0, SVG Export Plug-In . SVG Version: 6.00 Build 0)  -->
<svg version="1.1" id="Layer_1" xmlns="http://www.w3.org/2000/svg" xmlns:xlink="http://www.w3.org/1999/xlink" x="0px" y="0px"
	 viewBox="0 0 24 24" style="enable-background:new 0 0 24 24;" xml:space="preserve">
<path d="M12,24C5.4,24,0,18.6,0,12S5.4,0,12,0s12,5.4,12,12S18.6,24,12,24z M12,1C5.9,1,1,5.9,1,12s4.9,11,11,11s11-4.9,11-11
	S18.1,1,12,1z"/>
<path d="M18,13.1c0.3,0,0.5-0.2,0.5-0.5l0,0V9.3c0-1.1-0.9-2-2-2H7.6c-1.1,0-2,0.9-2,2v5.9c0,1.1,0.9,2,2,2h8.9c1.1,0,2-0.9,2-2
	c0-0.3-0.2-0.5-0.5-0.5s-0.5,0.2-0.5,0.5c0,0.6-0.5,1-1,1H7.6c-0.6,0-1-0.5-1-1V9.4l4.4,2.7c0.7,0.4,1.5,0.4,2.1,0l4.4-2.7v3.2
	C17.5,12.9,17.7,13.1,18,13.1L18,13.1z M12.6,11.2c-0.3,0.2-0.8,0.2-1.1,0L7,8.4c0.2-0.1,0.4-0.2,0.6-0.2h8.9c0.2,0,0.4,0.1,0.6,0.2
	L12.6,11.2z"/>
</svg>
