<?xml version="1.0" encoding="utf-8"?>
<!-- Generator: Adobe Illustrator 24.0.0, SVG Export Plug-In . SVG Version: 6.00 Build 0)  -->
<svg version="1.1" id="Layer_1" xmlns="http://www.w3.org/2000/svg" xmlns:xlink="http://www.w3.org/1999/xlink" x="0px" y="0px"
	 viewBox="0 0 24 18.4" style="enable-background:new 0 0 24 18.4;" xml:space="preserve">
<path d="M23.1,10.8c0.6,0,0.9-0.4,0.9-0.9l0,0V3.7c0-2-1.7-3.7-3.7-3.7H3.7C1.7,0,0,1.7,0,3.7v11c0,2,1.7,3.7,3.7,3.7h16.6
	c2,0,3.7-1.7,3.7-3.7c0-0.6-0.4-0.9-0.9-0.9s-0.9,0.4-0.9,0.9c0,1.1-0.9,1.9-1.9,1.9H3.7c-1.1,0-1.9-0.9-1.9-1.9V3.9l8.2,5
	c1.3,0.7,2.8,0.7,3.9,0l8.2-5v6C22.1,10.4,22.5,10.8,23.1,10.8L23.1,10.8z M13,7.2c-0.6,0.4-1.5,0.4-2,0L2.6,2
	C3,1.8,3.3,1.7,3.7,1.7h16.6c0.4,0,0.7,0.2,1.1,0.4L13,7.2z"/>
</svg>
