<?xml version="1.0" encoding="utf-8"?>
<!-- Generator: Adobe Illustrator 24.0.0, SVG Export Plug-In . SVG Version: 6.00 Build 0)  -->
<svg version="1.1" id="Layer_1" xmlns="http://www.w3.org/2000/svg" xmlns:xlink="http://www.w3.org/1999/xlink" x="0px" y="0px"
	 viewBox="0 0 62.9 62.9" style="enable-background:new 0 0 62.9 62.9;" xml:space="preserve">
<path d="M61.6,32.2h-27L33,28.5c-0.2-0.3-0.5-0.6-1-0.6l-5-1.3c-0.8-0.2-1.4,0.3-1.6,1c-0.2,0.6,0.3,1.4,1,1.6l4.3,1L42,56.5
	c-1.1,2.1-0.5,4.6,1.6,5.8c2.1,1.1,4.6,0.5,5.8-1.6c0.6-1.1,0.8-2.6,0.2-3.7h4.8c-1,2.1,0.2,4.6,2.2,5.6s4.6-0.2,5.6-2.2
	c1-2.2,0-4.6-2.2-5.6c-0.5-0.2-1.1-0.3-1.6-0.3H44l-1.8-4.2h19.3c0.6,0,1.3-0.6,1.3-1.3V33.5C62.8,32.8,62.3,32.2,61.6,32.2z
	 M58.1,57c1,0,1.6,0.8,1.6,1.6c0,1-0.8,1.8-1.6,1.8c-0.8,0-1.6-0.8-1.6-1.8C56.5,57.8,57.3,57,58.1,57z M45.8,57
	c1,0,1.6,0.8,1.6,1.6c0,1-0.8,1.8-1.6,1.8c-0.8,0-1.6-0.8-1.6-1.8C44.2,57.8,44.8,57,45.8,57z M60.4,40h-8.5c-0.6,0-1.3,0.6-1.3,1.3
	s0.5,1.3,1.3,1.3h8.5v5.3H41.2l-5.6-13.1h24.6V40H60.4z"/>
<path d="M35.1,6.9c1.4,0,2.8,0.2,4.1,0.6c1.7,0.6,3.5,1.6,4.8,3.1c1,1,1.9,2.3,2.8,3.5c0.5,1,1,2.1,1.4,3.1c0,0.2,0.2,0.2,0.2,0.2
	c0.9-0.2,1.7-0.6,2.6-0.8c0.2,0,0.3,0,0.5,0c0.3,0.2,0.5,0.4,0.3,0.8c-0.2,0.6-0.3,1.4-0.5,2.1c-0.3,1.6-0.7,3.5-1,5.1
	c-0.3,1.6-0.7,3.3-1,4.9c0,0.4-0.3,0.6-0.7,0.6c-0.2,0-0.2-0.2-0.3-0.2c-0.7-0.8-1.4-1.6-2.1-2.5l-4.5-5.6c-0.3-0.4-0.5-0.6-0.7-1
	c-0.2-0.2-0.3-0.6,0-1c0.2-0.2,0.2-0.2,0.3-0.2c0.9-0.2,1.7-0.6,2.6-0.8c0.2,0,0.2,0,0.2-0.2c-0.3-1-0.9-1.9-1.6-2.7
	c-1.4-1.9-3.3-3.1-5.5-3.7c-1.7-0.2-3.5,0-5,0.6c-0.5,0.2-1,0.4-1.6,0.8c-0.9,0.6-1.9,0.4-2.6-0.2c-0.5-0.4-0.7-1.2-0.7-1.9
	c0-1,0.3-1.9,0.9-2.5c0.5-0.2,0.9-0.6,1.4-0.8c1-0.6,2.1-1,3.3-1.2C33.5,6.9,34.2,6.9,35.1,6.9z"/>
<path class="st0" d="M0,2.9v20.2L15,26V0L0,2.9z M9.5,18.1l-1.7-3.3c-0.1-0.1-0.1-0.3-0.2-0.7h0c0,0.2-0.1,0.4-0.2,0.7l-1.8,3.3H2.8
	L6,13L3.1,8h2.8l1.4,3c0.1,0.2,0.2,0.5,0.3,0.9h0C7.7,11.6,7.8,11.4,8,11l1.6-3h2.5l-3,5l3.1,5.1L9.5,18.1L9.5,18.1z"/>
<path class="st0" d="M25.2,3H16v3h3v2h-3v2h3v2h-3v2h3v2h-3v2h3v2h-3v3h9.2c0.5,0,0.8-0.4,0.8-0.9V3.9C26,3.4,25.6,3,25.2,3z M24,20
	h-4v-2h4V20z M24,16h-4v-2h4V16z M24,12h-4v-2h4V12z M24,8h-4V6h4V8z"/>
</svg>
