<?xml version="1.0" encoding="utf-8"?>
<!-- Generator: Adobe Illustrator 24.0.0, SVG Export Plug-In . SVG Version: 6.00 Build 0)  -->
<svg version="1.1" id="Capa_1" xmlns="http://www.w3.org/2000/svg" xmlns:xlink="http://www.w3.org/1999/xlink" x="0px" y="0px"
	 viewBox="0 0 512 512" style="enable-background:new 0 0 512 512;" xml:space="preserve">
<path d="M506.5,132l-128-112c-4.7-4.2-11.4-5.2-17.2-2.5C355.7,20,352,25.7,352,32v48h-9.5c-102.8,0-191.4,76.8-205.9,178.6
	l-8.4,59.2c-1.1,7.5,3.2,14.7,10.4,17.3c1.8,0.6,3.6,1,5.5,1c5.4,0,10.6-2.7,13.6-7.5l23.6-37.8c32.4-51.8,88.2-82.7,149.3-82.7H352
	v48c0,6.3,3.7,12,9.4,14.6c5.7,2.6,12.4,1.6,17.2-2.5l128-112c3.5-3,5.5-7.4,5.5-12S510,135,506.5,132z M384,220.7V192
	c0-8.8-7.2-16-16-16h-37.6c-62.7,0-120.7,27.6-160,75c17.3-80,89.2-139,172.1-139H368c8.8,0,16-7.2,16-16V67.3l87.7,76.7L384,220.7z
	"/>
<path d="M400,304c-8.8,0-16,7.2-16,16v144H32V112h144c8.8,0,16-7.2,16-16s-7.2-16-16-16H16C7.2,80,0,87.2,0,96v384
	c0,8.8,7.2,16,16,16h384c8.8,0,16-7.2,16-16V320C416,311.2,408.8,304,400,304z"/>
</svg>
