<?xml version="1.0" encoding="UTF-8" standalone="no"?>
<svg
   width="22.888"
   height="22.888"
   viewBox="0 0 22.888 22.888"
   version="1.1"
   id="svg3"
   sodipodi:docname="feedback.svg"
   inkscape:version="1.2.1 (9c6d41e410, 2022-07-14)"
   xmlns:inkscape="http://www.inkscape.org/namespaces/inkscape"
   xmlns:sodipodi="http://sodipodi.sourceforge.net/DTD/sodipodi-0.dtd"
   xmlns="http://www.w3.org/2000/svg"
   xmlns:svg="http://www.w3.org/2000/svg">
  <defs
     id="defs7" />
  <sodipodi:namedview
     id="namedview5"
     pagecolor="#ffffff"
     bordercolor="#000000"
     borderopacity="0.25"
     inkscape:showpageshadow="2"
     inkscape:pageopacity="0.0"
     inkscape:pagecheckerboard="0"
     inkscape:deskcolor="#d1d1d1"
     showgrid="false"
     inkscape:zoom="36.219852"
     inkscape:cx="11.430196"
     inkscape:cy="18.056396"
     inkscape:window-width="1920"
     inkscape:window-height="1009"
     inkscape:window-x="1912"
     inkscape:window-y="-8"
     inkscape:window-maximized="1"
     inkscape:current-layer="svg3" />
  <path
     id="Path_24483"
     data-name="Path 24483"
     d="M 11.444,0 C 7.0458123,3.5098894e-4 3.4698573,2.3781992 1.5406766,5.7096605 -0.38850402,9.0411218 -0.6709102,13.326196 1.518,17.141 L 0.7805,19.43 0.043,21.719 c -0.11162429,0.346627 -0.0036881,0.68369 0.21881101,0.906189 C 0.48431016,22.847688 0.8213723,22.955624 1.168,22.844 L 3.4575,22.107 5.747,21.37 c 3.2604535,1.870862 6.964641,1.942436 10.095791,0.638242 3.13115,-1.304194 5.689263,-3.984155 6.657569,-7.616364 C 23.468665,10.75967 22.584115,7.1619332 20.517719,4.4721322 18.451323,1.7823311 15.20308,4.6566552e-4 11.444,0 Z m 0,21.1 C 10.540392,21.100864 9.6457862,20.974546 8.7855101,20.728296 7.9252339,20.482046 7.0992878,20.115864 6.333,19.637 6.221141,19.567527 6.0968738,19.524295 5.969205,19.508421 5.8415361,19.492548 5.7104656,19.504034 5.585,19.544 L 3.932,20.076 2.279,20.608 2.8115,18.954 3.344,17.3 C 3.3839657,17.174534 3.395452,17.043464 3.3795788,16.915795 3.3637055,16.788126 3.3204727,16.663859 3.251,16.552 0.61411395,12.32188 1.6563052,7.7257466 4.4466122,4.7915977 7.2369192,1.8574487 11.775342,0.5852838 16.130919,3.0030995 20.486496,5.4209152 21.807109,9.9454778 20.792656,13.865418 19.778203,17.785358 16.428685,21.100675 11.444,21.1 Z m 1.118,-9.656 c 0,0.49805 -0.30106,0.871743 -0.690153,1.03289 -0.389094,0.161146 -0.86622,0.109747 -1.218352,-0.242385 C 10.301363,11.882373 10.249964,11.405247 10.41111,11.016153 10.572257,10.62706 10.94595,10.326 11.444,10.326 c 0.308532,2.76e-4 0.587782,0.12551 0.789899,0.327808 0.202117,0.202298 0.327101,0.48166 0.327101,0.790192 h 5e-4 z m 4.47,0 c 0,0.49805 -0.30106,0.871743 -0.690153,1.03289 -0.389094,0.161146 -0.86622,0.109747 -1.218352,-0.242385 C 14.771363,11.882373 14.719964,11.405247 14.88111,11.016153 15.042257,10.62706 15.41595,10.326 15.914,10.326 c 0.308727,0 0.588227,0.125136 0.790545,0.327455 C 16.906864,10.855773 17.032,11.135273 17.032,11.444 Z m -8.94,0 c 0,0.49805 -0.3010602,0.871743 -0.6901535,1.03289 C 7.0127532,12.638036 6.5356269,12.586637 6.1834948,12.234505 5.8313626,11.882373 5.7799637,11.405247 5.9411104,11.016153 6.1022572,10.62706 6.4759496,10.326 6.974,10.326 c 0.3085319,2.76e-4 0.587782,0.12551 0.789899,0.327808 0.2021171,0.202298 0.3271011,0.48166 0.327101,0.790192 h 5e-4 z"
     fill="#24c586"
     sodipodi:nodetypes="cscccscccsssccscscccccscsssccssscscccssssssscssscsccc" />
</svg>
