<?xml version="1.0" encoding="UTF-8" standalone="no"?>
<svg
   width="17.682"
   height="20.278"
   viewBox="0 0 17.682 20.278"
   version="1.1"
   id="svg8"
   sodipodi:docname="files.svg"
   inkscape:version="1.2.1 (9c6d41e410, 2022-07-14)"
   xmlns:inkscape="http://www.inkscape.org/namespaces/inkscape"
   xmlns:sodipodi="http://sodipodi.sourceforge.net/DTD/sodipodi-0.dtd"
   xmlns="http://www.w3.org/2000/svg"
   xmlns:svg="http://www.w3.org/2000/svg">
  <defs
     id="defs12" />
  <sodipodi:namedview
     id="namedview10"
     pagecolor="#ffffff"
     bordercolor="#000000"
     borderopacity="0.25"
     inkscape:showpageshadow="2"
     inkscape:pageopacity="0.0"
     inkscape:pagecheckerboard="0"
     inkscape:deskcolor="#d1d1d1"
     showgrid="false"
     inkscape:zoom="40.881743"
     inkscape:cx="5.9684343"
     inkscape:cy="12.670693"
     inkscape:window-width="1920"
     inkscape:window-height="1009"
     inkscape:window-x="1912"
     inkscape:window-y="-8"
     inkscape:window-maximized="1"
     inkscape:current-layer="Layer_2" />
  <g
     id="Layer_2"
     data-name="Layer 2"
     transform="translate(-2.92 -1)"
     style="fill:#000000">
    <path
       id="Path_24519"
       style="fill:#000000"
       d="M 8.9008125,1 C 8.398264,0.99936075 7.943136,1.2026761 7.61367,1.5317886 7.2842041,1.860901 7.0804002,2.3158105 7.0805,2.8183594 V 4.1054688 L 6.2953437,3.9746094 C 5.7708787,3.8664804 5.262898,4.0127952 4.8861176,4.3200161 4.5093373,4.627237 4.2637573,5.095364 4.2640937,5.6308594 V 16.644531 c 0,0.578458 0.4472268,1.018547 0.7572132,1.287678 0.3099865,0.269131 0.6995998,0.389961 1.2349743,0.397871 L 7.0805,18.21875 v 1.242188 c 4.399e-4,0.502167 0.2044344,0.956588 0.5338608,1.285308 0.3294264,0.328719 0.7842845,0.531737 1.2864517,0.531098 H 20.139094 c 0.500642,-0.0015 0.953548,-0.205294 1.281404,-0.533856 0.327855,-0.328562 0.530659,-0.781906 0.531096,-1.28255 V 8.2929688 c 4.2e-5,-0.2684496 -0.05712,-0.530546 -0.164331,-0.770263 -0.107206,-0.239717 -0.264454,-0.4570547 -0.464575,-0.635987 l -6.015625,-5.40625 C 15.135304,1.3263494 14.938187,1.206533 14.726319,1.125096 14.51445,1.043659 14.28783,1.0006015 14.057063,1 Z m 0,1.3515625 h 4.9375005 v 4.5625 c -1.29e-4,0.4088737 0.165551,0.7790555 0.433482,1.0469866 0.267931,0.2679311 0.638112,0.4336114 1.046986,0.4334821 h 5.28711 V 19.460938 c -3.19e-4,0.128612 -0.05271,0.244933 -0.137179,0.329046 -0.08447,0.08411 -0.201006,0.136017 -0.329618,0.135797 H 8.9008125 C 8.7722002,19.926001 8.6556606,19.874097 8.5711942,19.789984 8.4867278,19.705871 8.4343347,19.58955 8.4340156,19.460938 V 2.8183594 C 8.4337948,2.6893657 8.4859972,2.572556 8.5705032,2.4880501 8.6550091,2.4035441 8.7718188,2.3513417 8.9008125,2.3515625 Z m 6.2910155,0.8085937 4.320313,3.8828126 h -4.19336 c -0.03532,-2.88e-4 -0.06718,-0.014855 -0.09015,-0.03818 -0.02297,-0.023325 -0.03705,-0.055407 -0.0368,-0.090726 z M 6.0590156,5.3046881 7.0805,5.4882812 V 16.839844 L 6.0316719,16.978516 C 5.9262705,16.999437 5.8242346,16.970149 5.7480533,16.90877 5.6718721,16.847392 5.6215454,16.753923 5.6195625,16.646484 V 5.6308594 c -1.9e-5,-0.1036201 0.047493,-0.2015235 0.1289062,-0.265625 0.08558,-0.099471 0.2179532,-0.042494 0.3105469,-0.060546 z"
       transform="translate(-1.348)"
       sodipodi:nodetypes="cscccsccscccsccsccsccscccccscccsccsccsccccsccccccscccc" />
    <path
       id="Rectangle_6134"
       transform="translate(10.017 16.546)"
       d="m 0.676,0 h 5.4069998 c 0.374504,0 0.676,0.301496 0.676,0.676 0,0.374504 -0.301496,0.676 -0.676,0.676 H 0.676 C 0.301496,1.352 0,1.050504 0,0.676 0,0.301496 0.301496,0 0.676,0 Z" />
    <path
       id="Rectangle_6135"
       transform="translate(10.017 13.633)"
       d="m 0.676,0 h 1.352 c 0.374504,0 0.676,0.301496 0.676,0.676 0,0.374504 -0.301496,0.676 -0.676,0.676 H 0.676 C 0.301496,1.352 0,1.050504 0,0.676 0,0.301496 0.301496,0 0.676,0 Z" />
  </g>
</svg>
