<?xml version="1.0" encoding="utf-8"?>
<!-- Generator: Adobe Illustrator 21.0.0, SVG Export Plug-In . SVG Version: 6.00 Build 0)  -->
<svg version="1.1" id="Vrstva_1" xmlns="http://www.w3.org/2000/svg" xmlns:xlink="http://www.w3.org/1999/xlink" x="0px" y="0px"
	 viewBox="0 0 15 19.5" style="enable-background:new 0 0 15 19.5;" xml:space="preserve">
<path class="st0" d="M12.5,19.5h-10c-0.1,0-0.2-0.1-0.3-0.1C0.9,19,0,17.8,0,16.4c0-4.5,0-9,0-13.5c0-0.3,0.1-0.7,0.2-1
	c0.4-1,1.3-1.7,2.3-2h6.8c0.3,0.1,0.6,0.2,0.8,0.4c1.6,1.4,3.1,2.9,4.4,4.4C14.9,5.2,15,5.7,15,6.1c0,3.5,0,7,0,10.5
	c0,0.3-0.1,0.7-0.2,1C14.4,18.6,13.5,19.3,12.5,19.5z M13.5,11.2c0-1.2,0.1-2.7,0-4.2c0-0.7-0.2-0.9-0.9-0.9c-0.9,0-1.7,0-2.6,0
	c-0.7,0-1-0.3-1-1c0-0.9,0-1.8-0.1-2.7c0-0.6-0.2-0.8-0.9-0.8c-1.6,0-3.2,0-4.8,0C2.4,1.5,1.7,2.1,1.6,2.9c0,0.1,0,0.2,0,0.3
	c0,1,0,1.9,0,2.9c0,3.4,0,6.7,0,10.1c-0.1,0.8,0.5,1.6,1.3,1.7c0.1,0,0.2,0,0.3,0c0.6,0,1.2,0,1.9,0c2.3,0,4.5,0,6.8,0
	c0.8,0.1,1.5-0.5,1.5-1.3c0,0,0,0,0-0.1c0-0.3,0-0.6,0-0.9C13.5,14.3,13.5,12.9,13.5,11.2L13.5,11.2z"/>
<path class="st0" d="M7.5,15c-1.2,0-2.4,0-3.6,0C3.5,15.1,3,14.8,3,14.3c0,0,0,0,0,0c0-0.4,0.3-0.8,0.9-0.8c2.4-0.1,4.9-0.1,7.3,0
	c0.4,0,0.8,0.3,0.8,0.8c0,0.4-0.4,0.8-0.8,0.8c0,0,0,0,0,0C9.9,15,8.7,15,7.5,15z"/>
<path class="st0" d="M7.5,7.5c1.2,0,2.4,0,3.6,0c0.5,0,0.9,0.3,0.9,0.8C12,8.7,11.7,9,11.2,9c0,0-0.1,0-0.1,0C10.1,9,9,9,8,9
	C6.7,9,5.4,9,4.1,9C3.9,9,3.7,9,3.5,9C3.2,8.9,2.9,8.5,3,8.2C3,7.8,3.4,7.5,3.7,7.5C5,7.5,6.3,7.5,7.5,7.5L7.5,7.5z"/>
<path class="st0" d="M6.8,10.5c1,0,1.9,0,2.9,0c0.4,0,0.8,0.3,0.8,0.7c0,0.1,0,0.1,0,0.2c0,0.4-0.3,0.6-0.6,0.6c-2,0.1-4,0.1-6,0
	c-0.4,0-0.8-0.3-0.9-0.7c0,0,0-0.1,0-0.1c0-0.5,0.3-0.8,0.9-0.8C4.9,10.5,5.8,10.5,6.8,10.5L6.8,10.5z"/>
</svg>
