<?xml version="1.0" encoding="utf-8"?>
<!-- Generator: Adobe Illustrator 24.0.0, SVG Export Plug-In . SVG Version: 6.00 Build 0)  -->
<svg version="1.1" id="Layer_1" xmlns="http://www.w3.org/2000/svg" xmlns:xlink="http://www.w3.org/1999/xlink" x="0px" y="0px"
	 viewBox="0 0 17.4 18" style="enable-background:new 0 0 17.4 18;" xml:space="preserve">
<path class="st0" d="M4.2,7.3H3.1c-0.3,0-0.5,0.2-0.5,0.5c0,0,0,0,0,0l0,4c0,0.3,0.2,0.5,0.5,0.5c0.3,0,0.5-0.2,0.5-0.5l0,0v-1.2
	h0.6c0.9,0,1.7-0.7,1.7-1.7C5.8,8.1,5.1,7.4,4.2,7.3L4.2,7.3L4.2,7.3z M4.2,9.6H3.6c0-0.2,0-0.5,0-0.6c0-0.1,0-0.4,0-0.6h0.6
	c0.3,0,0.6,0.3,0.6,0.6S4.5,9.6,4.2,9.6L4.2,9.6z"/>
<path class="st0" d="M8.7,7.3H7.6C7.3,7.3,7,7.6,7,7.9c0,0,0,0,0,0c0,0,0,3.9,0,3.9c0,0.3,0.2,0.5,0.5,0.5l0,0c0,0,0.8,0,1.1,0
	c1.2-0.1,2.2-1.2,2.1-2.4c0,0,0,0,0-0.1c0.2-1.2-0.7-2.3-1.9-2.5C8.8,7.4,8.7,7.4,8.7,7.3z M8.7,11.2c-0.1,0-0.4,0-0.6,0
	c0-0.5,0-2.4,0-2.8h0.6c1,0,1,1.1,1,1.4C9.7,10.5,9.4,11.2,8.7,11.2z"/>
<path class="st0" d="M14.2,8.4c0.3,0,0.5-0.2,0.5-0.5s-0.2-0.5-0.5-0.5l0,0h-1.6c-0.3,0-0.5,0.2-0.5,0.5l0,0v4
	c0,0.3,0.2,0.5,0.5,0.5s0.5-0.2,0.5-0.5l0,0v-1.5h1c0.3,0,0.5-0.2,0.5-0.5s-0.2-0.5-0.5-0.5h-1V8.4L14.2,8.4z"/>
<path class="st0" d="M15.8,5.1h-0.4V4.9c0-0.7-0.3-1.3-0.7-1.8l-2.2-2.3C12,0.3,11.3,0,10.6,0h-7C2.7,0,2,0.7,2,1.6v3.5H1.6
	C0.7,5.1,0,5.8,0,6.7V13c0,0.9,0.7,1.6,1.6,1.6H2v1.8C2,17.3,2.7,18,3.6,18h10.3c0.9,0,1.6-0.7,1.6-1.6v-1.8h0.4
	c0.9,0,1.6-0.7,1.6-1.6V6.7C17.4,5.8,16.7,5.1,15.8,5.1z M3,1.6c0-0.3,0.2-0.5,0.5-0.5h7c0.4,0,0.8,0.2,1.1,0.5l2.2,2.3
	c0.3,0.3,0.4,0.7,0.4,1.1v0.2H3V1.6z M14.3,16.4c0,0.3-0.2,0.5-0.5,0.5H3.6c-0.3,0-0.5-0.2-0.5-0.5v-1.8h11.3L14.3,16.4z M16.3,13
	c0,0.3-0.2,0.5-0.5,0.5H1.6c-0.3,0-0.5-0.2-0.5-0.5V6.7c0-0.3,0.2-0.5,0.5-0.5h14.2c0.3,0,0.5,0.2,0.5,0.5V13z"/>
</svg>
