<?xml version="1.0" encoding="utf-8"?>
<!-- Generator: Adobe Illustrator 24.0.0, SVG Export Plug-In . SVG Version: 6.00 Build 0)  -->
<svg version="1.1" id="Layer_1" xmlns="http://www.w3.org/2000/svg" xmlns:xlink="http://www.w3.org/1999/xlink" x="0px" y="0px"
	 viewBox="0 0 22.4 22" style="enable-background:new 0 0 22.4 22;" xml:space="preserve">
<path d="M21.7,3.8H6.2L5.3,1.7C5.2,1.5,5,1.3,4.7,1.3L1.9,0.6C1.5,0.5,1.1,0.8,1,1.2S1.2,2,1.5,2.1L4,2.6l6.4,15.1
	c-0.6,1.2-0.3,2.7,0.9,3.3c1.2,0.6,2.7,0.3,3.3-0.9c0.4-0.6,0.5-1.5,0.1-2.1h2.7c-0.5,1.2,0.1,2.7,1.3,3.2s2.7-0.1,3.2-1.3
	c0.5-1.3,0-2.7-1.3-3.2c-0.3-0.1-0.6-0.2-0.9-0.2h-8.1l-1-2.4h11.1c0.4,0,0.7-0.4,0.7-0.7V4.6C22.3,4.2,22,3.8,21.7,3.8z M19.7,18
	c0.5,0,0.9,0.5,0.9,0.9c0,0.5-0.5,1-0.9,1s-0.9-0.5-0.9-1C18.7,18.5,19.2,18,19.7,18z M12.6,18c0.5,0,0.9,0.5,0.9,0.9
	c0,0.5-0.5,1-0.9,1s-0.9-0.5-0.9-1C11.7,18.5,12.1,18,12.6,18z M20.9,8.3h-4.8c-0.4,0-0.7,0.4-0.7,0.7s0.3,0.7,0.7,0.7h4.8v3H10
	L6.8,5.3h14.1L20.9,8.3L20.9,8.3z"/>
<path d="M6.5,11l-5.2,5.3c-0.3,0.3-0.8,0.3-1.1,0c-0.3-0.3-0.3-0.8,0-1.1L4.4,11L0.2,6.8c-0.3-0.3-0.3-0.8,0-1.1s0.8-0.3,1.1,0
	L6.5,11z"/>
</svg>
