<?xml version="1.0" encoding="UTF-8" standalone="no"?>
<!-- Generator: Adobe Illustrator 24.0.0, SVG Export Plug-In . SVG Version: 6.00 Build 0)  -->

<svg
   version="1.1"
   id="Layer_1"
   x="0px"
   y="0px"
   viewBox="0 0 396.7 231.1"
   style="enable-background:new 0 0 396.7 231.1;"
   xml:space="preserve"
   sodipodi:docname="handshake.svg"
   inkscape:version="1.2.1 (9c6d41e410, 2022-07-14)"
   xmlns:inkscape="http://www.inkscape.org/namespaces/inkscape"
   xmlns:sodipodi="http://sodipodi.sourceforge.net/DTD/sodipodi-0.dtd"
   xmlns="http://www.w3.org/2000/svg"
   xmlns:svg="http://www.w3.org/2000/svg"><defs
   id="defs422" /><sodipodi:namedview
   id="namedview420"
   pagecolor="#ffffff"
   bordercolor="#000000"
   borderopacity="0.25"
   inkscape:showpageshadow="2"
   inkscape:pageopacity="0.0"
   inkscape:pagecheckerboard="0"
   inkscape:deskcolor="#d1d1d1"
   showgrid="false"
   inkscape:zoom="3.5871916"
   inkscape:cx="198.48396"
   inkscape:cy="115.68939"
   inkscape:window-width="1920"
   inkscape:window-height="1009"
   inkscape:window-x="1912"
   inkscape:window-y="-8"
   inkscape:window-maximized="1"
   inkscape:current-layer="Layer_1" />
<path
   d="M353.7,119c-1.2,0.2-2.3,0.8-2.9,1.8c-0.7,0.9-1,2.1-0.8,3.4c0.2,1.2,0.8,2.3,1.8,2.9c0.9,0.7,2.1,1,3.4,0.8  c1.2-0.2,2.3-0.8,2.9-1.8c0.7-0.9,1-2.1,0.8-3.4c-0.2-1.2-0.8-2.3-1.8-2.9C356.1,119.1,354.9,118.8,353.7,119L353.7,119z M341.5,114  c2.4-3.3,6.1-5.7,10.5-6.4c4.4-0.7,8.6,0.5,11.9,2.9s5.7,6.1,6.4,10.5c0.7,4.4-0.5,8.6-2.9,11.9c-2.4,3.3-6.1,5.7-10.5,6.4  s-8.6-0.5-11.9-2.9s-5.7-6.1-6.4-10.5C337.9,121.5,339.1,117.3,341.5,114z"
   id="path403" />
<path
   id="path405"
   d="M 46.634766 0.03125 C 43.800784 0.13671864 41.074216 0.92578262 38.699219 2.3007812 C 34.799223 4.500779 31.799608 8.2007859 30.599609 12.800781 L 0.59960938 124.80078 C -0.70038933 129.40078 0.10078345 134.10039 2.3007812 137.90039 C 4.5007791 141.80039 8.2007859 144.8 12.800781 146 L 62.900391 159.40039 C 67.500386 160.70039 72.200004 159.89922 76 157.69922 C 79.375379 155.79516 82.070068 152.76421 83.513672 149.00195 C 93.965986 157.80369 159.83548 213.08835 171.69922 221.80078 C 177.59921 226.10078 185.40079 227 193.80078 226 C 200.1724 225.23541 206.81062 223.44734 213.14648 221.45898 L 217.30078 225.5 C 217.80078 226 218.4 226.39922 219 226.69922 C 222.96042 228.81759 246.68549 240.35159 252.83008 214.9707 C 255.06324 215.5369 257.40017 215.83727 259.69922 215.80078 C 263.39922 215.80078 266.99922 215.00078 270.19922 213.30078 C 273.59922 211.40078 276.49961 208.50039 278.09961 204.40039 C 279.09417 201.88782 279.58907 198.93173 279.43945 195.51367 C 283.39046 196.41444 286.97049 196.63604 290.09961 196.30078 C 295.3996 195.70078 299.59922 193.59961 302.69922 190.59961 C 305.89922 187.59961 307.89922 183.69961 308.69922 179.59961 C 309.49922 175.39961 309.10039 170.90039 307.40039 166.90039 C 307.25884 166.5719 306.99604 166.14132 306.80469 165.77148 C 308.9487 164.20752 311.21718 162.64701 313.69922 160.90039 L 316.35938 159.12695 C 318.32008 163.14535 321.63406 166.09095 325.5 167.59961 C 329.6 169.19961 334.29922 169.20078 338.69922 167.30078 L 386.30078 146.5 C 390.70078 144.6 393.9 141.1 395.5 137 C 397.1 132.9 397.09922 128.20078 395.19922 123.80078 L 348.69922 17.599609 C 346.79922 13.199614 343.29921 10.000389 339.19922 8.4003906 C 335.09922 6.8003922 330.4 6.7992206 326 8.6992188 L 278.40039 29.599609 C 274.0004 31.499607 270.79922 34.999613 269.19922 39.099609 C 268.34192 41.296447 267.9608 43.667406 268.06836 46.070312 C 210.3279 28.457308 200.49496 29.143355 178.30078 31.400391 C 166.10079 32.600389 149.69919 34.299608 117.69922 33.099609 C 116.79922 32.999609 115.9 33.100391 115 33.400391 L 114.45898 33.607422 C 115.1892 29.528848 114.34688 25.461727 112.40039 22.099609 C 110.20039 18.199613 106.50039 15.199999 101.90039 14 L 51.800781 0.59960938 C 50.075783 0.14960983 48.335155 -0.032031187 46.634766 0.03125 z M 47.662109 11.511719 C 48.043359 11.536719 48.425782 11.599219 48.800781 11.699219 L 99 25.099609 C 100.5 25.599609 101.7 26.600782 102.5 27.800781 C 103.3 29.10078 103.49961 30.69922 103.09961 32.199219 L 100.62695 41.427734 C 100.62044 41.453486 100.60578 41.474064 100.59961 41.5 L 100.60742 41.501953 L 73.099609 144.19922 C 72.69961 145.69922 71.700389 146.99922 70.400391 147.69922 C 69.100392 148.49922 67.499999 148.70078 66 148.30078 L 15.800781 134.90039 C 14.300783 134.50039 13.000781 133.49922 12.300781 132.19922 C 11.500782 130.89922 11.299219 129.30078 11.699219 127.80078 L 41.699219 15.800781 C 42.099218 14.300783 43.100392 13.000781 44.400391 12.300781 C 45.37539 11.700782 46.518361 11.436719 47.662109 11.511719 z M 332.80078 18.761719 C 333.55078 18.749219 334.3 18.899219 335 19.199219 C 336.4 19.699218 337.59922 20.79922 338.19922 22.199219 L 384.59961 128.5 C 385.29961 129.9 385.19922 131.50039 384.69922 132.90039 C 384.19922 134.30039 383.09922 135.49961 381.69922 136.09961 L 334.09961 156.90039 C 332.69961 157.60039 331.09922 157.5 329.69922 157 C 328.29922 156.5 327.1 155.4 326.5 154 L 293.12305 77.535156 L 282.69922 53 C 282.45771 52.315736 282.07637 51.718684 281.62109 51.183594 L 280.09961 47.699219 C 279.39961 46.29922 279.5 44.70078 280 43.300781 C 280.5 41.900783 281.6 40.699609 283 40.099609 L 330.59961 19.300781 C 331.29961 18.950782 332.05078 18.774219 332.80078 18.761719 z M 194.47266 41.810547 C 208.86049 41.581277 225.39159 44.823025 272.66797 59.529297 L 279.63281 75.421875 L 310.90039 148.90039 C 309.70039 149.70039 308.39922 150.60039 307.19922 151.40039 C 305.06166 152.82543 302.72601 154.53914 300.3418 156.29883 C 286.93588 139.07955 260.23188 111.71204 257.59961 109 C 218.19965 59.50005 195.59998 76.099624 176 90.599609 C 167.80001 96.599603 160.39921 102.10078 153.19922 99.300781 C 153.09922 99.300781 153.1 99.199219 153 99.199219 L 152.90039 99.099609 C 133.27785 89.719079 160.47389 47.970486 162.94922 44.289062 C 169.3811 43.875923 175.02537 43.386471 179.69922 42.900391 C 185.09921 42.350391 189.66797 41.887109 194.47266 41.810547 z M 118.19922 44.699219 C 130.61152 45.120624 140.67499 45.141893 149.10742 44.939453 C 139.95465 60.896873 122.45153 97.642142 148.19922 109.69922 C 148.39922 109.79922 148.60078 109.90039 148.80078 109.90039 C 161.90077 115.30039 171.90079 108.00038 182.80078 99.900391 C 198.30077 88.500402 216.20081 75.300432 248.80078 116.40039 C 249.00078 116.70039 249.3 116.89961 249.5 117.09961 C 253.4 121.09961 292.40079 161.2004 296.80078 171.40039 C 297.60078 173.30039 297.80039 175.40039 297.40039 177.40039 C 297.00039 179.20039 296.20078 180.89922 294.80078 182.19922 C 293.40078 183.49922 291.40078 184.50078 288.80078 184.80078 C 285.30078 185.20078 280.79921 184.5 275.19922 182 L 230.5 137.30078 C 228.3 135.10078 224.60039 135.10078 222.40039 137.30078 C 220.20039 139.50078 220.20039 143.20039 222.40039 145.40039 L 266.89844 189.89844 C 268.29369 194.60682 268.3251 198.00883 267.5 200.30078 C 267 201.70078 266.00039 202.59922 264.90039 203.19922 C 263.50039 203.99922 261.70039 204.30078 259.90039 204.30078 C 256.30039 204.30078 252.80039 203.20039 250.90039 201.40039 L 208.40039 162.5 C 206.10039 160.4 202.40078 160.50078 200.30078 162.80078 C 198.20078 165.10078 198.29961 168.80039 200.59961 170.90039 L 242.23633 209.28906 C 239.6468 223.27463 227.73215 218.21666 224.90039 216.80078 L 195.80078 188.59961 C 193.50078 186.39961 189.89922 186.39922 187.69922 188.69922 C 185.49922 190.99922 185.50078 194.60078 187.80078 196.80078 L 203.71484 212.2832 C 199.88973 213.3097 196.07411 214.15972 192.5 214.59961 C 186.80001 215.29961 181.79961 214.89961 178.59961 212.59961 C 167.49962 204.49962 101.8996 149.50038 87.599609 137.40039 L 111.09961 47.400391 L 118.19922 44.699219 z " />





<path
   d="M40.9,102.3c4.4,0,8.4,1.8,11.3,4.7c2.9,2.9,4.7,6.9,4.7,11.3s-1.8,8.4-4.7,11.3c-2.9,2.9-6.9,4.7-11.3,4.7  s-8.4-1.8-11.3-4.7c-2.9-2.9-4.7-6.9-4.7-11.3s1.8-8.4,4.7-11.3C32.5,104,36.5,102.3,40.9,102.3L40.9,102.3z M44.1,115.1  c-0.8-0.8-1.9-1.3-3.2-1.3c-1.2,0-2.4,0.5-3.2,1.3s-1.3,1.9-1.3,3.2c0,1.2,0.5,2.4,1.3,3.2c0.8,0.8,1.9,1.3,3.2,1.3  c1.2,0,2.4-0.5,3.2-1.3s1.3-1.9,1.3-3.2C45.4,117,44.9,115.9,44.1,115.1z"
   id="path417" />
</svg>
