<?xml version="1.0" encoding="utf-8"?>
<!-- Generator: Adobe Illustrator 21.0.0, SVG Export Plug-In . SVG Version: 6.00 Build 0)  -->
<svg version="1.1" id="Layer_1" xmlns="http://www.w3.org/2000/svg" xmlns:xlink="http://www.w3.org/1999/xlink" x="0px" y="0px"
	 viewBox="0 0 22.9 22.9" style="enable-background:new 0 0 22.9 22.9;" xml:space="preserve">
<path d="M11.5,0c-3,0-5.9,1.2-8,3.3c-2.2,2.1-3.4,5-3.5,8c0,6.3,5.1,11.5,11.4,11.6h0.1c6.3,0,11.4-5.1,11.4-11.4
	C22.9,5.1,17.8,0,11.5,0L11.5,0L11.5,0z M11.4,1.7L11.4,1.7c5.4,0,9.8,4.4,9.7,9.8c0,2.6-1,5-2.8,6.8c-1.9,1.8-4.4,2.9-7,2.8l0,0
	c-2.6,0-5-1-6.8-2.8c-3.8-3.9-3.7-10,0.1-13.8C6.4,2.7,8.9,1.7,11.4,1.7z"/>
<path d="M7.9,8.7c0.2,0.1,0.4,0.1,0.6,0c0.2,0,0.4-0.2,0.5-0.4c0.6-1.2,1.9-1.7,3.1-1.4C13,7,13.7,7.6,13.8,8.5
	c0.2,0.8-0.2,1.7-1,2.1c-0.4,0.2-0.7,0.4-1,0.7c-0.8,0.6-1.1,1.5-1,2.4c0,0.3,0.2,0.6,0.5,0.8c0.1,0,0.2,0.1,0.3,0.1s0.3,0,0.4-0.1
	c0.2-0.2,0.4-0.5,0.4-0.8c0-0.6,0.3-1.1,0.8-1.4c0.4-0.2,0.7-0.5,1-0.7c1.4-1.2,1.6-3.3,0.5-4.7C14,6,12.8,5.4,11.6,5.3l0,0
	c-1.7-0.1-3.2,0.9-4,2.3C7.3,7.9,7.4,8.4,7.9,8.7L7.9,8.7z"/>
<path d="M11.6,15.6c-0.5,0-0.8,0.4-0.8,1c0,0.4,0.3,0.8,0.7,0.8h0.1h0.1c0.2,0,0.3-0.1,0.5-0.2c0.2-0.2,0.3-0.5,0.3-0.8
	s-0.1-0.5-0.3-0.7C12,15.6,11.8,15.6,11.6,15.6z"/>
</svg>
