<?xml version="1.0" encoding="UTF-8" standalone="no"?>
<!-- Generator: Adobe Illustrator 24.0.0, SVG Export Plug-In . SVG Version: 6.00 Build 0)  -->

<svg
   version="1.1"
   id="Layer_1"
   x="0px"
   y="0px"
   viewBox="0 0 16.1 14.5"
   xml:space="preserve"
   sodipodi:docname="home.svg"
   width="16.1"
   height="14.5"
   inkscape:version="1.2.1 (9c6d41e410, 2022-07-14)"
   xmlns:inkscape="http://www.inkscape.org/namespaces/inkscape"
   xmlns:sodipodi="http://sodipodi.sourceforge.net/DTD/sodipodi-0.dtd"
   xmlns="http://www.w3.org/2000/svg"
   xmlns:svg="http://www.w3.org/2000/svg"><defs
   id="defs1546" /><sodipodi:namedview
   id="namedview1544"
   pagecolor="#ffffff"
   bordercolor="#000000"
   borderopacity="0.25"
   inkscape:showpageshadow="2"
   inkscape:pageopacity="0.0"
   inkscape:pagecheckerboard="0"
   inkscape:deskcolor="#d1d1d1"
   showgrid="false"
   inkscape:zoom="57.569446"
   inkscape:cx="8.0424606"
   inkscape:cy="8.598311"
   inkscape:window-width="1920"
   inkscape:window-height="1009"
   inkscape:window-x="1912"
   inkscape:window-y="-8"
   inkscape:window-maximized="1"
   inkscape:current-layer="Layer_1" />
<path
   class="st0"
   d="m 14.2,8.8 h 0.4 c 0.1,0 0.3,0 0.4,0 0.6,-0.1 1.1,-0.6 1.1,-1.2 V 7.1 C 16,7 16,6.9 15.9,6.8 L 10.3,1.7 8.6,0.2 C 8.5,0.1 8.3,0 8.1,0 7.9,0 7.7,0.1 7.5,0.2 L 4.8,2.6 0.3,6.8 C 0.1,6.9 0,7 0,7.2 v 0.5 0.1 c 0.2,0.6 0.7,1 1.3,1 H 1.9 C 2,8.8 2.1,8.9 2.1,9 v 4.9 c 0,0.3 0.2,0.5 0.4,0.6 h 11 0.1 C 13.8,14.4 14,14.2 14,14 V 9 c -0.1,-0.1 0,-0.2 0.2,-0.2 -0.1,0 -0.1,0 0,0 z M 13.9,7.2 c -0.1,0.2 -0.3,0.4 -0.6,0.4 h -0.7 v 4.8 c 0,0.6 -0.3,0.9 -0.9,0.9 H 9.9 C 9.8,13.3 9.7,13.2 9.7,13.1 V 9.5 H 6.3 V 13 c 0,0.1 -0.1,0.2 -0.2,0.2 H 4.3 C 4.1,13.2 3.9,13.1 3.7,13 3.5,12.9 3.4,12.6 3.4,12.4 V 7.6 H 2.8 C 2.6,7.6 2.4,7.5 2.3,7.3 2.1,7 2.1,6.7 2.3,6.4 c 0,0 0.1,-0.1 0.1,-0.1 l 5,-4.5 C 7.7,1.5 8.3,1.4 8.6,1.7 c 0,0 0.1,0 0.1,0.1 l 4.9,4.4 c 0.3,0.3 0.4,0.7 0.3,1 z"
   id="path1541" />
</svg>
