<?xml version="1.0" encoding="UTF-8" standalone="no"?>
<!-- Generator: Adobe Illustrator 24.0.0, SVG Export Plug-In . SVG Version: 6.00 Build 0)  -->

<svg
   version="1.1"
   id="Layer_1"
   x="0px"
   y="0px"
   viewBox="0 0 512.00001 512"
   xml:space="preserve"
   sodipodi:docname="car-alt.svg"
   width="512"
   height="512"
   inkscape:version="1.3 (0e150ed6c4, 2023-07-21)"
   xmlns:inkscape="http://www.inkscape.org/namespaces/inkscape"
   xmlns:sodipodi="http://sodipodi.sourceforge.net/DTD/sodipodi-0.dtd"
   xmlns="http://www.w3.org/2000/svg"
   xmlns:svg="http://www.w3.org/2000/svg"><defs
   id="defs2"><clipPath
     id="clip0_3_128"><rect
       width="16"
       height="16"
       fill="#ffffff"
       id="rect1"
       x="0"
       y="0" /></clipPath></defs><sodipodi:namedview
   id="namedview2"
   pagecolor="#ffffff"
   bordercolor="#000000"
   borderopacity="0.25"
   inkscape:showpageshadow="2"
   inkscape:pageopacity="0.0"
   inkscape:pagecheckerboard="0"
   inkscape:deskcolor="#d1d1d1"
   inkscape:zoom="1.2098214"
   inkscape:cx="-118.19926"
   inkscape:cy="-87.202951"
   inkscape:window-width="1920"
   inkscape:window-height="1009"
   inkscape:window-x="1912"
   inkscape:window-y="-8"
   inkscape:window-maximized="1"
   inkscape:current-layer="Layer_1" />&#10;&#10;&#10;<g
   id="import 1"
   clip-path="url(#clip0_3_128)"
   style="fill:#000000;fill-opacity:1;stroke:none"
   transform="scale(32)"><path
     id="Vector"
     d="m 16,2.5 v 11 c -7e-4,0.6628 -0.2644,1.2983 -0.7331,1.7669 C 14.7983,15.7356 14.1628,15.9993 13.5,16 H 2.5 C 1.83719,15.9993 1.20173,15.7356 0.733055,15.2669 0.264376,14.7983 7.44409e-4,14.1628 0,13.5 V 11.9375 C 0,11.7386 0.0790176,11.5478 0.21967,11.4072 0.360322,11.2665 0.551088,11.1875 0.75,11.1875 c 0.198912,0 0.38968,0.079 0.53033,0.2197 C 1.42098,11.5478 1.5,11.7386 1.5,11.9375 V 13.5 c 2.9e-4,0.2651 0.10574,0.5193 0.29321,0.7068 C 1.98069,14.3943 2.23487,14.4997 2.5,14.5 h 11 c 0.2651,-3e-4 0.5193,-0.1057 0.7068,-0.2932 C 14.3943,14.0193 14.4997,13.7651 14.5,13.5 V 2.5 C 14.4997,2.23487 14.3943,1.98069 14.2068,1.79321 14.0193,1.60574 13.7651,1.50029 13.5,1.5 H 2.5 C 2.23487,1.5003 1.98069,1.60575 1.79322,1.79322 1.60575,1.98069 1.5003,2.23487 1.5,2.5 V 4.0625 C 1.5,4.26141 1.42098,4.45218 1.28033,4.59283 1.13968,4.73348 0.948912,4.8125 0.75,4.8125 0.551088,4.8125 0.360322,4.73348 0.21967,4.59283 0.0790176,4.45218 0,4.26141 0,4.0625 V 2.5 C 7.52663e-4,1.83719 0.264386,1.20174 0.733064,0.733064 1.20174,0.264386 1.83719,7.52663e-4 2.5,0 h 11 c 0.6628,7.44409e-4 1.2983,0.264376 1.7669,0.733055 C 15.7356,1.20173 15.9993,1.83719 16,2.5 Z M 0,8 C 0,8.19891 0.0790176,8.38968 0.21967,8.53033 0.360322,8.67098 0.551088,8.75 0.75,8.75 H 7.15425 L 5.6105,10.2937 c -0.06965,0.0697 -0.12489,0.1524 -0.16258,0.2434 -0.0377,0.091 -0.0571,0.1885 -0.0571,0.287 0,0.1989 0.07901,0.3897 0.21966,0.5303 0.14066,0.1407 0.33142,0.2197 0.53034,0.2197 0.19891,0 0.38968,-0.079 0.53034,-0.2197 L 9.49525,8.53034 C 9.5649,8.4607 9.62015,8.37802 9.65784,8.28702 9.69553,8.19602 9.71493,8.09849 9.71493,8 9.71493,7.90151 9.69553,7.80398 9.65784,7.71298 9.62015,7.62198 9.5649,7.5393 9.49525,7.46966 L 6.67116,4.64556 C 6.5305,4.50491 6.33973,4.42589 6.14081,4.42589 5.9419,4.42589 5.75112,4.50491 5.61047,4.64556 5.46981,4.78622 5.39079,4.97699 5.39079,5.17591 c 0,0.19891 0.07902,0.38968 0.21968,0.53034 L 7.15422,7.25 H 0.75 C 0.551088,7.25 0.360322,7.32902 0.21967,7.46967 0.0790176,7.61032 0,7.80109 0,8 Z"
     fill="white"
     style="fill:#000000;fill-opacity:1;stroke:none" /></g></svg>
