<?xml version="1.0" encoding="utf-8"?>
<!-- Generator: Adobe Illustrator 24.0.0, SVG Export Plug-In . SVG Version: 6.00 Build 0)  -->
<svg version="1.1" id="Layer_1" xmlns="http://www.w3.org/2000/svg" xmlns:xlink="http://www.w3.org/1999/xlink" x="0px" y="0px"
	 viewBox="0 0 15.6 15.7" style="enable-background:new 0 0 15.6 15.7;" xml:space="preserve">
<path class="st0" d="M14.9,0H0.8C0.4,0,0,0.3,0,0.7c0,0,0,0.1,0,0.1v9.9h1.5V1.5h12.6v12.6H5v1.5h9.9c0.4,0,0.7-0.3,0.7-0.7
	c0,0,0,0,0,0V0.8c0-0.2-0.1-0.4-0.2-0.5C15.3,0.1,15.1,0,14.9,0z"/>
<path class="st0" d="M8.2,11.4C8.2,11.3,8.3,11.3,8.2,11.4l0.2-0.2l0.4-3.9c0-0.1,0-0.1-0.1-0.2C8.6,7,8.6,7,8.5,7l0,0l-4,0.3
	c-0.1,0-0.1,0-0.2,0.1c0,0.1-0.1,0.1-0.1,0.2s0,0.1,0.1,0.2L5.6,9l-5.5,5.5c-0.1,0.1-0.1,0.3,0,0.4l0.7,0.7c0.1,0.1,0.1,0.1,0.2,0.1
	c0.1,0,0.1,0,0.2-0.1L6.7,10l1.2,1.2C8,11.4,8.1,11.4,8.2,11.4z"/>
</svg>
