<?xml version="1.0" encoding="UTF-8" standalone="no"?>
<svg
   width="19.724"
   height="23.346"
   viewBox="0 0 19.724 23.346"
   version="1.1"
   id="svg529"
   sodipodi:docname="invoice-doc.svg"
   inkscape:version="1.2.1 (9c6d41e410, 2022-07-14)"
   xmlns:inkscape="http://www.inkscape.org/namespaces/inkscape"
   xmlns:sodipodi="http://sodipodi.sourceforge.net/DTD/sodipodi-0.dtd"
   xmlns="http://www.w3.org/2000/svg"
   xmlns:svg="http://www.w3.org/2000/svg">
  <defs
     id="defs533" />
  <sodipodi:namedview
     id="namedview531"
     pagecolor="#ffffff"
     bordercolor="#000000"
     borderopacity="0.25"
     inkscape:showpageshadow="2"
     inkscape:pageopacity="0.0"
     inkscape:pagecheckerboard="0"
     inkscape:deskcolor="#d1d1d1"
     showgrid="false"
     inkscape:zoom="35.509294"
     inkscape:cx="9.8284128"
     inkscape:cy="4.9282872"
     inkscape:window-width="1920"
     inkscape:window-height="1009"
     inkscape:window-x="1912"
     inkscape:window-y="-8"
     inkscape:window-maximized="1"
     inkscape:current-layer="svg529" />
  <path
     id="Path_24478"
     data-name="Path 24478"
     d="M 16.36432,0.6825551 H 3.3588202 C 2.5958467,0.6879701 1.9057762,0.99929175 1.4050977,1.4999788 0.90440967,2.0006649 0.59310417,2.6907354 0.58767017,3.4537051 V 21.743105 c -0.01615,0.323101 0.1570445,0.626103 0.44365003,0.77615 0.265012,0.177933 0.607411,0.192246 0.88635,0.03705 l 2.8823,-1.36705 4.8032,1.44115 c 0.170278,0.037 0.346522,0.037 0.5167998,0 l 4.8032,-1.44115 2.88325,1.36705 c 0.125571,0.06332 0.26676,0.08905 0.4066,0.0741 0.172596,0.008 0.34258,-0.0444 0.4807,-0.1482 0.26125,-0.174985 0.425448,-0.462241 0.44365,-0.77615 V 3.4537051 C 19.13167,2.6907354 18.820631,2.0006649 18.319943,1.4999788 17.819264,0.99929175 17.129194,0.6879891 16.36622,0.6825551 h -9.5e-4 z m 0.9234,19.6193999 -1.8848,-0.88635 c -0.206967,-0.103928 -0.447773,-0.117345 -0.665,-0.03705 l -4.8772998,1.44115 -4.8792,-1.44115 c -0.082555,-0.03029 -0.17062,-0.04291 -0.2584,-0.03705 -0.138206,0.0067 -0.2749205,0.03161 -0.4066,0.0741 l -1.8848,0.88635 V 3.4537051 C 2.4287702,3.1977266 2.5320732,2.9656739 2.6995297,2.7982184 2.8669862,2.6307619 3.0990427,2.5279016 3.3550202,2.5303051 H 16.32347 c 0.255978,-0.00238 0.488034,0.1004568 0.655491,0.2679133 0.167456,0.1674555 0.270313,0.3995082 0.267909,0.6554867 V 20.304805 Z M 15.44092,7.8873551 c 0.0048,0.5119579 -0.411445,0.928207 -0.9234,0.9234 H 4.9814202 c -0.6159135,0 -0.923875,-0.4619375 -0.923875,-0.923875 0,-0.4619375 0.3079615,-0.923875 0.923875,-0.923875 H 14.51372 c 0.508421,0.00608 0.919515,0.4159547 0.9272,0.92435 z m 0,3.8056999 c 0.0048,0.511958 -0.411445,0.928207 -0.9234,0.9234 H 4.9814202 c -0.6159135,0 -0.923875,-0.461937 -0.923875,-0.923875 0,-0.461937 0.3079615,-0.923875 0.923875,-0.923875 H 14.51372 c 0.513817,-0.0069 0.932587,0.410513 0.9272,0.92435 z m 0,3.8057 c 0.0048,0.511958 -0.411445,0.928207 -0.9234,0.9234 H 4.9814202 c -0.6159135,0 -0.923875,-0.461937 -0.923875,-0.923875 0,-0.461937 0.3079615,-0.923875 0.923875,-0.923875 H 14.51372 c 0.513817,-0.0069 0.932587,0.410513 0.9272,0.92435 z"
     fill="#24c586"
     stroke="#ffffff"
     stroke-width="0.19"
     sodipodi:nodetypes="ccscccccccccccccsccccccccccccsccscccccsssccccsssccccssscc"
     style="stroke:none" />
</svg>
