<?xml version="1.0" encoding="utf-8"?>
<!-- Generator: Adobe Illustrator 21.0.0, SVG Export Plug-In . SVG Version: 6.00 Build 0)  -->
<svg version="1.1" id="Vrstva_1" xmlns="http://www.w3.org/2000/svg" xmlns:xlink="http://www.w3.org/1999/xlink" x="0px" y="0px"
	 viewBox="0 0 33.7 37.6" style="enable-background:new 0 0 33.7 37.6;" xml:space="preserve">
<path class="st0" d="M31.4,0H9.5C8.2,0,7.2,1,7.2,2.3v5.1c-5.3,1.5-8.3,7-6.8,12.3c0.9,3.3,3.5,5.9,6.8,6.8v8.8c0,1.3,1,2.3,2.3,2.3
	h17.9c0.2,0,0.4-0.1,0.6-0.2l5.5-5.5c0.2-0.2,0.2-0.4,0.2-0.6v-29C33.7,1,32.7,0,31.4,0z M9.5,1.6h21.9c0.4,0,0.7,0.3,0.7,0.7v2.4
	H8.8V2.3C8.8,1.9,9.1,1.6,9.5,1.6C9.5,1.6,9.5,1.6,9.5,1.6z M1.6,16.9c0-4.6,3.7-8.3,8.4-8.3c4.6,0,8.3,3.7,8.3,8.4
	c0,4.6-3.7,8.3-8.3,8.3C5.3,25.3,1.6,21.6,1.6,16.9z M8.8,35.3v-8.5c3.3,0.4,6.5-0.9,8.6-3.4h4.9c0.4,0,0.8-0.4,0.8-0.8
	c0-0.4-0.4-0.8-0.8-0.8h-3.8c0.7-1.2,1.1-2.6,1.3-4.1h2.5c0.4,0,0.8-0.4,0.8-0.8c0-0.4-0.4-0.8-0.8-0.8h-2.5
	c-0.1-1.4-0.5-2.8-1.2-4.1h3.7c0.4,0,0.8-0.4,0.8-0.8s-0.4-0.8-0.8-0.8h-4.8C15.4,8,12.1,6.7,8.8,7.1V6.3h23.3v24.2h-3.2
	c-1.3,0-2.3,1-2.3,2.3V36H9.5C9.1,36,8.8,35.7,8.8,35.3z M28.2,34.8v-2.1c0-0.4,0.3-0.7,0.7-0.7H31L28.2,34.8z"/>
<path class="st0" d="M25.5,12.1h2.7c0.4,0,0.8-0.4,0.8-0.8s-0.4-0.8-0.8-0.8h-2.7c-0.4,0-0.8,0.4-0.8,0.8S25.1,12.1,25.5,12.1z"/>
<path class="st0" d="M25.5,17.8h2.7c0.4,0,0.8-0.4,0.8-0.8s-0.4-0.8-0.8-0.8h-2.7c-0.4,0-0.8,0.4-0.8,0.8S25.1,17.8,25.5,17.8z"/>
<path class="st0" d="M25.5,23.5h2.7c0.4,0,0.8-0.4,0.8-0.8c0-0.4-0.4-0.8-0.8-0.8h-2.7c-0.4,0-0.8,0.4-0.8,0.8
	C24.7,23.1,25.1,23.5,25.5,23.5z"/>
<path class="st0" d="M28.2,29.2c0.4,0,0.8-0.4,0.8-0.8c0-0.4-0.4-0.8-0.8-0.8h-7.5c-0.4,0-0.8,0.4-0.8,0.8c0,0.4,0.4,0.8,0.8,0.8
	H28.2z"/>
<path class="st0" d="M16.2,12.9l-1-1c-0.5-0.5-1.4-0.5-2,0l-5.1,5.1l-1.4-1.4c-0.5-0.5-1.4-0.5-2,0l-1,1c-0.5,0.5-0.5,1.4,0,2
	L7.1,22c0.3,0.3,0.6,0.4,1,0.4l0,0c0.4,0,0.7-0.1,1-0.4l7.1-7.1C16.7,14.3,16.7,13.4,16.2,12.9z M8.1,20.7L5,17.6l0.7-0.7l1.8,1.8
	c0.3,0.3,0.8,0.3,1.1,0c0,0,0,0,0,0l5.6-5.6l0.7,0.7L8.1,20.7z"/>
</svg>
