<?xml version="1.0" encoding="utf-8"?>
<!-- Generator: Adobe Illustrator 24.0.0, SVG Export Plug-In . SVG Version: 6.00 Build 0)  -->
<svg version="1.1" id="Layer_1" xmlns="http://www.w3.org/2000/svg" xmlns:xlink="http://www.w3.org/1999/xlink" x="0px" y="0px"
	 viewBox="0 0 17.9 18" style="enable-background:new 0 0 17.9 18;" xml:space="preserve">
<path class="st0" d="M17.4,0H8.9C8.7,0,8.4,0.2,8.4,0.5v5.2H0.5C0.2,5.7,0,5.9,0,6.2v11.2C0,17.7,0.2,18,0.5,18
	c0.1,0,0.3-0.1,0.4-0.2l1.9-1.9h6.1c0.3,0,0.5-0.2,0.5-0.5v-5.2H15l2,1.9c0.2,0.2,0.5,0.2,0.7,0c0.1-0.1,0.2-0.2,0.2-0.4V0.5
	C17.9,0.2,17.7,0,17.4,0C17.4,0,17.4,0,17.4,0z M8.4,14.8H2.6c-0.1,0-0.3,0.1-0.4,0.2l-1.2,1.2V6.7h7.4V14.8z M16.8,10.5l-1.2-1.2
	c-0.1-0.1-0.2-0.2-0.4-0.2H9.5V1.1h7.4V10.5z"/>
<path class="st0" d="M10.9,4.6h0.4c0.1,0.8,0.5,1.6,1,2.2C11.9,6.9,11.5,7,11,7c-0.3,0-0.5,0.2-0.5,0.5s0.2,0.5,0.5,0.5
	c0.7,0,1.5-0.2,2.1-0.6c0.6,0.4,1.4,0.6,2.1,0.6c0.3,0,0.5-0.2,0.5-0.5S15.5,7,15.2,7c-0.4,0-0.8-0.1-1.2-0.3c0.6-0.6,0.9-1.4,1-2.2
	h0.4c0.3,0,0.5-0.2,0.5-0.5s-0.2-0.5-0.5-0.5c0,0,0,0,0,0h-1.8V2.6c0-0.3-0.2-0.5-0.5-0.5s-0.5,0.2-0.5,0.5v0.9h-1.8
	c-0.3,0-0.5,0.2-0.5,0.5S10.6,4.6,10.9,4.6L10.9,4.6z M13.1,6.1c-0.4-0.4-0.7-1-0.8-1.6H14C13.9,5.2,13.6,5.7,13.1,6.1z"/>
<path class="st0" d="M5.3,8.2L5.3,8.2C5.2,7.9,5,7.8,4.7,7.8l0,0c-0.3,0-0.5,0.2-0.6,0.4v0L2.3,13c-0.1,0.3,0,0.6,0.3,0.7
	c0.3,0.1,0.6,0,0.7-0.3c0,0,0,0,0,0l0.3-0.9h2.2l0.3,0.9c0.1,0.3,0.4,0.4,0.7,0.3c0.3-0.1,0.4-0.4,0.3-0.7L5.3,8.2z M4,11.5l0.7-1.9
	l0.7,1.9H4z"/>
</svg>
