<?xml version="1.0" encoding="utf-8"?>
<!-- Generator: Adobe Illustrator 24.0.0, SVG Export Plug-In . SVG Version: 6.00 Build 0)  -->
<svg version="1.1" id="Layer_1" xmlns="http://www.w3.org/2000/svg" xmlns:xlink="http://www.w3.org/1999/xlink" x="0px" y="0px"
	 viewBox="0 0 16.6 16.2" style="enable-background:new 0 0 16.6 16.2;" xml:space="preserve">
<path class="st0" d="M2.2,5.9C1,5.9,0,6.9,0,8.1s1,2.2,2.2,2.2s2.2-1,2.2-2.2S3.4,5.9,2.2,5.9L2.2,5.9z M2.2,9.2L2.2,9.2
	c-0.6,0-1.1-0.5-1.1-1.1c0-0.3,0.1-0.5,0.3-0.7C1.6,7.1,1.9,7,2.2,7c0.6,0,1.1,0.5,1.1,1.1C3.3,8.7,2.8,9.1,2.2,9.2L2.2,9.2z"/>
<path class="st0" d="M16.1,7.5H6.6c-0.2,0-0.3,0.1-0.4,0.2C6.1,7.8,6,7.9,6,8.1c0,0.1,0.1,0.3,0.2,0.4c0.1,0.1,0.3,0.2,0.4,0.2h9.5
	c0.2,0,0.3-0.1,0.4-0.2c0.1-0.1,0.2-0.2,0.2-0.4C16.6,7.8,16.4,7.5,16.1,7.5z"/>
<path class="st0" d="M2.2,0C1,0,0,1,0,2.2s1,2.2,2.2,2.2s2.2-1,2.2-2.2S3.4,0,2.2,0C2.2,0,2.2,0,2.2,0z M2.2,3.3L2.2,3.3
	c-0.6,0-1.1-0.5-1.1-1.1c0-0.6,0.5-1.1,1.1-1.1c0.6,0,1.1,0.5,1.1,1.1v0C3.3,2.8,2.8,3.3,2.2,3.3z"/>
<path class="st0" d="M16.1,1.6H6.6C6.3,1.6,6,1.9,6,2.2c0,0,0,0,0,0c0,0.3,0.3,0.6,0.6,0.6h9.5c0.3,0,0.6-0.3,0.6-0.6
	C16.6,1.9,16.4,1.6,16.1,1.6C16.1,1.6,16.1,1.6,16.1,1.6z"/>
<path class="st0" d="M2.2,11.8C1,11.8,0,12.7,0,14s1,2.2,2.2,2.2c1.2,0,2.2-1,2.2-2.2C4.4,12.8,3.4,11.8,2.2,11.8
	C2.2,11.8,2.2,11.8,2.2,11.8z M2.2,15c-0.6,0-1.1-0.5-1.1-1.1c0-0.6,0.5-1.1,1.1-1.1c0.6,0,1.1,0.5,1.1,1.1c0,0,0,0,0,0
	C3.2,14.6,2.8,15,2.2,15L2.2,15z"/>
<path class="st0" d="M16.1,13.4H6.6c-0.2,0-0.3,0.1-0.4,0.2c-0.2,0.2-0.3,0.6-0.1,0.8c0.1,0.1,0.3,0.2,0.5,0.2h9.5
	c0.3,0,0.6-0.3,0.6-0.6C16.7,13.7,16.4,13.4,16.1,13.4C16.1,13.4,16.1,13.4,16.1,13.4z"/>
</svg>
