<?xml version="1.0" encoding="utf-8"?>
<!-- Generator: Adobe Illustrator 24.0.0, SVG Export Plug-In . SVG Version: 6.00 Build 0)  -->
<svg version="1.1" id="Layer_1" xmlns="http://www.w3.org/2000/svg" xmlns:xlink="http://www.w3.org/1999/xlink" x="0px" y="0px"
	 viewBox="0 0 62.9 62.9" style="enable-background:new 0 0 62.9 62.9;" xml:space="preserve">
<path d="M61.6,32.2h-27L33,28.5c-0.2-0.3-0.5-0.6-1-0.6l-5-1.3c-0.8-0.2-1.4,0.3-1.6,1c-0.2,0.6,0.3,1.4,1,1.6l4.3,1L42,56.5
	c-1.1,2.1-0.5,4.6,1.6,5.8c2.1,1.1,4.6,0.5,5.8-1.6c0.6-1.1,0.8-2.6,0.2-3.7h4.8c-1,2.1,0.2,4.6,2.2,5.6s4.6-0.2,5.6-2.2
	c1-2.2,0-4.6-2.2-5.6c-0.5-0.2-1.1-0.3-1.6-0.3H44l-1.8-4.2h19.3c0.6,0,1.3-0.6,1.3-1.3V33.5C62.8,32.8,62.3,32.2,61.6,32.2z
	 M58.1,57c1,0,1.6,0.8,1.6,1.6c0,1-0.8,1.8-1.6,1.8c-0.8,0-1.6-0.8-1.6-1.8C56.5,57.8,57.3,57,58.1,57z M45.8,57
	c1,0,1.6,0.8,1.6,1.6c0,1-0.8,1.8-1.6,1.8c-0.8,0-1.6-0.8-1.6-1.8C44.2,57.8,44.8,57,45.8,57z M60.4,40h-8.5c-0.6,0-1.3,0.6-1.3,1.3
	s0.5,1.3,1.3,1.3h8.5v5.3H41.2l-5.6-13.1h24.6V40H60.4z"/>
<path d="M35.1,6.9c1.4,0,2.8,0.2,4.1,0.6c1.7,0.6,3.5,1.6,4.8,3.1c1,1,1.9,2.3,2.8,3.5c0.5,1,1,2.1,1.4,3.1c0,0.2,0.2,0.2,0.2,0.2
	c0.9-0.2,1.7-0.6,2.6-0.8c0.2,0,0.3,0,0.5,0c0.3,0.2,0.5,0.4,0.3,0.8c-0.2,0.6-0.3,1.4-0.5,2.1c-0.3,1.6-0.7,3.5-1,5.1
	c-0.3,1.6-0.7,3.3-1,4.9c0,0.4-0.3,0.6-0.7,0.6c-0.2,0-0.2-0.2-0.3-0.2c-0.7-0.8-1.4-1.6-2.1-2.5l-4.5-5.6c-0.3-0.4-0.5-0.6-0.7-1
	c-0.2-0.2-0.3-0.6,0-1c0.2-0.2,0.2-0.2,0.3-0.2c0.9-0.2,1.7-0.6,2.6-0.8c0.2,0,0.2,0,0.2-0.2c-0.3-1-0.9-1.9-1.6-2.7
	c-1.4-1.9-3.3-3.1-5.5-3.7c-1.7-0.2-3.5,0-5,0.6c-0.5,0.2-1,0.4-1.6,0.8c-0.9,0.6-1.9,0.4-2.6-0.2c-0.5-0.4-0.7-1.2-0.7-1.9
	c0-1,0.3-1.9,0.9-2.5c0.5-0.2,0.9-0.6,1.4-0.8c1-0.6,2.1-1,3.3-1.2C33.5,6.9,34.2,6.9,35.1,6.9z"/>
<path d="M19.6,26.5H6.2c-0.1,0-0.3-0.1-0.4-0.1c-1.7-0.5-3-2.1-3-4c0-6,0-12.1,0-18.1c0-0.4,0.1-0.9,0.3-1.3
	c0.5-1.3,1.7-2.3,3.1-2.7h9.1c0.4,0.1,0.8,0.3,1.1,0.5c2.1,1.9,4.2,3.9,5.9,5.9C22.9,7.3,23,8,23,8.5c0,4.7,0,9.4,0,14.1
	c0,0.4-0.1,0.9-0.3,1.3C22.2,25.3,21,26.2,19.6,26.5z M21,15.4c0-1.6,0.1-3.6,0-5.6c0-0.9-0.3-1.2-1.2-1.2c-1.2,0-2.3,0-3.5,0
	c-0.9,0-1.3-0.4-1.3-1.3c0-1.2,0-2.4-0.1-3.6c0-0.8-0.3-1.1-1.2-1.1c-2.1,0-4.3,0-6.4,0C6.1,2.3,5.1,3.2,5,4.2c0,0.1,0,0.3,0,0.4
	C5,6,5,7.2,5,8.5c0,4.6,0,9,0,13.6c-0.1,1.1,0.7,2.1,1.7,2.3c0.1,0,0.3,0,0.4,0c0.8,0,1.6,0,2.6,0c3.1,0,6,0,9.1,0
	c1.1,0.1,2-0.7,2-1.7c0,0,0,0,0-0.1c0-0.4,0-0.8,0-1.2C21,19.5,21,17.7,21,15.4L21,15.4z"/>
<path d="M12.9,20.5c-1.6,0-3.2,0-4.8,0c-0.5,0.1-1.2-0.3-1.2-0.9l0,0c0-0.5,0.4-1.1,1.2-1.1c3.2-0.1,6.6-0.1,9.8,0
	c0.5,0,1.1,0.4,1.1,1.1c0,0.5-0.5,1.1-1.1,1.1l0,0C16.2,20.5,14.5,20.5,12.9,20.5z"/>
<path d="M12.9,10.4c1.6,0,3.2,0,4.8,0c0.7,0,1.2,0.4,1.2,1.1c0,0.5-0.4,0.9-1.1,0.9h-0.1c-1.3,0-2.8,0-4.2,0c-1.7,0-3.5,0-5.2,0
	c-0.3,0-0.5,0-0.8,0c-0.4-0.1-0.8-0.7-0.7-1.1c0-0.5,0.5-0.9,0.9-0.9C9.6,10.4,11.3,10.4,12.9,10.4L12.9,10.4z"/>
<path d="M12,14.4c1.3,0,2.6,0,3.9,0c0.5,0,1.1,0.4,1.1,0.9c0,0.1,0,0.1,0,0.3c0,0.5-0.4,0.8-0.8,0.8c-2.7,0.1-5.4,0.1-8.1,0
	c-0.5,0-1.1-0.4-1.2-0.9v-0.1c0-0.7,0.4-1.1,1.2-1.1C9.4,14.4,10.6,14.4,12,14.4L12,14.4z"/>
</svg>
