<?xml version="1.0" encoding="UTF-8" standalone="no"?>
<svg
   width="20.035"
   height="20.026"
   viewBox="0 0 20.035 20.026"
   version="1.1"
   id="svg1041"
   sodipodi:docname="log.svg"
   inkscape:version="1.2.1 (9c6d41e410, 2022-07-14)"
   xmlns:inkscape="http://www.inkscape.org/namespaces/inkscape"
   xmlns:sodipodi="http://sodipodi.sourceforge.net/DTD/sodipodi-0.dtd"
   xmlns="http://www.w3.org/2000/svg"
   xmlns:svg="http://www.w3.org/2000/svg">
  <defs
     id="defs1045" />
  <sodipodi:namedview
     id="namedview1043"
     pagecolor="#ffffff"
     bordercolor="#000000"
     borderopacity="0.25"
     inkscape:showpageshadow="2"
     inkscape:pageopacity="0.0"
     inkscape:pagecheckerboard="0"
     inkscape:deskcolor="#d1d1d1"
     showgrid="false"
     inkscape:zoom="41.396187"
     inkscape:cx="10.049235"
     inkscape:cy="8.1166896"
     inkscape:window-width="1920"
     inkscape:window-height="1009"
     inkscape:window-x="1912"
     inkscape:window-y="-8"
     inkscape:window-maximized="1"
     inkscape:current-layer="Group_10574" />
  <g
     id="Group_10574"
     data-name="Group 10574"
     transform="translate(225.524 -450.779)"
     style="fill:#000000">
    <path
       id="Path_24504"
       data-name="Path 24504"
       d="m -207.646,452.379 h -2.5 v -1.05 c -2.7e-4,-0.15177 -0.0619,-0.28913 -0.16138,-0.38862 -0.0995,-0.0995 -0.23685,-0.16111 -0.38862,-0.16138 h -9.627 c -0.15188,0 -0.28938,0.0616 -0.38891,0.16109 -0.0995,0.0995 -0.16109,0.23703 -0.16109,0.38891 v 1.05 h -2.5 c -0.59565,0.002 -1.13452,0.24408 -1.52453,0.635 -0.39002,0.39092 -0.6312,0.93034 -0.63147,1.526 v 10.909 c 0.002,0.59468 0.24331,1.13285 0.63323,1.52277 0.38992,0.38992 0.92809,0.63158 1.52277,0.63323 h 7.309 v 2.1 h -2.656 c -0.30376,0 -0.55,0.24624 -0.55,0.55 0,0.30376 0.24624,0.55 0.55,0.55 h 6.417 c 0.30353,-5.5e-4 0.54945,-0.24647 0.55,-0.55 -5.5e-4,-0.30353 -0.24647,-0.54945 -0.55,-0.55 h -2.656 v -2.1 h 7.309 c 0.59468,-0.002 1.13285,-0.24316 1.52277,-0.63311 0.38992,-0.38996 0.63158,-0.92821 0.63323,-1.52289 V 454.54 c 0.002,-0.573 -0.22574,-1.12291 -0.632,-1.527 -0.40161,-0.40592 -0.94898,-0.63423 -1.52,-0.634 z m -12.121,-0.5 h 8.521 v 11.413 h -8.521 z m 12.124,14.62 h -15.725 c -0.28984,-2.8e-4 -0.5522,-0.11786 -0.74217,-0.30783 -0.18997,-0.18997 -0.30755,-0.45233 -0.30783,-0.74217 V 454.54 c 2.8e-4,-0.28984 0.11786,-0.5522 0.30783,-0.74217 0.18997,-0.18997 0.45233,-0.30755 0.74217,-0.30783 h 2.5 v 10.355 c 2.8e-4,0.15184 0.0618,0.28932 0.16132,0.38897 0.0995,0.0996 0.23684,0.16148 0.38868,0.16203 h 9.628 c 0.15184,-5e-4 0.28921,-0.0623 0.38868,-0.16199 0.0995,-0.0997 0.16105,-0.23717 0.16132,-0.38901 v -10.357 h 2.5 c 0.28984,2.8e-4 0.5522,0.11786 0.74217,0.30783 0.18997,0.18997 0.30755,0.45233 0.30783,0.74217 l 0.005,10.911 c 1e-5,0.2916 -0.1187,0.55532 -0.3103,0.74566 -0.19161,0.19033 -0.45611,0.30728 -0.7477,0.30534 v -5e-4 z"
       fill="#fff"
       style="fill:#000000"
       sodipodi:nodetypes="cccscsssccsccscccsssccccccscccccccccccsccscccsccscccsccsccc" />
    <path
       id="Path_24505"
       data-name="Path 24505"
       d="m -217.115,454.927 h 1.6055 1.6055 c 0.0728,-1.1e-4 0.14404,-0.0146 0.20998,-0.042 0.0659,-0.0274 0.12655,-0.0676 0.17802,-0.119 0.0516,-0.0516 0.0919,-0.11233 0.11927,-0.17845 0.0274,-0.0661 0.0418,-0.1376 0.0417,-0.21055 -5.5e-4,-0.15165 -0.0622,-0.28888 -0.16167,-0.38833 -0.0994,-0.0994 -0.23668,-0.16112 -0.38833,-0.16167 h -1.605 -1.605 c -0.0726,-1.1e-4 -0.14367,0.0142 -0.20945,0.0414 -0.0658,0.0272 -0.12625,0.0673 -0.17755,0.11858 -0.0519,0.0514 -0.0924,0.11214 -0.11996,0.17827 -0.0275,0.0661 -0.0421,0.13768 -0.042,0.21073 -3.8e-4,0.0732 0.0139,0.14487 0.0413,0.21118 0.0274,0.0663 0.0678,0.12723 0.11969,0.17882 0.0513,0.0516 0.11194,0.0919 0.1779,0.11931 0.066,0.0274 0.13729,0.0418 0.2101,0.0417 z"
       fill="#fff"
       style="fill:#000000"
       sodipodi:nodetypes="cccscscscccscscscsc" />
    <path
       id="Path_24506"
       data-name="Path 24506"
       d="m -213.9,460.244 h -1.6045 -1.6045 c -0.15188,0 -0.28938,0.0616 -0.38891,0.16109 -0.0995,0.0995 -0.16109,0.23703 -0.16109,0.38891 0,0.15188 0.0616,0.28938 0.16109,0.38891 0.0995,0.0995 0.23703,0.16109 0.38891,0.16109 h 1.6045 1.6045 c 0.15176,-2.8e-4 0.28913,-0.0619 0.38862,-0.16138 0.0995,-0.0995 0.1611,-0.23686 0.16138,-0.38862 -2.8e-4,-0.15176 -0.0619,-0.28913 -0.16138,-0.38862 -0.0995,-0.0995 -0.23686,-0.1611 -0.38862,-0.16138 z"
       fill="#fff"
       style="fill:#000000"
       sodipodi:nodetypes="ccsssssccscsc" />
    <path
       id="Path_24507"
       data-name="Path 24507"
       d="m -213.9,457.036 h -1.6045 -1.6045 c -0.15188,0 -0.28938,0.0616 -0.38891,0.16109 -0.0995,0.0995 -0.16109,0.23703 -0.16109,0.38891 0,0.15188 0.0616,0.28938 0.16109,0.38891 0.0995,0.0995 0.23703,0.16109 0.38891,0.16109 h 1.6045 1.6045 c 0.15176,-2.8e-4 0.28913,-0.0619 0.38862,-0.16138 0.0995,-0.0995 0.1611,-0.23686 0.16138,-0.38862 -2.8e-4,-0.15176 -0.0619,-0.28913 -0.16138,-0.38862 -0.0995,-0.0995 -0.23686,-0.1611 -0.38862,-0.16138 z"
       fill="#fff"
       style="fill:#000000"
       sodipodi:nodetypes="ccsssssccscsc" />
  </g>
</svg>
