<?xml version="1.0" encoding="utf-8"?>
<!-- Generator: Adobe Illustrator 24.0.0, SVG Export Plug-In . SVG Version: 6.00 Build 0)  -->
<svg version="1.1" id="Layer_1" xmlns="http://www.w3.org/2000/svg" xmlns:xlink="http://www.w3.org/1999/xlink" x="0px" y="0px"
	 viewBox="0 0 15.1 16.3" style="enable-background:new 0 0 15.1 16.3;" xml:space="preserve">
<path d="M7.5,0c0.2,0.2,0.4,0.3,0.3,0.6S7.4,1,7.2,1H3C1.9,1,1,1.9,0.9,3c0,3.4,0,6.8,0,10.2c-0.1,1.1,0.8,2.1,2,2.2
	c0.1,0,0.1,0,0.2,0h4c0.3,0,0.5,0,0.7,0.3c0.1,0.3-0.1,0.4-0.3,0.6H2.7c0,0-0.1,0-0.1-0.1C1.1,16,0,14.7,0,13.3C0,9.8,0,6.4,0,3
	c0-0.9,0.4-1.8,1.2-2.3c0.5-0.3,1-0.5,1.5-0.7H7.5z"/>
<path d="M13.6,7.7l-1.9-1.9l-0.2-0.2c-0.2-0.3-0.3-0.5,0-0.7s0.4-0.2,0.7,0.1c0.4,0.4,0.8,0.8,1.3,1.3l1.5,1.5
	c0.4,0.4,0.4,0.5,0,0.9l-2.8,2.8c-0.3,0.3-0.5,0.3-0.8,0.1s-0.2-0.5,0.1-0.8c0.7-0.7,1.3-1.3,2-2.1H4.3c-0.1,0-0.2,0-0.3,0
	c-0.2,0-0.4-0.2-0.4-0.4C3.6,8,3.7,7.8,4,7.7c0,0,0,0,0,0c0.1,0,0.3,0,0.4,0L13.6,7.7L13.6,7.7z"/>
</svg>
