<?xml version="1.0" encoding="UTF-8" standalone="no"?>
<svg
   width="21.721693"
   height="20.628645"
   viewBox="0 0 21.721694 20.628645"
   version="1.1"
   id="svg4"
   sodipodi:docname="marketing.svg"
   inkscape:version="1.2.1 (9c6d41e410, 2022-07-14)"
   xmlns:inkscape="http://www.inkscape.org/namespaces/inkscape"
   xmlns:sodipodi="http://sodipodi.sourceforge.net/DTD/sodipodi-0.dtd"
   xmlns="http://www.w3.org/2000/svg"
   xmlns:svg="http://www.w3.org/2000/svg">
  <defs
     id="defs8" />
  <sodipodi:namedview
     id="namedview6"
     pagecolor="#ffffff"
     bordercolor="#000000"
     borderopacity="0.25"
     inkscape:showpageshadow="2"
     inkscape:pageopacity="0.0"
     inkscape:pagecheckerboard="0"
     inkscape:deskcolor="#d1d1d1"
     showgrid="false"
     inkscape:zoom="45.254834"
     inkscape:cx="15.998291"
     inkscape:cy="16.882174"
     inkscape:window-width="1920"
     inkscape:window-height="1009"
     inkscape:window-x="1912"
     inkscape:window-y="-8"
     inkscape:window-maximized="1"
     inkscape:current-layer="layer1" />
  <g
     inkscape:groupmode="layer"
     id="layer1"
     inkscape:label="l2"
     transform="translate(0.13713038,0.00792635)">
    <path
       id="rect443"
       style="fill:#000000;stroke:none;stroke-width:0.225;stroke-linecap:square;stroke-opacity:0.801187"
       d="m 12.565695,2.683533 c -0.754048,0.016674 -1.250977,0.616699 -1.250977,0.616699 l -5.726074,7.604004 c -0.1816041,-0.04304 -0.3707563,-0.06406 -0.5625,-0.06006 -0.3906908,0.0082 -0.7928439,0.117215 -1.1645508,0.333985 -1.0813293,0.630602 -1.4859298,1.936098 -0.9082031,2.926758 l 1.6567384,2.841797 c 0.5777261,0.990659 1.914276,1.280993 2.9956052,0.65039 0.5411256,-0.31557 0.9127739,-0.800519 1.0766602,-1.330078 l 1.4208981,-0.363281 c 0.395863,1.16348 1.666427,1.834003 2.944337,1.516113 1.288668,-0.320566 2.102194,-1.525583 1.888183,-2.749512 l 2.671875,-0.681152 c 0,0 0.969274,-0.421227 1.120606,-1.371094 0.146304,-0.918312 -0.316406,-1.634765 -0.316406,-1.634765 L 13.967548,3.3353901 c 0,0 -0.565171,-0.6703561 -1.401857,-0.6518552 z m 0.02637,1.4765625 c 0.130277,1e-7 0.202149,0.1318358 0.202149,0.1318358 l 4.425291,7.6362317 c 0,0 0.14853,0.254766 0.08936,0.410156 -0.08713,0.22879 -0.32666,0.263673 -0.32666,0.263673 l -8.4404295,2.118164 c -0.00909,-0.0167 -0.018192,-0.03328 -0.02783,-0.04981 l -1.6567437,-2.84326 c -0.022804,-0.0391 -0.046672,-0.07735 -0.07178,-0.114257 L 12.37087,4.3109745 c 0,0 0.09384,-0.150879 0.221192,-0.150879 z M 4.9939204,12.446716 c 0.249026,-0.0078 0.4936081,0.117467 0.6284179,0.348633 l 1.4677734,2.516602 c 0.1960872,0.336241 0.084288,0.76485 -0.2519532,0.960937 -0.3362413,0.196087 -0.7648504,0.08282 -0.9609371,-0.253417 L 4.4094448,13.502869 c -0.196087,-0.336241 -0.082823,-0.764851 0.2534179,-0.960938 0.1050754,-0.06128 0.217861,-0.09166 0.3310547,-0.09521 z m 8.6103516,2.563477 c -0.06696,0.444455 -0.381277,0.822077 -0.833496,0.93457 l -0.04248,0.01026 c -0.447996,0.111443 -0.898786,-0.06898 -1.167481,-0.42334 z"
       sodipodi:nodetypes="cccssccsccsccsccscscscccccccsccsccsscccccc" />
  </g>
</svg>
