<?xml version="1.0" encoding="utf-8"?>
<!-- Generator: Adobe Illustrator 24.0.0, SVG Export Plug-In . SVG Version: 6.00 Build 0)  -->
<svg version="1.1" id="Layer_1" xmlns="http://www.w3.org/2000/svg" xmlns:xlink="http://www.w3.org/1999/xlink" x="0px" y="0px"
	 viewBox="0 0 62.9 62.9" style="enable-background:new 0 0 62.9 62.9;" xml:space="preserve">
<path d="M61.6,32.2h-27L33,28.5c-0.2-0.3-0.5-0.6-1-0.6l-5-1.3c-0.8-0.2-1.4,0.3-1.6,1c-0.2,0.6,0.3,1.4,1,1.6l4.3,1L42,56.5
	c-1.1,2.1-0.5,4.6,1.6,5.8c2.1,1.1,4.6,0.5,5.8-1.6c0.6-1.1,0.8-2.6,0.2-3.7h4.8c-1,2.1,0.2,4.6,2.2,5.6s4.6-0.2,5.6-2.2
	c1-2.2,0-4.6-2.2-5.6c-0.5-0.2-1.1-0.3-1.6-0.3H44l-1.8-4.2h19.3c0.6,0,1.3-0.6,1.3-1.3V33.5C62.8,32.8,62.3,32.2,61.6,32.2z
	 M58.1,57c1,0,1.6,0.8,1.6,1.6c0,1-0.8,1.8-1.6,1.8s-1.6-0.8-1.6-1.8C56.5,57.8,57.3,57,58.1,57z M45.8,57c1,0,1.6,0.8,1.6,1.6
	c0,1-0.8,1.8-1.6,1.8s-1.6-0.8-1.6-1.8C44.2,57.8,44.8,57,45.8,57z M60.4,40h-8.5c-0.6,0-1.3,0.6-1.3,1.3s0.5,1.3,1.3,1.3h8.5v5.3
	H41.2l-5.6-13.1h24.6V40H60.4z"/>
<path d="M35.1,6.9c1.4,0,2.8,0.2,4.1,0.6c1.7,0.6,3.5,1.6,4.8,3.1c1,1,1.9,2.3,2.8,3.5c0.5,1,1,2.1,1.4,3.1c0,0.2,0.2,0.2,0.2,0.2
	c0.9-0.2,1.7-0.6,2.6-0.8c0.2,0,0.3,0,0.5,0c0.3,0.2,0.5,0.4,0.3,0.8c-0.2,0.6-0.3,1.4-0.5,2.1c-0.3,1.6-0.7,3.5-1,5.1
	s-0.7,3.3-1,4.9c0,0.4-0.3,0.6-0.7,0.6c-0.2,0-0.2-0.2-0.3-0.2c-0.7-0.8-1.4-1.6-2.1-2.5l-4.5-5.6c-0.3-0.4-0.5-0.6-0.7-1
	c-0.2-0.2-0.3-0.6,0-1c0.2-0.2,0.2-0.2,0.3-0.2c0.9-0.2,1.7-0.6,2.6-0.8c0.2,0,0.2,0,0.2-0.2c-0.3-1-0.9-1.9-1.6-2.7
	c-1.4-1.9-3.3-3.1-5.5-3.7c-1.7-0.2-3.5,0-5,0.6c-0.5,0.2-1,0.4-1.6,0.8c-0.9,0.6-1.9,0.4-2.6-0.2c-0.5-0.4-0.7-1.2-0.7-1.9
	c0-1,0.3-1.9,0.9-2.5c0.5-0.2,0.9-0.6,1.4-0.8c1-0.6,2.1-1,3.3-1.2C33.5,6.9,34.2,6.9,35.1,6.9z"/>
<path d="M5.3,10.6c-1.5,0-2.7,1.2-2.7,2.7S3.9,16,5.3,16S8,14.7,8,13.3S6.8,10.6,5.3,10.6L5.3,10.6z M5.3,14.6L5.3,14.6
	C4.6,14.6,4,14,4,13.3c0-0.4,0.1-0.6,0.4-0.9c0.2-0.4,0.6-0.5,1-0.5c0.7,0,1.3,0.6,1.3,1.3C6.7,14,6.1,14.5,5.3,14.6L5.3,14.6z"/>
<path d="M22.3,12.5H10.7c-0.2,0-0.4,0.1-0.5,0.2C10.1,12.9,10,13,10,13.3c0,0.1,0.1,0.4,0.2,0.5c0.1,0.1,0.4,0.2,0.5,0.2h11.6
	c0.2,0,0.4-0.1,0.5-0.2c0.1-0.1,0.2-0.2,0.2-0.5C22.9,12.9,22.6,12.5,22.3,12.5z"/>
<path d="M5.3,3.4c-1.5,0-2.7,1.2-2.7,2.7s1.2,2.7,2.7,2.7S8,7.5,8,6.1S6.8,3.4,5.3,3.4L5.3,3.4z M5.3,7.4L5.3,7.4
	C4.6,7.4,4,6.8,4,6.1s0.6-1.3,1.3-1.3s1.3,0.6,1.3,1.3l0,0C6.7,6.8,6.1,7.4,5.3,7.4z"/>
<path d="M22.3,5.3H10.7c-0.4,0-0.7,0.4-0.7,0.7l0,0c0,0.4,0.4,0.7,0.7,0.7h11.6c0.4,0,0.7-0.4,0.7-0.7C22.9,5.7,22.6,5.3,22.3,5.3
	L22.3,5.3z"/>
<path d="M5.3,17.8c-1.5,0-2.7,1.1-2.7,2.7c0,1.6,1.2,2.7,2.7,2.7S8,21.9,8,20.5C8,19,6.8,17.8,5.3,17.8L5.3,17.8z M5.3,21.7
	c-0.7,0-1.3-0.6-1.3-1.3S4.6,19,5.3,19s1.3,0.6,1.3,1.3l0,0C6.5,21.2,6.1,21.7,5.3,21.7L5.3,21.7z"/>
<path d="M22.3,19.7H10.7c-0.2,0-0.4,0.1-0.5,0.2c-0.2,0.2-0.4,0.7-0.1,1c0.1,0.1,0.4,0.2,0.6,0.2h11.6c0.4,0,0.7-0.4,0.7-0.7
	S22.6,19.7,22.3,19.7L22.3,19.7z"/>
</svg>
