<?xml version="1.0" encoding="utf-8"?>
<!-- Generator: Adobe Illustrator 24.0.0, SVG Export Plug-In . SVG Version: 6.00 Build 0)  -->
<svg version="1.1" id="Layer_1" xmlns="http://www.w3.org/2000/svg" xmlns:xlink="http://www.w3.org/1999/xlink" x="0px" y="0px"
	 viewBox="0 0 17.3 19.7" style="enable-background:new 0 0 17.3 19.7;" xml:space="preserve">
<path d="M13.8,10.3L13.8,10.3h0.1c0.3,0.2,0.6,0.3,0.9,0.3c0.4,0,0.9-0.2,1.2-0.5c0.6-0.6,0.6-1.7,0-2.3L9.4,1.2
	C9.1,0.9,8.7,0.7,8.2,0.7C7.8,0.7,7.3,0.9,7,1.2C6.5,1.8,6.4,2.7,6.9,3.3c0,0,0,0,0,0.1l0,0C6.4,5.8,5.2,8,3.5,9.7l-3,3
	c-0.6,0.6-0.6,1.7,0,2.3l1.6,1.6c0.3,0.3,0.7,0.5,1.2,0.5c0.4,0,0.9-0.2,1.2-0.5l0.4-0.4H5c0,0,0,0,0.1,0L8,19.1
	c0.3,0.3,0.7,0.5,1.2,0.5c0.9,0,1.6-0.7,1.6-1.6c0-0.4-0.2-0.9-0.5-1.2L9,15.6c0,0,0,0,0-0.1v-0.1L9.4,15c0.6-0.6,0.6-1.7,0-2.3
	l-0.3-0.3v-0.1c0,0,0,0,0-0.1C10.5,11.4,12.1,10.7,13.8,10.3z M7.8,1.9c0.1-0.1,0.3-0.2,0.5-0.2s0.3,0.1,0.5,0.2l6.6,6.6
	c0.3,0.3,0.3,0.7,0,1l0,0l0,0c-0.1,0.1-0.3,0.2-0.5,0.2s-0.4-0.1-0.5-0.2L7.8,2.9C7.5,2.6,7.5,2.2,7.8,1.9L7.8,1.9z M3.8,16.1
	c-0.3,0.3-0.7,0.3-1,0l0,0l-1.6-1.7C1,14.3,1,14.1,1,13.9c0-0.2,0.1-0.4,0.2-0.5l2.9-2.9h0.1h0.1L6.7,13c0,0,0,0,0,0.1
	c0,0,0,0,0,0.1L3.8,16.1z M9.6,17.6c0.1,0.1,0.2,0.3,0.2,0.5c0,0.4-0.3,0.7-0.6,0.7l0,0c-0.2,0-0.3-0.1-0.5-0.2l0,0l-2.9-2.9
	c0,0,0,0,0-0.1c0,0,0,0,0-0.1l0.8-0.8c0,0,0,0,0.1,0c0,0,0,0,0.1,0L9.6,17.6z M7.3,13.9L7.3,13.9L7.3,13.9c0.2-0.2,0.5-0.5,0.8-0.8
	h0.1c0,0,0,0,0.1,0l0.4,0.4c0.3,0.3,0.3,0.7,0,1l0,0l-0.4,0.4c0,0,0,0-0.1,0c0,0,0,0-0.1,0L7.3,13.9C7.3,14,7.3,14,7.3,13.9z
	 M7.5,12.4L7.5,12.4L7.5,12.4L7.5,12.4L4.8,9.9V9.8l0,0c1.3-1.5,2.3-3.4,2.8-5.4c0,0,0-0.1,0.1-0.1l0,0c0,0,0,0,0.1,0l5.1,5.1v0.1
	c0,0,0,0.1-0.1,0.1C10.9,10.1,9.1,11,7.5,12.4z"/>
<path d="M3,14.3c0.2,0.2,0.5,0.2,0.7,0l0.8-0.8c0.2-0.2,0.2-0.5,0-0.7s-0.5-0.2-0.7,0l0,0L3,13.6C2.8,13.8,2.8,14.1,3,14.3z"/>
<path d="M12.2,0c-0.3,0-0.5,0.2-0.5,0.5v1.2c0,0.3,0.2,0.5,0.5,0.5s0.5-0.2,0.5-0.5V0.5C12.7,0.2,12.4,0,12.2,0L12.2,0z"/>
<path d="M16.8,4.7h-1.2c-0.3,0-0.5,0.2-0.5,0.5s0.2,0.5,0.5,0.5h1.2c0.3,0,0.5-0.2,0.5-0.5S17.1,4.7,16.8,4.7z"/>
<path d="M16,1.3c-0.2-0.2-0.5-0.2-0.7,0l0,0l-1.2,1.2c0,0.1-0.1,0.2-0.1,0.3s0,0.3,0.1,0.3c0.1,0.1,0.2,0.2,0.4,0.2
	c0.1,0,0.2,0,0.3-0.1l0,0L16,2C16.2,1.8,16.2,1.5,16,1.3L16,1.3z"/>
</svg>
