<?xml version="1.0" encoding="utf-8"?>
<!-- Generator: Adobe Illustrator 24.0.0, SVG Export Plug-In . SVG Version: 6.00 Build 0)  -->
<svg version="1.1" id="Capa_1" xmlns="http://www.w3.org/2000/svg" xmlns:xlink="http://www.w3.org/1999/xlink" x="0px" y="0px"
	 viewBox="0 0 480.7 480.7" style="enable-background:new 0 0 480.7 480.7;" xml:space="preserve">
<path d="M349.4,1c-2.4-1.4-5.4-1.4-7.8,0c-3.9,2.2-5.2,7-3.1,10.9c40.3,72.5,40.3,160.8,0,233.3C274,361.1,127.8,402.9,11.9,338.4
	c-2.4-1.4-5.4-1.4-7.9,0c-3.8,2.2-5.2,7.1-3,10.9c45.3,81.1,130.9,131.3,223.7,131.4c92.8,0,178.3-50.3,223.5-131.3
	C517.1,225.9,472.9,69.9,349.4,1z M364.9,419.2c-107.5,77.5-257.5,53.3-335-54.2c63.2,26.4,134.3,26.4,197.4,0
	c130.5-54.5,192.1-204.5,137.6-335c20.9,15.1,39.2,33.4,54.2,54.2C496.7,191.6,472.4,341.6,364.9,419.2z"/>
</svg>
