<?xml version="1.0" encoding="utf-8"?>
<!-- Generator: Adobe Illustrator 24.0.0, SVG Export Plug-In . SVG Version: 6.00 Build 0)  -->
<svg version="1.1" id="Layer_1" xmlns="http://www.w3.org/2000/svg" xmlns:xlink="http://www.w3.org/1999/xlink" x="0px" y="0px"
	 viewBox="0 0 17.4 17.4" style="enable-background:new 0 0 17.4 17.4;" xml:space="preserve">
<path class="st0" d="M16.7,3.6h-2.2V0.7c0-0.4-0.3-0.7-0.7-0.7H2.2C1,0,0,1,0,2.2v13.1c0,1.2,1,2.2,2.2,2.2h13.1
	c1.2,0,2.2-1,2.2-2.2V4.4C17.4,4,17.1,3.6,16.7,3.6C16.7,3.6,16.7,3.6,16.7,3.6z M2.2,16c-0.4,0-0.7-0.3-0.7-0.7V2.2
	c0-0.4,0.3-0.7,0.7-0.7h10.9v13.8c0,0.2,0,0.5,0.1,0.7H2.2z M16,15.3c0,0.4-0.3,0.7-0.7,0.7s-0.7-0.3-0.7-0.7V5.1H16V15.3z"/>
<path class="st0" d="M8,12.4H3.6c-0.4,0-0.7,0.3-0.7,0.7c0,0.4,0.3,0.7,0.7,0.7H8c0.4,0,0.7-0.3,0.7-0.7C8.7,12.7,8.4,12.4,8,12.4z"
	/>
<path class="st0" d="M8.7,10.2H3.6c-0.4,0-0.7,0.3-0.7,0.7c0,0.4,0.3,0.7,0.7,0.7c0,0,0,0,0,0h5.1c0.4,0,0.7-0.3,0.7-0.7
	C9.5,10.5,9.1,10.2,8.7,10.2C8.7,10.2,8.7,10.2,8.7,10.2z"/>
<path class="st0" d="M9.4,8H3.6C3.2,8,2.9,8.3,2.9,8.7c0,0.4,0.3,0.7,0.7,0.7c0,0,0,0,0,0h5.8c0.4,0,0.7-0.3,0.7-0.7
	C10.2,8.3,9.9,8,9.4,8C9.5,8,9.5,8,9.4,8L9.4,8z"/>
<path class="st0" d="M10.9,3.6H3.6C3.2,3.6,2.9,4,2.9,4.4c0,0.4,0.3,0.7,0.7,0.7h7.3c0.4,0,0.7-0.3,0.7-0.7
	C11.6,4,11.3,3.6,10.9,3.6z"/>
</svg>
