<?xml version="1.0" encoding="utf-8"?>
<!-- Generator: Adobe Illustrator 24.0.0, SVG Export Plug-In . SVG Version: 6.00 Build 0)  -->
<svg version="1.1" id="Layer_1" xmlns="http://www.w3.org/2000/svg" xmlns:xlink="http://www.w3.org/1999/xlink" x="0px" y="0px"
	 viewBox="0 0 13.1 14.9" style="enable-background:new 0 0 13.1 14.9;" xml:space="preserve">
<path d="M6.5,1.5H5c-0.3,0-0.6-0.3-0.7-0.6C4.2,0.6,4.4,0.2,4.7,0.1C4.8,0,4.9,0,5,0h3c0.4,0,0.7,0.3,0.7,0.7c0,0.4-0.2,0.7-0.5,0.8
	c-0.1,0-0.1,0-0.2,0L6.5,1.5z"/>
<path d="M12.9,2.2c-0.3-0.6-0.8-0.9-1.4-0.9H9.9c0,0.2,0,0.4-0.1,0.6c-0.1,0.5-0.5,0.9-1,0.9H4.2c-0.3,0-0.6-0.1-0.8-0.3
	C3.2,2.2,3,1.7,3.1,1.3l0,0c-0.6,0-1.3,0-1.9,0c-0.5,0-1,0.4-1,0.9C0,2.5,0,2.8,0,3.1v10.2c0,0.2,0,0.4,0,0.6c0.1,0.5,0.5,1,1,1
	c0.2,0,0.5,0.1,0.7,0.1h9.4c0.2,0,0.5,0,0.7,0c0.6,0,1.1-0.5,1.2-1.1c0-0.2,0.1-0.4,0.1-0.7V3C13.1,2.7,13.1,2.4,12.9,2.2z M2.3,8.2
	c0.5-0.1,1-0.2,1.5-0.3c0.9-0.1,1.9,0,2.8,0.3c0.7,0.2,1.4,0.2,2.1,0.2c0.6,0,1.2-0.1,1.8-0.2c0.4-0.1,0.8,0.1,0.9,0.5
	c0,0,0,0,0,0.1c0.1,0.4-0.2,0.7-0.6,0.8c-0.6,0.1-1.2,0.2-1.9,0.2c-0.2,0-0.4,0-0.5,0c-0.7,0-1.4-0.1-2-0.2C5.8,9.5,5.2,9.4,4.7,9.3
	c-0.5,0-1.1,0-1.6,0.1L2.6,9.6C2.2,9.6,1.8,9.4,1.8,9c0,0,0,0,0,0C1.7,8.6,1.9,8.3,2.3,8.2z M10.9,12.5c-0.3,0.1-0.7,0.1-1,0.2
	c-0.5,0.1-1.1,0.1-1.6,0.1c-0.7,0-1.3-0.1-2-0.3c-0.7-0.2-1.4-0.3-2.2-0.2c-0.5,0-1,0.1-1.5,0.2h0c-0.4,0.1-0.8-0.1-0.9-0.5
	c0,0,0,0,0,0c-0.1-0.4,0.2-0.8,0.5-0.8c0.7-0.2,1.3-0.3,2-0.3c0.6,0,1.1,0.1,1.7,0.2s1.1,0.2,1.7,0.3c0.5,0,1,0,1.5,0
	c0.4,0,0.8-0.1,1.3-0.2c0.4,0,0.7,0.2,0.8,0.5C11.4,12.1,11.2,12.4,10.9,12.5z M10.8,6.5C9.9,6.7,9.1,6.8,8.2,6.8
	C7.6,6.8,7,6.7,6.5,6.6C5.8,6.4,5.1,6.3,4.4,6.3c-0.6,0-1.2,0.1-1.8,0.3c-0.1,0-0.2,0-0.3,0C2,6.5,1.7,6.2,1.8,5.8
	c0-0.3,0.2-0.5,0.5-0.6c1-0.3,2.1-0.4,3.1-0.2C6,5,6.7,5.2,7.4,5.3c0.6,0.1,1.2,0.1,1.8,0c0.5,0,0.9-0.1,1.4-0.2c0,0,0.1,0,0.1,0
	c0.4-0.1,0.8,0.2,0.8,0.6C11.4,6.1,11.2,6.5,10.8,6.5z"/>
</svg>
