<?xml version="1.0" encoding="utf-8"?>
<!-- Generator: Adobe Illustrator 24.0.0, SVG Export Plug-In . SVG Version: 6.00 Build 0)  -->
<svg version="1.1" id="Layer_1" xmlns="http://www.w3.org/2000/svg" xmlns:xlink="http://www.w3.org/1999/xlink" x="0px" y="0px"
	 viewBox="0 0 20.5 23.4" style="enable-background:new 0 0 20.5 23.4;" xml:space="preserve">
<path class="st0" d="M20.2,11.7l-1.7-2.8c0,0,0,0,0-0.1c-0.1-0.1-0.1-0.1-0.2-0.1l-5.7-1.9l1.7-2.3c0.1-0.2,0.1-0.5-0.1-0.6
	c-0.1-0.1-0.2-0.1-0.3-0.1h-1.6V0.6c0-0.2-0.2-0.4-0.5-0.4c0,0,0,0,0,0H8.6c-0.2,0-0.5,0.2-0.5,0.4c0,0,0,0,0,0v3.1H6.5
	C6.2,3.8,6,4,6,4.2c0,0.1,0,0.2,0.1,0.3l1.7,2.3L2.2,8.7C2.1,8.8,2,8.8,2,8.9l-1.7,2.8c-0.1,0.2-0.1,0.5,0.2,0.6c0,0,0,0,0.1,0
	l1.4,0.5v7.2c0,0.2,0.1,0.4,0.3,0.4l7.9,2.7c0.1,0,0.2,0,0.3,0l7.9-2.7c0.2-0.1,0.3-0.2,0.3-0.4v-7.2l1.4-0.5
	C20.2,12.3,20.3,12,20.2,11.7C20.2,11.8,20.2,11.7,20.2,11.7L20.2,11.7z M8.6,4.7C8.8,4.7,9,4.5,9,4.2v0V1.1h2.4v3.1
	c0,0.2,0.2,0.4,0.5,0.4l0,0h1.2l-2.9,3.8L7.4,4.7H8.6z M9.9,9.5c0.1,0.2,0.4,0.2,0.6,0.1c0,0,0.1-0.1,0.1-0.1L12,7.6l4.7,1.6
	l-6.5,2.2L3.7,9.1l4.7-1.6L9.9,9.5z M2.5,9.7L9.4,12l-1.9,2.1l-6.3-2.4L2.5,9.7z M2.8,13.2L7.6,15c0.2,0.1,0.4,0,0.5-0.1L9.8,13v9.2
	l-7-2.4L2.8,13.2z M17.7,19.8l-7,2.4V13l1.7,1.9c0.1,0.1,0.3,0.2,0.5,0.1l4.8-1.8L17.7,19.8L17.7,19.8z M12.9,14.1L11,12l6.9-2.3
	l1.2,2L12.9,14.1z"/>
</svg>
