<?xml version="1.0" encoding="utf-8"?>
<!-- Generator: Adobe Illustrator 24.0.0, SVG Export Plug-In . SVG Version: 6.00 Build 0)  -->
<svg version="1.1" id="Layer_1" xmlns="http://www.w3.org/2000/svg" xmlns:xlink="http://www.w3.org/1999/xlink" x="0px" y="0px"
	 viewBox="0 0 17 15.1" style="enable-background:new 0 0 17 15.1;" xml:space="preserve">
<path d="M0.5,15.1h16c0.3,0,0.5-0.2,0.5-0.5l0,0v-1.8c0-2.2-1.2-4.3-3.2-5.3V7.4V7.3c1.7-1.5,1.9-4.2,0.3-5.9C13.3,0.5,12.2,0,11,0
	c-0.9,0-1.7,0.3-2.4,0.8H8.5l0,0C7.8,0.2,6.9,0,6,0C3.7,0,1.8,1.9,1.8,4.2c0,1.2,0.5,2.3,1.4,3.1v0.1v0.1c-2,1-3.2,3.1-3.2,5.3v1.8
	C0,14.9,0.2,15.1,0.5,15.1L0.5,15.1z M16,12.8V14c0,0,0,0.1-0.1,0.1h-3.8c-0.1,0-0.1,0-0.1-0.1l0,0v-1.2c0-0.2,0-0.4,0-0.6v-0.1l0,0
	l0-0.4v-0.2c0-0.1-0.1-0.3-0.1-0.4V11l0,0c-0.2-0.5-0.4-1.1-0.7-1.5l0,0C11,9.3,10.9,9.2,10.7,9l0,0c-0.1-0.1-0.2-0.3-0.4-0.4V8.5
	l0.1-0.1l0,0c0.2,0,0.3,0,0.5,0l0,0c0.2,0,0.3,0,0.5,0h0.1l0,0L12,8.3h0.1c0.2,0,0.3-0.1,0.5-0.2h0.1C14.6,8.8,16,10.7,16,12.8z
	 M10.2,3.5L10.2,3.5c0-0.3-0.1-0.5-0.2-0.7l0,0C9.8,2.4,9.6,2,9.3,1.6l0,0c0,0,0,0,0-0.1V1.4c0.5-0.3,1-0.4,1.6-0.4l0,0
	C12.7,1,14,2.5,14,4.2c0,1.2-0.7,2.2-1.8,2.8l-0.1,0.1c-0.2,0.1-0.3,0.1-0.5,0.2h-0.1c-0.2,0-0.4,0.1-0.6,0.1h-0.2l0,0l0,0l0,0h-0.1
	c-0.3,0-0.7-0.2-1-0.3H9.5l0,0L9.4,6.9V6.8V6.7C9.6,6.4,9.9,6,10,5.6l0,0c0.1-0.2,0.1-0.4,0.2-0.6V4.9C10.2,4.4,10.3,4,10.2,3.5z
	 M2.9,4.2C2.9,2.4,4.3,1,6,1l0,0l0,0c0.8,0,1.6,0.3,2.2,0.9L8.3,2c0.1,0.1,0.2,0.2,0.3,0.4l0.1,0.1l0,0c0.1,0.1,0.2,0.3,0.2,0.4L9,3
	l0,0c0.1,0.2,0.1,0.3,0.1,0.5v0.1c0.1,0.4,0.1,0.8,0,1.2c0,0,0,0,0,0.1s0,0.3-0.1,0.4l0,0v0.1C8.9,5.6,8.8,5.7,8.8,5.9l0,0L8.6,6
	C8.5,6.1,8.4,6.2,8.3,6.4L8.2,6.5C8,6.7,7.7,6.9,7.3,7.1H7.2C7,7.2,6.9,7.2,6.7,7.3H6.6c-0.2,0-0.3,0-0.5,0H6c-0.2,0-0.3,0-0.5,0
	H5.4C5.2,7.2,5,7.2,4.9,7.1H4.7C3.6,6.6,2.9,5.4,2.9,4.2z M1,12.8c0-2.1,1.3-4,3.3-4.7h0.1c1,0.4,2.2,0.4,3.2,0h0.1
	c0.2,0.1,0.4,0.2,0.6,0.3c0.1,0.1,0.2,0.1,0.3,0.2l0,0l0,0l0.2,0.1L9.3,9l0.2,0.2l0.3,0.3L10,9.7c0.1,0.1,0.1,0.2,0.2,0.3l0.2,0.3
	c0.1,0.1,0.1,0.2,0.2,0.3c0.1,0.1,0.1,0.2,0.1,0.4l0,0l0.1,0.3c0,0.1,0.1,0.3,0.1,0.4v0.1L11,12c0,0.2,0.1,0.5,0.1,0.8V14
	c0,0.1,0,0.1-0.1,0.1H1.1C1,14.1,1,14.1,1,14l0,0V12.8z"/>
</svg>
