<?xml version="1.0" encoding="utf-8"?>
<!-- Generator: Adobe Illustrator 24.0.0, SVG Export Plug-In . SVG Version: 6.00 Build 0)  -->
<svg version="1.1" id="Layer_1" xmlns="http://www.w3.org/2000/svg" xmlns:xlink="http://www.w3.org/1999/xlink" x="0px" y="0px"
	 viewBox="0 0 19.6 20.4" style="enable-background:new 0 0 19.6 20.4;" xml:space="preserve">
<path class="st0" d="M12.1,11.2c-1.2,0-2.1,0.9-2.1,2.1c0,1.2,0.9,2.1,2.1,2.1c1.2,0,2.1-0.9,2.1-2.1c0,0,0,0,0,0
	C14.2,12.1,13.3,11.2,12.1,11.2z M12.1,14.3c-0.5,0-1-0.4-1-1s0.4-1,1-1c0.5,0,1,0.4,1,1C13.1,13.8,12.6,14.3,12.1,14.3L12.1,14.3z"
	/>
<path class="st0" d="M7.5,5C6.3,5,5.4,6,5.4,7.2s0.9,2.1,2.1,2.1c1.2,0,2.1-0.9,2.1-2.1C9.6,6,8.7,5,7.5,5z M7.5,8.1
	c-0.5,0-1-0.4-1-1s0.4-1,1-1c0.5,0,1,0.4,1,1C8.4,7.7,8,8.1,7.5,8.1z"/>
<path class="st0" d="M14,6c-0.2-0.2-0.6-0.2-0.8,0l-7.6,7.6c-0.2,0.2-0.2,0.6,0,0.8s0.6,0.2,0.8,0c0,0,0,0,0,0L14,6.8
	C14.2,6.6,14.2,6.2,14,6z"/>
<path class="st0" d="M18.5,10.5c-0.1-0.2-0.1-0.4,0-0.5l0.7-1.5c0.4-0.8,0.1-1.9-0.7-2.3L17,5.3c-0.2-0.1-0.3-0.2-0.3-0.4l-0.3-1.7
	c-0.2-0.9-1-1.6-2-1.4l-1.7,0.2c-0.2,0-0.4,0-0.5-0.2L11,0.7c-0.7-0.7-1.8-0.7-2.4,0L7.4,1.9C7.2,2,7,2.1,6.9,2.1L5.2,1.8
	c-0.9-0.1-1.8,0.5-2,1.4L2.9,4.9c0,0.2-0.1,0.3-0.3,0.4L1.1,6.1C0.3,6.6,0,7.6,0.4,8.4L1.1,10c0.1,0.2,0.1,0.4,0,0.5L0.4,12
	c-0.4,0.8-0.1,1.9,0.7,2.3l1.5,0.8c0.2,0.1,0.3,0.2,0.3,0.4l0.3,1.7c0.1,0.8,0.9,1.4,1.7,1.4c0.1,0,0.2,0,0.3,0l1.7-0.2
	c0.2,0,0.4,0,0.5,0.2l1.2,1.2c0.7,0.7,1.8,0.7,2.4,0l1.2-1.2c0.1-0.1,0.3-0.2,0.5-0.2l1.7,0.2c0.9,0.1,1.8-0.5,2-1.4l0.3-1.7
	c0-0.2,0.1-0.3,0.3-0.4l1.5-0.8c0.8-0.4,1.2-1.5,0.7-2.3L18.5,10.5z M17.9,13.3l-1.5,0.8c-0.5,0.3-0.8,0.7-0.9,1.2L15.2,17
	c-0.1,0.3-0.3,0.5-0.7,0.5l-1.7-0.2c-0.5-0.1-1.1,0.1-1.5,0.5l-1.2,1.2c-0.2,0.2-0.6,0.2-0.8,0l-1.2-1.2c-0.3-0.3-0.8-0.5-1.2-0.5
	c-0.1,0-0.2,0-0.2,0L5,17.5c-0.3,0-0.6-0.2-0.7-0.5l-0.3-1.7c-0.1-0.5-0.4-1-0.9-1.2l-1.5-0.8c-0.3-0.1-0.4-0.5-0.3-0.8L2.2,11
	c0.2-0.5,0.2-1,0-1.5L1.4,7.9c-0.1-0.3,0-0.6,0.3-0.8l1.5-0.8C3.6,6.1,4,5.6,4.1,5.1l0.3-1.7C4.4,3.1,4.7,2.9,5,3l1.7,0.2
	c0.5,0.1,1.1-0.1,1.5-0.5l1.2-1.2c0.2-0.2,0.6-0.2,0.8,0l1.2,1.2c0.4,0.4,0.9,0.6,1.5,0.5L14.6,3c0.3,0,0.6,0.2,0.7,0.5l0.3,1.7
	c0.1,0.5,0.4,1,0.9,1.2l1.5,0.8c0.3,0.1,0.4,0.5,0.3,0.8l-0.7,1.5c-0.2,0.5-0.2,1,0,1.5l0.7,1.5C18.3,12.8,18.2,13.2,17.9,13.3
	L17.9,13.3z"/>
</svg>
