<?xml version="1.0" encoding="utf-8"?>
<!-- Generator: Adobe Illustrator 24.0.0, SVG Export Plug-In . SVG Version: 6.00 Build 0)  -->
<svg version="1.1" id="Layer_1" xmlns="http://www.w3.org/2000/svg" xmlns:xlink="http://www.w3.org/1999/xlink" x="0px" y="0px"
	 viewBox="0 0 256 256" style="enable-background:new 0 0 256 256;" xml:space="preserve">
<path d="M129.1,48.7c39.7,0,79.4,0.1,119.2-0.1c4.7,0,6.8,2.8,9.3,5.5c0.7,0.8,0.3,2.7,0.3,4.1c0,18.8,0,37.7,0,56.5
	c0,2.4,0,4.9,0,7.3c0,2.8-0.7,4.9-3.5,6.4c-4.2,2.1-8,5-12.2,7.2c-4.2,2.1-8.2,4.5-12.8,5.9c-3.1,0.9-6,2.9-9.2,4.1
	c-5.3,1.9-10.4,4.5-15.8,5.9c-7.2,1.8-14.1,4.3-21.4,5.8c-4.8,1-9.8,1.2-14.4,3.3c-0.3,0.2-0.8,0.1-1.2,0.1
	c-5.2-0.5-10.1,2.1-15.3,1.2c-6.2,2.2-12.6,1-19,1.2c-6.3,0.2-12.6-0.3-18.8,0.2c-3.3,0.2-6.1-1.3-9.2-1.4c-2.9-0.1-5.8,0.7-8.7-1
	c-1.3-0.8-3.6,0-5.4-0.2c-1.7-0.2-3.3-0.7-5-1.2c-6.4-1.7-13-2.3-19.4-4.4c-5.9-2-12-3.2-17.9-5.3c-4.9-1.8-9.9-3.6-14.7-5.7
	c-5.7-2.4-11.4-4.8-16.8-7.8c-4.6-2.5-9.4-4.9-13.8-8c-2.3-1.6-3.3-3.3-3.3-5.9c0-6.7,0-13.4,0-20.1c0-15,0.1-30-0.1-45
	c0-2.6,1.1-4,2.6-5.7c1.7-1.8,3.3-3,6.1-3C48.9,48.8,89,48.7,129.1,48.7z M129,63.3c-5.1,0-10.1,0-15.2,0c-31.8,0-63.6,0-95.4,0
	c-3.7,0-3.7,0-3.7,3.9c0,14.4,0,28.8,0,43.1c0,6.7,0,6.7,6.3,10.1c0.7,0.4,1.2,0.9,1.9,1.2c5.5,2.4,10.9,5.1,16.3,7.5
	c4.8,2.1,9.9,3.5,14.6,5.8c3.3,1.7,7,3.1,10.6,3.6c4.6,0.7,8.9,2,13.3,3.3c4.4,1.3,9.1,1,13.4,2.9c1.9,0.8,4.2-0.3,6.4,0.7
	c2.1,0.9,4.7,0.4,7,0.7c2.1,0.3,4.1,1.1,6.2,1.1c12.1,0.1,24.3,0.1,36.4,0.1c0.4,0,0.9,0.2,1.2,0c2.3-1.8,4.9-1.4,7.4-1.1
	c2.7,0.4,4.9-1.2,7.4-1.4c3.7-0.2,7.6-0.2,11-1.3c5.8-1.9,11.8-2.7,17.5-4.7c5.7-2,11.8-2.5,16.9-6.1c4.7-0.2,8.4-3.2,12.6-4.8
	c6.6-2.5,12.6-5.8,18.7-9.2c3.1-1.7,3.5-3.6,3.4-6.5c-0.1-14.2,0-28.3,0-42.5c0-1.6,0.1-3.3-0.1-4.9c-0.1-0.5-0.8-1.3-1.3-1.4
	c-1.6-0.2-3.2-0.1-4.9-0.1C201.1,63.3,165,63.3,129,63.3z"/>
<path d="M129,257.9c-33.4,0-66.9,0-100.3,0c-8.9,0-17.1-4.9-22.7-12.7c-2.3-3.2-4-6.4-5.2-10c-0.5-1.4-0.7-2.6-0.7-3.9
	c0-24.9,0-49.8,0-74.8c0-3.6,1.9-5.5,5.3-5.6c1.6,0,3.2-0.1,4.9,0c2.2,0.1,4.3,2.3,4.4,4.6c0.1,1.2,0,2.4,0,3.6
	c0,20.7-0.1,41.3,0.1,62c0,3.5,0.5,7,1.2,10.4c0.9,4.5,8.2,9.5,12.9,10.6c7.5,1.8,15.1,1,22.6,1c56.3,0.1,112.6,0.1,169,0
	c3.7,0,7.5-0.4,11-1.3c2.5-0.7,5.5-2.1,6.6-4.1c1.5-2.7,3.6-5.1,4.2-8.6c2-11.6,0.7-23.2,0.9-34.8c0.3-12.1,0.1-24.3,0.1-36.5
	c0-6.1,1.1-7.2,7.4-7.1c1.6,0,3.3-0.1,4.6,0.6c1.7,1,2.7,2.5,2.7,4.9c-0.2,10.5-0.1,21.1-0.1,31.6c0,13.8,0,27.6,0,41.3
	c0,7.3-3.2,13.2-7.7,18.7c-4.1,5-9.8,7.4-15.6,9.4c-1.6,0.6-3.5,0.5-5.3,0.5C195.9,257.9,162.4,257.9,129,257.9z"/>
<path d="M129.3,0.1c7.5,0,15,0,22.5,0c7,0,12.9,3.1,18.2,7.5c4.9,4.1,7.5,9.6,9.5,15.5c1.4,4.2,0.3,8.3,0.6,12.5
	c0.1,1.2-2.9,3.4-4.4,3.4c-1.8,0.1-3.6,0.1-5.5,0c-2-0.1-4.5-1.8-4.6-3.8c-0.1-1.8-1.2-3.4-1.2-5c0-3.6-1.3-6.3-3.6-8.9
	c-2.5-2.8-5.9-4.9-9.2-5.5c-12.9-2.4-26-0.9-39-1c-4.8,0-9.9,0.7-13.8,4.6c-2.1,2.1-4.4,4.5-4.8,7.2c-0.4,2.5-1.1,4.9-1.5,7.4
	c-0.5,3.4-2.1,4.8-5.3,4.9c-1.4,0-2.8,0-4.3,0c-2.7-0.1-4.7-2.1-5-4.7c-1.2-11.4,3-20.8,11.6-27.9C94,2.7,99.4,0,105.6,0.1
	C113.5,0.1,121.4,0.1,129.3,0.1z"/>
</svg>
