<?xml version="1.0" encoding="UTF-8" standalone="no"?>
<svg
   width="21.248"
   height="21.249"
   viewBox="0 0 21.248 21.249"
   version="1.1"
   id="svg5"
   sodipodi:docname="open-box.svg"
   inkscape:version="1.2.1 (9c6d41e410, 2022-07-14)"
   xmlns:inkscape="http://www.inkscape.org/namespaces/inkscape"
   xmlns:sodipodi="http://sodipodi.sourceforge.net/DTD/sodipodi-0.dtd"
   xmlns="http://www.w3.org/2000/svg"
   xmlns:svg="http://www.w3.org/2000/svg">
  <defs
     id="defs9" />
  <sodipodi:namedview
     id="namedview7"
     pagecolor="#ffffff"
     bordercolor="#000000"
     borderopacity="0.25"
     inkscape:showpageshadow="2"
     inkscape:pageopacity="0.0"
     inkscape:pagecheckerboard="0"
     inkscape:deskcolor="#d1d1d1"
     showgrid="false"
     inkscape:zoom="78.027199"
     inkscape:cx="5.4852667"
     inkscape:cy="18.570447"
     inkscape:window-width="1920"
     inkscape:window-height="1009"
     inkscape:window-x="1912"
     inkscape:window-y="-8"
     inkscape:window-maximized="1"
     inkscape:current-layer="Group_10575" />
  <g
     id="Group_10575"
     data-name="Group 10575"
     transform="translate(202.019 -460.479)"
     style="fill:#000000">
    <path
       id="Path_24517"
       data-name="Path 24517"
       d="m -180.812,470.883 c -0.007,-0.0204 -0.0156,-0.0404 -0.025,-0.06 l -2,-4 c -0.0739,-0.14159 -0.19963,-0.24911 -0.351,-0.3 l -3.49,-1.31 c -0.15502,-0.0595 -0.3276,-0.0534 -0.478,0.017 -0.15084,0.0682 -0.2682,0.19386 -0.326,0.349 -0.0589,0.15504 -0.0532,0.32725 0.016,0.478 0.0598,0.13104 0.1634,0.23714 0.293,0.3 l 0.057,0.02 1.94,0.727 -6.219,2.333 -0.044,-0.017 -6.183,-2.316 1.944,-0.729 c 0.0778,-0.0287 0.1482,-0.0725 0.2077,-0.12789 0.0595,-0.0554 0.10812,-0.12256 0.1423,-0.19811 0.0346,-0.0754 0.0533,-0.15612 0.056,-0.23739 0.003,-0.0813 -0.0106,-0.16309 -0.04,-0.24061 -0.0285,-0.0779 -0.0722,-0.14841 -0.12764,-0.20793 -0.0555,-0.0595 -0.12267,-0.10807 -0.19836,-0.14207 -0.0754,-0.0346 -0.15612,-0.0533 -0.23739,-0.056 -0.0813,-0.003 -0.16309,0.0106 -0.24061,0.04 l -3.469,1.305 v 0 0 l -0.016,0.006 -0.016,0.006 c -0.073,0.027 -0.13964,0.0673 -0.19681,0.11819 -0.0572,0.0509 -0.1049,0.11239 -0.14019,0.18181 l -2,4 c -0.0367,0.0745 -0.0579,0.15466 -0.0631,0.23591 -0.005,0.0813 0.005,0.16353 0.0321,0.24209 0.0267,0.0784 0.0684,0.14978 0.12215,0.21064 0.0537,0.0609 0.11939,0.11118 0.19385,0.14736 0.009,0.005 0.0183,0.009 0.0277,0.0131 0.009,0.004 0.0188,0.008 0.0283,0.0119 l 1.593,0.6 v 5.127 c 0.002,0.3384 0.10705,0.65888 0.29133,0.92477 0.18428,0.26589 0.44728,0.47719 0.76367,0.59723 l 7.351,2.754 c 0.0174,0.004 0.0351,0.007 0.053,0.008 0.0194,10e-4 0.0388,0.004 0.058,0.007 l 0.059,0.014 c 0.0165,0.006 0.0336,0.009 0.051,0.011 0.02,0 0.034,-0.007 0.05,-0.01 l 0.094,-0.017 c 0.0247,-0.002 0.0491,-0.006 0.073,-0.013 l 7.351,-2.756 c 0.63278,-0.24008 1.05224,-0.84521 1.055,-1.522 v -5.123 l 1.594,-0.6 c 0.3208,-0.12111 0.48411,-0.47808 0.366,-0.8 z m -19.715,-0.12 1.439,-2.873 0.1,0.039 6.718,2.519 -1.438,2.874 -0.106,-0.039 z m 8.506,9.442 -6.507,-2.442 c -0.0725,-0.028 -0.13277,-0.0767 -0.17517,-0.13773 -0.0424,-0.0611 -0.0669,-0.13458 -0.0678,-0.21227 v -4.659 l 5.156,1.934 c 0.14986,0.0558 0.3087,0.0507 0.44803,-0.004 0.13933,-0.0547 0.25915,-0.15914 0.33097,-0.30199 l 0.815,-1.633 z m 8,-2.793 c -9.8e-4,0.15558 -0.0969,0.29476 -0.242,0.351 l -6.508,2.44 v -7.451 l 0.816,1.632 c 0.14366,0.28513 0.48011,0.41486 0.778,0.3 l 5.156,-1.933 z m -5.067,-4.09 -1.439,-2.876 6.824,-2.558 1.438,2.875 z"
       fill="#fff"
       style="fill:#000000"
       sodipodi:nodetypes="cccccccccccccccscscscsccccccsccscscscccsccccccccccccccccccccccccscccscccccccccccccccc" />
    <path
       id="Path_24518"
       data-name="Path 24518"
       d="m -194.343,464.541 1.253,1.2525 1.253,1.2525 c 0.0582,0.0589 0.12709,0.10477 0.20208,0.13589 0.075,0.0311 0.15612,0.0474 0.23892,0.0471 v 0 0 c 0.0793,3.9e-4 0.15716,-0.0145 0.22964,-0.043 0.0725,-0.0285 0.13958,-0.0707 0.19736,-0.12503 l 0.0125,-0.025 0.0125,-0.025 h 0.013 0.013 l 1.232,-1.2325 1.232,-1.2325 c 0.12707,-0.11782 0.19441,-0.27597 0.20056,-0.43646 0.006,-0.1605 -0.0489,-0.32334 -0.16656,-0.45054 -0.11798,-0.12605 -0.27585,-0.19242 -0.43579,-0.19785 -0.15995,-0.005 -0.32195,0.0501 -0.44821,0.16785 l -0.015,0.015 -0.015,0.015 -0.7185,0.7185 -0.7185,0.7185 v -1.998 -1.998 c -2.8e-4,-0.17247 -0.0703,-0.32859 -0.18335,-0.44165 -0.11306,-0.11306 -0.26918,-0.18307 -0.44165,-0.18335 -0.17247,2.8e-4 -0.32859,0.0703 -0.44165,0.18335 -0.11306,0.11306 -0.18307,0.26918 -0.18335,0.44165 v 2 2 l -0.7165,-0.7165 -0.7165,-0.7165 c -0.0598,-0.064 -0.13148,-0.1141 -0.21015,-0.14815 -0.0787,-0.0341 -0.1643,-0.0521 -0.25185,-0.0519 -0.0787,-2.4e-4 -0.15602,0.0146 -0.22798,0.0429 -0.072,0.0283 -0.1386,0.0702 -0.19602,0.12408 -0.12634,0.1177 -0.19308,0.27544 -0.19887,0.43538 -0.006,0.15994 0.0494,0.32209 0.16687,0.44862 0.005,0.002 0.009,0.005 0.0138,0.009 0.005,0.004 0.01,0.009 0.0153,0.0138 z"
       fill="#fff"
       style="fill:#000000"
       sodipodi:nodetypes="cccsscsscccccccscscccccccscscccccscscscsc" />
  </g>
</svg>
