<?xml version="1.0" encoding="utf-8"?>
<!-- Generator: Adobe Illustrator 24.0.0, SVG Export Plug-In . SVG Version: 6.00 Build 0)  -->
<svg version="1.1" id="Layer_1" xmlns="http://www.w3.org/2000/svg" xmlns:xlink="http://www.w3.org/1999/xlink" x="0px" y="0px"
	 viewBox="0 0 13.3 19.2" style="enable-background:new 0 0 13.3 19.2;" xml:space="preserve">
<path class="st0" d="M5,1.5h1.5l1.5,0c0.1,0,0.1,0,0.2,0C8.7,1.4,8.9,1,8.8,0.7C8.8,0.3,8.5,0,8.1,0h-3C5,0,4.9,0,4.8,0.1
	C4.4,0.2,4.3,0.6,4.4,0.9C4.4,1.3,4.7,1.5,5,1.5z"/>
<path class="st0" d="M11.7,1.4h-1.7c0,0.2,0,0.4-0.1,0.6C9.9,2.5,9.5,2.9,9,2.9H4.3C4,2.9,3.7,2.8,3.5,2.6C3.2,2.2,3.1,1.8,3.2,1.4
	l0,0c-0.7,0-1.3,0-2,0c-0.5,0-1,0.4-1.1,0.9C0,2.6,0,2.9,0,3.2v10.3c0,0.2,0,0.4,0.1,0.6c0.1,0.6,0.5,1,1,1.1c0.2,0,0.5,0.1,0.7,0.1
	h1.9C3.8,15.1,3.9,15,4,14.9c0,0,0.1-0.1,0.1-0.1c0.7-0.7,1.6-1.2,2.6-1.4C6.4,13.2,6.2,13,6,12.8c-0.6-0.1-1.2-0.2-1.8-0.2
	c-0.5,0-1,0.1-1.5,0.2h0c-0.4,0.1-0.8-0.1-0.9-0.5c0,0,0,0,0,0v0c-0.1-0.4,0.2-0.8,0.5-0.8c0,0,0,0,0,0c0.7-0.2,1.4-0.3,2.1-0.3
	c0.3,0,0.6,0,0.9,0.1c-0.1-0.5-0.1-1.1,0.1-1.6C5.2,9.6,5,9.6,4.7,9.5c-0.5,0-1.1,0-1.6,0.1L2.7,9.8C2.3,9.9,1.9,9.6,1.8,9.2
	c0,0,0,0,0,0C1.7,8.8,1.9,8.5,2.3,8.4c0.5-0.1,1-0.2,1.5-0.3c0.8-0.1,1.6,0,2.3,0.2c0,0,0.1-0.1,0.1-0.1c0.6-0.7,1.5-1.1,2.4-1.1
	h0.1c1.9,0,3.5,1.6,3.5,3.5c0,1.1-0.5,2.1-1.4,2.8c0.4,0.1,0.7,0.2,1.1,0.4c0.4,0.2,0.8,0.4,1.2,0.7c0.1-0.1,0.1-0.2,0.1-0.4
	c0-0.2,0.1-0.4,0.1-0.7V3.1c0-0.3-0.1-0.6-0.2-0.8C12.9,1.7,12.3,1.4,11.7,1.4z M11,6.7C10.1,6.9,9.2,7,8.3,7l0,0
	c-0.6,0-1.2-0.1-1.7-0.2C5.9,6.6,5.2,6.5,4.5,6.4c-0.6,0-1.2,0.1-1.8,0.3C2.4,6.8,1.9,6.6,1.8,6.2c0-0.1,0-0.2,0-0.3
	c0-0.3,0.2-0.6,0.5-0.6c1-0.3,2.1-0.4,3.2-0.2c0.7,0.1,1.4,0.2,2.1,0.4c0.6,0.1,1.2,0.1,1.8,0c0.5,0,0.9-0.1,1.4-0.2
	c0.4-0.1,0.8,0.1,0.9,0.5C11.7,6.2,11.4,6.6,11,6.7C11,6.7,11,6.7,11,6.7L11,6.7z"/>
<path class="st0" d="M12.2,15.2c-0.2-0.2-0.5-0.3-0.7-0.4c-1.5-0.6-3.1-0.7-4.6-0.3c-0.8,0.2-1.5,0.6-2,1.1c0,0,0,0-0.1,0.1
	c-0.6,0.6-0.5,1.6,0.1,2.1c0.3,0.3,0.7,0.5,1,0.7c0.9,0.4,1.9,0.6,2.9,0.6c0.5-0.1,1.1-0.1,1.6-0.2c0.9-0.1,1.7-0.6,2.4-1.2
	c0.6-0.6,0.6-1.5,0-2.1C12.6,15.5,12.4,15.3,12.2,15.2z"/>
<path class="st0" d="M8.8,13c1.3,0,2.4-1.1,2.4-2.4s-1.1-2.4-2.4-2.4H8.7c-1.3,0-2.3,1.1-2.3,2.4C6.4,11.9,7.5,13,8.8,13L8.8,13z"/>
</svg>
