<?xml version="1.0" encoding="utf-8"?>
<!-- Generator: Adobe Illustrator 24.0.0, SVG Export Plug-In . SVG Version: 6.00 Build 0)  -->
<svg version="1.1" id="Layer_1" xmlns="http://www.w3.org/2000/svg" xmlns:xlink="http://www.w3.org/1999/xlink" x="0px" y="0px"
	 viewBox="0 0 18.3 17" style="enable-background:new 0 0 18.3 17;" xml:space="preserve">
<path class="st0" d="M17,8.8l1-0.5c0.1-0.1,0.2-0.2,0.3-0.3c0-0.2,0-0.3,0-0.5c-0.5-1.1-1.1-2.3-1.6-3.4c-0.1-0.3-0.4-0.5-0.6-0.6
	c-1.5-0.8-3-1.6-4.4-2.4l-1.8-1C9.6,0.1,9.4,0,9.3,0C9.1,0,8.9,0,8.7,0.1L2.4,3.5C2.1,3.7,1.8,3.9,1.6,4.2c-0.6,1-1.1,2-1.6,3
	c0,0.1,0,0.2,0,0.3c0,0.1,0.1,0.1,0.2,0.1c0.1,0,0.1,0,0.2-0.1L1.5,7c0,0,0.1,0,0.1,0c0,0,0.1,0,0.1,0c0.1,0,0.1,0.1,0.1,0.2v5.3
	c0,0.5,0.2,0.9,0.6,1.1c2.1,1.1,4.1,2.2,6.3,3.4c0.2,0.1,0.3,0.2,0.5,0.1c0.2,0,0.4,0,0.5-0.1l6.2-3.4c0.4-0.2,0.7-0.7,0.6-1.1V9.3
	C16.6,9.1,16.8,8.9,17,8.8z M8.7,15.7c-0.1,0-0.1,0-0.2,0l-0.4-0.2L3,12.7c-0.2-0.1-0.3-0.3-0.3-0.4V5.2c0-0.1,0-0.1,0.1-0.2
	c0,0,0.1,0,0.1,0C2.9,5,3,5,3,5h0.1l0.1,0.1L8.6,8c0.2,0.1,0.3,0.2,0.3,0.4v7.1C8.8,15.6,8.8,15.7,8.7,15.7z M9.3,7.3
	c-0.1,0-0.2-0.1-0.2-0.2V1.1c0-0.1,0.1-0.2,0.2-0.2h0.1l5.6,3C15,4,15,4,15,4.1c0,0.1,0,0.1-0.1,0.2L9.4,7.2L9.3,7.3z M15.8,12.3
	c0,0.1-0.1,0.3-0.2,0.4l-5.6,3c0,0-0.1,0-0.1,0H9.9c-0.1,0-0.2-0.1-0.2-0.2v-4.7c0-0.1,0.1-0.2,0.2-0.2c0.1,0,0.2,0,0.2,0.1l0.4,1
	c0.1,0.2,0.2,0.3,0.4,0.3H11c0.1,0,0.2,0,0.2-0.1l4.1-2.1l0.2-0.1c0,0,0.1,0,0.1,0c0,0,0.1,0,0.1,0c0.1,0,0.1,0.1,0.1,0.2L15.8,12.3
	z M11.4,10.7h-0.1h-0.1c-0.1,0-0.1-0.1-0.1-0.1L9.9,8.2C9.9,8.1,9.9,8,10,8l5.8-3c0,0,0.1,0,0.1,0c0,0,0.1,0,0.1,0
	c0,0,0,0.1,0.1,0.1c0.4,0.8,0.8,1.6,1.1,2.4c0,0.1,0,0.2-0.1,0.3c0,0,0,0,0,0L11.4,10.7z"/>
</svg>
