<?xml version="1.0" encoding="utf-8"?>
<!-- Generator: Adobe Illustrator 21.0.0, SVG Export Plug-In . SVG Version: 6.00 Build 0)  -->
<svg version="1.1" id="Layer_1" xmlns="http://www.w3.org/2000/svg" xmlns:xlink="http://www.w3.org/1999/xlink" x="0px" y="0px"
	 viewBox="0 0 24 24" style="enable-background:new 0 0 24 24;" xml:space="preserve">
<path d="M24,19.4c0-1-0.4-1.8-1-2.4c-1.2-1-2.4-1.8-3.6-2.4c-1.4-0.4-3,0-4,1.2l0,0L14.1,17c-1.4-0.8-2.8-1.8-4-3v-0.2
	c-1.2-1.2-2.2-2.4-3.2-4l1.2-1.2l0,0c1.2-1,1.6-2.6,1.2-4C8.9,3.2,8.1,2,7.1,1c-1.4-1.2-3.6-1.4-5,0l0,0l0,0C0.6,2.4,0,4.6,0,6.6
	c0.4,4.6,2.4,8.8,5.6,11.8c0.8,0.8,1.4,1.4,2.2,2c0.4,0.4,1,0.2,1.4-0.2c0.4-0.4,0.2-1-0.2-1.4l0,0c-0.8-0.6-1.4-1.2-2-1.8
	c-3-2.6-4.8-6.4-5.2-10.4c0-1.6,0.4-3,1.6-4.2l0,0c0.6-0.6,1.8-0.6,2.4,0C8.1,5,7.9,6.2,6.9,7.2L5.2,9C5,9.2,4.8,9.6,5,10
	c1,2,2.2,3.8,3.8,5.2l0.2,0.2c1.4,1.4,3.2,2.8,5,3.8c0.4,0.2,0.8,0,1-0.2l1.8-1.8c1.2-1.2,2.4-1.2,5,1.2c0.6,0.6,0.8,1.6,0,2.4l0,0
	c-1.2,1-2.6,1.6-4.2,1.6l0,0c-1.6,0-3.2-0.4-4.6-1.2c-0.4-0.2-1,0-1.2,0.4s0,1,0.4,1.2l0,0c1.6,0.8,3.6,1.2,5.4,1.2l0,0
	c2,0,4-0.6,5.6-2l0,0l0,0C23.6,21.2,24,20.4,24,19.4z"/>
</svg>
