<?xml version="1.0" encoding="utf-8"?>
<!-- Generator: Adobe Illustrator 24.0.0, SVG Export Plug-In . SVG Version: 6.00 Build 0)  -->
<svg version="1.1" id="Layer_1" xmlns="http://www.w3.org/2000/svg" xmlns:xlink="http://www.w3.org/1999/xlink" x="0px" y="0px"
	 viewBox="0 0 24 24" style="enable-background:new 0 0 24 24;" xml:space="preserve">
<path d="M12,24C5.4,24,0,18.6,0,12S5.4,0,12,0s12,5.4,12,12S18.6,24,12,24z M12,1C5.9,1,1,5.9,1,12s4.9,11,11,11s11-4.9,11-11
	S18.1,1,12,1z"/>
<path d="M18.3,15.8c0-0.5-0.2-0.9-0.5-1.2c-0.6-0.5-1.2-0.9-1.8-1.2c-0.7-0.2-1.5,0-2,0.6l0,0l-0.7,0.6c-0.7-0.4-1.4-0.9-2-1.5V13
	c-0.6-0.6-1.1-1.2-1.6-2l0.6-0.6l0,0c0.6-0.5,0.8-1.3,0.6-2s-0.6-1.3-1.1-1.8C9.1,6,8,5.9,7.3,6.6l0,0l0,0C6.5,7.3,6.2,8.4,6.2,9.4
	c0.2,2.3,1.2,4.4,2.8,5.9c0.4,0.4,0.7,0.7,1.1,1c0.2,0.2,0.5,0.1,0.7-0.1s0.1-0.5-0.1-0.7l0,0c-0.4-0.3-0.7-0.6-1-0.9
	c-1.5-1.3-2.4-3.2-2.6-5.2c0-0.8,0.2-1.5,0.8-2.1l0,0C8.2,7,8.8,7,9.1,7.3c1.2,1.3,1.1,1.9,0.6,2.4l-0.9,0.9
	c-0.1,0.1-0.2,0.3-0.1,0.5c0.5,1,1.1,1.9,1.9,2.6l0.1,0.1c0.7,0.7,1.6,1.4,2.5,1.9c0.2,0.1,0.4,0,0.5-0.1l0.9-0.9
	c0.6-0.6,1.2-0.6,2.5,0.6c0.3,0.3,0.4,0.8,0,1.2l0,0c-0.6,0.5-1.3,0.8-2.1,0.8l0,0c-0.8,0-1.6-0.2-2.3-0.6c-0.2-0.1-0.5,0-0.6,0.2
	c-0.1,0.2,0,0.5,0.2,0.6l0,0c0.8,0.4,1.8,0.6,2.7,0.6l0,0c1,0,2-0.3,2.8-1l0,0l0,0C18.1,16.7,18.3,16.3,18.3,15.8z"/>
</svg>
