<?xml version="1.0" encoding="utf-8"?>
<!-- Generator: Adobe Illustrator 24.0.0, SVG Export Plug-In . SVG Version: 6.00 Build 0)  -->
<svg version="1.1" id="Layer_1" xmlns="http://www.w3.org/2000/svg" xmlns:xlink="http://www.w3.org/1999/xlink" x="0px" y="0px"
	 viewBox="0 0 11.5 11.5" style="enable-background:new 0 0 11.5 11.5;" xml:space="preserve">
<path d="M11.2,6.1c-0.1,0.1-0.3,0.1-0.4,0.1l-10,0C0.4,6.3,0.2,6,0.2,5.7c0-0.2,0.2-0.5,0.5-0.5l10,0c0.3,0,0.6,0.3,0.6,0.6
	C11.3,5.9,11.2,6.1,11.2,6.1z"/>
<path d="M6.2,11.2c-0.1,0.1-0.2,0.1-0.3,0.1c-0.3,0-0.6-0.3-0.6-0.6l0-10c0-0.3,0.2-0.5,0.5-0.5c0.3,0,0.5,0.2,0.5,0.5l0,10
	C6.3,11,6.2,11.1,6.2,11.2z"/>
</svg>
