<?xml version="1.0" encoding="utf-8"?>
<!-- Generator: Adobe Illustrator 24.0.0, SVG Export Plug-In . SVG Version: 6.00 Build 0)  -->
<svg version="1.1" id="Layer_1" xmlns="http://www.w3.org/2000/svg" xmlns:xlink="http://www.w3.org/1999/xlink" x="0px" y="0px"
	 viewBox="0 0 15.9 15.1" style="enable-background:new 0 0 15.9 15.1;" xml:space="preserve">
<path class="st0" d="M2.3,15.1h8c3.2-0.1,5.7-2.8,5.6-5.9c0-1-0.3-2-0.9-2.9c0,0,0-0.1,0-0.1c0.4-0.3,0.7-0.8,0.6-1.4
	c0-1-0.8-1.8-1.8-1.8h-1.1c0,0-0.1,0-0.1,0c0,0,0-0.1,0-0.1c0.2-0.4,0.3-0.9,0.2-1.4c-0.1-0.5-0.4-0.8-0.8-1.1
	C11.7,0.1,11.4,0,11.1,0H1.8C1.3,0,0.9,0.2,0.5,0.5C0.2,0.9,0,1.3,0,1.8c0,1,0.8,1.8,1.8,1.8h1.1c0,0,0.1,0,0.1,0c0,0,0,0.1,0,0.1
	C2.7,4.3,2.7,5,3,5.6c0,0,0,0.1,0,0.1c0,0-0.1,0-0.1,0H2.3c-0.5,0-0.9,0.2-1.3,0.5c-0.7,0.7-0.7,1.9,0,2.6c0,0,0,0,0.1,0.1
	c0,0,0,0,0,0.1c0,0,0,0.1,0,0.1c-0.4,0.3-0.6,0.8-0.6,1.3c0,0.5,0.1,1,0.5,1.4l0.1,0.1c0,0,0,0,0,0.1c0,0,0,0.1,0,0.1
	c-0.7,0.7-0.8,1.8-0.1,2.6C1.3,14.8,1.8,15,2.3,15.1z M15.1,9.3c0,2.7-2.2,5-4.9,5l0,0c-2.7,0-5-2.1-5-4.9c0-1.4,0.5-2.7,1.5-3.6
	c0.9-0.9,2.2-1.5,3.5-1.5C12.9,4.4,15.1,6.6,15.1,9.3z M4.6,5.7c-0.6,0-1-0.4-1-1l0,0c0-0.6,0.4-1,1-1h3.8c0,0,0.1,0,0.1,0.1
	c0,0,0,0.1-0.1,0.1c-1,0.3-1.9,0.9-2.6,1.8c0,0-0.1,0-0.1,0L4.6,5.7z M13.9,3.7c0.6,0,1,0.4,1,1l0,0c0,0.3-0.1,0.6-0.3,0.8
	c0,0,0,0-0.1,0l0,0h-0.1c-0.7-0.7-1.5-1.3-2.4-1.6c0,0-0.1-0.1-0.1-0.1c0,0,0-0.1,0.1-0.1H13.9z M1.9,2.9L1.9,2.9c-0.6,0-1-0.4-1-1
	s0.4-1,1-1h9.3c0.6,0,1,0.5,1,1s-0.5,1-1,1L1.9,2.9z M2.3,6.5H5c0,0,0.1,0,0.1,0c0,0,0,0.1,0,0.1C4.8,7.2,4.6,7.8,4.5,8.4
	c0,0-0.1,0.1-0.1,0.1H2.3c-0.6,0-1-0.5-1-1S1.8,6.5,2.3,6.5L2.3,6.5z M2.3,9.4h2c0.1,0,0.1,0,0.1,0.1l0,0c0,0.6,0.1,1.2,0.3,1.8
	c0,0,0,0.1,0,0.1c0,0,0,0-0.1,0H2.3c-0.6,0-1-0.4-1-1C1.3,9.9,1.7,9.4,2.3,9.4C2.3,9.4,2.3,9.3,2.3,9.4z M2.3,12.2h2.8
	c0,0,0.1,0,0.1,0.1c0.4,0.7,1,1.4,1.7,1.8c0,0,0,0.1,0,0.1c0,0,0,0.1-0.1,0.1H2.3c-0.6,0-1-0.4-1-1C1.3,12.7,1.7,12.2,2.3,12.2
	C2.3,12.2,2.3,12.2,2.3,12.2z"/>
<path class="st0" d="M11,8.9H9.2c0,0-0.1,0-0.1,0c0,0,0-0.1,0-0.1c0.2-0.9,1-1.5,1.9-1.5l0,0c0.2,0,0.3-0.2,0.3-0.4
	c0-0.2-0.1-0.3-0.3-0.4c-1.3,0-2.5,1-2.7,2.3c0,0-0.1,0.1-0.1,0.1H7.8C7.7,8.9,7.6,9,7.5,9.1C7.5,9.2,7.4,9.3,7.4,9.4
	c0,0.2,0.2,0.3,0.3,0.4h0.4c0,0,0.1,0,0.1,0.1c0.2,1.3,1.4,2.3,2.7,2.3c0.2,0,0.4-0.2,0.3-0.4c0,0,0,0,0,0c0-0.2-0.2-0.3-0.4-0.4
	c-0.9,0-1.7-0.6-1.9-1.5c0,0,0-0.1,0-0.1c0,0,0.1,0,0.1,0H11c0.1,0,0.2-0.1,0.3-0.1c0.1-0.1,0.1-0.2,0.1-0.3
	C11.3,9.1,11.2,8.9,11,8.9z"/>
</svg>
