<?xml version="1.0" encoding="utf-8"?>
<!-- Generator: Adobe Illustrator 21.0.0, SVG Export Plug-In . SVG Version: 6.00 Build 0)  -->
<svg version="1.1" id="Vrstva_1" xmlns="http://www.w3.org/2000/svg" xmlns:xlink="http://www.w3.org/1999/xlink" x="0px" y="0px"
	 viewBox="0 0 113.3 73" style="enable-background:new 0 0 113.3 73;" xml:space="preserve">
<title>NOX</title>
<path d="M34.5,25.4c-0.8,0-1.4,0.6-1.4,1.4s0.6,1.4,1.4,1.4c0.8,0,1.4-0.6,1.4-1.4l0,0C35.9,26,35.3,25.4,34.5,25.4z"/>
<path d="M40.3,39.8c-0.8,0-1.5,0.6-1.5,1.4s0.6,1.5,1.4,1.5c0.8,0,1.5-0.6,1.5-1.4c0,0,0,0,0,0C41.7,40.5,41.1,39.8,40.3,39.8
	C40.3,39.8,40.3,39.8,40.3,39.8z"/>
<path d="M34.5,30.2c-0.8,0-1.5,0.6-1.5,1.4c0,0.8,0.6,1.5,1.4,1.5c0.8,0,1.5-0.6,1.5-1.4c0,0,0,0,0,0C35.9,30.8,35.3,30.2,34.5,30.2
	C34.5,30.2,34.5,30.2,34.5,30.2z"/>
<path d="M34.5,35c-0.8,0-1.4,0.6-1.4,1.4s0.6,1.4,1.4,1.4c0.8,0,1.4-0.6,1.4-1.4c0,0,0,0,0,0C35.9,35.7,35.3,35,34.5,35
	C34.5,35,34.5,35,34.5,35z"/>
<path d="M34.5,39.8c-0.8,0-1.5,0.6-1.5,1.4s0.6,1.5,1.4,1.5c0.8,0,1.5-0.6,1.5-1.4c0,0,0,0,0,0C35.9,40.5,35.3,39.8,34.5,39.8
	C34.5,39.8,34.5,39.8,34.5,39.8z"/>
<path d="M83.8,43.2V25.1c0-0.7,0.6-1.3,1.3-1.3h2.6v-3.4c0-2.2-1.8-4-4-4H28.9c-2.2,0-4,1.8-4,4v27.5c0,2.2,1.8,4,4,4h54.8
	c2.2,0,4-1.8,4-4v-3.4h-2.6C84.3,44.5,83.8,43.9,83.8,43.2z M44.1,43.6c0,1-0.8,1.7-1.7,1.7h-10c-1,0-1.7-0.8-1.7-1.7V24.7
	c0-0.9,0.8-1.7,1.7-1.7h10c1,0,1.7,0.8,1.7,1.7L44.1,43.6z"/>
<path d="M40.3,25.4c-0.8,0-1.4,0.6-1.4,1.4s0.6,1.4,1.4,1.4c0.8,0,1.4-0.6,1.4-1.4l0,0C41.7,26,41.1,25.4,40.3,25.4z"/>
<path d="M40.3,30.2c-0.8,0-1.5,0.6-1.5,1.4c0,0.8,0.6,1.5,1.4,1.5c0.8,0,1.5-0.6,1.5-1.4c0,0,0,0,0,0C41.7,30.8,41.1,30.2,40.3,30.2
	C40.3,30.2,40.3,30.2,40.3,30.2z"/>
<path d="M40.3,35c-0.8,0-1.4,0.6-1.4,1.4s0.6,1.4,1.4,1.4c0.8,0,1.4-0.6,1.4-1.4c0,0,0,0,0,0C41.7,35.7,41.1,35,40.3,35
	C40.3,35,40.3,35,40.3,35z"/>
<path d="M85.1,24.5h6.1c0.4,0,0.7,0.3,0.7,0.7v18c0,0.4-0.3,0.7-0.7,0.7h-6.1c-0.4,0-0.7-0.3-0.7-0.7v-18
	C84.5,24.8,84.8,24.5,85.1,24.5z"/>
<path d="M14.8,39.6c-0.8,0-1.4,0.6-1.4,1.4v6.4c0,0.8,0.6,1.4,1.4,1.4H23c0.8,0,1.4-0.6,1.4-1.4V41c0-0.8-0.6-1.4-1.4-1.4H14.8z
	 M18.4,46.5c-1.3,0-2.3-1-2.3-2.3c0-1.3,1-2.3,2.3-2.3c1.3,0,2.3,1,2.3,2.3C20.7,45.5,19.7,46.5,18.4,46.5
	C18.4,46.5,18.4,46.5,18.4,46.5z"/>
<path d="M97.7,0h-82C7,0,0,7,0,15.7v37.7C0,62,7,69,15.7,69h25.1v-4.2H15.7c-6.3,0-11.4-5.1-11.4-11.4V15.7
	c0-6.3,5.1-11.4,11.4-11.4h82c6.3,0,11.4,5.1,11.4,11.4v5c0,6.3-5.1,11.3-11.4,11.3h-1.6v-2.6c0-0.4-0.3-0.7-0.7-0.7h-2
	c-0.4,0-0.7,0.3-0.7,0.7v9.5c0,0.4,0.3,0.7,0.7,0.7h2c0.4,0,0.7-0.3,0.7-0.7v-2.6h1.6c8.7,0,15.7-7,15.7-15.7v-5
	C113.3,7,106.3,0,97.7,0z"/>
<path d="M74.9,64.4h-9.1v-2.2c-0.1-0.7-0.7-1.2-1.4-1.1c-0.6,0.1-1.1,0.5-1.1,1.1v0.6c0,0,0,0-0.1,0H44.6c-0.2,0-0.4,0.2-0.4,0.4
	v1.7c-0.1-0.7-0.7-1.2-1.4-1.1c-0.6,0.1-1.1,0.5-1.1,1.1v4.2c-0.1,0.7,0.4,1.3,1.1,1.4c0.7,0.1,1.3-0.4,1.4-1.1c0-0.1,0-0.1,0-0.2
	v1.7c0,0.2,0.2,0.4,0.4,0.4h18.6c0,0,0,0,0.1,0v0.6c-0.1,0.7,0.4,1.3,1.1,1.4c0.7,0.1,1.3-0.4,1.4-1.1c0-0.1,0-0.1,0-0.2v-2.3h9.1
	c0.7,0,1.3-0.6,1.3-1.3v-2.7C76.2,65,75.6,64.4,74.9,64.4z"/>
</svg>
