<?xml version="1.0" encoding="utf-8"?>
<!-- Generator: Adobe Illustrator 21.0.0, SVG Export Plug-In . SVG Version: 6.00 Build 0)  -->
<svg version="1.1" id="Vrstva_1" xmlns="http://www.w3.org/2000/svg" xmlns:xlink="http://www.w3.org/1999/xlink" x="0px" y="0px"
	 viewBox="0 0 997.3 525" style="enable-background:new 0 0 997.3 525;" xml:space="preserve">
<path d="M672.5,98.6c-3.7-3.7-6.4,0.9-8.3,3.7c-9.2,10.1-18.4,21.2-27.6,32.2l-2.8,2.8l-1.8,1.8c-0.9,0.9-1.8,0.9-2.8,0.9h-0.9h-0.9
	c-1.8,0-4.6-0.9-7.4-2.8l-0.9-0.9c-0.9,0-0.9-0.9-1.8-0.9l-1.8-1.8c-0.9-0.9-2.8-1.8-3.7-2.8c0,0-0.9,0-0.9-0.9
	c-1.8,0-2.8,0-4.6,1.8c-0.9,0.9-0.9,1.8-0.9,2.8v0.9c0,0.9,0.9,1.8,1.8,1.8c0,0,0.9,0.9,1.8,0.9s0.9,0.9,1.8,0.9
	c1.8,0.9,3.7,1.8,4.6,2.8c4.6,3.7,10.1,7.4,13.8,10.1c3.7,0,5.5-2.8,6.4-4.6c2.8-3.7,5.5-7.4,9.2-10.1c9.2-10.1,17.5-21.2,25.8-32.2
	c0.9-0.9,2.8-2.8,2.8-4.6C674.4,101.4,674.4,99.5,672.5,98.6L672.5,98.6z M672.5,98.6c-3.7-3.7-6.4,0.9-8.3,3.7
	c-9.2,10.1-18.4,21.2-27.6,32.2l-2.8,2.8l-1.8,1.8c-0.9,0.9-1.8,0.9-2.8,0.9h-0.9h-0.9c-1.8,0-4.6-0.9-7.4-2.8l-0.9-0.9
	c-0.9,0-0.9-0.9-1.8-0.9l-1.8-1.8c-0.9-0.9-2.8-1.8-3.7-2.8c0,0-0.9,0-0.9-0.9c-1.8,0-2.8,0-4.6,1.8c-0.9,0.9-0.9,1.8-0.9,2.8v0.9
	c0,0.9,0.9,1.8,1.8,1.8c0,0,0.9,0.9,1.8,0.9s0.9,0.9,1.8,0.9c1.8,0.9,3.7,1.8,4.6,2.8c4.6,3.7,10.1,7.4,13.8,10.1
	c3.7,0,5.5-2.8,6.4-4.6c2.8-3.7,5.5-7.4,9.2-10.1c9.2-10.1,17.5-21.2,25.8-32.2c0.9-0.9,2.8-2.8,2.8-4.6
	C674.4,101.4,674.4,99.5,672.5,98.6L672.5,98.6z M542.8,397.6c-1.8,0-4.6-0.9-7.4-0.9c-10.1,0-10.1,0-10.1,10.1v7.4
	c0,0.9,0.9,2.8,1.8,2.8h15.6c5.5-0.9,8.3-4.6,8.3-10.1S548.3,398.5,542.8,397.6L542.8,397.6z M543.7,429.8c-2.8,0-4.6-0.9-7.4-0.9
	c-11,0-11,0-11,11v8.3c0,0.9,1.8,2.8,2.8,2.8h16.6c6.4-0.9,9.2-4.6,9.2-10.1C553.9,434.4,550.2,430.7,543.7,429.8L543.7,429.8z
	 M672.5,98.6c-3.7-3.7-6.4,0.9-8.3,3.7c-9.2,10.1-18.4,21.2-27.6,32.2l-2.8,2.8l-1.8,1.8c-0.9,0.9-1.8,0.9-2.8,0.9h-0.9h-0.9
	c-1.8,0-4.6-0.9-7.4-2.8l-0.9-0.9c-0.9,0-0.9-0.9-1.8-0.9l-1.8-1.8c-0.9-0.9-2.8-1.8-3.7-2.8c0,0-0.9,0-0.9-0.9
	c-1.8,0-2.8,0-4.6,1.8c-0.9,0.9-0.9,1.8-0.9,2.8v0.9c0,0.9,0.9,1.8,1.8,1.8c0,0,0.9,0.9,1.8,0.9s0.9,0.9,1.8,0.9
	c1.8,0.9,3.7,1.8,4.6,2.8c4.6,3.7,10.1,7.4,13.8,10.1c3.7,0,5.5-2.8,6.4-4.6c2.8-3.7,5.5-7.4,9.2-10.1c9.2-10.1,17.5-21.2,25.8-32.2
	c0.9-0.9,2.8-2.8,2.8-4.6C674.4,101.4,674.4,99.5,672.5,98.6L672.5,98.6z M543.7,429.8c-2.8,0-4.6-0.9-7.4-0.9c-11,0-11,0-11,11v8.3
	c0,0.9,1.8,2.8,2.8,2.8h16.6c6.4-0.9,9.2-4.6,9.2-10.1C553.9,434.4,550.2,430.7,543.7,429.8L543.7,429.8z M542.8,397.6
	c-1.8,0-4.6-0.9-7.4-0.9c-10.1,0-10.1,0-10.1,10.1v7.4c0,0.9,0.9,2.8,1.8,2.8h15.6c5.5-0.9,8.3-4.6,8.3-10.1
	S548.3,398.5,542.8,397.6L542.8,397.6z M672.5,98.6c-3.7-3.7-6.4,0.9-8.3,3.7c-9.2,10.1-18.4,21.2-27.6,32.2l-2.8,2.8l-1.8,1.8
	c-0.9,0.9-1.8,0.9-2.8,0.9h-0.9h-0.9c-1.8,0-4.6-0.9-7.4-2.8l-0.9-0.9c-0.9,0-0.9-0.9-1.8-0.9l-1.8-1.8c-0.9-0.9-2.8-1.8-3.7-2.8
	c0,0-0.9,0-0.9-0.9c-1.8,0-2.8,0-4.6,1.8c-0.9,0.9-0.9,1.8-0.9,2.8v0.9c0,0.9,0.9,1.8,1.8,1.8c0,0,0.9,0.9,1.8,0.9s0.9,0.9,1.8,0.9
	c1.8,0.9,3.7,1.8,4.6,2.8c4.6,3.7,10.1,7.4,13.8,10.1c3.7,0,5.5-2.8,6.4-4.6c2.8-3.7,5.5-7.4,9.2-10.1c9.2-10.1,17.5-21.2,25.8-32.2
	c0.9-0.9,2.8-2.8,2.8-4.6C674.4,101.4,674.4,99.5,672.5,98.6L672.5,98.6z M485.8,430.7c-0.9-6.4-4.6-12-11-12.9
	c-5.5-0.9-10.1,3.7-12,10.1s-1.8,12,0,18.4c1.8,5.5,5.5,8.3,10.1,8.3s9.2-2.8,11-8.3c1.8-3.7,1.8-7.4,2.8-11
	C485.8,433.5,485.8,431.6,485.8,430.7L485.8,430.7z M542.8,397.6c-1.8,0-4.6-0.9-7.4-0.9c-10.1,0-10.1,0-10.1,10.1v7.4
	c0,0.9,0.9,2.8,1.8,2.8h15.6c5.5-0.9,8.3-4.6,8.3-10.1S548.3,398.5,542.8,397.6L542.8,397.6z M543.7,429.8c-2.8,0-4.6-0.9-7.4-0.9
	c-11,0-11,0-11,11v8.3c0,0.9,1.8,2.8,2.8,2.8h16.6c6.4-0.9,9.2-4.6,9.2-10.1C553.9,434.4,550.2,430.7,543.7,429.8L543.7,429.8z
	 M672.5,98.6c-3.7-3.7-6.4,0.9-8.3,3.7c-9.2,10.1-18.4,21.2-27.6,32.2l-2.8,2.8l-1.8,1.8c-0.9,0.9-1.8,0.9-2.8,0.9h-0.9h-0.9
	c-1.8,0-4.6-0.9-7.4-2.8l-0.9-0.9c-0.9,0-0.9-0.9-1.8-0.9l-1.8-1.8c-0.9-0.9-2.8-1.8-3.7-2.8c0,0-0.9,0-0.9-0.9
	c-1.8,0-2.8,0-4.6,1.8c-0.9,0.9-0.9,1.8-0.9,2.8v0.9c0,0.9,0.9,1.8,1.8,1.8c0,0,0.9,0.9,1.8,0.9s0.9,0.9,1.8,0.9
	c1.8,0.9,3.7,1.8,4.6,2.8c4.6,3.7,10.1,7.4,13.8,10.1c3.7,0,5.5-2.8,6.4-4.6c2.8-3.7,5.5-7.4,9.2-10.1c9.2-10.1,17.5-21.2,25.8-32.2
	c0.9-0.9,2.8-2.8,2.8-4.6C674.4,101.4,674.4,99.5,672.5,98.6L672.5,98.6z M543.7,429.8c-2.8,0-4.6-0.9-7.4-0.9c-11,0-11,0-11,11v8.3
	c0,0.9,1.8,2.8,2.8,2.8h16.6c6.4-0.9,9.2-4.6,9.2-10.1C553.9,434.4,550.2,430.7,543.7,429.8L543.7,429.8z M542.8,397.6
	c-1.8,0-4.6-0.9-7.4-0.9c-10.1,0-10.1,0-10.1,10.1v7.4c0,0.9,0.9,2.8,1.8,2.8h15.6c5.5-0.9,8.3-4.6,8.3-10.1
	S548.3,398.5,542.8,397.6L542.8,397.6z M485.8,430.7c-0.9-6.4-4.6-12-11-12.9c-5.5-0.9-10.1,3.7-12,10.1s-1.8,12,0,18.4
	c1.8,5.5,5.5,8.3,10.1,8.3s9.2-2.8,11-8.3c1.8-3.7,1.8-7.4,2.8-11C485.8,433.5,485.8,431.6,485.8,430.7L485.8,430.7z M672.5,98.6
	c-3.7-3.7-6.4,0.9-8.3,3.7c-9.2,10.1-18.4,21.2-27.6,32.2l-2.8,2.8l-1.8,1.8c-0.9,0.9-1.8,0.9-2.8,0.9h-0.9h-0.9
	c-1.8,0-4.6-0.9-7.4-2.8l-0.9-0.9c-0.9,0-0.9-0.9-1.8-0.9l-1.8-1.8c-0.9-0.9-2.8-1.8-3.7-2.8c0,0-0.9,0-0.9-0.9
	c-1.8,0-2.8,0-4.6,1.8c-0.9,0.9-0.9,1.8-0.9,2.8v0.9c0,0.9,0.9,1.8,1.8,1.8c0,0,0.9,0.9,1.8,0.9s0.9,0.9,1.8,0.9
	c1.8,0.9,3.7,1.8,4.6,2.8c4.6,3.7,10.1,7.4,13.8,10.1c3.7,0,5.5-2.8,6.4-4.6c2.8-3.7,5.5-7.4,9.2-10.1c9.2-10.1,17.5-21.2,25.8-32.2
	c0.9-0.9,2.8-2.8,2.8-4.6C674.4,101.4,674.4,99.5,672.5,98.6L672.5,98.6z M249.3,183.2c-4.6,0-9.2,3.7-9.2,9.2
	c0,4.6,3.7,9.2,9.2,9.2c4.6,0,9.2-3.7,9.2-9.2S254.9,183.2,249.3,183.2z M485.8,430.7c-0.9-6.4-4.6-12-11-12.9
	c-5.5-0.9-10.1,3.7-12,10.1s-1.8,12,0,18.4c1.8,5.5,5.5,8.3,10.1,8.3s9.2-2.8,11-8.3c1.8-3.7,1.8-7.4,2.8-11
	C485.8,433.5,485.8,431.6,485.8,430.7L485.8,430.7z M542.8,397.6c-1.8,0-4.6-0.9-7.4-0.9c-10.1,0-10.1,0-10.1,10.1v7.4
	c0,0.9,0.9,2.8,1.8,2.8h15.6c5.5-0.9,8.3-4.6,8.3-10.1S548.3,398.5,542.8,397.6L542.8,397.6z M543.7,429.8c-2.8,0-4.6-0.9-7.4-0.9
	c-11,0-11,0-11,11v8.3c0,0.9,1.8,2.8,2.8,2.8h16.6c6.4-0.9,9.2-4.6,9.2-10.1C553.9,434.4,550.2,430.7,543.7,429.8L543.7,429.8z
	 M672.5,98.6c-3.7-3.7-6.4,0.9-8.3,3.7c-9.2,10.1-18.4,21.2-27.6,32.2l-2.8,2.8l-1.8,1.8c-0.9,0.9-1.8,0.9-2.8,0.9h-0.9h-0.9
	c-1.8,0-4.6-0.9-7.4-2.8l-0.9-0.9c-0.9,0-0.9-0.9-1.8-0.9l-1.8-1.8c-0.9-0.9-2.8-1.8-3.7-2.8c0,0-0.9,0-0.9-0.9
	c-1.8,0-2.8,0-4.6,1.8c-0.9,0.9-0.9,1.8-0.9,2.8v0.9c0,0.9,0.9,1.8,1.8,1.8c0,0,0.9,0.9,1.8,0.9s0.9,0.9,1.8,0.9
	c1.8,0.9,3.7,1.8,4.6,2.8c4.6,3.7,10.1,7.4,13.8,10.1c3.7,0,5.5-2.8,6.4-4.6c2.8-3.7,5.5-7.4,9.2-10.1c9.2-10.1,17.5-21.2,25.8-32.2
	c0.9-0.9,2.8-2.8,2.8-4.6C674.4,101.4,674.4,99.5,672.5,98.6L672.5,98.6z M543.7,429.8c-2.8,0-4.6-0.9-7.4-0.9c-11,0-11,0-11,11v8.3
	c0,0.9,1.8,2.8,2.8,2.8h16.6c6.4-0.9,9.2-4.6,9.2-10.1C553.9,434.4,550.2,430.7,543.7,429.8L543.7,429.8z M542.8,397.6
	c-1.8,0-4.6-0.9-7.4-0.9c-10.1,0-10.1,0-10.1,10.1v7.4c0,0.9,0.9,2.8,1.8,2.8h15.6c5.5-0.9,8.3-4.6,8.3-10.1
	S548.3,398.5,542.8,397.6L542.8,397.6z M485.8,430.7c-0.9-6.4-4.6-12-11-12.9c-5.5-0.9-10.1,3.7-12,10.1s-1.8,12,0,18.4
	c1.8,5.5,5.5,8.3,10.1,8.3s9.2-2.8,11-8.3c1.8-3.7,1.8-7.4,2.8-11C485.8,433.5,485.8,431.6,485.8,430.7L485.8,430.7z M249.3,183.2
	c-4.6,0-9.2,3.7-9.2,9.2c0,4.6,3.7,9.2,9.2,9.2c4.6,0,9.2-3.7,9.2-9.2S254.9,183.2,249.3,183.2z M672.5,98.6
	c-3.7-3.7-6.4,0.9-8.3,3.7c-9.2,10.1-18.4,21.2-27.6,32.2l-2.8,2.8l-1.8,1.8c-0.9,0.9-1.8,0.9-2.8,0.9h-0.9h-0.9
	c-1.8,0-4.6-0.9-7.4-2.8l-0.9-0.9c-0.9,0-0.9-0.9-1.8-0.9l-1.8-1.8c-0.9-0.9-2.8-1.8-3.7-2.8c0,0-0.9,0-0.9-0.9
	c-1.8,0-2.8,0-4.6,1.8c-0.9,0.9-0.9,1.8-0.9,2.8v0.9c0,0.9,0.9,1.8,1.8,1.8c0,0,0.9,0.9,1.8,0.9s0.9,0.9,1.8,0.9
	c1.8,0.9,3.7,1.8,4.6,2.8c4.6,3.7,10.1,7.4,13.8,10.1c3.7,0,5.5-2.8,6.4-4.6c2.8-3.7,5.5-7.4,9.2-10.1c9.2-10.1,17.5-21.2,25.8-32.2
	c0.9-0.9,2.8-2.8,2.8-4.6C674.4,101.4,674.4,99.5,672.5,98.6L672.5,98.6z M249.3,183.2c-4.6,0-9.2,3.7-9.2,9.2
	c0,4.6,3.7,9.2,9.2,9.2c4.6,0,9.2-3.7,9.2-9.2S254.9,183.2,249.3,183.2z M485.8,430.7c-0.9-6.4-4.6-12-11-12.9
	c-5.5-0.9-10.1,3.7-12,10.1s-1.8,12,0,18.4c1.8,5.5,5.5,8.3,10.1,8.3s9.2-2.8,11-8.3c1.8-3.7,1.8-7.4,2.8-11
	C485.8,433.5,485.8,431.6,485.8,430.7L485.8,430.7z M542.8,397.6c-1.8,0-4.6-0.9-7.4-0.9c-10.1,0-10.1,0-10.1,10.1v7.4
	c0,0.9,0.9,2.8,1.8,2.8h15.6c5.5-0.9,8.3-4.6,8.3-10.1S548.3,398.5,542.8,397.6L542.8,397.6z M543.7,429.8c-2.8,0-4.6-0.9-7.4-0.9
	c-11,0-11,0-11,11v8.3c0,0.9,1.8,2.8,2.8,2.8h16.6c6.4-0.9,9.2-4.6,9.2-10.1C553.9,434.4,550.2,430.7,543.7,429.8L543.7,429.8z
	 M672.5,98.6c-3.7-3.7-6.4,0.9-8.3,3.7c-9.2,10.1-18.4,21.2-27.6,32.2l-2.8,2.8l-1.8,1.8c-0.9,0.9-1.8,0.9-2.8,0.9h-0.9h-0.9
	c-1.8,0-4.6-0.9-7.4-2.8l-0.9-0.9c-0.9,0-0.9-0.9-1.8-0.9l-1.8-1.8c-0.9-0.9-2.8-1.8-3.7-2.8c0,0-0.9,0-0.9-0.9
	c-1.8,0-2.8,0-4.6,1.8c-0.9,0.9-0.9,1.8-0.9,2.8v0.9c0,0.9,0.9,1.8,1.8,1.8c0,0,0.9,0.9,1.8,0.9s0.9,0.9,1.8,0.9
	c1.8,0.9,3.7,1.8,4.6,2.8c4.6,3.7,10.1,7.4,13.8,10.1c3.7,0,5.5-2.8,6.4-4.6c2.8-3.7,5.5-7.4,9.2-10.1c9.2-10.1,17.5-21.2,25.8-32.2
	c0.9-0.9,2.8-2.8,2.8-4.6C674.4,101.4,674.4,99.5,672.5,98.6L672.5,98.6z M543.7,429.8c-2.8,0-4.6-0.9-7.4-0.9c-11,0-11,0-11,11v8.3
	c0,0.9,1.8,2.8,2.8,2.8h16.6c6.4-0.9,9.2-4.6,9.2-10.1C553.9,434.4,550.2,430.7,543.7,429.8L543.7,429.8z M542.8,397.6
	c-1.8,0-4.6-0.9-7.4-0.9c-10.1,0-10.1,0-10.1,10.1v7.4c0,0.9,0.9,2.8,1.8,2.8h15.6c5.5-0.9,8.3-4.6,8.3-10.1
	S548.3,398.5,542.8,397.6L542.8,397.6z M485.8,430.7c-0.9-6.4-4.6-12-11-12.9c-5.5-0.9-10.1,3.7-12,10.1s-1.8,12,0,18.4
	c1.8,5.5,5.5,8.3,10.1,8.3s9.2-2.8,11-8.3c1.8-3.7,1.8-7.4,2.8-11C485.8,433.5,485.8,431.6,485.8,430.7L485.8,430.7z M249.3,183.2
	c-4.6,0-9.2,3.7-9.2,9.2c0,4.6,3.7,9.2,9.2,9.2c4.6,0,9.2-3.7,9.2-9.2S254.9,183.2,249.3,183.2z M672.5,98.6
	c-3.7-3.7-6.4,0.9-8.3,3.7c-9.2,10.1-18.4,21.2-27.6,32.2l-2.8,2.8l-1.8,1.8c-0.9,0.9-1.8,0.9-2.8,0.9h-0.9h-0.9
	c-1.8,0-4.6-0.9-7.4-2.8l-0.9-0.9c-0.9,0-0.9-0.9-1.8-0.9l-1.8-1.8c-0.9-0.9-2.8-1.8-3.7-2.8c0,0-0.9,0-0.9-0.9
	c-1.8,0-2.8,0-4.6,1.8c-0.9,0.9-0.9,1.8-0.9,2.8v0.9c0,0.9,0.9,1.8,1.8,1.8c0,0,0.9,0.9,1.8,0.9s0.9,0.9,1.8,0.9
	c1.8,0.9,3.7,1.8,4.6,2.8c4.6,3.7,10.1,7.4,13.8,10.1c3.7,0,5.5-2.8,6.4-4.6c2.8-3.7,5.5-7.4,9.2-10.1c9.2-10.1,17.5-21.2,25.8-32.2
	c0.9-0.9,2.8-2.8,2.8-4.6C674.4,101.4,674.4,99.5,672.5,98.6L672.5,98.6z M249.3,183.2c-4.6,0-9.2,3.7-9.2,9.2
	c0,4.6,3.7,9.2,9.2,9.2c4.6,0,9.2-3.7,9.2-9.2S254.9,183.2,249.3,183.2z M409.4,402.2c-4.6,11-8.3,21.2-12,32.2h23
	C416.8,423.4,413.1,412.3,409.4,402.2L409.4,402.2z M485.8,430.7c-0.9-6.4-4.6-12-11-12.9c-5.5-0.9-10.1,3.7-12,10.1s-1.8,12,0,18.4
	c1.8,5.5,5.5,8.3,10.1,8.3s9.2-2.8,11-8.3c1.8-3.7,1.8-7.4,2.8-11C485.8,433.5,485.8,431.6,485.8,430.7L485.8,430.7z M542.8,397.6
	c-1.8,0-4.6-0.9-7.4-0.9c-10.1,0-10.1,0-10.1,10.1v7.4c0,0.9,0.9,2.8,1.8,2.8h15.6c5.5-0.9,8.3-4.6,8.3-10.1
	S548.3,398.5,542.8,397.6L542.8,397.6z M543.7,429.8c-2.8,0-4.6-0.9-7.4-0.9c-11,0-11,0-11,11v8.3c0,0.9,1.8,2.8,2.8,2.8h16.6
	c6.4-0.9,9.2-4.6,9.2-10.1C553.9,434.4,550.2,430.7,543.7,429.8L543.7,429.8z M672.5,98.6c-3.7-3.7-6.4,0.9-8.3,3.7
	c-9.2,10.1-18.4,21.2-27.6,32.2l-2.8,2.8l-1.8,1.8c-0.9,0.9-1.8,0.9-2.8,0.9h-0.9h-0.9c-1.8,0-4.6-0.9-7.4-2.8l-0.9-0.9
	c-0.9,0-0.9-0.9-1.8-0.9l-1.8-1.8c-0.9-0.9-2.8-1.8-3.7-2.8c0,0-0.9,0-0.9-0.9c-1.8,0-2.8,0-4.6,1.8c-0.9,0.9-0.9,1.8-0.9,2.8v0.9
	c0,0.9,0.9,1.8,1.8,1.8c0,0,0.9,0.9,1.8,0.9s0.9,0.9,1.8,0.9c1.8,0.9,3.7,1.8,4.6,2.8c4.6,3.7,10.1,7.4,13.8,10.1
	c3.7,0,5.5-2.8,6.4-4.6c2.8-3.7,5.5-7.4,9.2-10.1c9.2-10.1,17.5-21.2,25.8-32.2c0.9-0.9,2.8-2.8,2.8-4.6
	C674.4,101.4,674.4,99.5,672.5,98.6L672.5,98.6z M543.7,429.8c-2.8,0-4.6-0.9-7.4-0.9c-11,0-11,0-11,11v8.3c0,0.9,1.8,2.8,2.8,2.8
	h16.6c6.4-0.9,9.2-4.6,9.2-10.1C553.9,434.4,550.2,430.7,543.7,429.8L543.7,429.8z M542.8,397.6c-1.8,0-4.6-0.9-7.4-0.9
	c-10.1,0-10.1,0-10.1,10.1v7.4c0,0.9,0.9,2.8,1.8,2.8h15.6c5.5-0.9,8.3-4.6,8.3-10.1S548.3,398.5,542.8,397.6L542.8,397.6z
	 M485.8,430.7c-0.9-6.4-4.6-12-11-12.9c-5.5-0.9-10.1,3.7-12,10.1s-1.8,12,0,18.4c1.8,5.5,5.5,8.3,10.1,8.3s9.2-2.8,11-8.3
	c1.8-3.7,1.8-7.4,2.8-11C485.8,433.5,485.8,431.6,485.8,430.7L485.8,430.7z M409.4,402.2c-4.6,11-8.3,21.2-12,32.2h23
	C416.8,423.4,413.1,412.3,409.4,402.2L409.4,402.2z M249.3,183.2c-4.6,0-9.2,3.7-9.2,9.2c0,4.6,3.7,9.2,9.2,9.2
	c4.6,0,9.2-3.7,9.2-9.2S254.9,183.2,249.3,183.2z M672.5,98.6c-3.7-3.7-6.4,0.9-8.3,3.7c-9.2,10.1-18.4,21.2-27.6,32.2l-2.8,2.8
	l-1.8,1.8c-0.9,0.9-1.8,0.9-2.8,0.9h-0.9h-0.9c-1.8,0-4.6-0.9-7.4-2.8l-0.9-0.9c-0.9,0-0.9-0.9-1.8-0.9l-1.8-1.8
	c-0.9-0.9-2.8-1.8-3.7-2.8c0,0-0.9,0-0.9-0.9c-1.8,0-2.8,0-4.6,1.8c-0.9,0.9-0.9,1.8-0.9,2.8v0.9c0,0.9,0.9,1.8,1.8,1.8
	c0,0,0.9,0.9,1.8,0.9s0.9,0.9,1.8,0.9c1.8,0.9,3.7,1.8,4.6,2.8c4.6,3.7,10.1,7.4,13.8,10.1c3.7,0,5.5-2.8,6.4-4.6
	c2.8-3.7,5.5-7.4,9.2-10.1c9.2-10.1,17.5-21.2,25.8-32.2c0.9-0.9,2.8-2.8,2.8-4.6C674.4,101.4,674.4,99.5,672.5,98.6L672.5,98.6z
	 M249.3,183.2c-4.6,0-9.2,3.7-9.2,9.2c0,4.6,3.7,9.2,9.2,9.2c4.6,0,9.2-3.7,9.2-9.2S254.9,183.2,249.3,183.2z M409.4,402.2
	c-4.6,11-8.3,21.2-12,32.2h23C416.8,423.4,413.1,412.3,409.4,402.2L409.4,402.2z M485.8,430.7c-0.9-6.4-4.6-12-11-12.9
	c-5.5-0.9-10.1,3.7-12,10.1s-1.8,12,0,18.4c1.8,5.5,5.5,8.3,10.1,8.3s9.2-2.8,11-8.3c1.8-3.7,1.8-7.4,2.8-11
	C485.8,433.5,485.8,431.6,485.8,430.7L485.8,430.7z M542.8,397.6c-1.8,0-4.6-0.9-7.4-0.9c-10.1,0-10.1,0-10.1,10.1v7.4
	c0,0.9,0.9,2.8,1.8,2.8h15.6c5.5-0.9,8.3-4.6,8.3-10.1S548.3,398.5,542.8,397.6L542.8,397.6z M543.7,429.8c-2.8,0-4.6-0.9-7.4-0.9
	c-11,0-11,0-11,11v8.3c0,0.9,1.8,2.8,2.8,2.8h16.6c6.4-0.9,9.2-4.6,9.2-10.1C553.9,434.4,550.2,430.7,543.7,429.8L543.7,429.8z
	 M672.5,98.6c-3.7-3.7-6.4,0.9-8.3,3.7c-9.2,10.1-18.4,21.2-27.6,32.2l-2.8,2.8l-1.8,1.8c-0.9,0.9-1.8,0.9-2.8,0.9h-0.9h-0.9
	c-1.8,0-4.6-0.9-7.4-2.8l-0.9-0.9c-0.9,0-0.9-0.9-1.8-0.9l-1.8-1.8c-0.9-0.9-2.8-1.8-3.7-2.8c0,0-0.9,0-0.9-0.9
	c-1.8,0-2.8,0-4.6,1.8c-0.9,0.9-0.9,1.8-0.9,2.8v0.9c0,0.9,0.9,1.8,1.8,1.8c0,0,0.9,0.9,1.8,0.9s0.9,0.9,1.8,0.9
	c1.8,0.9,3.7,1.8,4.6,2.8c4.6,3.7,10.1,7.4,13.8,10.1c3.7,0,5.5-2.8,6.4-4.6c2.8-3.7,5.5-7.4,9.2-10.1c9.2-10.1,17.5-21.2,25.8-32.2
	c0.9-0.9,2.8-2.8,2.8-4.6C674.4,101.4,674.4,99.5,672.5,98.6L672.5,98.6z M543.7,429.8c-2.8,0-4.6-0.9-7.4-0.9c-11,0-11,0-11,11v8.3
	c0,0.9,1.8,2.8,2.8,2.8h16.6c6.4-0.9,9.2-4.6,9.2-10.1C553.9,434.4,550.2,430.7,543.7,429.8L543.7,429.8z M542.8,397.6
	c-1.8,0-4.6-0.9-7.4-0.9c-10.1,0-10.1,0-10.1,10.1v7.4c0,0.9,0.9,2.8,1.8,2.8h15.6c5.5-0.9,8.3-4.6,8.3-10.1
	S548.3,398.5,542.8,397.6L542.8,397.6z M485.8,430.7c-0.9-6.4-4.6-12-11-12.9c-5.5-0.9-10.1,3.7-12,10.1s-1.8,12,0,18.4
	c1.8,5.5,5.5,8.3,10.1,8.3s9.2-2.8,11-8.3c1.8-3.7,1.8-7.4,2.8-11C485.8,433.5,485.8,431.6,485.8,430.7L485.8,430.7z M409.4,402.2
	c-4.6,11-8.3,21.2-12,32.2h23C416.8,423.4,413.1,412.3,409.4,402.2L409.4,402.2z M249.3,183.2c-4.6,0-9.2,3.7-9.2,9.2
	c0,4.6,3.7,9.2,9.2,9.2c4.6,0,9.2-3.7,9.2-9.2S254.9,183.2,249.3,183.2z M672.5,98.6c-3.7-3.7-6.4,0.9-8.3,3.7
	c-9.2,10.1-18.4,21.2-27.6,32.2l-2.8,2.8l-1.8,1.8c-0.9,0.9-1.8,0.9-2.8,0.9h-0.9h-0.9c-1.8,0-4.6-0.9-7.4-2.8l-0.9-0.9
	c-0.9,0-0.9-0.9-1.8-0.9l-1.8-1.8c-0.9-0.9-2.8-1.8-3.7-2.8c0,0-0.9,0-0.9-0.9c-1.8,0-2.8,0-4.6,1.8c-0.9,0.9-0.9,1.8-0.9,2.8v0.9
	c0,0.9,0.9,1.8,1.8,1.8c0,0,0.9,0.9,1.8,0.9s0.9,0.9,1.8,0.9c1.8,0.9,3.7,1.8,4.6,2.8c4.6,3.7,10.1,7.4,13.8,10.1
	c3.7,0,5.5-2.8,6.4-4.6c2.8-3.7,5.5-7.4,9.2-10.1c9.2-10.1,17.5-21.2,25.8-32.2c0.9-0.9,2.8-2.8,2.8-4.6
	C674.4,101.4,674.4,99.5,672.5,98.6L672.5,98.6z M249.3,183.2c-4.6,0-9.2,3.7-9.2,9.2c0,4.6,3.7,9.2,9.2,9.2c4.6,0,9.2-3.7,9.2-9.2
	S254.9,183.2,249.3,183.2z M409.4,402.2c-4.6,11-8.3,21.2-12,32.2h23C416.8,423.4,413.1,412.3,409.4,402.2L409.4,402.2z
	 M485.8,430.7c-0.9-6.4-4.6-12-11-12.9c-5.5-0.9-10.1,3.7-12,10.1s-1.8,12,0,18.4c1.8,5.5,5.5,8.3,10.1,8.3s9.2-2.8,11-8.3
	c1.8-3.7,1.8-7.4,2.8-11C485.8,433.5,485.8,431.6,485.8,430.7L485.8,430.7z M542.8,397.6c-1.8,0-4.6-0.9-7.4-0.9
	c-10.1,0-10.1,0-10.1,10.1v7.4c0,0.9,0.9,2.8,1.8,2.8h15.6c5.5-0.9,8.3-4.6,8.3-10.1S548.3,398.5,542.8,397.6L542.8,397.6z
	 M543.7,429.8c-2.8,0-4.6-0.9-7.4-0.9c-11,0-11,0-11,11v8.3c0,0.9,1.8,2.8,2.8,2.8h16.6c6.4-0.9,9.2-4.6,9.2-10.1
	C553.9,434.4,550.2,430.7,543.7,429.8L543.7,429.8z M672.5,98.6c-3.7-3.7-6.4,0.9-8.3,3.7c-9.2,10.1-18.4,21.2-27.6,32.2l-2.8,2.8
	l-1.8,1.8c-0.9,0.9-1.8,0.9-2.8,0.9h-0.9h-0.9c-1.8,0-4.6-0.9-7.4-2.8l-0.9-0.9c-0.9,0-0.9-0.9-1.8-0.9l-1.8-1.8
	c-0.9-0.9-2.8-1.8-3.7-2.8c0,0-0.9,0-0.9-0.9c-1.8,0-2.8,0-4.6,1.8c-0.9,0.9-0.9,1.8-0.9,2.8v0.9c0,0.9,0.9,1.8,1.8,1.8
	c0,0,0.9,0.9,1.8,0.9s0.9,0.9,1.8,0.9c1.8,0.9,3.7,1.8,4.6,2.8c4.6,3.7,10.1,7.4,13.8,10.1c3.7,0,5.5-2.8,6.4-4.6
	c2.8-3.7,5.5-7.4,9.2-10.1c9.2-10.1,17.5-21.2,25.8-32.2c0.9-0.9,2.8-2.8,2.8-4.6C674.4,101.4,674.4,99.5,672.5,98.6L672.5,98.6z
	 M692.8,427c-0.9-5.5-3.7-9.2-9.2-10.1s-9.2,2.8-11,9.2c-0.9,2.8,0,4.6,2.8,4.6H690C691.9,430.7,693.7,429.8,692.8,427L692.8,427z
	 M672.5,98.6c-3.7-3.7-6.4,0.9-8.3,3.7c-9.2,10.1-18.4,21.2-27.6,32.2l-2.8,2.8l-1.8,1.8c-0.9,0.9-1.8,0.9-2.8,0.9h-0.9h-0.9
	c-1.8,0-4.6-0.9-7.4-2.8l-0.9-0.9c-0.9,0-0.9-0.9-1.8-0.9l-1.8-1.8c-0.9-0.9-2.8-1.8-3.7-2.8c0,0-0.9,0-0.9-0.9
	c-1.8,0-2.8,0-4.6,1.8c-0.9,0.9-0.9,1.8-0.9,2.8v0.9c0,0.9,0.9,1.8,1.8,1.8c0,0,0.9,0.9,1.8,0.9s0.9,0.9,1.8,0.9
	c1.8,0.9,3.7,1.8,4.6,2.8c4.6,3.7,10.1,7.4,13.8,10.1c3.7,0,5.5-2.8,6.4-4.6c2.8-3.7,5.5-7.4,9.2-10.1c9.2-10.1,17.5-21.2,25.8-32.2
	c0.9-0.9,2.8-2.8,2.8-4.6C674.4,101.4,674.4,99.5,672.5,98.6L672.5,98.6z M249.3,183.2c-4.6,0-9.2,3.7-9.2,9.2
	c0,4.6,3.7,9.2,9.2,9.2c4.6,0,9.2-3.7,9.2-9.2S254.8,183.2,249.3,183.2z M409.4,402.2c-4.6,11-8.3,21.2-12,32.2h23
	C416.8,423.4,413.1,412.3,409.4,402.2L409.4,402.2z M485.8,430.7c-0.9-6.4-4.6-12-11-12.9c-5.5-0.9-10.1,3.7-12,10.1s-1.8,12,0,18.4
	c1.8,5.5,5.5,8.3,10.1,8.3s9.2-2.8,11-8.3c1.8-3.7,1.8-7.4,2.8-11C485.8,433.5,485.8,431.6,485.8,430.7L485.8,430.7z M542.8,397.6
	c-1.8,0-4.6-0.9-7.4-0.9c-10.1,0-10.1,0-10.1,10.1v7.4c0,0.9,0.9,2.8,1.8,2.8h15.6c5.5-0.9,8.3-4.6,8.3-10.1
	S548.3,398.5,542.8,397.6L542.8,397.6z M543.7,429.8c-2.8,0-4.6-0.9-7.4-0.9c-11,0-11,0-11,11v8.3c0,0.9,1.8,2.8,2.8,2.8h16.6
	c6.4-0.9,9.2-4.6,9.2-10.1C553.9,434.4,550.2,430.7,543.7,429.8L543.7,429.8z M672.5,98.6c-3.7-3.7-6.4,0.9-8.3,3.7
	c-9.2,10.1-18.4,21.2-27.6,32.2l-2.8,2.8l-1.8,1.8c-0.9,0.9-1.8,0.9-2.8,0.9h-0.9h-0.9c-1.8,0-4.6-0.9-7.4-2.8l-0.9-0.9
	c-0.9,0-0.9-0.9-1.8-0.9l-1.8-1.8c-0.9-0.9-2.8-1.8-3.7-2.8c0,0-0.9,0-0.9-0.9c-1.8,0-2.8,0-4.6,1.8c-0.9,0.9-0.9,1.8-0.9,2.8v0.9
	c0,0.9,0.9,1.8,1.8,1.8c0,0,0.9,0.9,1.8,0.9s0.9,0.9,1.8,0.9c1.8,0.9,3.7,1.8,4.6,2.8c4.6,3.7,10.1,7.4,13.8,10.1
	c3.7,0,5.5-2.8,6.4-4.6c2.8-3.7,5.5-7.4,9.2-10.1c9.2-10.1,17.5-21.2,25.8-32.2c0.9-0.9,2.8-2.8,2.8-4.6
	C674.4,101.4,674.4,99.5,672.5,98.6L672.5,98.6z M543.7,429.8c-2.8,0-4.6-0.9-7.4-0.9c-11,0-11,0-11,11v8.3c0,0.9,1.8,2.8,2.8,2.8
	h16.6c6.4-0.9,9.2-4.6,9.2-10.1C553.9,434.4,550.2,430.7,543.7,429.8L543.7,429.8z M542.8,397.6c-1.8,0-4.6-0.9-7.4-0.9
	c-10.1,0-10.1,0-10.1,10.1v7.4c0,0.9,0.9,2.8,1.8,2.8h15.6c5.5-0.9,8.3-4.6,8.3-10.1S548.3,398.5,542.8,397.6L542.8,397.6z
	 M485.8,430.7c-0.9-6.4-4.6-12-11-12.9c-5.5-0.9-10.1,3.7-12,10.1s-1.8,12,0,18.4c1.8,5.5,5.5,8.3,10.1,8.3s9.2-2.8,11-8.3
	c1.8-3.7,1.8-7.4,2.8-11C485.8,433.5,485.8,431.6,485.8,430.7L485.8,430.7z M409.4,402.2c-4.6,11-8.3,21.2-12,32.2h23
	C416.8,423.4,413.1,412.3,409.4,402.2L409.4,402.2z M249.3,183.2c-4.6,0-9.2,3.7-9.2,9.2c0,4.6,3.7,9.2,9.2,9.2
	c4.6,0,9.2-3.7,9.2-9.2S254.9,183.2,249.3,183.2z M672.5,98.6c-3.7-3.7-6.4,0.9-8.3,3.7c-9.2,10.1-18.4,21.2-27.6,32.2l-2.8,2.8
	l-1.8,1.8c-0.9,0.9-1.8,0.9-2.8,0.9h-0.9h-0.9c-1.8,0-4.6-0.9-7.4-2.8l-0.9-0.9c-0.9,0-0.9-0.9-1.8-0.9l-1.8-1.8
	c-0.9-0.9-2.8-1.8-3.7-2.8c0,0-0.9,0-0.9-0.9c-1.8,0-2.8,0-4.6,1.8c-0.9,0.9-0.9,1.8-0.9,2.8v0.9c0,0.9,0.9,1.8,1.8,1.8
	c0,0,0.9,0.9,1.8,0.9s0.9,0.9,1.8,0.9c1.8,0.9,3.7,1.8,4.6,2.8c4.6,3.7,10.1,7.4,13.8,10.1c3.7,0,5.5-2.8,6.4-4.6
	c2.8-3.7,5.5-7.4,9.2-10.1c9.2-10.1,17.5-21.2,25.8-32.2c0.9-0.9,2.8-2.8,2.8-4.6C674.4,101.4,674.4,99.5,672.5,98.6L672.5,98.6z
	 M249.3,183.2c-4.6,0-9.2,3.7-9.2,9.2c0,4.6,3.7,9.2,9.2,9.2c4.6,0,9.2-3.7,9.2-9.2S254.9,183.2,249.3,183.2z M409.4,402.2
	c-4.6,11-8.3,21.2-12,32.2h23C416.8,423.4,413.1,412.3,409.4,402.2L409.4,402.2z M485.8,430.7c-0.9-6.4-4.6-12-11-12.9
	c-5.5-0.9-10.1,3.7-12,10.1s-1.8,12,0,18.4c1.8,5.5,5.5,8.3,10.1,8.3s9.2-2.8,11-8.3c1.8-3.7,1.8-7.4,2.8-11
	C485.8,433.5,485.8,431.6,485.8,430.7L485.8,430.7z M542.8,397.6c-1.8,0-4.6-0.9-7.4-0.9c-10.1,0-10.1,0-10.1,10.1v7.4
	c0,0.9,0.9,2.8,1.8,2.8h15.6c5.5-0.9,8.3-4.6,8.3-10.1S548.3,398.5,542.8,397.6L542.8,397.6z M543.7,429.8c-2.8,0-4.6-0.9-7.4-0.9
	c-11,0-11,0-11,11v8.3c0,0.9,1.8,2.8,2.8,2.8h16.6c6.4-0.9,9.2-4.6,9.2-10.1C553.9,434.4,550.2,430.7,543.7,429.8L543.7,429.8z
	 M672.5,98.6c-3.7-3.7-6.4,0.9-8.3,3.7c-9.2,10.1-18.4,21.2-27.6,32.2l-2.8,2.8l-1.8,1.8c-0.9,0.9-1.8,0.9-2.8,0.9h-0.9h-0.9
	c-1.8,0-4.6-0.9-7.4-2.8l-0.9-0.9c-0.9,0-0.9-0.9-1.8-0.9l-1.8-1.8c-0.9-0.9-2.8-1.8-3.7-2.8c0,0-0.9,0-0.9-0.9
	c-1.8,0-2.8,0-4.6,1.8c-0.9,0.9-0.9,1.8-0.9,2.8v0.9c0,0.9,0.9,1.8,1.8,1.8c0,0,0.9,0.9,1.8,0.9s0.9,0.9,1.8,0.9
	c1.8,0.9,3.7,1.8,4.6,2.8c4.6,3.7,10.1,7.4,13.8,10.1c3.7,0,5.5-2.8,6.4-4.6c2.8-3.7,5.5-7.4,9.2-10.1c9.2-10.1,17.5-21.2,25.8-32.2
	c0.9-0.9,2.8-2.8,2.8-4.6C674.4,101.4,674.4,99.5,672.5,98.6L672.5,98.6z M543.7,429.8c-2.8,0-4.6-0.9-7.4-0.9c-11,0-11,0-11,11v8.3
	c0,0.9,1.8,2.8,2.8,2.8h16.6c6.4-0.9,9.2-4.6,9.2-10.1C553.9,434.4,550.2,430.7,543.7,429.8L543.7,429.8z M542.8,397.6
	c-1.8,0-4.6-0.9-7.4-0.9c-10.1,0-10.1,0-10.1,10.1v7.4c0,0.9,0.9,2.8,1.8,2.8h15.6c5.5-0.9,8.3-4.6,8.3-10.1
	S548.3,398.5,542.8,397.6L542.8,397.6z M485.8,430.7c-0.9-6.4-4.6-12-11-12.9c-5.5-0.9-10.1,3.7-12,10.1s-1.8,12,0,18.4
	c1.8,5.5,5.5,8.3,10.1,8.3s9.2-2.8,11-8.3c1.8-3.7,1.8-7.4,2.8-11C485.8,433.5,485.8,431.6,485.8,430.7L485.8,430.7z M409.4,402.2
	c-4.6,11-8.3,21.2-12,32.2h23C416.8,423.4,413.1,412.3,409.4,402.2L409.4,402.2z M249.3,183.2c-4.6,0-9.2,3.7-9.2,9.2
	c0,4.6,3.7,9.2,9.2,9.2c4.6,0,9.2-3.7,9.2-9.2S254.9,183.2,249.3,183.2z M672.5,98.6c-3.7-3.7-6.4,0.9-8.3,3.7
	c-9.2,10.1-18.4,21.2-27.6,32.2l-2.8,2.8l-1.8,1.8c-0.9,0.9-1.8,0.9-2.8,0.9h-0.9h-0.9c-1.8,0-4.6-0.9-7.4-2.8l-0.9-0.9
	c-0.9,0-0.9-0.9-1.8-0.9l-1.8-1.8c-0.9-0.9-2.8-1.8-3.7-2.8c0,0-0.9,0-0.9-0.9c-1.8,0-2.8,0-4.6,1.8c-0.9,0.9-0.9,1.8-0.9,2.8v0.9
	c0,0.9,0.9,1.8,1.8,1.8c0,0,0.9,0.9,1.8,0.9s0.9,0.9,1.8,0.9c1.8,0.9,3.7,1.8,4.6,2.8c4.6,3.7,10.1,7.4,13.8,10.1
	c3.7,0,5.5-2.8,6.4-4.6c2.8-3.7,5.5-7.4,9.2-10.1c9.2-10.1,17.5-21.2,25.8-32.2c0.9-0.9,2.8-2.8,2.8-4.6
	C674.4,101.4,674.4,99.5,672.5,98.6L672.5,98.6z M249.3,183.2c-4.6,0-9.2,3.7-9.2,9.2c0,4.6,3.7,9.2,9.2,9.2c4.6,0,9.2-3.7,9.2-9.2
	S254.9,183.2,249.3,183.2z M485.8,430.7c-0.9-6.4-4.6-12-11-12.9c-5.5-0.9-10.1,3.7-12,10.1s-1.8,12,0,18.4
	c1.8,5.5,5.5,8.3,10.1,8.3s9.2-2.8,11-8.3c1.8-3.7,1.8-7.4,2.8-11C485.8,433.5,485.8,431.6,485.8,430.7L485.8,430.7z M542.8,397.6
	c-1.8,0-4.6-0.9-7.4-0.9c-10.1,0-10.1,0-10.1,10.1v7.4c0,0.9,0.9,2.8,1.8,2.8h15.6c5.5-0.9,8.3-4.6,8.3-10.1
	S548.3,398.5,542.8,397.6L542.8,397.6z M543.7,429.8c-2.8,0-4.6-0.9-7.4-0.9c-11,0-11,0-11,11v8.3c0,0.9,1.8,2.8,2.8,2.8h16.6
	c6.4-0.9,9.2-4.6,9.2-10.1C553.9,434.4,550.2,430.7,543.7,429.8L543.7,429.8z M672.5,98.6c-3.7-3.7-6.4,0.9-8.3,3.7
	c-9.2,10.1-18.4,21.2-27.6,32.2l-2.8,2.8l-1.8,1.8c-0.9,0.9-1.8,0.9-2.8,0.9h-0.9h-0.9c-1.8,0-4.6-0.9-7.4-2.8l-0.9-0.9
	c-0.9,0-0.9-0.9-1.8-0.9l-1.8-1.8c-0.9-0.9-2.8-1.8-3.7-2.8c0,0-0.9,0-0.9-0.9c-1.8,0-2.8,0-4.6,1.8c-0.9,0.9-0.9,1.8-0.9,2.8v0.9
	c0,0.9,0.9,1.8,1.8,1.8c0,0,0.9,0.9,1.8,0.9s0.9,0.9,1.8,0.9c1.8,0.9,3.7,1.8,4.6,2.8c4.6,3.7,10.1,7.4,13.8,10.1
	c3.7,0,5.5-2.8,6.4-4.6c2.8-3.7,5.5-7.4,9.2-10.1c9.2-10.1,17.5-21.2,25.8-32.2c0.9-0.9,2.8-2.8,2.8-4.6
	C674.4,101.4,674.4,99.5,672.5,98.6L672.5,98.6z M543.7,429.8c-2.8,0-4.6-0.9-7.4-0.9c-11,0-11,0-11,11v8.3c0,0.9,1.8,2.8,2.8,2.8
	h16.6c6.4-0.9,9.2-4.6,9.2-10.1C553.9,434.4,550.2,430.7,543.7,429.8L543.7,429.8z M542.8,397.6c-1.8,0-4.6-0.9-7.4-0.9
	c-10.1,0-10.1,0-10.1,10.1v7.4c0,0.9,0.9,2.8,1.8,2.8h15.6c5.5-0.9,8.3-4.6,8.3-10.1S548.3,398.5,542.8,397.6L542.8,397.6z
	 M485.8,430.7c-0.9-6.4-4.6-12-11-12.9c-5.5-0.9-10.1,3.7-12,10.1s-1.8,12,0,18.4c1.8,5.5,5.5,8.3,10.1,8.3s9.2-2.8,11-8.3
	c1.8-3.7,1.8-7.4,2.8-11C485.8,433.5,485.8,431.6,485.8,430.7L485.8,430.7z M249.3,183.2c-4.6,0-9.2,3.7-9.2,9.2
	c0,4.6,3.7,9.2,9.2,9.2c4.6,0,9.2-3.7,9.2-9.2S254.9,183.2,249.3,183.2z M672.5,98.6c-3.7-3.7-6.4,0.9-8.3,3.7
	c-9.2,10.1-18.4,21.2-27.6,32.2l-2.8,2.8l-1.8,1.8c-0.9,0.9-1.8,0.9-2.8,0.9h-0.9h-0.9c-1.8,0-4.6-0.9-7.4-2.8l-0.9-0.9
	c-0.9,0-0.9-0.9-1.8-0.9l-1.8-1.8c-0.9-0.9-2.8-1.8-3.7-2.8c0,0-0.9,0-0.9-0.9c-1.8,0-2.8,0-4.6,1.8c-0.9,0.9-0.9,1.8-0.9,2.8v0.9
	c0,0.9,0.9,1.8,1.8,1.8c0,0,0.9,0.9,1.8,0.9s0.9,0.9,1.8,0.9c1.8,0.9,3.7,1.8,4.6,2.8c4.6,3.7,10.1,7.4,13.8,10.1
	c3.7,0,5.5-2.8,6.4-4.6c2.8-3.7,5.5-7.4,9.2-10.1c9.2-10.1,17.5-21.2,25.8-32.2c0.9-0.9,2.8-2.8,2.8-4.6
	C674.4,101.4,674.4,99.5,672.5,98.6L672.5,98.6z M249.3,183.2c-4.6,0-9.2,3.7-9.2,9.2c0,4.6,3.7,9.2,9.2,9.2c4.6,0,9.2-3.7,9.2-9.2
	S254.9,183.2,249.3,183.2z M485.8,430.7c-0.9-6.4-4.6-12-11-12.9c-5.5-0.9-10.1,3.7-12,10.1s-1.8,12,0,18.4
	c1.8,5.5,5.5,8.3,10.1,8.3s9.2-2.8,11-8.3c1.8-3.7,1.8-7.4,2.8-11C485.8,433.5,485.8,431.6,485.8,430.7L485.8,430.7z M542.8,397.6
	c-1.8,0-4.6-0.9-7.4-0.9c-10.1,0-10.1,0-10.1,10.1v7.4c0,0.9,0.9,2.8,1.8,2.8h15.6c5.5-0.9,8.3-4.6,8.3-10.1
	S548.3,398.5,542.8,397.6L542.8,397.6z M543.7,429.8c-2.8,0-4.6-0.9-7.4-0.9c-11,0-11,0-11,11v8.3c0,0.9,1.8,2.8,2.8,2.8h16.6
	c6.4-0.9,9.2-4.6,9.2-10.1C553.9,434.4,550.2,430.7,543.7,429.8L543.7,429.8z M672.5,98.6c-3.7-3.7-6.4,0.9-8.3,3.7
	c-9.2,10.1-18.4,21.2-27.6,32.2l-2.8,2.8l-1.8,1.8c-0.9,0.9-1.8,0.9-2.8,0.9h-0.9h-0.9c-1.8,0-4.6-0.9-7.4-2.8l-0.9-0.9
	c-0.9,0-0.9-0.9-1.8-0.9l-1.8-1.8c-0.9-0.9-2.8-1.8-3.7-2.8c0,0-0.9,0-0.9-0.9c-1.8,0-2.8,0-4.6,1.8c-0.9,0.9-0.9,1.8-0.9,2.8v0.9
	c0,0.9,0.9,1.8,1.8,1.8c0,0,0.9,0.9,1.8,0.9s0.9,0.9,1.8,0.9c1.8,0.9,3.7,1.8,4.6,2.8c4.6,3.7,10.1,7.4,13.8,10.1
	c3.7,0,5.5-2.8,6.4-4.6c2.8-3.7,5.5-7.4,9.2-10.1c9.2-10.1,17.5-21.2,25.8-32.2c0.9-0.9,2.8-2.8,2.8-4.6
	C674.4,101.4,674.4,99.5,672.5,98.6L672.5,98.6z M543.7,429.8c-2.8,0-4.6-0.9-7.4-0.9c-11,0-11,0-11,11v8.3c0,0.9,1.8,2.8,2.8,2.8
	h16.6c6.4-0.9,9.2-4.6,9.2-10.1C553.9,434.4,550.2,430.7,543.7,429.8L543.7,429.8z M542.8,397.6c-1.8,0-4.6-0.9-7.4-0.9
	c-10.1,0-10.1,0-10.1,10.1v7.4c0,0.9,0.9,2.8,1.8,2.8h15.6c5.5-0.9,8.3-4.6,8.3-10.1S548.3,398.5,542.8,397.6L542.8,397.6z
	 M485.8,430.7c-0.9-6.4-4.6-12-11-12.9c-5.5-0.9-10.1,3.7-12,10.1s-1.8,12,0,18.4c1.8,5.5,5.5,8.3,10.1,8.3s9.2-2.8,11-8.3
	c1.8-3.7,1.8-7.4,2.8-11C485.8,433.5,485.8,431.6,485.8,430.7L485.8,430.7z M249.3,183.2c-4.6,0-9.2,3.7-9.2,9.2
	c0,4.6,3.7,9.2,9.2,9.2c4.6,0,9.2-3.7,9.2-9.2S254.9,183.2,249.3,183.2z M672.5,98.6c-3.7-3.7-6.4,0.9-8.3,3.7
	c-9.2,10.1-18.4,21.2-27.6,32.2l-2.8,2.8l-1.8,1.8c-0.9,0.9-1.8,0.9-2.8,0.9h-0.9h-0.9c-1.8,0-4.6-0.9-7.4-2.8l-0.9-0.9
	c-0.9,0-0.9-0.9-1.8-0.9l-1.8-1.8c-0.9-0.9-2.8-1.8-3.7-2.8c0,0-0.9,0-0.9-0.9c-1.8,0-2.8,0-4.6,1.8c-0.9,0.9-0.9,1.8-0.9,2.8v0.9
	c0,0.9,0.9,1.8,1.8,1.8c0,0,0.9,0.9,1.8,0.9s0.9,0.9,1.8,0.9c1.8,0.9,3.7,1.8,4.6,2.8c4.6,3.7,10.1,7.4,13.8,10.1
	c3.7,0,5.5-2.8,6.4-4.6c2.8-3.7,5.5-7.4,9.2-10.1c9.2-10.1,17.5-21.2,25.8-32.2c0.9-0.9,2.8-2.8,2.8-4.6
	C674.4,101.4,674.4,99.5,672.5,98.6L672.5,98.6z M485.8,430.7c-0.9-6.4-4.6-12-11-12.9c-5.5-0.9-10.1,3.7-12,10.1s-1.8,12,0,18.4
	c1.8,5.5,5.5,8.3,10.1,8.3s9.2-2.8,11-8.3c1.8-3.7,1.8-7.4,2.8-11C485.8,433.5,485.8,431.6,485.8,430.7L485.8,430.7z M542.8,397.6
	c-1.8,0-4.6-0.9-7.4-0.9c-10.1,0-10.1,0-10.1,10.1v7.4c0,0.9,0.9,2.8,1.8,2.8h15.6c5.5-0.9,8.3-4.6,8.3-10.1
	S548.3,398.5,542.8,397.6L542.8,397.6z M543.7,429.8c-2.8,0-4.6-0.9-7.4-0.9c-11,0-11,0-11,11v8.3c0,0.9,1.8,2.8,2.8,2.8h16.6
	c6.4-0.9,9.2-4.6,9.2-10.1C553.9,434.4,550.2,430.7,543.7,429.8L543.7,429.8z M672.5,98.6c-3.7-3.7-6.4,0.9-8.3,3.7
	c-9.2,10.1-18.4,21.2-27.6,32.2l-2.8,2.8l-1.8,1.8c-0.9,0.9-1.8,0.9-2.8,0.9h-0.9h-0.9c-1.8,0-4.6-0.9-7.4-2.8l-0.9-0.9
	c-0.9,0-0.9-0.9-1.8-0.9l-1.8-1.8c-0.9-0.9-2.8-1.8-3.7-2.8c0,0-0.9,0-0.9-0.9c-1.8,0-2.8,0-4.6,1.8c-0.9,0.9-0.9,1.8-0.9,2.8v0.9
	c0,0.9,0.9,1.8,1.8,1.8c0,0,0.9,0.9,1.8,0.9s0.9,0.9,1.8,0.9c1.8,0.9,3.7,1.8,4.6,2.8c4.6,3.7,10.1,7.4,13.8,10.1
	c3.7,0,5.5-2.8,6.4-4.6c2.8-3.7,5.5-7.4,9.2-10.1c9.2-10.1,17.5-21.2,25.8-32.2c0.9-0.9,2.8-2.8,2.8-4.6
	C674.4,101.4,674.4,99.5,672.5,98.6L672.5,98.6z M543.7,429.8c-2.8,0-4.6-0.9-7.4-0.9c-11,0-11,0-11,11v8.3c0,0.9,1.8,2.8,2.8,2.8
	h16.6c6.4-0.9,9.2-4.6,9.2-10.1C553.9,434.4,550.2,430.7,543.7,429.8L543.7,429.8z M542.8,397.6c-1.8,0-4.6-0.9-7.4-0.9
	c-10.1,0-10.1,0-10.1,10.1v7.4c0,0.9,0.9,2.8,1.8,2.8h15.6c5.5-0.9,8.3-4.6,8.3-10.1S548.3,398.5,542.8,397.6L542.8,397.6z
	 M485.8,430.7c-0.9-6.4-4.6-12-11-12.9c-5.5-0.9-10.1,3.7-12,10.1s-1.8,12,0,18.4c1.8,5.5,5.5,8.3,10.1,8.3s9.2-2.8,11-8.3
	c1.8-3.7,1.8-7.4,2.8-11C485.8,433.5,485.8,431.6,485.8,430.7L485.8,430.7z M672.5,98.6c-3.7-3.7-6.4,0.9-8.3,3.7
	c-9.2,10.1-18.4,21.2-27.6,32.2l-2.8,2.8l-1.8,1.8c-0.9,0.9-1.8,0.9-2.8,0.9h-0.9h-0.9c-1.8,0-4.6-0.9-7.4-2.8l-0.9-0.9
	c-0.9,0-0.9-0.9-1.8-0.9l-1.8-1.8c-0.9-0.9-2.8-1.8-3.7-2.8c0,0-0.9,0-0.9-0.9c-1.8,0-2.8,0-4.6,1.8c-0.9,0.9-0.9,1.8-0.9,2.8v0.9
	c0,0.9,0.9,1.8,1.8,1.8c0,0,0.9,0.9,1.8,0.9s0.9,0.9,1.8,0.9c1.8,0.9,3.7,1.8,4.6,2.8c4.6,3.7,10.1,7.4,13.8,10.1
	c3.7,0,5.5-2.8,6.4-4.6c2.8-3.7,5.5-7.4,9.2-10.1c9.2-10.1,17.5-21.2,25.8-32.2c0.9-0.9,2.8-2.8,2.8-4.6
	C674.4,101.4,674.4,99.5,672.5,98.6L672.5,98.6z M485.8,430.7c-0.9-6.4-4.6-12-11-12.9c-5.5-0.9-10.1,3.7-12,10.1s-1.8,12,0,18.4
	c1.8,5.5,5.5,8.3,10.1,8.3s9.2-2.8,11-8.3c1.8-3.7,1.8-7.4,2.8-11C485.8,433.5,485.8,431.6,485.8,430.7L485.8,430.7z M542.8,397.6
	c-1.8,0-4.6-0.9-7.4-0.9c-10.1,0-10.1,0-10.1,10.1v7.4c0,0.9,0.9,2.8,1.8,2.8h15.6c5.5-0.9,8.3-4.6,8.3-10.1
	S548.3,398.5,542.8,397.6L542.8,397.6z M543.7,429.8c-2.8,0-4.6-0.9-7.4-0.9c-11,0-11,0-11,11v8.3c0,0.9,1.8,2.8,2.8,2.8h16.6
	c6.4-0.9,9.2-4.6,9.2-10.1C553.9,434.4,550.2,430.7,543.7,429.8L543.7,429.8z M672.5,98.6c-3.7-3.7-6.4,0.9-8.3,3.7
	c-9.2,10.1-18.4,21.2-27.6,32.2l-2.8,2.8l-1.8,1.8c-0.9,0.9-1.8,0.9-2.8,0.9h-0.9h-0.9c-1.8,0-4.6-0.9-7.4-2.8l-0.9-0.9
	c-0.9,0-0.9-0.9-1.8-0.9l-1.8-1.8c-0.9-0.9-2.8-1.8-3.7-2.8c0,0-0.9,0-0.9-0.9c-1.8,0-2.8,0-4.6,1.8c-0.9,0.9-0.9,1.8-0.9,2.8v0.9
	c0,0.9,0.9,1.8,1.8,1.8c0,0,0.9,0.9,1.8,0.9s0.9,0.9,1.8,0.9c1.8,0.9,3.7,1.8,4.6,2.8c4.6,3.7,10.1,7.4,13.8,10.1
	c3.7,0,5.5-2.8,6.4-4.6c2.8-3.7,5.5-7.4,9.2-10.1c9.2-10.1,17.5-21.2,25.8-32.2c0.9-0.9,2.8-2.8,2.8-4.6
	C674.4,101.4,674.4,99.5,672.5,98.6L672.5,98.6z M543.7,429.8c-2.8,0-4.6-0.9-7.4-0.9c-11,0-11,0-11,11v8.3c0,0.9,1.8,2.8,2.8,2.8
	h16.6c6.4-0.9,9.2-4.6,9.2-10.1C553.9,434.4,550.2,430.7,543.7,429.8L543.7,429.8z M542.8,397.6c-1.8,0-4.6-0.9-7.4-0.9
	c-10.1,0-10.1,0-10.1,10.1v7.4c0,0.9,0.9,2.8,1.8,2.8h15.6c5.5-0.9,8.3-4.6,8.3-10.1S548.3,398.5,542.8,397.6L542.8,397.6z
	 M485.8,430.7c-0.9-6.4-4.6-12-11-12.9c-5.5-0.9-10.1,3.7-12,10.1s-1.8,12,0,18.4c1.8,5.5,5.5,8.3,10.1,8.3s9.2-2.8,11-8.3
	c1.8-3.7,1.8-7.4,2.8-11C485.8,433.5,485.8,431.6,485.8,430.7L485.8,430.7z M672.5,98.6c-3.7-3.7-6.4,0.9-8.3,3.7
	c-9.2,10.1-18.4,21.2-27.6,32.2l-2.8,2.8l-1.8,1.8c-0.9,0.9-1.8,0.9-2.8,0.9h-0.9h-0.9c-1.8,0-4.6-0.9-7.4-2.8l-0.9-0.9
	c-0.9,0-0.9-0.9-1.8-0.9l-1.8-1.8c-0.9-0.9-2.8-1.8-3.7-2.8c0,0-0.9,0-0.9-0.9c-1.8,0-2.8,0-4.6,1.8c-0.9,0.9-0.9,1.8-0.9,2.8v0.9
	c0,0.9,0.9,1.8,1.8,1.8c0,0,0.9,0.9,1.8,0.9s0.9,0.9,1.8,0.9c1.8,0.9,3.7,1.8,4.6,2.8c4.6,3.7,10.1,7.4,13.8,10.1
	c3.7,0,5.5-2.8,6.4-4.6c2.8-3.7,5.5-7.4,9.2-10.1c9.2-10.1,17.5-21.2,25.8-32.2c0.9-0.9,2.8-2.8,2.8-4.6
	C674.4,101.4,674.4,99.5,672.5,98.6L672.5,98.6z M672.5,98.6c-3.7-3.7-6.4,0.9-8.3,3.7c-9.2,10.1-18.4,21.2-27.6,32.2l-2.8,2.8
	l-1.8,1.8c-0.9,0.9-1.8,0.9-2.8,0.9h-0.9h-0.9c-1.8,0-4.6-0.9-7.4-2.8l-0.9-0.9c-0.9,0-0.9-0.9-1.8-0.9l-1.8-1.8
	c-0.9-0.9-2.8-1.8-3.7-2.8c0,0-0.9,0-0.9-0.9c-1.8,0-2.8,0-4.6,1.8c-0.9,0.9-0.9,1.8-0.9,2.8v0.9c0,0.9,0.9,1.8,1.8,1.8
	c0,0,0.9,0.9,1.8,0.9s0.9,0.9,1.8,0.9c1.8,0.9,3.7,1.8,4.6,2.8c4.6,3.7,10.1,7.4,13.8,10.1c3.7,0,5.5-2.8,6.4-4.6
	c2.8-3.7,5.5-7.4,9.2-10.1c9.2-10.1,17.5-21.2,25.8-32.2c0.9-0.9,2.8-2.8,2.8-4.6C674.4,101.4,674.4,99.5,672.5,98.6L672.5,98.6z
	 M881.4,2.9H115c-17.5,0-31.3,13.8-31.3,31.3v456.3c0,17.5,13.8,31.3,31.3,31.3h766.4c17.5,0,32.2-14.7,31.3-31.3V34.2
	C912.7,16.7,898.9,2.9,881.4,2.9z M633,59h12.9c15.6,1.8,30.4,8.3,40.5,19.3l4.6,4.6c0.9,0.9,1.8,2.8,2.8,3.7
	c2.8,3.7,4.6,8.3,6.4,12.9c2.8,8.3,4.6,17.5,4.6,26.7s-1.8,17.5-5.5,25.8c-1.8,3.7-3.7,7.4-6.4,11c-0.9,1.8-2.8,3.7-3.7,4.6
	l-3.7,3.7l-3.7,3.7c-5.5,4.6-11,8.3-17.5,11c-3.7,0.9-6.4,2.8-10.1,3.7c-2.8,0.9-4.6,0.9-7.4,0.9h-8.3
	c-35.9-0.9-66.2-31.3-66.2-67.2C573.2,91.2,599.9,62.7,633,59L633,59z M135.2,32.3c12.9,0,23.9,11,23.9,23.9s-11,23.9-23.9,23.9
	s-23.9-11-23.9-23.9S122.4,32.3,135.2,32.3z M135.2,498.8c-12.9,0-23.9-11-23.9-23.9s11-23.9,23.9-23.9s23.9,11,23.9,23.9
	S148.1,498.8,135.2,498.8z M275.1,346.1c0.9,9.2-6.4,15.6-15.6,15.6H147.2c-9.2,0-15.6-7.4-15.6-15.6v-55.2
	c0-9.2,7.4-15.6,15.6-15.6h112.2c9.2,0,15.6,7.4,15.6,15.6L275.1,346.1L275.1,346.1z M275.1,239.4c0.9,8.3-6.4,15.6-15.6,15.6H147.2
	c-9.2,0-15.6-7.4-15.6-15.6v-55.2c0-9.2,7.4-15.6,15.6-15.6h112.2c9.2,0,15.6,7.4,15.6,15.6L275.1,239.4L275.1,239.4z M431.5,462.9
	c-0.9,0-1.8-1.8-2.8-2.8c-1.8-3.7-2.8-7.4-3.7-11c-0.9-0.9-2.8-2.8-3.7-2.8h-25.8c-0.9,0-2.8,1.8-3.7,2.8s-0.9,2.8-1.8,3.7
	c-2.8,11-5.5,12-17.5,9.2c2.8-9.2,6.4-17.5,9.2-26.7c5.5-15.6,11-30.4,16.6-46c0.9-2.8,1.8-3.7,5.5-3.7c4.6,0,11-0.9,14.7,0.9
	c3.7,2.8,3.7,9.2,5.5,13.8c6.4,18.4,12.9,36.8,19.3,56.1c0.9,1.8,0.9,3.7,1.8,6.4L431.5,462.9L431.5,462.9z M501.4,462.9h-14.7
	c0-1.8-0.9-4.6-0.9-7.4c-4.6,5.5-9.2,8.3-15.6,8.3c-12,0-19.3-6.4-22.1-17.5c-1.8-8.3-0.9-15.6,1.8-23c5.5-15.6,25.8-17.5,34-9.2
	c0,0.9,0.9,0.9,2.8,1.8v-29.4h14.7L501.4,462.9L501.4,462.9z M471.1,292.7c8.3,11,18.4,21.2,27.6,30.4c2.8,2.8,7.4,4.6,5.5,9.2v0.9
	c-2.8,2.8-7.4,3.7-10.1,3.7c-26.7,2.8-51.5-2.8-72.7-20.2c-14.7-12-25.8-25.8-33.1-40.5c-0.9-1.8-1.8-4.6-2.8-6.4
	c-12-26.7-13.8-58-8.3-90.2c1.8-12.9,5.5-24.8,9.2-36.8c7.4-23.9,7.4-47.8,0-70.8c-3.7-10.1-0.9-12.9,9.2-10.1
	c69,19.3,125.1,54.3,161.9,114.1c3.7,6.4,7.4,13.8,11,20.2c0.9,0.9,0.9,1.8,1.8,2.8c3.7,8.3,1.8,9.2-9.2,15.6
	C529,235.7,506,267.9,516.1,312c0,0.9,0.9,1.8,0.9,2.8v0.9c0,0.9-0.9,0.9-1.8,1.8c-3.7-2.8-6.4-5.5-9.2-8.3l-5.5-5.5
	c-6.4-7.4-12.9-13.8-18.4-22.1c-0.9-0.9-1.8-2.8-2.8-3.7c-2.8-4.6-5.5-8.3-8.3-12.9c-0.9-1.8-1.8-2.8-2.8-4.6l-2.8-5.5
	c-11-23.9-16.6-51.5-19.3-80c-1.8,0.9-2.8,1.8-3.7,2.8c-1.8,0.9-1.8,2.8-1.8,3.7C441.6,221.9,445.3,260.5,471.1,292.7L471.1,292.7z
	 M552.9,462.9c-3.7,0.9-7.4,1.8-11,1.8c-10.1-1.8-20.2-1.8-32.2-1.8v-76.4h12.9c8.3,0,17.5,0,25.8,0.9c9.2,0.9,14.7,6.4,16.6,14.7
	c1.8,9.2-0.9,14.7-10.1,20.2c-0.9,0-0.9,0.9-2.8,1.8c0.9,0.9,1.8,0.9,2.8,0.9c9.2,2.8,13.8,9.2,12.9,19.3
	C567.7,452.8,561.2,461.1,552.9,462.9L552.9,462.9z M591.6,457.4c0,3.7-0.9,5.5-4.6,4.6h-9.2v-76.4h11c0.9,0,2.8,1.8,2.8,3.7V457.4z
	 M652.3,462.9H644c-6.4,0-6.4,0-7.4-6.4c-1.8,0.9-2.8,2.8-3.7,3.7c-9.2,8.3-26.7,4.6-30.4-7.4c-0.9-2.8-0.9-5.5-0.9-8.3v-30.4
	c0-3.7,0.9-4.6,4.6-4.6c11,0,11,0,11,11v23c0,8.3,5.5,12,12.9,9.2c3.7-0.9,5.5-3.7,5.5-7.4c0-10.1,0.9-20.2,0.9-29.4
	c0-5.5,0-5.5,5.5-5.5c10.1,0,10.1,0,10.1,9.2L652.3,462.9L652.3,462.9z M607.2,360.8c-1.8,0-2.8,0-4.6,0.9H598
	c-16.6,0-30.4-6.4-44.2-16.6c-8.3-5.5-7.4-12.9-2.8-20.2c14.7-25.8,36.8-44.2,64.4-56.1c2.8-0.9,6.4-2.8,10.1-3.7
	c3.7-1.8,7.4-2.8,10.1-4.6c-5.5,0-10.1,0.9-14.7,1.8c-1.8,0-4.6,0.9-6.4,1.8c-3.7,0.9-8.3,1.8-12,3.7c-24.8,9.2-44.2,25.8-58.9,49.7
	c-1.8,2.8-2.8,5.5-5.5,6.4c-3.7-0.9-4.6-4.6-5.5-8.3c-11-29.4,3.7-66.2,34-85.6c15.6-11,33.1-17.5,53.4-17.5h39.6
	c6.4,0,12,0,18.4-1.8c0.9,0,1.8,0,2.8-0.9c6.4-0.9,12.9-3.7,18.4-7.4c1.8-1.8,3.7-1.8,5.5-2.8c1.8,0.9,2.8,3.7,2.8,8.3
	c0,44.2-15.6,83.7-44.2,116.8C648.6,343.3,632.1,358,607.2,360.8z M672.5,444.5c0.9,4.6,2.8,8.3,8.3,9.2c4.6,0.9,9.2,0,12-5.5
	c0-0.9,1.8-1.8,2.8-1.8h12c-0.9,7.4-3.7,12-10.1,14.7c-9.2,3.7-17.5,3.7-26.7,0c-5.5-1.8-8.3-6.4-10.1-12
	c-2.8-9.2-2.8-19.3,0.9-28.5c4.6-11,15.6-15.6,28.5-13.8c9.2,0.9,17.5,10.1,18.4,20.2c0,4.6,0,8.3,0.9,12h-32.2
	C671.6,439,671.6,439,672.5,444.5L672.5,444.5z M853.8,498.8c-12.9,0-23.9-11-23.9-23.9s11-23.9,23.9-23.9s23.9,11,23.9,23.9
	S866.7,498.8,853.8,498.8z M853.8,80.2c-12.9,0-23.9-11-23.9-23.9s11-23.9,23.9-23.9s23.9,11,23.9,23.9S866.7,80.2,853.8,80.2z
	 M70.8,115.2v406.7H0L70.8,115.2z M926.5,115.2v406.7h70.8L926.5,115.2z M646.8,59c15.6,1.8,30.4,8.3,40.5,19.3
	C676.2,67.3,662.4,60.9,646.8,59L646.8,59z M672.5,98.6c-3.7-3.7-6.4,0.9-8.3,3.7c-9.2,10.1-18.4,21.2-27.6,32.2l-2.8,2.8l-1.8,1.8
	c-0.9,0.9-1.8,0.9-2.8,0.9h-0.9h-0.9c-1.8,0-4.6-0.9-7.4-2.8l-0.9-0.9c-0.9,0-0.9-0.9-1.8-0.9l-1.8-1.8c-0.9-0.9-2.8-1.8-3.7-2.8
	c0,0-0.9,0-0.9-0.9c-1.8,0-2.8,0-4.6,1.8c-0.9,0.9-0.9,1.8-0.9,2.8v0.9c0,0.9,0.9,1.8,1.8,1.8c0,0,0.9,0.9,1.8,0.9s0.9,0.9,1.8,0.9
	c1.8,0.9,3.7,1.8,4.6,2.8c4.6,3.7,10.1,7.4,13.8,10.1c3.7,0,5.5-2.8,6.4-4.6c2.8-3.7,5.5-7.4,9.2-10.1c9.2-10.1,17.5-21.2,25.8-32.2
	c0.9-0.9,2.8-2.8,2.8-4.6C674.4,101.4,674.4,99.5,672.5,98.6L672.5,98.6z M693.7,86.6c2.8,3.7,4.6,8.3,6.4,12.9
	C699.2,94.9,696.5,91.2,693.7,86.6z M705.7,200.7c1.8,0.9,2.8,3.7,2.8,8.3c0,44.2-15.6,83.7-44.2,116.8c-15.6,17.5-32.2,32.2-57,35
	c-1.8,0-2.8,0-4.6,0.9c1.8,0,4.6,0,6.4-0.9c23.9-2.8,41.4-17.5,57-35c29.4-33.1,44.2-71.8,44.2-116.8
	C710.3,203.5,708.4,200.7,705.7,200.7L705.7,200.7z M626.5,212.7h33.1C648.6,211.8,637.6,212.7,626.5,212.7z M661.5,212.7
	c6.4,0,12,0,18.4-1.8C673.5,212.7,667,212.7,661.5,212.7z M603.5,267.9c3.7-0.9,7.4-2.8,12-3.7C610.9,265.1,607.2,266,603.5,267.9z
	 M544.7,317.6c-1.8,2.8-2.8,5.5-5.5,6.4c4.6,0.9,5.5-3.7,7.4-6.4c13.8-23.9,32.2-40.5,57-49.7C578.7,276.2,559.4,293.6,544.7,317.6
	L544.7,317.6z M504.2,333.2c0-0.9,0.9-0.9,0.9-1.8c0.9-4.6-3.7-6.4-5.5-9.2c-10.1-10.1-19.3-20.2-27.6-30.4
	c-25.8-33.1-29.4-70.8-30.4-110.4c0-0.9,0-1.8,0.9-2.8c-1.8,0.9-1.8,2.8-1.8,3.7c0.9,39.6,4.6,78.2,30.4,110.4
	c8.3,11,18.4,21.2,27.6,30.4C501.4,325.8,506,327.7,504.2,333.2C504.2,332.3,504.2,333.2,504.2,333.2L504.2,333.2z M393.8,59.9
	c-10.1-2.8-12.9,0-9.2,10.1c7.4,23.9,6.4,47.8,0,70.8c-3.7,12-7.4,24.8-9.2,36.8c-5.5,33.1-3.7,64.4,9.2,92
	c-12-26.7-13.8-58-8.3-90.2c1.8-12.9,5.5-24.8,9.2-36.8c7.4-23.9,7.4-47.8,0-70.8c-3.7-10.1-0.9-12.9,9.2-10.1
	c69,19.3,125.1,54.3,161.9,114.1C519.8,114.2,463.7,79.3,393.8,59.9L393.8,59.9z M445.3,176.8c-1.8,0.9-2.8,0.9-2.8,1.8
	C443.5,177.7,444.4,176.8,445.3,176.8c3.7,28.5,9.2,55.2,20.2,79.1C454.5,232,449,205.3,445.3,176.8L445.3,176.8z M494.1,336.9
	c2.8,0,7.4-0.9,10.1-3.7c-0.9,4.6-5.5,5.5-9.2,5.5c-26.7,2.8-52.4-2.8-72.7-20.2c-14.7-12.9-26.7-26.7-34-42.3
	c8.3,14.7,18.4,27.6,33.1,40.5C442.5,334.1,467.4,339.6,494.1,336.9L494.1,336.9z M516.1,316.6v-1.8V316.6z M561.2,216.4
	c-32.2,20.2-55.2,53.4-45.1,97.5v0.9c0-0.9,0-1.8-0.9-2.8c-10.1-44.2,12.9-76.4,45.1-97.5c10.1-6.4,12-7.4,9.2-15.6
	C574.1,209,573.2,209.9,561.2,216.4L561.2,216.4z M539.1,324h-1.8c-3.7-0.9-4.6-5.5-5.5-8.3c-11-29.4,3.7-65.3,34-85.6
	c17.5-11,35-17.5,55.2-17.5c-19.3,0-36.8,6.4-53.4,17.5c-30.4,19.3-45.1,56.1-34,85.6C534.5,319.4,535.5,323.1,539.1,324z
	 M613.7,268.8c4.6-0.9,8.3-2.8,12-3.7c-3.7,1.8-6.4,2.8-10.1,3.7c-27.6,12-49.7,30.4-64.4,56.1c-4.6,7.4-5.5,14.7,2.8,20.2
	c13.8,10.1,27.6,15.6,44.2,16.6c-16.6,0-32.2-6.4-46-16.6c-8.3-5.5-7.4-12.9-2.8-20.2C564.9,299.2,586.1,279.8,613.7,268.8z
	 M705.7,200.7c-0.9,0-2.8,0.9-5.5,2.8c-5.5,3.7-12,5.5-18.4,7.4c5.5-1.8,11-3.7,16.6-7.4C701.1,201.6,703.8,200.7,705.7,200.7
	L705.7,200.7z M573.2,125.3c0-34,26.7-62.6,59.8-66.2C598.9,62.7,572.3,90.3,573.2,125.3c-0.9,35.9,30.4,67.2,66.2,67.2
	C603.5,191.5,573.2,161.2,573.2,125.3L573.2,125.3z M606.3,132.6c-0.9,0.9-0.9,1.8-0.9,2.8v0.9c0,0.9,0.9,1.8,1.8,1.8
	c0,0,0.9,0.9,1.8,0.9C606.3,137.2,604.5,135.4,606.3,132.6L606.3,132.6z M617.3,135.4l-1.8-1.8c-0.9-0.9-2.8-1.8-3.7-2.8
	c2.8,0.9,4.6,3.7,7.4,5.5C618.3,136.3,618.3,135.4,617.3,135.4L617.3,135.4z M644.9,139.1c9.2-10.1,17.5-21.2,25.8-32.2
	C661.5,117,653.2,128,644.9,139.1z M665.2,186.9c6.4-2.8,12.9-6.4,17.5-11C678.1,180.5,671.6,184.2,665.2,186.9z M673.5,102.3
	c-0.9,1.8-1.8,2.8-2.8,4.6c-9.2,11-17.5,21.2-25.8,32.2c-2.8,3.7-5.5,7.4-9.2,10.1c-0.9,1.8-2.8,4.6-6.4,4.6
	c-3.7-2.8-9.2-6.4-13.8-10.1c-0.9-0.9-2.8-1.8-4.6-2.8c-3.7-1.8-8.3-4.6-4.6-8.3c0.9-1.8,2.8-2.8,4.6-1.8c2.8,0.9,6.4,4.6,9.2,6.4
	c3.7,2.8,6.4,3.7,9.2,2.8h0.9c0.9,0,1.8-0.9,2.8-0.9s0.9-0.9,1.8-1.8l2.8-2.8c9.2-11,18.4-21.2,27.6-32.2c1.8-2.8,4.6-7.4,8.3-3.7
	C674.4,99.5,674.4,101.4,673.5,102.3L673.5,102.3z M258.5,192.4c0,5.5-4.6,9.2-9.2,9.2c-5.5,0-9.2-4.6-9.2-9.2
	c0-5.5,4.6-9.2,9.2-9.2C254.9,183.2,258.5,186.9,258.5,192.4z M165.6,192.4c0,5.5-4.6,9.2-9.2,9.2c-5.5,0-9.2-4.6-9.2-9.2
	c0-5.5,4.6-9.2,9.2-9.2S165.6,186.9,165.6,192.4z M196.9,192.4c0,5.5-4.6,9.2-9.2,9.2c-5.5,0-9.2-4.6-9.2-9.2c0-5.5,4.6-9.2,9.2-9.2
	S196.9,186.9,196.9,192.4z M227.2,192.4c0,5.5-4.6,9.2-9.2,9.2c-5.5,0-9.2-4.6-9.2-9.2c0-5.5,4.6-9.2,9.2-9.2
	C223.6,183.2,227.2,186.9,227.2,192.4z M258.5,192.4c0,5.5-4.6,9.2-9.2,9.2c-5.5,0-9.2-4.6-9.2-9.2c0-5.5,4.6-9.2,9.2-9.2
	C254.9,183.2,258.5,186.9,258.5,192.4z M165.6,229.2c0,5.5-4.6,9.2-9.2,9.2c-5.5,0-9.2-4.6-9.2-9.2c0-5.5,4.6-9.2,9.2-9.2
	S165.6,224.6,165.6,229.2z M196.9,229.2c0,5.5-4.6,9.2-9.2,9.2c-5.5,0-9.2-4.6-9.2-9.2c0-5.5,4.6-9.2,9.2-9.2
	S196.9,224.6,196.9,229.2z M227.2,229.2c0,5.5-4.6,9.2-9.2,9.2c-5.5,0-9.2-4.6-9.2-9.2c0-5.5,4.6-9.2,9.2-9.2
	C223.6,220,227.2,224.6,227.2,229.2z M258.5,229.2c0,5.5-4.6,9.2-9.2,9.2c-5.5,0-9.2-4.6-9.2-9.2c0-5.5,4.6-9.2,9.2-9.2
	C254.9,220,258.5,224.6,258.5,229.2z M165.6,300.1c0,5.5-4.6,9.2-9.2,9.2c-5.5,0-9.2-4.6-9.2-9.2c0-5.5,4.6-9.2,9.2-9.2
	S165.6,294.6,165.6,300.1z M196.9,300.1c0,5.5-4.6,9.2-9.2,9.2c-5.5,0-9.2-4.6-9.2-9.2c0-5.5,4.6-9.2,9.2-9.2
	S196.9,294.6,196.9,300.1z M227.2,300.1c0,5.5-4.6,9.2-9.2,9.2c-5.5,0-9.2-4.6-9.2-9.2c0-5.5,4.6-9.2,9.2-9.2
	C223.6,290.9,227.2,294.6,227.2,300.1z M258.5,300.1c0,5.5-4.6,9.2-9.2,9.2c-5.5,0-9.2-4.6-9.2-9.2c0-5.5,4.6-9.2,9.2-9.2
	C254.9,290.9,258.5,294.6,258.5,300.1z M165.6,336.9c0,5.5-4.6,9.2-9.2,9.2c-5.5,0-9.2-4.6-9.2-9.2c0-5.5,4.6-9.2,9.2-9.2
	S165.6,332.3,165.6,336.9z M196.9,336.9c0,5.5-4.6,9.2-9.2,9.2c-5.5,0-9.2-4.6-9.2-9.2c0-5.5,4.6-9.2,9.2-9.2
	S196.9,332.3,196.9,336.9z M227.2,336.9c0,5.5-4.6,9.2-9.2,9.2c-5.5,0-9.2-4.6-9.2-9.2c0-5.5,4.6-9.2,9.2-9.2
	C223.6,327.7,227.2,332.3,227.2,336.9z M258.5,336.9c0,5.5-4.6,9.2-9.2,9.2c-5.5,0-9.2-4.6-9.2-9.2c0-5.5,4.6-9.2,9.2-9.2
	C254.9,327.7,258.5,332.3,258.5,336.9z"/>
</svg>
