<svg xmlns="http://www.w3.org/2000/svg" viewBox="0 0 1015 1024"><path d="M767.609 0h-239.91c-17.42 0-25.869 6.989-25.66 25.243V157.82c0 10.431 1.147 22.426 14.395 23.991 20.862 2.295 19.089 16.794 19.089 31.293v5.946c1.507 2.44 2.4 5.398 2.4 8.565l-.001.208v-.011l2.712.626h5.007c18.831-5.964 40.554-9.727 63.05-10.422l.37-.009c12.019-2.552 25.828-4.014 39.978-4.014 7.375 0 14.658.397 21.828 1.171l-.889-.078c1.994.155 3.837.639 5.529 1.398l-.105-.042c1.725.026 3.371.33 4.907.868l-.109-.033a160.218 160.218 0 0 1 29.494 3.091l-1.017-.17c15.582 2.401 29.267 5.672 42.511 9.925l-1.935-.537c3.714 1.929 8.109 3.061 12.768 3.061a28.17 28.17 0 0 0 7.142-.914l-.196.044v-1.669c0-19.506-9.805-43.81 19.401-54.345 3.338-1.252 4.485-11.891 4.59-18.15V25.036C792.749 7.303 785.239.002 767.611.002zM0 846.571V708.257c0-35.674 1.46-36.925 35.987-37.134h73.016c18.254 0 36.404-1.982 40.055 23.782 1.669 11.787 13.56 11.161 22.948 11.37h56.431a30.462 30.462 0 0 1 2.415-.093c14.876 0 27.327 10.38 30.506 24.291l.04.21c33.263 102.084 103.416 184.276 194.345 232.496l2.173 1.051c5.528 3.025 14.082 3.859 12.308 12.726s-10.431 8.866-17.941 8.762c-89.393-.834-178.681-1.356-267.969-2.295-18.671 0-36.195-.834-38.49 25.138-1.147 12.726-12.621 15.02-23.574 15.125H26.286C6.259 1024.416 0 1014.507 0 996.148V846.569zm1014.925-234.904v.011c0 205.834-166.861 372.696-372.696 372.696-.99 0-1.98-.004-2.968-.012l.152.001c-209.452-1.147-372.174-166.894-371.444-379.058.73-203.507 169.293-368.523 375.512-367.48 205.296.711 371.446 167.299 371.446 372.693l-.002 1.213v-.063zm-58.413 0l.001-.833c0-174.438-141.41-315.847-315.847-315.847s-315.847 141.41-315.847 315.847c0 174.107 140.874 315.311 314.856 315.846h.051c.713.006 1.556.009 2.4.009 173.631 0 314.387-140.756 314.387-314.387l-.001-.67v.035zm-593.934-70.826c15.02-60.499 15.02-60.499 73.016-60.499h417.235c52.154 0 56.118 3.442 65.089 59.143-46.835 14.186-91.896 33.066-93.878 92-1.147 36.195 24.617 59.873 86.472 86.263-13.569 40.735-37.659 74.924-69.072 100.449l-.398.313c-11.265 8.553-39.22 6.989-52.676-1.147-98.78-59.873-195.579-60.499-293.004 1.46-7.416 4.93-16.528 7.867-26.326 7.867-13.795 0-26.231-5.822-34.984-15.143l-.024-.025c-22.948-28.789-43.497-59.456-66.862-91.792 50.694-19.401 93.878-39.429 89.184-96.068-4.485-53.719-47.148-70.721-93.878-82.717zm208.513 69.679c-.025.696-.04 1.514-.04 2.335 0 37.849 30.682 68.531 68.531 68.531.821 0 1.639-.014 2.453-.043l-.118.003c38.444-.354 69.472-31.601 69.472-70.096 0-38.714-31.384-70.098-70.098-70.098-.22 0-.44.001-.659.003h.034a67.892 67.892 0 0 0-.945-.007c-37.849 0-68.531 30.682-68.531 68.531 0 .332.002.664.007.996l-.001-.05zm69.678 53.719c-29.067-.412-52.472-24.071-52.472-53.198 0-29.383 23.82-53.203 53.203-53.203.257 0 .513.002.769.005h-.039c29.067.412 52.472 24.071 52.472 53.198 0 29.383-23.82 53.203-53.203 53.203-.257 0-.513-.002-.769-.005h.039z"/></svg>