<?xml version="1.0" encoding="utf-8"?>
<!-- Generator: Adobe Illustrator 21.0.0, SVG Export Plug-In . SVG Version: 6.00 Build 0)  -->
<svg version="1.1" id="Vrstva_1" xmlns="http://www.w3.org/2000/svg" xmlns:xlink="http://www.w3.org/1999/xlink" x="0px" y="0px"
	 viewBox="0 0 855.7 521.8" style="enable-background:new 0 0 855.7 521.8;" xml:space="preserve">
<path d="M0,383.7L790.8,18l58.3,126.1L58.3,509.8L0,383.7L0,383.7z M693.5,243.2c-12.9,5.5-28.5,0-34-12.9l-58-126
	c-5.5-12.9,0-28.5,12.9-34s28.5,0,34,12.9l58,126C711.9,222,706.4,237.7,693.5,243.2z M181,480.6c-12.9,5.5-28.5,0-34-12.9l-58-126
	c-5.5-12.9,0-28.5,12.9-34s28.5,0,34,12.9l58,126C199.4,459.4,193.9,475,181,480.6z M840.7,175.1c-12.9,5.5-28.5,0-34-12.9l-58-126
	c-5.5-12.9,0-28.5,12.9-34s28.5,0,34,12.9l58,126C859.1,153.9,853.6,169.6,840.7,175.1L840.7,175.1z M103.8,295.6L89,302.1
	c-9.2,3.7-19.3,0-23.9-8.3l-38.6-83.7c-3.7-9.2,0-19.3,8.3-23.9l14.7-6.4c9.2-3.7,19.3,0,23.9,8.3l38.6,83.7
	C116.6,280.9,113,291.9,103.8,295.6z M106.5,267.1l20.2-9.2c0,0,20.2-9.2,29.4,11s21.2,46,21.2,46l95.7-44.2l-26.7-57
	c-20.2-44.2-73.6-63.5-117.8-43.2l-56.1,25.8L106.5,267.1z M110.2,456.6c11,23,0.9,50.6-22.1,60.7c-23,11-50.6,0.9-60.7-22.1
	c-11-23-0.9-50.6,22.1-60.7C71.6,423.5,99.2,433.6,110.2,456.6L110.2,456.6z M96.4,463.1c7.4,15.6,0,33.1-14.7,40.5
	c-15.6,7.4-33.1,0-40.5-14.7c-7.4-15.6,0-33.1,14.7-40.5S89,447.4,96.4,463.1z"/>
</svg>
