<svg xmlns="http://www.w3.org/2000/svg" viewBox="0 0 1355 1024"><path d="M1354.748 762.815c0 34.673-.54 69.239 0 103.804.027.773.042 1.681.042 2.592 0 18.523-6.318 35.571-16.916 49.106l.132-.174c-40.612 54.135-100.866 91.626-170.001 101.902l-1.422.174c-11.98 1.926-25.791 3.027-39.86 3.027-42.95 0-83.505-10.257-119.348-28.455l1.503.692c-8.104-3.81-17.6-6.033-27.615-6.033-10.549 0-20.521 2.467-29.372 6.855l.386-.173c-34.069 17.219-74.267 27.304-116.82 27.304s-82.751-10.085-118.334-27.995l1.514.691c-6.352-2.781-13.731-4.538-21.481-4.857l-.122-.004c-3.44-.226-7.458-.355-11.506-.355-26.029 0-50.811 5.334-73.315 14.968l1.215-.463c-27.942 11.604-60.397 18.342-94.425 18.342-41.311 0-80.301-9.932-114.715-27.537l1.424.662c-9.141-4.589-19.919-7.275-31.325-7.275s-22.184 2.687-31.736 7.461l.411-.186c-33.655 16.568-73.258 26.258-115.125 26.258-83.091 0-157.267-38.169-205.952-97.93l-.382-.483C8.142 908.521-.027 887.494-.027 864.559c0-.795.01-1.587.029-2.377l-.002.117c.864-66.97.756-134.049 0-201.019a84.517 84.517 0 0 1-.055-3.104c0-20.818 7.271-39.938 19.412-54.959l-.13.166c44.659-57.509 111.833-95.702 188.066-101.27l.856-.05c5.281-.346 11.449-.543 17.663-.543 44.258 0 86.18 9.999 123.631 27.861l-1.737-.746c8.006 3.215 17.287 5.08 27.004 5.08s18.998-1.865 27.506-5.256l-.502.176c80.365-35.646 159.217-37.05 238.825 1.188 6.846 2.336 14.733 3.684 22.935 3.684 1.47 0 2.929-.043 4.377-.129l-.2.009c2.803.186 6.076.292 9.374.292 21.234 0 41.441-4.398 59.759-12.334l-.974.376c29.73-13.038 64.381-20.625 100.804-20.625 42.016 0 81.674 10.097 116.68 27.996l-1.45-.673c8.785 4.376 19.135 6.937 30.083 6.937s21.298-2.561 30.483-7.116l-.401.18c33.718-16.713 73.423-26.492 115.412-26.492 81.895 0 155.101 37.199 203.644 95.622l.35.433c14.784 16.429 23.827 38.281 23.827 62.245 0 1.206-.023 2.406-.068 3.601l.005-.172c-1.404 33.161 0 66.538 0 99.808zm-41.263-.216V661.495a52.929 52.929 0 0 0-12.381-35.404l.067.083c-61.03-79.068-181.792-106.289-270.042-60.381-4.644 3.099-7.906 7.957-8.841 13.6l-.016.118c-.992 21.821-18.703 39.193-40.571 39.641l-.043.001c-.98.085-2.12.134-3.272.134-21.512 0-39.055-16.996-39.932-38.293l-.003-.079c.016-.293.026-.636.026-.981 0-8.778-6.018-16.151-14.154-18.218l-.13-.028c-26.331-12.043-57.116-19.064-89.542-19.064-37.711 0-73.205 9.497-104.219 26.229l1.167-.576c-7.192 3.015-12.402 9.479-13.594 17.266l-.016.124c-3.475 19.01-19.91 33.23-39.667 33.23-.827 0-1.649-.025-2.464-.074l.112.005c-20.463-.598-37.235-15.663-40.473-35.292l-.033-.245c-1.01-4.947-3.827-9.105-7.717-11.842l-.06-.04c-31.005-18.086-68.252-28.763-107.992-28.763-33.214 0-64.687 7.458-92.834 20.791l1.319-.562c-7.473 2.104-12.859 8.859-12.859 16.872 0 .144.002.288.005.432v-.021c-.425 22.644-18.881 40.837-41.586 40.837-22.971 0-41.593-18.622-41.593-41.593 0-.266.002-.531.007-.796l-.001.04c.019-.275.03-.596.03-.919 0-6.422-4.245-11.852-10.082-13.637l-.101-.027c-26.952-13.245-58.663-20.992-92.183-20.992-7.669 0-15.244.406-22.704 1.196l.929-.08c-64.476 5.069-120.45 37.643-156.766 85.861l-.399.553c-5.544 7.804-8.947 17.471-9.18 27.919l-.001.057c-.756 67.835 0 135.777-.756 203.612-.005.289-.008.629-.008.97 0 14.014 5.112 26.833 13.574 36.696l-.063-.076c41.471 49.993 103.607 81.595 173.124 81.595 34.228 0 66.666-7.661 95.694-21.362l-1.368.58c6.271-1.679 10.813-7.311 10.813-14.004 0-.204-.004-.406-.013-.607l.001.029c.058-22.207 18.075-40.187 40.29-40.187.228 0 .455.002.682.006h-.034c.431-.016.936-.025 1.444-.025 21.973 0 39.902 17.311 40.895 39.038l.003.089c-.009.205-.014.445-.014.686 0 7.318 4.757 13.526 11.347 15.699l.117.033c26.959 12.881 58.595 20.405 91.988 20.405 39.367 0 76.291-10.456 108.147-28.743l-1.06.561c4.124-2.577 7.149-6.586 8.396-11.317l.03-.132c2.869-20.019 19.507-35.357 39.884-36.183l.082-.003a38.803 38.803 0 0 1 3.633-.165c19.902 0 36.416 14.509 39.542 33.526l.032.232c1.335 7.45 6.337 13.49 13.035 16.258l.143.053c29.873 16.271 65.424 25.838 103.21 25.838 33.08 0 64.448-7.333 92.567-20.461l-1.346.564c7.202-2.235 12.341-8.838 12.341-16.641 0-.34-.01-.677-.029-1.012l.002.046c1.606-21.526 19.466-38.383 41.262-38.383s39.657 16.857 41.254 38.245l.008.138a21.16 21.16 0 0 0-.002.266c0 7.574 4.934 13.996 11.763 16.227l.121.034c26.843 13.383 58.47 21.216 91.928 21.216 7.264 0 14.441-.369 21.515-1.09l-.889.073c64.615-4.796 120.748-37.444 156.978-85.852l.402-.562c5.726-8.159 9.273-18.216 9.611-29.081l.002-.083c1.188-34.565 0-69.239 0-103.804zm-337.877.432c-.578 77.113-63.224 139.402-140.418 139.402-77.553 0-140.422-62.869-140.422-140.422s62.869-140.422 140.422-140.422c1.29 0 2.576.017 3.858.052l-.189-.004c75.958 2.048 136.753 64.111 136.753 140.374 0 .359-.001.717-.004 1.075v-.055zm-41.586 0c.002-.224.003-.49.003-.755 0-54.764-44.395-99.159-99.159-99.159s-99.159 44.395-99.159 99.159c0 54.611 44.148 98.911 98.701 99.158h.024c.225.002.491.003.757.003 54.434 0 98.591-44.006 98.834-98.383v-.023zm-586.856-.648c-.002 77.551-62.871 140.418-140.422 140.418-77.553 0-140.422-62.869-140.422-140.422 0-77.173 62.255-139.806 139.284-140.417h.058c.321-.003.7-.004 1.08-.004 77.553 0 140.422 62.869 140.422 140.422v.004zm-239.797 0c.09 54.637 44.402 98.894 99.051 98.894 54.705 0 99.051-44.347 99.051-99.051s-44.347-99.051-99.051-99.051c-1.102 0-2.199.018-3.292.054l.159-.004c-53.257 1.622-95.813 45.183-95.813 98.684 0 .243.001.486.003.728v-.037zm554.018.756c-.614 77.085-63.246 139.338-140.418 139.338-77.553 0-140.422-62.869-140.422-140.422s62.869-140.422 140.422-140.422c.378 0 .756.001 1.134.004h-.058c77.089.61 139.346 63.243 139.346 140.418 0 .381-.002.762-.005 1.143v-.058zm-140.422-99.807c-54.762.003-99.155 44.397-99.155 99.159 0 54.764 44.395 99.159 99.159 99.159 54.422 0 98.605-43.843 99.154-98.135v-.052c.004-.321.006-.7.006-1.08 0-54.705-44.347-99.051-99.051-99.051h-.12.006zm487.373 98.079c.809-76.935 63.365-138.992 140.415-138.992 77.553 0 140.422 62.869 140.422 140.422s-62.869 140.422-140.422 140.422c-.947 0-1.892-.009-2.834-.028l.141.002c-76.386-1.512-137.729-63.79-137.729-140.396 0-.503.003-1.005.008-1.507l-.001.076zm41.586 0c-.005.384-.008.838-.008 1.292 0 54.764 44.395 99.159 99.159 99.159s99.159-44.395 99.159-99.159c0-54.457-43.899-98.662-98.24-99.155h-.047a88.017 88.017 0 0 0-1.193-.007c-54.246 0-98.285 43.702-98.83 97.819v.052zm-32.297-612.456C951.547 95.79 874.324 53.081 790.41 24.961l-5.235-1.522C753.244 10.965 716.288 2.59 677.735.058l-1.117-.059-13.07 1.512c-11.059 1.017-20.94 2.543-30.616 4.621l1.667-.3C519.302 32.506 418.517 83.074 333.511 152.28l1.341-1.058c-19.677 15.541-32.237 39.34-32.405 66.078v.028c.367 27.628 13.484 52.119 33.723 67.904l.195.146c76.583 61.754 167.444 109.348 266.592 137.106l5.286 1.264c21.395 6.491 46.025 10.41 71.512 10.799l.211.003h.201c16.451 0 32.433-2.009 47.714-5.794l-1.36.285c112.051-27.322 209.913-76.702 293.089-143.597l-1.444 1.123c20.951-15.85 34.44-40.61 34.781-68.536l.001-.055c-.585-28.035-14.091-52.799-34.785-68.651l-.212-.156zm-2.268 69.131c-.152 14.953-7.171 28.236-18.048 36.866l-.098.075c-53.908 44.566-116.358 81.378-184.14 107.446l-4.565 1.543c-27.652 10.154-56.817 18.147-85.009 25.924l-16.203 4.537c-6.132 1.531-13.248 2.54-20.554 2.803l-.185.005c-3.457 0-6.913 0-9.614.864-32.049-2.249-61.855-8.951-89.764-19.513l2.162.718-1.836-.54c-88.04-28.339-164.329-70.334-230.62-124.162l1.3 1.022c-11.509-8.725-18.867-22.406-18.867-37.806s7.358-29.081 18.749-37.72l.118-.086c78.491-64.001 172.811-111.833 276.046-136.847l4.798-.982c10.636-2.61 22.846-4.107 35.406-4.107l.822.002h-.042c23.749.583 46.372 4.49 67.715 11.273l-1.716-.471c98.351 27.783 183.847 73.004 257.2 132.594l-1.308-1.03c11.073 8.905 18.133 22.411 18.255 37.57v.02zM677.914 80.365l-.756-.002c-75.914 0-137.454 61.54-137.454 137.454 0 75.648 61.11 137.022 136.656 137.451h.041l.486.001c75.913 0 137.452-61.54 137.452-137.452 0-75.742-61.263-137.175-136.94-137.451h-.026zm-.54 37.157c55.268.123 100.023 44.955 100.023 100.239 0 55.361-44.879 100.24-100.24 100.24s-100.24-44.879-100.24-100.24l.001-.341v.018c.245-55.234 45.078-99.916 100.347-99.916h.115-.006zm-237.637 42.127h-.053c-15.957 0-30.389 6.528-40.771 17.06l-.007.007c-10.544 10.537-17.067 25.098-17.067 41.183 0 32.155 26.066 58.221 58.221 58.221 32.127 0 58.176-26.021 58.221-58.137v-.004c-.184-32.216-26.312-58.268-58.539-58.329h-.006zm21.603 59.301c-.923 11.164-10.211 19.875-21.534 19.875h-.073.004c-11.372-.302-20.476-9.592-20.476-21.009 0-11.607 9.409-21.016 21.016-21.016.19 0 .379.003.568.008l-.028-.001h1.296c11.065 1.03 19.659 10.269 19.659 21.516v.092-.005zm454.427-59.301c-32.155 0-58.221 26.066-58.221 58.221s26.066 58.221 58.221 58.221 58.221-26.066 58.221-58.221-26.066-58.221-58.221-58.221zm-21.603 57.249c.799-11.097 9.871-19.831 21.038-20.091h.025v-5.293l.648 5.293c11.342.302 20.422 9.568 20.422 20.955 0 11.577-9.385 20.962-20.962 20.962-.19 0-.379-.003-.568-.008l.028.001c-11.457-.591-20.523-10.025-20.523-21.576v-.028.001z"/></svg>