<?xml version="1.0" encoding="utf-8"?>
<!-- Generator: Adobe Illustrator 21.0.0, SVG Export Plug-In . SVG Version: 6.00 Build 0)  -->
<svg version="1.1" id="Vrstva_1" xmlns="http://www.w3.org/2000/svg" xmlns:xlink="http://www.w3.org/1999/xlink" x="0px" y="0px"
	 viewBox="0 0 792.1 792.6" style="enable-background:new 0 0 792.1 792.6;" xml:space="preserve">
<path d="M393.8,0c1.8,4.6,3.7,9.2,3.7,13.8v168.4c0,10.1-2.8,12-12,13.8c-95.7,12-173,85.6-189.5,180.3c-0.9,3.7-0.9,8.3-1.8,12
	c0.9,8.3-2.8,11-10.1,11H12c-3.7,0-7.4-1.8-12-2.8v-18.4c0.9-1.8,0.9-3.7,1.8-5.5c5.5-26.7,9.2-54.3,16.6-81
	c24.8-81.9,71.8-149,138.9-202.4c54.3-43.2,115-70.8,183.1-82.8c12.9-1.8,24.8-3.7,37.7-6.4L393.8,0L393.8,0z M792.1,441.6
	c-1.8,11-2.8,21.2-4.6,32.2c-22.1,123.3-87.4,215.3-196.9,276c-42.3,23-88.3,37.7-136.2,41.4c-138.9,12-252.1-36.8-339.5-145.4
	c-41.4-51.5-65.3-112.2-75.4-177.6c-1.8-12-2.8-24.8-3.7-37.7h37.7c0.9,0,3.7,3.7,3.7,6.4c2.8,51.5,17.5,100.3,43.2,145.4
	c53.4,90.2,130.6,147.2,233.7,165.6c119.6,21.2,223.6-14.7,307.3-103c50.6-52.4,79.1-116.8,87.4-189.5
	c18.4-164.7-80-314.7-238.3-363.4c-23.9-7.4-49.7-9.2-74.5-13.8c-5.5-0.9-8.3-1.8-8.3-8.3c0.9-11,0-21.2,0-34
	c12.9,0.9,25.8,1.8,37.7,3.7C525.3,48.8,579.6,69,629.3,104c83.7,59.8,136.2,140.8,155.5,242.9c2.8,12.9,3.7,26.7,6.4,40.5v54.3
	L792.1,441.6z M602.6,414c0.9,102.1-84.6,188.6-186.8,189.5c-104.9,0.9-191.4-83.7-192.3-187.7c0-104.9,83.7-190.4,187.7-191.4
	C517.1,224.5,602.6,308.2,602.6,414L602.6,414z M472.9,414.9c0-32.2-26.7-58.9-58.9-59.8c-32.2-0.9-59.8,26.7-59.8,58.9
	c0,32.2,26.7,58.9,58.9,59.8C445.3,473.8,472.9,447.1,472.9,414.9z M305.4,450.8c-13.8,0-25.8,11-25.8,24.8s12,25.8,25.8,25.8
	c13.8,0,25.8-11,25.8-25.8C330.3,461.9,319.2,450.8,305.4,450.8z M521.7,378.1c13.8,0,25.8-11,25.8-24.8c0-13.8-12-25.8-25.8-25.8
	c-13.8,0-25.8,12-25.8,25.8C495.9,367.1,506.9,378.1,521.7,378.1z M413.1,564c14.7,0,25.8-11,24.8-25.8c0-14.7-11-25.8-25.8-24.8
	c-13.7-0.1-24.8,11-24.8,24.6c0,0.1,0,0.1,0,0.2C387.3,552.9,398.4,564,413.1,564z M389.2,289.8c0,14.7,11,25.8,24.8,25.8
	s25.8-11,24.8-25.8c0-13.8-11-24.8-24.8-24.8S389.2,275.1,389.2,289.8z M306.4,376.3c14.7,0,25.8-11,25.8-24.8
	c0-14.7-12-25.8-25.8-25.8s-24.8,11-24.8,24.8C280.6,365.3,291.6,376.3,306.4,376.3z M545.6,476.6c0-14.7-11-24.8-25.8-24.8
	c-13.8,0-24.8,11-24.8,24.8s11,25.8,25.8,25.8C534.5,502.3,545.6,491.3,545.6,476.6z"/>
</svg>
