<svg xmlns="http://www.w3.org/2000/svg" viewBox="0 0 1026 1024"><path d="M168.036 168.731H855.07v687.034H168.036V168.731zm57.865-112.95V0h-36.029v55.781h-21.836v79.701h79.701V55.781h-21.836zm121.487 0V0h-36.029v55.781h-21.935v79.701h79.8V55.781h-21.836zm121.387 0V0h-35.93v55.781H410.91v79.701h79.701V55.781h-21.836zm364.36 0V0h-35.93v55.781H775.27v79.701h79.8V55.781h-21.935zm-121.387 0V0h-36.029v55.781h-21.836v79.701h79.701V55.781h-21.836zm-121.486 0V0h-36.029v55.781h-21.836v79.701h79.8V55.781h-21.935zM55.781 797.9H0v36.029h55.781v21.836h79.701v-79.8H55.781V797.9zm0-121.486H0v36.029h55.781v21.836h79.701v-79.701H55.781v21.836zm0-121.487H0v36.029h55.781v21.935h79.701v-79.8H55.781v21.836zm0-364.36H0v36.029h55.781v21.836h79.701v-79.701H55.781v21.836zm0 121.487H0v36.029h55.781v21.836h79.701v-79.8H55.781v21.935zm0 121.486H0v35.93h55.781v21.935h79.701v-79.8H55.781v21.935zm744.203 534.779V1024h36.029v-55.681h21.836v-79.8h-79.701v79.8h21.836zm-121.486 0V1024h36.128v-55.681h21.836v-79.8h-79.8v79.8h21.836zm-121.387 0V1024h35.93v-55.681h21.935v-79.8h-79.8v79.8h21.935zm-364.46 0V1024h36.128v-55.681h21.836v-79.8h-79.8v79.8h21.836zm121.487 0V1024h36.029v-55.681h21.836v-79.8h-79.701v79.8h21.836zm121.486 0V1024h36.029v-55.681h21.836v-79.8h-79.701v79.8h21.836zm534.481-742.12h55.781V190.17h-55.781v-21.935h-79.701v79.8h79.701v-21.836zm0 121.387h55.781v-36.029h-55.781v-21.836h-79.701v79.8h79.701v-21.935zm0 121.487h55.781v-36.029h-55.781v-21.836h-79.701v79.701h79.701v-21.836zm0 364.36h55.781v-36.029h-55.781v-21.836h-79.701v79.701h79.701v-21.836zm0-121.487h55.781v-35.93h-55.781v-21.935h-79.701v79.8h79.701v-21.935zm0-121.387h55.781V554.53h-55.781v-21.836h-79.701v79.701h79.701v-21.836z"/></svg>