<svg xmlns="http://www.w3.org/2000/svg" viewBox="0 0 1023 1024"><path d="M1023.084 512.407c-.464 282.166-229.311 510.728-511.542 510.728C229.025 1023.135 0 794.11 0 511.593l.001-.859v.044C1.834 226.978 230.849-1.222 511.594 0c282.622.522 511.536 229.723 511.593 512.403v.005zM511.491 185.432H224.026a47.212 47.212 0 0 0-2.956-.089c-27.107 0-49.082 21.975-49.082 49.082 0 .175.001.349.003.523v-.027 265.776c.115 27.188 22.183 49.184 49.387 49.184h.215-.011 80.344c.373.037.805.058 1.243.058 5.648 0 10.482-3.483 12.472-8.419l.032-.09c11.31-22.947 22.452-42.118 34.712-60.478l-1.21 1.926c7.128-10.794 8.859-10.692 16.293 0 11.135 16.452 22.31 35.589 32.246 55.453l1.358 2.997c1.983 5.107 6.858 8.661 12.563 8.661.597 0 1.185-.039 1.761-.114l-.068.007c14.256 0 28.614-.611 42.87 0 .44.052.949.081 1.465.081 5.734 0 10.617-3.646 12.456-8.746l.029-.092c11.276-23.171 22.593-42.649 35.133-61.232l-1.122 1.764c7.841-11.303 8.961-11.201 16.7 0 11.117 16.618 22.426 36.086 32.549 56.253l1.462 3.216c1.771 4.839 6.337 8.23 11.694 8.23.508 0 1.009-.03 1.501-.09l-.059.006c14.969-.509 30.04 0 45.009 0 .383.044.827.069 1.277.069 5.068 0 9.396-3.164 11.118-7.624l.028-.081c12.321-24.183 24.091-44.173 36.889-63.42l-1.452 2.322c6.517-10.183 8.35-10.183 14.969 0 11.633 17.319 23.545 37.648 34.259 58.688l1.585 3.428c1.718 4.187 5.764 7.082 10.485 7.082.396 0 .786-.02 1.171-.06l-.048.004h77.187l.413.002c27.163 0 49.184-22.02 49.184-49.184 0-.251-.002-.502-.006-.752V238.285c0-33.706-20.366-53.053-53.664-53.053H511.287zm136.655 625.031c0 29.327-2.953 29.327 24.846 28.818a35.388 35.388 0 0 1 4.378.005l-.101-.005c10.183 1.018 13.034-3.564 13.645-13.136.511-4.53.802-9.781.802-15.101 0-32.781-11.064-62.977-29.661-87.059l.245.33c-9.53-11.827-15.298-27.035-15.298-43.59 0-4.243.379-8.398 1.105-12.433l-.063.424c3.48-15.918 9.956-29.931 18.851-42.059l-.216.308c10.859-14.557 18.603-32.072 21.892-51.112l.103-.72c1.018-9.368 3.666-13.442 13.442-12.729 7.943.611 10.183-3.36 6.313-10.692-11.644-23.22-22.51-42.149-34.259-60.457l1.572 2.617c-4.99-7.739-8.656-8.248-13.645 0-11.303 18.228-21.995 36.761-31.669 55.905-5.295 10.183-4.582 12.321 7.434 12.627 8.452 0 10.183 3.87 8.045 10.183-3.062 11.614-7.78 21.795-13.969 30.895l.222-.346c-5.871 8.067-11.676 17.29-16.866 26.893l-.649 1.313c-18.839 40.732-12.118 79.224 11.914 115.679 13.442 20.366 24.337 41.343 21.588 63.033zm-291.742 28.92h12.831a8.35 8.35 0 0 0 8.655-8.777l.001.02c2.24-36.048 0-70.67-24.643-100.302-7.461-9.025-13.096-19.849-16.167-31.706l-.126-.574c-1.153-5.116-1.814-10.991-1.814-17.021 0-18.813 6.434-36.124 17.221-49.852l-.132.174c12.583-16.802 21.304-37.196 24.46-59.383l.081-.697c.713-7.332 4.99-8.146 10.896-8.452 12.016-.713 12.423-1.629 7.23-12.525-10.511-21.77-20.681-39.781-31.824-57.106l1.275 2.117c-6.11-9.572-8.656-9.674-14.969 0-9.721 15.102-19.889 33.144-29.066 51.761l-1.483 3.329c-5.397 10.183-4.684 12.22 7.23 12.423 8.859 0 10.183 3.259 8.146 10.998-4.894 15.6-12.12 29.146-21.393 41.015l.213-.283c-12.785 17.891-20.442 40.21-20.442 64.317 0 1.446.028 2.886.082 4.319l-.006-.206c1.924 27.392 11.765 52.166 27.224 72.422l-.239-.327c10.332 13.891 16.54 31.382 16.54 50.324 0 1.748-.053 3.485-.157 5.207l.011-.237c-.171 2.875-.268 6.238-.268 9.623s.097 6.748.289 10.085l-.021-.462a8.961 8.961 0 0 0 10.233 10.177l-.05.006h10.183zm135.332-27.902c0 28.512-3.666 28.614 25.967 28.309h8.554l.108.001a8.045 8.045 0 0 0 8.039-8.367v.015c1.018-32.687 1.426-65.069-19.857-93.276-6.781-8.451-12.677-18.069-17.283-28.39l-.333-.836c-3.597-8.613-5.686-18.621-5.686-29.116 0-17.738 5.967-34.081 16.004-47.133l-.135.183c12.969-17.081 22.084-37.781 25.662-60.325l.101-.773c.611-6.619 4.888-7.434 10.183-7.739 11.507-.713 12.729-2.749 7.434-13.034-10.811-21.794-21.138-39.761-32.39-57.072l1.332 2.186c-6.11-9.165-8.146-9.267-14.256 0-10.096 15.09-20.259 32.697-29.294 50.962l-1.255 2.805c-5.601 11.303-5.295 12.627 7.637 13.034 8.961 0 8.757 4.277 7.332 10.692-5.347 17.338-13.419 32.391-23.84 45.493l.215-.28c-23.014 34.724-23.014 71.281-6.924 108.143 5.446 11.423 11.143 21.135 17.556 30.31l-.449-.678c9.863 13.528 15.779 30.481 15.779 48.816 0 2.029-.072 4.04-.215 6.033l.015-.268zm19.348-349.174H295.307c-27.392 0-42.259-15.784-40.732-43.685.234-7.817 1.972-15.168 4.933-21.858l-.147.372c4.316-11.976 15.58-20.383 28.808-20.383.362 0 .722.006 1.08.019l-.052-.001h444.792c.366-.017.795-.026 1.227-.026 11.611 0 21.606 6.915 26.092 16.852l.073.18c4.189 7.61 6.653 16.678 6.653 26.321 0 10.72-3.045 20.728-8.317 29.208l.136-.235c-4.549 8.117-13.097 13.514-22.906 13.514-.683 0-1.36-.026-2.029-.078l.089.005H510.982z"/></svg>