<svg xmlns="http://www.w3.org/2000/svg" viewBox="0 0 1279 1024"><path d="M699.593 751.502C770.799 695.41 816.1 609.185 816.1 512.38c0-167.698-135.946-303.643-303.643-303.643S208.814 344.683 208.814 512.38c0 20.925 2.117 41.356 6.148 61.09l-.334-1.955c26.526 130.119 134.057 228.683 266.654 241.361l1.218.094v-26.212a23.152 23.152 0 0 1 4.364-12.609l-.047.068c6.99-8.12 42.35-5.242 49.545 2.364a21.725 21.725 0 0 0 13.907 6.471l.073.004h503.366c12.129 0 15.727-3.392 15.624-15.624V455.154c0-7.298-.822-12.129-8.737-15.521-6.933-3.685-11.573-10.862-11.573-19.123 0-2.047.285-4.028.817-5.904l-.037.152c1.439-11.41-2.775-15.624-14.082-18.502-82.801-22.756-142.625-97.366-142.625-185.947 0-106.33 86.197-192.527 192.527-192.527s192.527 86.197 192.527 192.527c0 89.439-60.987 164.633-143.643 186.266l-1.34.298c-10.279 2.673-12.952 6.784-12.232 16.241.401 1.704.631 3.66.631 5.67 0 10.498-6.27 19.531-15.269 23.56l-.164.065c-2.878 1.336-4.42 8.223-4.42 12.54V773.6c.062.819.097 1.774.097 2.738 0 21.289-17.258 38.546-38.546 38.546a39.04 39.04 0 0 1-3.749-.18l.157.012H935.706a19.929 19.929 0 0 0-1.526-.057c-6.772 0-12.78 3.275-16.526 8.327l-.039.055c-86.344 110.192-198.797 176.903-337.564 195.302-21.075 3.09-45.405 4.855-70.147 4.855-185.365 0-347.598-99.043-436.665-247.095l-1.282-2.298C26.605 699.83-.255 610.266-.255 514.429c0-18.744 1.027-37.248 3.029-55.458l-.201 2.248C24.952 235.653 191.543 54.689 407.895 10.83l3.27-.554c161.895-30.837 307.241 8.018 434.496 113.07 5.731 3.712 9.47 10.075 9.47 17.311 0 2.53-.457 4.953-1.293 7.192l.046-.142c-5.534 19.198-8.717 41.248-8.717 64.043 0 104.612 67.041 193.565 160.503 226.241l1.68.512c7.401 2.57 12.129 5.037 13.054 14.082 2.135 17.685 3.353 38.163 3.353 58.926 0 83.218-19.571 161.865-54.361 231.589l1.359-3.01c-2.653 7.382-9.593 12.566-17.744 12.566-.774 0-1.538-.047-2.288-.138l.09.009h-251.22zm385.465-671.531c-72.591.471-131.255 59.427-131.255 132.083 0 72.949 59.137 132.086 132.086 132.086 72.406 0 131.205-58.26 132.076-130.459l.001-.082c.004-.398.007-.867.007-1.338 0-73.063-59.229-132.292-132.292-132.292l-.657.002h.034zM456.699 608.109c-10.279 10.896-20.558 22.1-30.837 32.79-5.765 5.961-13.834 9.661-22.768 9.661-17.485 0-31.659-14.174-31.659-31.659 0-8.551 3.39-16.309 8.899-22.006l-.008.009a367.013 367.013 0 0 1 26.578-26.313l.353-.31c7.607-6.476 2.775-11.821.72-17.783s-3.803-11.615-12.643-10.999c-5.664.308-12.294.483-18.965.483s-13.301-.175-19.885-.522l.92.039c-.657.05-1.423.078-2.196.078-17.031 0-30.837-13.806-30.837-30.837 0-.534.014-1.064.04-1.591l-.003.074v-.076c0-17.031 13.806-30.837 30.837-30.837.76 0 1.513.027 2.259.081l-.1-.006H394.1c6.99 0 10.896-1.645 12.746-8.737s8.532-13.568-.617-21.175c-9.269-8.092-17.724-16.384-25.678-25.138l-.225-.251c-6.333-5.792-10.289-14.091-10.289-23.314 0-8.517 3.374-16.246 8.859-21.923l-.009.009c5.645-6.05 13.666-9.822 22.567-9.822 9.385 0 17.791 4.193 23.447 10.808l.035.042c9.457 9.046 18.913 18.091 27.651 27.753s13.157 0 18.913-1.645c4.121-1.946 7.118-5.688 8.003-10.189l.015-.091c.925-12.952 0-26.109 0-39.163a30.517 30.517 0 0 1-.049-1.754c0-17.372 14.082-31.454 31.454-31.454.234 0 .468.003.7.008l-.035-.001h.083c17.031 0 30.837 13.806 30.837 30.837 0 .796-.03 1.585-.089 2.365l.006-.104v32.893c0 6.887-1.85 14.082 8.326 16.858s16.138 7.607 23.847-2.775c7.422-8.833 15.257-16.766 23.682-24.032l.268-.226c5.674-5.7 13.527-9.227 22.203-9.227 17.301 0 31.327 14.026 31.327 31.327 0 8.625-3.486 16.436-9.125 22.101l.001-.001c-7.298 7.607-14.802 14.905-22.306 22.408-10.793 10.793-11.615 17.372-2.57 29.912a13.515 13.515 0 0 0 9.313 3.701l.151-.001h-.008 37.93c.153-.003.333-.004.514-.004 17.289 0 31.304 14.015 31.304 31.304 0 17.108-13.724 31.011-30.763 31.299h-.027c-5.855.391-12.692.613-19.582.613s-13.727-.223-20.505-.661l.924.048c-11.615-.925-11.41 8.326-13.568 14.493a16.043 16.043 0 0 0-.508 4.056c0 3.837 1.314 7.366 3.516 10.164l-.027-.035c8.12 9.662 17.783 17.988 26.417 27.137 6.518 5.684 10.614 14.004 10.614 23.28 0 8.535-3.468 16.261-9.071 21.844l-.001.001c-5.725 5.906-13.732 9.572-22.595 9.572-9.307 0-17.67-4.042-23.429-10.467l-.026-.03c-9.148-8.737-18.194-17.577-26.726-26.828-1.743-2.546-4.636-4.196-7.913-4.196a9.524 9.524 0 0 0-6.284 2.355l.011-.01c-5.653 3.7-15.521 2.056-14.802 13.671s0 26.109 0 39.163c.032.522.051 1.133.051 1.748 0 16.634-13.484 30.118-30.118 30.118h-.162.008c-.431.022-.936.034-1.445.034-16.826 0-30.504-13.476-30.831-30.224v-.031c-.378-4.907-.594-10.626-.594-16.395s.216-11.489.639-17.15l-.045.755c.925-11.513-1.336-19.633-14.185-21.792-3.724-1.19-6.921-2.583-9.943-4.254l.281.143zm101.968-97.959c.011-.367.017-.8.017-1.234 0-25.263-20.479-45.742-45.742-45.742h-.126.007a45.425 45.425 0 0 0-1.439-.022c-25.709 0-46.562 20.789-46.667 46.474v.01c.218 25.703 20.735 46.544 46.29 47.282l.068.002c.306.007.667.011 1.029.011 25.717 0 46.564-20.847 46.564-46.564l-.001-.337v.017zm594.027-371.794c-2.056 3.289-3.598 6.373-5.551 8.943-19.839 25.595-39.677 51.395-59.619 76.682-2.223 4.388-6.7 7.344-11.867 7.344a13.235 13.235 0 0 1-10.417-5.055l-.021-.028c-8.018-7.607-7.915-14.391.72-22.408 23.642-22.203 47.284-44.303 71.337-66.094 3.481-2.24 7.65-3.719 12.131-4.105l.101-.007c.72 0 2.159 2.981 3.392 4.728z"/></svg>