<svg xmlns="http://www.w3.org/2000/svg" viewBox="0 0 937 1024"><path d="M631.318 865.413c6.245 23.466 12.395 46.649 18.924 69.736 8.327 31.131-1.419 55.638-29.427 71.061-19.762 11.263-43.423 17.903-68.635 17.903-.82 0-1.638-.007-2.455-.021l.123.002c-.185.002-.403.004-.622.004-25.879 0-47.559-17.974-53.239-42.118l-.073-.37c-3.501-12.869-6.813-25.832-10.219-38.795s-6.529-25.548-9.462-38.417c-9.462 0-18.924-.757-28.387-1.419-124.161-8.061-229.468-81.514-282.5-185.98l-.893-1.94c-1.514-3.123-2.933-3.69-6.34-2.744-24.696 6.907-49.487 13.626-74.278 20.344-5.648 1.922-12.155 3.032-18.921 3.032-22.757 0-42.582-12.552-52.929-31.111l-.158-.308C4.397 692.655-.017 678.487-.017 663.288c0-17.204 5.654-33.087 15.206-45.892l-.145.203c8.084-10.046 19.15-17.396 31.845-20.723l.421-.094c25.075-7.002 50.15-14.099 75.698-20.628 5.583-1.419 6.718-3.785 6.718-9.462a333.861 333.861 0 0 1-.058-6.345c0-80.625 27.327-154.867 73.224-213.969l-.591.791c26.967-35.693 59.807-65.337 97.342-87.989l1.538-.861c4.069-2.366 5.393-4.447 3.974-9.462-5.393-18.924-10.314-37.849-15.234-57.341-1.699-5.793-2.676-12.447-2.676-19.33 0-28.715 17.009-53.457 41.501-64.701l.443-.182c12.556-6.932 27.524-11.011 43.445-11.011a91.63 91.63 0 0 1 17.307 1.64l-.572-.091c25.275 4.914 45.161 23.662 51.653 47.889l.106.463c5.583 18.924 10.408 37.849 15.234 57.341.852 3.406 2.271 4.258 5.583 4.258 17.694 0 35.483 0 53.178.946 40.753 3.118 78.382 13.468 112.626 29.777l-1.918-.822c68.887 31.578 123.819 83.702 158.089 148.445l.876 1.815c2.082 3.974 3.88 5.015 8.327 3.69 18.924-5.677 38.795-10.882 58.193-15.991 5.469-1.733 11.76-2.732 18.283-2.732 22.657 0 42.5 12.047 53.473 30.085l.156.277c8.496 12.186 13.575 27.304 13.575 43.609 0 7.174-.983 14.119-2.823 20.707l.129-.541c-5.403 22.666-22.987 40.155-45.293 45.338l-.409.08c-18.924 5.204-37.849 10.787-56.773 15.423-6.245 1.514-7.191 4.163-6.907 9.462.257 4.867.403 10.566.403 16.299 0 39.898-7.084 78.141-20.062 113.54l.734-2.289c-30.368 86.257-90.573 155.58-167.948 197.021l-1.899.929-4.636 2.555zm-154.044-30.941h.354c154.058 0 278.946-124.888 278.946-278.946S631.686 276.58 477.628 276.58c-152.76 0-276.84 122.793-278.919 275.06l-.002.196a270.297 270.297 0 0 0-.053 5.397c0 153.117 124.126 277.243 277.243 277.243.484 0 .968-.001 1.452-.004h-.074zm44.377-656.015l51.474-89.702 272.417 154.612-50.717 89.134c-69.021-79.104-163.388-134.539-270.343-153.626l-2.831-.419zm98.975-102.759L663.963 0l211.859 119.508-43.337 75.698L620.626 75.698zm68.317 592.334l-415.202-241.57c10.598-13.531 20.155-27.157 31.225-39.552 26.447-30.132 60.6-52.887 99.395-65.237l1.567-.431c18.763-6.074 40.351-9.576 62.757-9.576 11.583 0 22.948.936 34.023 2.736l-1.212-.163c63.116 9.988 117.811 40.398 158.33 84.131l.162.177c30.326 31.295 51.162 71.948 57.77 117.219l.138 1.154c1.352 9.608 2.123 20.706 2.123 31.984 0 43.183-11.313 83.724-31.137 118.82l.627-1.207a14.698 14.698 0 0 1-1.238 1.523l.008-.009zm-22.425 36.051c-40.651 58.055-107.225 95.547-182.555 95.547-33.988 0-66.193-7.632-94.996-21.276l1.35.575c-43.712-18.188-80.313-45.888-108.511-80.677l-.399-.509c-24.812-30.476-41.507-68.474-46.273-110.099l-.092-.987c-.806-7.348-1.266-15.868-1.266-24.497 0-35.348 7.716-68.894 21.556-99.046l-.609 1.48 411.795 239.488z"/></svg>