<svg xmlns="http://www.w3.org/2000/svg" viewBox="0 0 1024 1024"><path d="M382.149 295.252L236.992 440.409c-7.9 7.9-9.875 13.824-6.912 19.749.987.987.987 1.975 1.975 2.962 1.975 1.975 2.962 3.95 5.925 5.925 5.925 4.937 13.824 7.9 21.724 6.912h2.962c1.975 0 3.95-.987 5.925-1.975 3.95-.987 6.912-2.962 10.862-4.937 2.962-1.975 5.925-4.937 8.887-6.912 3.95-3.95 7.9-8.887 9.875-14.812 29.624-49.373 58.26-99.734 87.884-150.095.987-.987 1.975-2.962 2.962-3.95.987-1.975.987-3.95.987-5.925l-7.9 7.9zM689.25 457.196c-3.95-6.912-9.875-11.85-17.774-13.824-1.975-.987-2.962-.987-4.937-.987h-9.875c-11.85 1.975-23.699 9.875-31.599 23.699-30.611 51.348-60.235 101.709-89.859 153.057-7.9 12.837-15.799 26.662-24.687 41.473.987 0 2.962-.987 3.95-.987l176.756-177.743c.987 0 .987-.987 1.975-1.975s.987-1.975 1.975-3.95v-2.962c-.987-5.925-2.962-10.862-5.925-15.799zm-178.731 202.43zm90.846-291.302l-2.962-2.962c-3.95-2.962-8.887-3.95-13.824-4.937-8.887-.987-18.762.987-26.662 6.912-4.937 3.95-9.875 8.887-12.837 13.824-.987 1.975-1.975 2.962-2.962 4.937-20.737 35.549-41.473 71.097-63.198 106.646-20.737 35.549-41.473 71.097-63.198 106.646-4.937 7.9-6.912 15.799-6.912 24.687-.987 12.837 4.937 25.674 16.787 31.599s25.674 4.937 35.549-1.975c.987-.987 1.975-.987 2.962-1.975 3.95-2.962 6.912-5.925 9.875-9.875l5.925-8.887c8.887-15.799 17.774-30.611 26.662-46.411 8.887-15.799 17.774-30.611 27.649-46.411 22.712-38.511 46.411-78.01 69.122-116.521 3.95-5.925 6.912-12.837 7.9-19.749 4.937-12.837 0-26.662-9.875-35.549zm-102.696-97.759s-.987 0-1.975-.987c-.987 0-1.975 0-2.962-.987h-2.962c-4.937 0-9.875 0-13.824 1.975-11.85 4.937-20.737 12.837-25.674 23.699-38.511 63.198-76.035 127.383-113.558 191.568-8.887 12.837-15.799 26.662-19.749 41.473-2.962 18.762 8.887 36.536 27.649 40.486H354.5c14.812-1.975 26.662-10.862 32.586-24.687 4.937-9.875 10.862-18.762 16.787-28.636 36.536-61.223 72.085-122.446 108.621-182.681 3.95-6.912 6.912-14.812 8.887-22.712 4.937-16.787-5.925-33.574-22.712-38.511zm382.149 524.343c-8.887-10.862-17.774-21.724-27.649-31.599-43.448-50.361-85.909-99.734-129.358-150.095 0-.987-.987-.987-.987-1.975-.987-.987-1.975-2.962-1.975-3.95-.987-1.975 0-3.95 1.975-6.912 0-.987.987-.987 1.975-1.975l8.887-8.887c8.887-8.887 17.774-17.774 25.674-26.662 3.95-2.962 7.9-7.9 8.887-12.837 0-1.975.987-3.95.987-4.937 0-4.937-1.975-10.862-4.937-14.812l-11.85-11.85c-7.9-8.887-20.737-10.862-29.624-2.962l-2.962 2.962L522.368 715.91c-1.975 1.975-2.962 2.962-3.95 4.937l-.987.987c-5.925 8.887-3.95 18.762 4.937 28.636l5.925 5.925c13.824 13.824 24.687 14.812 38.511 0 11.85-11.85 23.699-22.712 34.561-34.561 3.95-3.95 6.912-4.937 11.85-.987 26.662 23.699 54.311 47.398 81.959 70.11 33.574 28.636 67.148 57.273 100.721 86.897 3.95 2.962 5.925 4.937 8.887 1.975 0 0 0-.987.987-.987 0-.987.987-.987.987-1.975 1.975-3.95 2.962-7.9 4.937-11.85.987-1.975 1.975-3.95 3.95-5.925.987-1.975 1.975-3.95 3.95-5.925 1.975-3.95 4.937-6.912 7.9-10.862 3.95-4.937 8.887-9.875 13.824-13.824 8.887-7.9 18.762-14.812 29.624-19.749 2.962-1.975 6.912-2.962 9.875-4.937 2.962-.987 3.95-1.975 4.937-2.962-.987-.987-1.975-2.962-4.937-5.925zM412.76 184.656c-.987-4.937-3.95-9.875-8.887-14.812l-78.997-78.997c-13.824-13.824-24.687-13.824-39.499 0s-26.662 26.662-40.486 39.499c-1.975 1.975-3.95 4.937-7.9 4.937 0-2.962.987-5.925.987-8.887v-13.824c-.987-26.662-11.85-54.311-30.611-75.047C182.68 10.863 147.132-2.961 111.583.001 53.323 3.951 6.912 48.387.987 105.66 0 110.597 0 114.547 0 119.484v10.862c0 1.975 0 3.95.987 4.937v1.975c0 1.975.987 2.962.987 4.937 2.962 17.774 10.862 33.574 21.724 48.386 21.724 28.636 49.373 43.448 82.947 46.411 9.875.987 20.737.987 31.599 0 0 2.962-.987 4.937-2.962 5.925-.987.987-1.975 1.975-2.962 1.975l-20.737 20.737c-6.912 5.925-12.837 12.837-18.762 18.762l-2.962 2.962v.987c-.987 1.975-2.962 2.962-3.95 4.937-.987.987-.987 1.975-1.975 2.962-5.925 9.875-2.962 17.774 7.9 29.624 25.674 25.674 51.348 51.348 78.01 77.022 13.824 13.824 24.687 13.824 38.511 0l194.53-194.53c6.912-6.912 10.862-13.824 9.875-20.737v-2.962zm-294.264-15.8c-27.649 0-49.373-22.712-49.373-50.361v-1.975c0-26.662 22.712-47.398 49.373-47.398h1.975c27.649 0 49.373 21.724 49.373 49.373-.987 27.649-23.699 50.361-51.348 50.361zm903.529 739.611c-10.862-40.486-48.386-68.135-90.847-67.148-33.574-.987-64.185 18.762-78.997 48.386-16.787 29.624-14.812 66.16 4.937 93.809 13.824 19.749 35.549 34.561 59.248 39.499h33.574c23.699-4.937 44.436-18.762 59.248-38.511 6.912-10.862 11.85-22.712 15.799-35.549v-33.574c-1.975-1.975-2.962-4.937-2.962-6.912zm-88.872 62.21c-20.737 0-38.511-17.774-38.511-38.511s17.774-38.511 38.511-38.511c20.737.987 37.524 17.774 38.511 38.511-.987 21.724-17.774 38.511-38.511 38.511zM412.76 186.631v-1.975c-.987-4.937-3.95-8.887-8.887-13.824l-78.997-78.997c-14.812-13.824-25.674-12.837-39.499 0s-26.662 26.662-40.486 39.499c-1.975 1.975-3.95 4.937-7.9 4.937v-.987c0-2.962.987-5.925.987-8.887v-13.824c-.987-26.662-11.85-53.323-30.611-74.06C182.68 11.851 147.132-2.96 111.583.002 53.323 3.952 6.912 48.388.987 105.661 0 110.598 0 114.548 0 119.485v10.862c0 1.975 0 3.95.987 4.937v1.975c0 1.975.987 2.962.987 4.937 3.95 17.774 10.862 33.574 21.724 48.386 21.724 28.636 50.361 43.448 81.959 46.411 9.875.987 20.737.987 31.599 0v.987c0 2.962-.987 3.95-1.975 4.937l-2.962 2.962-19.749 19.749-19.749 19.749-1.975 1.975v.987c-.987 1.975-2.962 2.962-3.95 4.937-.987.987-.987 1.975-1.975 2.962-5.925 9.875-2.962 18.762 7.9 29.624 25.674 25.674 52.336 51.348 78.01 77.022 13.824 13.824 24.687 13.824 38.511 0 65.173-65.173 130.345-129.358 195.518-194.53 6.912-7.9 9.875-14.812 7.9-21.724zm-343.638-70.11c0-26.662 22.712-47.398 49.373-47.398h1.975c27.649 0 49.373 21.724 49.373 49.373s-22.712 50.361-51.348 50.361c-27.649 0-49.373-22.712-49.373-50.361v-1.975z"/></svg>