<svg xmlns="http://www.w3.org/2000/svg" viewBox="0 0 1081 1024"><path d="M610.794 110.796h-19.602L498.215 17.4l-60.796 60.796 115.618 118.239v113.522l-96.121-95.807-19.077 19.182-44.759-45.492-23.166 22.746 44.864 45.702-18.553 18.658 177.253 175.89v410.69h101.886v-457.65h28.616V110.795h-93.186zM587.105 0h85.01v71.383h-85.01V0zm63.626 896.537h-47.903v107.652h.629l23.48 19.811 23.48-19.811h.314v-.314l.21-.21h-.21V896.538zm401.466-785.741h-84.381L874.944 17.4l-60.796 60.796 115.618 118.239v113.522l-96.121-95.807-19.182 19.182-44.654-45.492-23.27 22.746 44.968 45.702-18.658 18.658 177.358 175.89v410.69h101.991v-457.65h28.511V110.795h-28.511zM963.728 0h85.01v71.383h-85.01V0zm63.731 896.537H979.66v107.652h.524l23.48 19.811 23.48-19.811h.314v-.314l.21-.21h-.21V896.538zM240.88 110.796h-19.602L128.301 17.4 67.505 78.196l115.618 118.239v113.522L87.002 214.15 67.82 233.332 23.166 187.84 0 210.586l44.864 45.702-18.553 18.658 177.253 175.89v410.69h101.991v-457.65h28.511V110.795H240.88zM217.19 0h84.905v71.383H217.19V0zm63.626 896.537h-47.799v107.652h.524l23.48 19.811 23.48-19.811h.314v-.314l.21-.21h-.21V896.538z"/></svg>