<?xml version="1.0" encoding="utf-8"?>
<!-- Generator: Adobe Illustrator 21.0.0, SVG Export Plug-In . SVG Version: 6.00 Build 0)  -->
<svg version="1.1" id="Vrstva_1" xmlns="http://www.w3.org/2000/svg" xmlns:xlink="http://www.w3.org/1999/xlink" x="0px" y="0px"
	 viewBox="0 0 788.9 765.5" style="enable-background:new 0 0 788.9 765.5;" xml:space="preserve">
<path d="M141.6,662L19.2,525.8c-3.7-4.6-11-4.6-15.6-0.9s-4.6,11-0.9,15.6L125,675.8c3.7,4.6,11,4.6,15.6,0.9S145.3,665.7,141.6,662
	L141.6,662z M104.8,509.3l-44.2,39.6c-4.6,3.7-4.6,11-0.9,15.6l46.9,52.4c3.7,4.6,11,4.6,15.6,0.9l44.2-39.6
	c4.6-3.7,4.6-11,0.9-15.6l-46.9-52.4C116.7,505.6,109.4,505.6,104.8,509.3L104.8,509.3z M298,398c-3.7-4.6-11-4.6-15.6-0.9
	l-104,93.8l-1.8-1.8c-3.7-4.6-11-4.6-15.6-0.9l-23,21.2c-4.6,3.7-4.6,11-0.9,15.6l17.5,19.3c3.7,4.6,11,4.6,15.6,0.9l23-21.2
	c4.6-3.7,4.6-11,0.9-15.6l-0.9-1.8l104-92.9C301.7,409.9,301.7,402.6,298,398L298,398z M240.9,357.5l35.9,39.6l6.4-5.5
	c0,0,10.1-5.5,17.5,1.8l1.8,1.8c7.4,7.4,0,17.5,0,17.5l-6.4,5.5l133.4,148.1l17.5-15.6L258.4,341.8L240.9,357.5L240.9,357.5z
	 M371.6,88.8l-36.8-76.4c-5.5-11-18.4-15.6-29.4-10.1L68,118.3c-11,5.5-15.6,18.4-10.1,29.4l36.8,76.4c5.5,11,18.4,15.6,29.4,10.1
	l237.4-115.9C372.5,113.7,377.1,99.9,371.6,88.8L371.6,88.8z M786.5,618.8l-36.8-76.4c-5.5-11-18.4-15.6-29.4-10.1l-237.4,115
	c-11,5.5-15.6,18.4-10.1,29.4l36.8,76.4c5.5,11,18.4,15.6,29.4,10.1l237.4-115.9C787.4,642.7,792,628.9,786.5,618.8L786.5,618.8z
	 M299.8,226.8c0,0,73.6,81.9,84.6,94.8s13.8,23.9,14.7,40.5c0,14.7,13.8,27.6,16.6,30.4c1.8,2.8,13.8,17.5,28.5,19.3
	c16.6,1.8,26.7,6.4,38.6,18.4c11,12,84.6,94.8,84.6,94.8s13.8-6.4,40.5-3.7L505.9,407.2c0,0-12.9-15.6-16.6-37.7
	c-3.7-21.2-6.4-24.8-12.9-32.2l-0.9-0.9c-6.4-7.4-10.1-11-30.4-16.6c-21.2-5.5-35-20.2-35-20.2l-103-112.2
	C307.2,213.9,299.8,226.8,299.8,226.8L299.8,226.8z M229,343.7l3.7,0.9c8.3,2.8,16.6-1.8,19.3-10.1l45.1-138.9
	c2.8-8.3-1.8-16.6-10.1-19.3l-3.7-0.9c-8.3-2.8-16.6,1.8-19.3,10.1l-45.1,138.9C216.1,332.6,220.7,340.9,229,343.7L229,343.7z
	 M273.1,197.4c-3.7-3.7-2.8-10.1,0.9-12.9c3.7-3.7,10.1-2.8,12.9,0.9c3.7,3.7,2.8,10.1-0.9,12.9S276.8,201.1,273.1,197.4z
	 M617.2,544.2l-0.9-3.7c-1.8-8.3-9.2-13.8-17.5-12l-143.5,27.6c-8.3,1.8-13.8,9.2-12,17.5l0.9,3.7c1.8,8.3,9.2,13.8,17.5,12
	l143.5-27.6C613.6,559.9,619.1,552.5,617.2,544.2z M599.8,553.4c-4.6-1.8-7.4-7.4-5.5-12s7.4-7.4,12-5.5c4.6,1.8,7.4,7.4,5.5,12
	S604.4,555.3,599.8,553.4z"/>
</svg>
