<svg xmlns="http://www.w3.org/2000/svg" viewBox="0 0 1228 1024"><path d="M0 276.628V59.554C1.137 35.801-8.865 1.364 32.504 3.297c30.345 1.364 76.26-18.98 85.693 27.276s37.96 37.846 68.191 38.301c214.233 3.069 429.375-17.843 642.472 10.229 252.761 33.186 419.715 258.216 397.78 521.888-19.889 234.122-246.737 431.876-483.814 422.556-254.313-7.959-458.206-212.963-464.369-466.978l-.011-.584c0-23.64 18.412-72.169-20.23-67.623-45.461 5.342-111.719-49.893-137.746 39.551-12.274 42.165-57.508 21.026-88.421 22.73-35.005 1.591-32.05-25.799-32.05-49.097V276.63zm757.033 564.393c161.499-.682 296.744-136.382 294.698-296.63-1.926-163.304-134.757-294.945-298.335-294.945-164.777 0-298.355 133.578-298.355 298.355 0 1.199.007 2.396.021 3.592l-.002-.182c2.159 160.135 137.632 289.811 301.972 289.811zm-633.38-565.643c0 33.3 1.25 66.6 0 99.786-1.705 30.8 5.342 46.938 41.71 45.461 32.05-.909 38.301-15.229 37.96-42.278-.909-66.486-1.25-133.086 0-199.572 0-27.845-6.592-40.915-38.187-41.937-36.482-1.25-42.847 15.57-41.142 45.461s0 61.372 0 92.058zm579.622 366.185c-42.96 5.228-69.668 31.481-100.695 47.961-27.958 14.888-47.052 15.798-64.327-13.411-16.025-27.049-12.615-50.689 12.047-68.191 29.436-20.571 61.485-37.391 93.762-56.826-12.161-33.414-45.461-39.437-70.464-54.553-29.436-17.502-64.213-32.959-37.164-76.033 24.435-39.096 55.576-25.344 86.489-6.819 21.707 13.07 44.324 24.549 79.556 44.097V354.251c0-29.436 0-58.758 42.051-59.212 39.323 0 56.826 21.48 58.303 56.826 1.591 30.686 0 61.599 0 95.695 42.619-1.477 67.395-30.8 98.422-45.461 26.026-12.161 45.461-21.821 64.781 9.206s13.638 54.098-13.638 72.964-58.871 38.528-96.717 61.258c37.391 22.73 66.713 41.824 97.286 58.758 27.958 15.457 37.278 38.301 20.003 63.758-14.206 20.912-34.891 39.437-65.463 21.935s-62.167-34.095-95.695-52.052c-12.843 36.368-10.342 68.986-8.751 101.718 1.25 26.594.682 52.621-37.05 55.348s-59.781-14.434-62.395-51.598c-2.387-33.073 0-66.6 0-102.286zm93.877-97.172c-3.182-27.049-17.957-45.461-43.529-44.665-30.345 0-45.461 21.821-42.392 50.916 2.614 25.117 18.866 42.051 46.029 39.323s38.414-20.912 39.778-45.461z"/></svg>