<svg xmlns="http://www.w3.org/2000/svg" viewBox="0 0 1025 1024"><path d="M1024.596 612.235H880.523c-2.78-128.583-47.164-239.393-137.917-330.246S541.142 146.753 412.36 143.774V-.001c.726-.003 1.585-.005 2.444-.005 91.898 0 178.955 20.725 256.753 57.755l-3.619-1.55c125.403 58.223 225.186 153.97 286.948 272.663l1.595 3.369c42.915 80.304 68.123 175.649 68.123 276.881 0 1.098-.003 2.196-.009 3.293l.001-.17zM168.201 714.904c-25.069-.267-48.918-5.164-70.839-13.872l1.335.468c-41.199-16.334-74.062-46.335-93.662-84.297l-.467-.995C1.733 610.814.05 604.429.001 597.656v-.016c1.534-200.326 141.862-367.444 329.493-410.031l2.838-.542c16.582-3.475 33.362-5.759 51.731-8.837-15.39 13.107-29.788 23.731-42.596 36.44-36.384 36.732-59.953 86.214-63.416 141.153l-.032.637a14.816 14.816 0 0 1-5.723 9.903l-.036.026c-63.744 41.572-108.948 107.016-123.057 183.363l-.264 1.717c-2.956 15.042-4.648 32.338-4.648 50.029 0 37.552 7.622 73.324 21.403 105.853l-.67-1.78 3.575 9.036zm677.867-148.939c-12.709-12.114-24.227-24.426-37.135-35.05-33.996-28.109-77.343-46.018-124.773-48.531l-.534-.023a9.098 9.098 0 0 1-.243.003c-4.659 0-8.644-2.891-10.256-6.978l-.026-.075C634.723 398.705 563.84 343.246 479.04 326.657l-1.743-.284c-16.44-3.538-35.328-5.564-54.688-5.564-35.898 0-70.169 6.965-101.535 19.618l1.824-.65-6.156 2.383c.036-2.907.251-5.727.636-8.493l-.04.351c16.142-79.797 81.41-140.489 162.289-149.556l.848-.077c2.589-.158 5.615-.248 8.662-.248 21.216 0 41.413 4.363 59.742 12.242l-.985-.377q239.691 81.022 292.912 328.955c1.39 6.653 2.085 13.404 2.979 19.858s1.589 13.504 2.383 20.752zm-364.402 454.659c10.525-12.412 21.05-23.234 29.788-35.249 26.417-35.235 42.302-79.691 42.302-127.856 0-.43-.001-.86-.004-1.29v.066a11.452 11.452 0 0 1-.096-1.502c0-4.799 2.862-8.931 6.972-10.78l.075-.03c95.916-57.788 144.272-142.484 141.988-255.181-.438-12.495-1.685-24.331-3.698-35.905l.223 1.55c-1.787-11.319-4.567-22.539-7.248-35.447 5.858.894 11.419 1.39 16.88 2.681 61.731 13.318 111.193 56.089 133.607 112.541l.437 1.248c1.611 5.094 2.539 10.953 2.539 17.029s-.928 11.934-2.65 17.442l.111-.414c-29.419 175.354-163.179 312.693-334.189 347.068l-2.71.455c-7.546 1.489-15.092 2.383-23.929 3.773zM9.333 686.01c13.504 9.929 26.511 21.447 40.809 30.681 32.49 21.488 72.366 34.282 115.23 34.282 4.698 0 9.361-.154 13.983-.456l-.629.033a14.49 14.49 0 0 1 1.771-.106c5.646 0 10.558 3.142 13.084 7.772l.039.078c42.129 61.758 107.233 105.174 182.75 118.027l1.636.23c14.189 2.653 30.513 4.17 47.191 4.17 30.762 0 60.319-5.162 87.851-14.667l-1.891.568c1.589-.596 3.376-.794 5.858-1.39-.821 22.087-5.524 42.855-13.443 61.952l.435-1.185c-17.163 42.399-48.635 76.026-88.301 95.543l-1.062.472c-3.753 1.623-8.123 2.567-12.714 2.567-1.222 0-2.429-.067-3.617-.197l.147.013c-111.285-6.552-209.978-55.626-280.997-131.051l-.199-.213C65.256 839.715 27.542 772.132 10.456 696.719l-.527-2.766c0-1.986-.894-4.071-1.192-6.057a4.668 4.668 0 0 1 .005-1.817l-.005.03zm512.05-85.094c0 54.015-43.788 97.802-97.803 97.802s-97.803-43.788-97.803-97.803 43.788-97.803 97.803-97.803l.419.001h-.022c53.832.169 97.406 43.848 97.406 97.703v.105-.005zm-279.11 35.944l-.201.001c-19.687 0-35.646-15.959-35.646-35.646l.002-.419V600.804c0-19.886 15.843-36.072 35.595-36.624l.051-.001c20.225.052 36.646 16.265 37.035 36.404l.001.036v.104c0 19.961-16.181 36.142-36.142 36.142-.21 0-.419-.002-.627-.005h.031zm53.618-128.087c-.239.006-.521.009-.803.009-19.687 0-35.646-15.959-35.646-35.646 0-.283.003-.564.01-.845l-.001.042c.168-19.908 16.318-35.988 36.236-36.043h.005c19.894.384 35.914 16.438 36.241 36.31v.031c-.056 19.958-16.192 36.129-36.132 36.242h-.011zM551.965 764.55c-.566.032-1.228.05-1.894.05-19.961 0-36.142-16.181-36.142-36.142s16.181-36.142 36.142-36.142c.666 0 1.328.018 1.985.054l-.092-.004c.566-.032 1.228-.05 1.894-.05 19.961 0 36.142 16.181 36.142 36.142S573.819 764.6 553.858 764.6c-.666 0-1.328-.018-1.985-.054l.092.004zm-128.484 53.617c-.149.002-.324.003-.5.003-19.742 0-35.745-16.004-35.745-35.745 0-.176.001-.351.004-.526v.025c0-20.125 16.315-36.44 36.44-36.44l.418.002h-.021c19.822.768 35.605 17.002 35.646 36.933v.004c-.389 19.77-16.508 35.647-36.334 35.647l-.321-.001h.016zm-.397-362.714l-.309.001c-19.632 0-35.547-15.915-35.547-35.547 0-.315.004-.628.012-.941l-.001.046c.111-19.767 16.161-35.747 35.943-35.747l.419.002h-.021c20.076.279 36.244 16.619 36.244 36.735l-.002.422v-.021c-.655 19.501-16.622 35.062-36.222 35.062-.321 0-.641-.004-.96-.012l.047.001zM295.891 764.55c-.566.032-1.228.05-1.894.05-19.961 0-36.142-16.181-36.142-36.142s16.181-36.142 36.142-36.142c.666 0 1.328.018 1.985.054l-.092-.004c19.956.111 36.118 16.202 36.341 36.121V728.609c0 19.851-16.093 35.944-35.944 35.944l-.418-.002h.021zm255.776-255.777c-.417.017-.907.027-1.399.027-20.071 0-36.341-16.27-36.341-36.341s16.27-36.341 36.341-36.341c.806 0 1.607.026 2.4.078l-.108-.006c19.712 1.112 35.34 17.12 35.843 36.888l.001.048c-.499 19.792-16.662 35.646-36.529 35.646l-.221-.001h.011zm52.426 128.087c-19.512-.157-35.269-16.011-35.269-35.546 0-.419.007-.837.022-1.253l-.002.06c.334-19.923 16.563-35.945 36.535-35.945l.319.001h-.016c19.903.552 35.84 16.767 35.944 36.728V600.932c0 19.851-16.093 35.944-35.944 35.944-.384 0-.767-.006-1.148-.018l.056.001z"/></svg>