<svg id="Vrstva_1" data-name="Vrstva 1" xmlns="http://www.w3.org/2000/svg" viewBox="0 0 89.43 60.07">
    <path class="cls-1"
          d="M86.89,24H83.52A2.54,2.54,0,0,0,81,26.58V28H78.37V16.13h-7c0,4.5,0,9,0,13.45v7.73a9.86,9.86,0,0,1-6.54,9.83,7.37,7.37,0,0,1-2.81.55A9.21,9.21,0,0,1,53,39c-.07-3.1-.05-6.24,0-9.28,0-1.27,0-2.54,0-3.82a1.48,1.48,0,0,1,0-.21v-9.6H16.05a4.12,4.12,0,0,0-4.11,4.12V25.2h3.81v1.92H8.45V25.75a2.54,2.54,0,0,0-2.54-2.54H2.54A2.54,2.54,0,0,0,0,25.75V45.32a2.55,2.55,0,0,0,2.54,2.55H5.91a2.55,2.55,0,0,0,2.54-2.55V43.94h7.3v1.92H11.94v5a4.12,4.12,0,0,0,4.11,4.11H36.19l5.13,5.12H78.37V44.79H81v1.37a2.55,2.55,0,0,0,2.54,2.54h3.37a2.55,2.55,0,0,0,2.54-2.54V26.58A2.54,2.54,0,0,0,86.89,24ZM36.19,51.31H20.4V50H34.79v-.26c0-.73,0-1.45,0-2.18,0-.2-.06-.24-.24-.24l-10.13,0-4,0V44.76H34.78a1.79,1.79,0,0,0,0-.21c0-.75,0-1.5,0-2.25,0-.16,0-.21-.19-.21l-12,0-2.18,0V39.5H34.78c0-.12,0-.18,0-.25,0-.72,0-1.45,0-2.17,0-.2-.06-.24-.24-.24l-9.68,0H20.4V34.24H34.78c0-.1,0-.16,0-.22,0-.74,0-1.49,0-2.23,0-.17,0-.22-.2-.21l-12.24,0h-2V29H34.77c0-.1,0-.14,0-.17,0-.78,0-1.55,0-2.32,0-.16-.06-.19-.19-.19l-2.24,0h-12V23.72H34.78c0-.1,0-.15,0-.21,0-.75,0-1.5,0-2.25,0-.15,0-.21-.19-.21-3.45,0-6.9,0-10.35,0l-3.85,0V19.76H36.19Z"/>
    <path class="cls-1"
          d="M53.48,7.28H54.6a20,20,0,0,1-.4,4.14A11.26,11.26,0,0,0,54,13V25.73a.76.76,0,0,0,0,.15c0,1.3,0,2.59,0,3.89,0,3,0,6.17,0,9.25a8.28,8.28,0,0,0,8,7.67,6.41,6.41,0,0,0,2.43-.47c4-1.64,5.91-4.56,5.92-8.91V29.52c0-5.14,0-10.29,0-15.43a10.06,10.06,0,0,0-.46-2.19,34,34,0,0,1-.79-3.51V7.28h1.17a2.2,2.2,0,0,0,2.19-2.19V2.19A2.19,2.19,0,0,0,70.33,0H53.48a2.2,2.2,0,0,0-2.19,2.19v2.9A2.2,2.2,0,0,0,53.48,7.28Z"/>
</svg>