<svg xmlns="http://www.w3.org/2000/svg" viewBox="0 0 1024 1024"><path d="M512 0c283.34 0 512 229.654 512 512 0 283.34-229.654 512-512 512C232.637 1024 4.971 800.311 0 521.942-5.965 239.596 217.724 5.965 500.07 0H512zm491.122 512c0-270.416-218.718-490.128-490.128-490.128S22.866 240.59 21.872 512c0 269.421 216.73 488.14 486.151 490.128 271.41 2.983 492.117-216.73 495.099-490.128zm-937.506.994c-.994-247.55 198.835-448.373 445.39-448.373s448.373 198.835 448.373 446.384c.994 247.55-198.835 448.373-446.384 448.373h-.994c-244.567-.994-445.39-199.829-446.384-446.384zM512 296.264c-119.301 0-215.736 97.429-215.736 216.73s97.429 215.736 216.73 215.736S728.73 631.301 728.73 512c-.994-119.301-97.429-215.736-216.73-215.736zM307.2 795.34c0 22.866 18.889 41.755 41.755 41.755s41.755-18.889 41.755-41.755c0-22.866-18.889-41.755-41.755-41.755h-.994c-22.866.994-40.761 18.889-40.761 41.755zm368.839-41.756c-22.866 0-41.755 18.889-41.755 41.755v.994c0 22.866 18.889 41.755 41.755 41.755s41.755-18.889 41.755-41.755c0-23.86-18.889-42.75-41.755-42.75zm77.545-405.623c0 22.866 17.895 41.755 41.755 42.75 22.866 0 41.755-17.895 42.75-41.755 0-22.866-17.895-41.755-41.755-42.75-22.866 0-41.755 18.889-42.75 41.755.994 0 .994 0 0 0zm0 328.078c0 22.866 18.889 41.755 41.755 41.755s41.755-18.889 41.755-41.755-18.889-41.755-41.755-41.755c-22.866 0-41.755 18.889-41.755 41.755.994 0 .994 0 0 0zM307.2 228.66c.994 22.866 20.878 40.761 43.744 39.767 21.872-.994 38.773-17.895 39.767-39.767.994-22.866-16.901-42.75-39.767-43.744s-42.75 16.901-43.744 39.767v3.977zm-78.54 77.546c-22.866 0-41.755 18.889-41.755 41.755s18.889 41.755 41.755 41.755 41.755-18.889 41.755-41.755c0-22.866-18.889-41.755-41.755-41.755zm325.095-121.289c0-22.866-18.889-41.755-41.755-41.755s-41.755 18.889-41.755 41.755c0 22.866 17.895 40.761 40.761 41.755 23.86 0 42.75-18.889 42.75-41.755zm164.039 43.743c0-22.866-17.895-41.755-41.755-41.755-22.866 0-41.755 17.895-41.755 41.755 0 22.866 17.895 41.755 40.761 41.755 23.86 0 42.75-18.889 42.75-41.755zM185.911 470.245c-22.866 0-41.755 17.895-41.755 40.761s17.895 41.755 40.761 41.755c22.866 0 41.755-17.895 41.755-40.761 0-22.866-17.895-41.755-40.761-41.755zm653.172 83.51c22.866 0 41.755-17.895 41.755-41.755 0-22.866-17.895-41.755-41.755-41.755-22.866 0-41.755 17.895-41.755 40.761s17.895 41.755 41.755 42.75zM227.666 717.794c22.866 0 41.755-17.895 42.75-40.761 0-22.866-17.895-41.755-40.761-42.75-22.866 0-41.755 17.895-42.75 40.761s17.895 41.755 40.761 42.75zm326.089 122.284c0-22.866-18.889-41.755-41.755-41.755s-41.755 18.889-41.755 41.755c0 22.866 18.889 41.755 41.755 41.755h.994c22.866-.994 40.761-18.889 40.761-41.755zm-40.761-505.041c97.429 0 176.963 79.534 176.963 177.957 0 97.429-79.534 176.963-177.957 176.963-97.429 0-176.963-79.534-176.963-177.957.994-98.423 80.528-176.963 177.957-176.963zM356.909 512c0 85.499 69.592 155.091 155.091 155.091S667.091 597.499 667.091 512c0-85.499-68.598-155.091-154.097-155.091S357.903 425.507 356.909 512z"/></svg>