<?xml version="1.0" encoding="utf-8"?>
<!-- Generator: Adobe Illustrator 21.0.0, SVG Export Plug-In . SVG Version: 6.00 Build 0)  -->
<svg version="1.1" id="Vrstva_1" xmlns="http://www.w3.org/2000/svg" xmlns:xlink="http://www.w3.org/1999/xlink" x="0px" y="0px"
	 viewBox="0 0 879.9 666.1" style="enable-background:new 0 0 879.9 666.1;" xml:space="preserve">
<path d="M110.8,442.5H22.5c-12.9,0-23-10.1-23-23V239.2c0-12.9,10.1-23,23-23h88.3c12.9,0,23,10.1,23,23v179.4
	C133.8,431.5,123.7,442.5,110.8,442.5L110.8,442.5z M128.3,279.7h139.8v105.8H128.3V279.7L128.3,279.7z M337.1,0h80v666.1h-80
	L337.1,0L337.1,0z M693.2,0h80v666.1h-80V0L693.2,0z M443.8,69v528.1h220.8V69L443.8,69L443.8,69z M606.7,496.8
	c0,10.1-8.3,18.4-18.4,18.4h-67.2c-10.1,0-18.4-8.3-18.4-18.4v-11c0-10.1,8.3-18.4,18.4-18.4h67.2c10.1,0,18.4,8.3,18.4,18.4V496.8z
	 M606.7,391c0,10.1-8.3,18.4-18.4,18.4h-67.2c-10.1,0-18.4-8.3-18.4-18.4v-11c0-10.1,8.3-18.4,18.4-18.4h67.2
	c10.1,0,18.4,8.3,18.4,18.4V391z M606.7,285.2c0,10.1-8.3,18.4-18.4,18.4h-67.2c-10.1,0-18.4-8.3-18.4-18.4v-11
	c0-10.1,8.3-18.4,18.4-18.4h67.2c10.1,0,18.4,8.3,18.4,18.4V285.2z M606.7,179.4c0,10.1-8.3,18.4-18.4,18.4h-67.2
	c-10.1,0-18.4-8.3-18.4-18.4v-11c0-10.1,8.3-18.4,18.4-18.4h67.2c10.1,0,18.4,8.3,18.4,18.4V179.4z M396,69v528.1H284.7
	c-38.6,0-69.9-31.3-69.9-69.9v-46h81.9v-25.8h-81.9v-36.8h81.9v-25.8h-81.9V269.6h81.9v-25.8h-81.9v-41.4h81.9v-25.8h-81.9v-37.7
	c0-38.6,31.3-69.9,69.9-69.9H396L396,69z M798,175.7v25.8h81.9v41.4H798v25.8h81.9v123.3H798v26.7h81.9v36.8H798v25.8h81.9v46
	c0,38.6-31.3,69.9-69.9,69.9H697.8V69H810c38.6,0,69.9,31.3,69.9,69.9v37.7H798V175.7z M790.7,2.8h47.8V12h-47.8V2.8z M790.7,636.7
	h47.8v9.2h-47.8V636.7z M810,617.3h9.2v47.8H810V617.3z"/>
</svg>
