<?xml version="1.0" encoding="utf-8"?>
<!-- Generator: Adobe Illustrator 21.0.0, SVG Export Plug-In . SVG Version: 6.00 Build 0)  -->
<svg version="1.1" id="Vrstva_1" xmlns="http://www.w3.org/2000/svg" xmlns:xlink="http://www.w3.org/1999/xlink" x="0px" y="0px"
	 viewBox="0 0 45.8 35.9" style="enable-background:new 0 0 45.8 35.9;" xml:space="preserve">
<path class="st0" d="M0,18.4c0-1.4,0-2.8,0-4.3c0-0.3,0.1-0.7,0.4-0.8c2.6-1.4,5.1-2.9,7.6-4.4c0.2-0.2,0.6-0.2,0.8,0
	c2.5,1.5,5.1,2.9,7.6,4.4c0.3,0.2,0.5,0.5,0.5,0.9c0,2.9,0,5.7,0,8.6c0,0.3-0.1,0.6-0.4,0.8c-2.6,1.5-5.1,2.9-7.7,4.4
	c-0.2,0.2-0.5,0.2-0.7,0c-2.6-1.5-5.2-3-7.7-4.4C0.1,23.4,0,23.1,0,22.8C0,21.3,0,19.9,0,18.4z M8.5,17.4c0.1-0.1,0.2-0.1,0.3-0.2
	l5-3c0.1-0.1,0.3-0.1,0.3-0.3s-0.2-0.2-0.3-0.2c-1.7-1-3.4-1.9-5-2.9c-0.2-0.2-0.5-0.2-0.7,0c-1.7,1-3.4,2-5.1,2.9
	c-0.4,0.2-0.4,0.3,0,0.5c1.6,1,3.3,1.9,4.9,2.8C8.2,17.3,8.3,17.4,8.5,17.4L8.5,17.4z M15.2,18.9c0-1,0-1.9,0-2.9
	c0-0.4-0.1-0.4-0.4-0.2c-1.7,1-3.4,2-5.1,3c-0.2,0.1-0.3,0.3-0.3,0.5c0,1.9,0,3.9,0,5.8c0,0.3,0.1,0.4,0.4,0.2c1.7-1,3.5-2,5.2-3
	c0.2-0.1,0.3-0.3,0.3-0.5C15.2,20.9,15.2,19.9,15.2,18.9L15.2,18.9z M1.8,18.9c0,0.9,0,1.9,0,2.8c0,0.3,0.1,0.6,0.4,0.7
	c1.7,1,3.4,1.9,5,2.9c0.3,0.2,0.4,0.1,0.4-0.3c0-1.9,0-3.8,0-5.6c0-0.3-0.1-0.6-0.4-0.7c-1.7-1-3.4-2-5.1-3
	c-0.3-0.2-0.3-0.1-0.3,0.2C1.8,16.9,1.8,17.9,1.8,18.9L1.8,18.9z"/>
<path class="st0" d="M45.8,18.4c0,1.5,0,2.9,0,4.4c0,0.3-0.1,0.6-0.4,0.8c-2.6,1.5-5.1,2.9-7.6,4.4c-0.2,0.2-0.6,0.2-0.8,0
	c-2.5-1.5-5.1-2.9-7.6-4.3c-0.3-0.1-0.5-0.5-0.5-0.8c0-2.9,0-5.8,0-8.6c0-0.3,0.1-0.6,0.4-0.8c2.6-1.5,5.2-3,7.8-4.5
	c0.2-0.1,0.5-0.1,0.7,0.1c1.3,0.7,2.5,1.5,3.8,2.2c1.2,0.7,2.5,1.4,3.7,2.1c0.4,0.2,0.7,0.6,0.6,1C45.8,15.6,45.8,17,45.8,18.4z
	 M43.1,14c0-0.1-0.2-0.1-0.2-0.2c-1.7-1-3.4-2-5.1-2.9c-0.2-0.2-0.5-0.2-0.7,0c-1.7,1-3.4,2-5.2,3c-0.2,0.1-0.3,0.2,0,0.4
	c1.8,1,3.5,2,5.3,3.1c0.2,0.1,0.4,0.1,0.6,0c1.7-1,3.5-2.1,5.2-3.1C43,14.2,43.1,14.2,43.1,14L43.1,14z M30.6,18.9c0,1,0,2,0,3
	c0,0.2,0.1,0.5,0.3,0.6c1.7,1,3.5,2,5.2,2.9c0.3,0.2,0.4,0.1,0.4-0.2c0-1.9,0-3.9,0-5.8c0-0.2-0.1-0.5-0.3-0.6c-1.7-1-3.4-2-5.1-3
	c-0.4-0.2-0.4-0.1-0.4,0.3C30.6,17,30.6,18,30.6,18.9L30.6,18.9z M38.2,25.6c1.9-1.1,3.8-2.2,5.6-3.2c0.2-0.1,0.3-0.3,0.2-0.5
	c0-2,0-4,0-6c0-0.3-0.1-0.3-0.3-0.2c-1.7,1-3.4,2-5.2,3c-0.2,0.1-0.4,0.3-0.3,0.6c0,1,0,1.9,0,2.9L38.2,25.6z"/>
<path class="st0" d="M12.7,5.4c0.5-0.1,1-0.2,1.5-0.1c0.2,0,0.4,0.1,0.4,0.3c0,0,0,0,0,0c0,0.4,0.1,0.7,0,1.1c0,0.2-0.1,0.3-0.3,0.3
	c-1.5,0.1-3,0.1-4.4,0.2c-0.4,0-0.5-0.2-0.5-0.5c0-1.3-0.1-2.7-0.2-4c0-0.4,0-0.7,0.5-0.7C9.9,2,10,2,10.2,2c1,0,0.8,0,0.8,0.8
	c0,0.4,0.1,0.8,0.1,1.2c0,0.1,0,0.2,0.1,0.3c0.1,0.1,0.2-0.1,0.3-0.1c1-0.8,2.1-1.6,3.3-2.2c2-1,4.2-1.6,6.5-1.8
	c3.6-0.3,7.2,0.4,10.4,2.2c1.7,1,3.3,2.2,4.6,3.6c0.3,0.3,0.2,0.5,0,0.7c-0.9,0.8-0.9,0.8-1.8,0c-2.4-2.5-5.6-4.2-9.1-4.6
	c-4.4-0.7-8.9,0.5-12.3,3.2C12.8,5.2,12.7,5.3,12.7,5.4z"/>
<path class="st0" d="M32.3,31c-0.4,0-0.9,0-1.3,0c-0.3,0-0.4-0.1-0.4-0.4c-0.1-1.4-0.1-1.4,1.3-1.4c1.2,0,2.3-0.1,3.5-0.1
	c0.4,0,0.5,0.1,0.5,0.5c0,1.4,0,2.8,0.1,4.2c0,0.4-0.1,0.6-0.5,0.6c-1.3,0-1.3,0-1.3-1.2c0-0.3,0-0.7,0-1.1c-0.8,0.5-1.4,1-2.2,1.4
	c-2.1,1.2-4.4,2-6.7,2.3c-4.6,0.6-9.3-0.6-13-3.3c-0.9-0.7-1.8-1.4-2.5-2.2c-0.2-0.3-0.2-0.4,0-0.6c0.3-0.2,0.6-0.8,1-0.8
	c0.4,0,0.6,0.5,0.9,0.8c2.3,2.2,5.3,3.7,8.4,4.3c3.4,0.6,6.9,0.1,10-1.4C30.8,32.1,31.6,31.6,32.3,31z"/>
</svg>
