<?xml version="1.0" encoding="utf-8"?>
<!-- Generator: Adobe Illustrator 21.0.0, SVG Export Plug-In . SVG Version: 6.00 Build 0)  -->
<svg version="1.1" id="Vrstva_1" xmlns="http://www.w3.org/2000/svg" xmlns:xlink="http://www.w3.org/1999/xlink" x="0px" y="0px"
	 viewBox="0 0 512 512" >
<path d="M255.5,0c21.1,0,42.1,3.1,63.2,9.4c26.3,9.4,52.7,25.1,73.7,47.1c15.8,15.7,29,34.6,42.1,53.4c7.9,15.7,15.8,31.4,21.1,47.1
	c0,3.1,2.6,3.1,2.6,3.1c13.2-3.1,26.3-9.4,39.5-12.6c2.6,0,5.3,0,7.9,0c5.3,3.1,7.9,6.3,5.3,12.6c-2.6,9.4-5.3,22-7.9,31.4
	c-5.3,25.1-10.5,53.4-15.8,78.5s-10.5,50.3-15.8,75.4c0,6.3-5.3,9.4-10.5,9.4c-2.6,0-2.6-3.1-5.3-3.1
	c-10.5-12.6-21.1-25.1-31.6-37.7l-68.5-84.8c-5.3-6.3-7.9-9.4-10.5-15.7c-2.6-3.1-5.3-9.4,0-15.7c2.6-3.1,2.6-3.1,5.3-3.1
	c13.2-3.1,26.3-9.4,39.5-12.6c2.6,0,2.6,0,2.6-3.1c-5.3-15.7-13.2-28.3-23.7-40.8c-21.1-28.3-50-47.1-84.3-56.5
	c-26.3-3.1-52.7,0-76.4,9.4c-7.9,3.1-15.8,6.3-23.7,12.6c-13.2,9.4-29,6.3-39.5-3.1c-7.9-6.3-10.5-18.8-10.5-28.3
	c0-15.7,5.3-28.3,13.2-37.7c7.9-3.1,13.2-9.4,21.1-12.6c15.8-9.4,31.6-15.7,50-18.8C231.8,0,242.3,0,255.5,0z"/>
<path d="M258.1,512c-21.1,0-42.1-3.1-63.2-9.4c-29-9.4-55.3-28.3-79-50.3c-23.7-25.1-44.8-56.5-57.9-94.2c-2.6-6.3-2.6-6.3-10.5-6.3
	c-13.2,3.1-23.7,9.4-36.9,12.6c-5.3,3.1-10.5,0-10.5-6.3c0-3.1,0-3.1,0-6.3v-3.1c2.6-15.7,7.9-31.4,10.5-50.3L29,216.7
	c2.6-15.7,7.9-34.6,10.5-50.3c2.6-6.3,5.3-9.4,10.5-9.4c2.6,0,7.9,0,10.5,3.1c10.5,12.6,21.1,25.1,31.6,37.7
	c7.9,12.6,15.8,22,23.7,31.4s18.4,22,26.3,31.4c7.9,12.6,18.4,25.1,29,37.7c2.6,3.1,2.6,9.4,0,15.7c0,0-2.6,0-5.3,0
	c-13.2,3.1-26.3,9.4-39.5,12.6c-2.6,0-2.6,3.1-2.6,3.1c5.3,15.7,15.8,31.4,23.7,44c15.8,18.8,34.2,34.6,52.7,44
	c15.8,6.3,34.2,12.6,50,12.6c21.1,0,42.1-3.1,63.2-15.7c5.3-3.1,10.5-6.3,15.8-9.4c13.2-9.4,29-6.3,42.1,6.3
	c13.2,15.7,13.2,40.8,0,56.5c-2.6,3.1-5.3,3.1-7.9,6.3c-18.4,12.6-39.5,22-60.6,28.3C289.7,508.9,273.9,512,258.1,512z"/>
</svg>
