<?xml version="1.0" encoding="utf-8"?>
<!-- Generator: Adobe Illustrator 24.0.0, SVG Export Plug-In . SVG Version: 6.00 Build 0)  -->
<svg version="1.1" id="Layer_1" xmlns="http://www.w3.org/2000/svg" xmlns:xlink="http://www.w3.org/1999/xlink" x="0px" y="0px"
	 viewBox="0 0 14.2 14.2" style="enable-background:new 0 0 14.2 14.2;" xml:space="preserve">
<path d="M14,13.1L11,10c2.1-2.7,1.7-6.5-1-8.7c-2.7-2.2-6.5-1.7-8.7,1C-0.9,5-0.4,8.8,2.3,11c2.3,1.8,5.5,1.8,7.7,0l3.1,3.1
	c0.3,0.3,0.7,0.3,1,0C14.3,13.8,14.3,13.4,14,13.1z M6.2,11c-2.7,0-4.8-2.1-4.8-4.8s2.1-4.8,4.8-4.8S11,3.5,11,6.2S8.8,11,6.2,11z"
	/>
</svg>
