<?xml version="1.0" encoding="utf-8"?>
<!-- Generator: Adobe Illustrator 24.0.0, SVG Export Plug-In . SVG Version: 6.00 Build 0)  -->
<svg version="1.1" id="Layer_1" xmlns="http://www.w3.org/2000/svg" xmlns:xlink="http://www.w3.org/1999/xlink" x="0px" y="0px"
	 viewBox="0 0 16.9 15.2" style="enable-background:new 0 0 16.9 15.2;" xml:space="preserve">
<path d="M14.2,2.2l-1-0.2C13.1,2,13,1.9,13,1.7c0-0.1,0.1-0.1,0.1-0.2L16.5,0c0.1-0.1,0.3,0,0.3,0.1c0,0.1,0,0.1,0,0.2l-1.3,3.4
	c-0.1,0.1-0.2,0.2-0.3,0.1c-0.1,0-0.1-0.1-0.1-0.1l-0.3-1l-3,3.2C11.6,6.1,11.3,6.2,11,6l-3-1.5L0.5,9.4L0,8.7l7.7-4.9
	c0.2-0.1,0.4-0.1,0.6,0l3,1.5L14.2,2.2L14.2,2.2z"/>
<polygon points="1.8,10.8 4,9.3 4,15.2 1.8,15.2 "/>
<polygon points="5.1,8.6 7.3,7.1 7.3,15.2 5.1,15.2 "/>
<polygon points="8.5,6.9 10.7,8 10.7,15.2 8.5,15.2 8.5,6.9 "/>
<polygon points="11.8,8 14,5.7 14,15.2 11.8,15.2 "/>
</svg>
