<?xml version="1.0" encoding="UTF-8" standalone="no"?>
<svg
   width="20"
   height="14.004"
   viewBox="0 0 20 14.004"
   version="1.1"
   id="svg3"
   sodipodi:docname="summary.svg"
   inkscape:version="1.2.1 (9c6d41e410, 2022-07-14)"
   xmlns:inkscape="http://www.inkscape.org/namespaces/inkscape"
   xmlns:sodipodi="http://sodipodi.sourceforge.net/DTD/sodipodi-0.dtd"
   xmlns="http://www.w3.org/2000/svg"
   xmlns:svg="http://www.w3.org/2000/svg">
  <defs
     id="defs7" />
  <sodipodi:namedview
     id="namedview5"
     pagecolor="#ffffff"
     bordercolor="#000000"
     borderopacity="0.25"
     inkscape:showpageshadow="2"
     inkscape:pageopacity="0.0"
     inkscape:pagecheckerboard="0"
     inkscape:deskcolor="#d1d1d1"
     showgrid="false"
     showguides="true"
     inkscape:zoom="41.858864"
     inkscape:cx="5.566324"
     inkscape:cy="7.2625"
     inkscape:window-width="1920"
     inkscape:window-height="1009"
     inkscape:window-x="1912"
     inkscape:window-y="-8"
     inkscape:window-maximized="1"
     inkscape:current-layer="svg3" />
  <path
     id="path346-4-7"
     style="fill:#506069;stroke-width:0.095;stroke-opacity:0.435294"
     d="m 2.4007325,12.702001 c -1e-7,0.262436 -0.1063735,0.500027 -0.2783559,0.67201 -0.1719825,0.171982 -0.409574,0.278355 -0.6720103,0.278355 -0.2624363,0 -0.50002781,-0.106373 -0.67201028,-0.278355 C 0.60637355,13.202028 0.50000013,12.964437 0.5,12.702001 c -1.3e-7,-0.262437 0.1063732,-0.500028 0.27835569,-0.672011 0.17198249,-0.171983 0.40957411,-0.278356 0.67201061,-0.278356 0.2624365,0 0.5000281,0.106373 0.6720105,0.278356 0.1719825,0.171983 0.2783558,0.409574 0.2783557,0.672011 z m 0,-5.7000009 c 0,0.2624364 -0.1063734,0.500028 -0.2783558,0.6720105 -0.1719824,0.1719823 -0.409574,0.2783557 -0.6720104,0.2783557 -0.2624364,0 -0.50002797,-0.1063734 -0.67201045,-0.2783557 C 0.60637338,7.5020281 0.5,7.2644365 0.5,7.0020001 0.5,6.7395638 0.60637338,6.5019722 0.77835585,6.3299897 0.95033833,6.1580072 1.1879299,6.0516339 1.4503663,6.0516339 c 0.2624364,0 0.500028,0.1063734 0.6720104,0.2783558 0.1719824,0.1719825 0.2783558,0.4095741 0.2783558,0.6720104 z m -1e-7,-5.7 c 0,0.2624364 -0.1063734,0.500028 -0.2783557,0.6720105 C 1.9503942,2.1459929 1.7128026,2.2523663 1.4503662,2.2523663 1.1879298,2.2523663 0.95033828,2.1459929 0.77835582,1.9740106 0.60637336,1.8020281 0.5,1.5644365 0.5,1.3020001 0.5,1.0395637 0.60637336,0.80197215 0.77835582,0.62998968 0.95033828,0.45800722 1.1879298,0.35163386 1.4503662,0.35163386 c 0.2624364,0 0.500028,0.10637336 0.6720105,0.27835582 C 2.294359,0.80197215 2.4007324,1.0395637 2.4007324,1.3020001 Z M 6.2,0.35163386 c -0.633327,0 -0.95,0.475 -0.95,0.95000004 0,0.475 0.316673,0.95 0.95,0.95 h 6.175 6.175 c 0.633327,0 0.95,-0.475 0.95,-0.95 0,-0.47500004 -0.316673,-0.95000004 -0.95,-0.95000004 h -6.175 z m 0,5.70000004 h 6.175 6.175 c 0.633327,0 0.95,0.475 0.95,0.95 0,0.475 -0.316673,0.95 -0.95,0.95 H 12.375 6.2 c -0.633327,0 -0.95,-0.475 -0.95,-0.95 0,-0.475 0.316673,-0.95 0.95,-0.95 M 18.55,11.751634 H 12.375 6.2 c -0.633327,0 -0.95,0.475 -0.95,0.95 0,0.475 0.316673,0.95 0.95,0.95 h 6.175 6.175 c 0.633327,0 0.95,-0.475 0.95,-0.95 0,-0.475 -0.316673,-0.95 -0.95,-0.95" />
</svg>
