<?xml version="1.0" encoding="utf-8"?>
<!-- Generator: Adobe Illustrator 24.0.0, SVG Export Plug-In . SVG Version: 6.00 Build 0)  -->
<svg version="1.1" id="Capa_1" xmlns="http://www.w3.org/2000/svg" xmlns:xlink="http://www.w3.org/1999/xlink" x="0px" y="0px"
	 viewBox="0 0 512 512" style="enable-background:new 0 0 512 512;" xml:space="preserve">
<path d="M256,360.1c-57.4,0-104.1-46.7-104.1-104.1S198.6,151.9,256,151.9S360.1,198.6,360.1,256S313.4,360.1,256,360.1z M256,181.9
	c-40.9,0-74.1,33.2-74.1,74.1s33.2,74.1,74.1,74.1s74.1-33.2,74.1-74.1S296.9,181.9,256,181.9z"/>
<path d="M256,116.1c-8.3,0-15-6.7-15-15V15c0-8.3,6.7-15,15-15s15,6.7,15,15v86.1C271,109.4,264.3,116.1,256,116.1z"/>
<path d="M146.4,161.4c-3.8,0-7.7-1.5-10.6-4.4L75,96.2c-5.9-5.9-5.9-15.4,0-21.2c5.9-5.9,15.4-5.9,21.2,0l60.9,60.9
	c5.9,5.9,5.9,15.4,0,21.2C154.1,160,150.3,161.4,146.4,161.4L146.4,161.4z"/>
<path d="M101.1,271H15c-8.3,0-15-6.7-15-15s6.7-15,15-15h86.1c8.3,0,15,6.7,15,15S109.4,271,101.1,271z"/>
<path d="M85.6,441.4c-3.8,0-7.7-1.5-10.6-4.4c-5.9-5.9-5.9-15.4,0-21.2l60.9-60.9c5.9-5.9,15.4-5.9,21.2,0c5.9,5.9,5.9,15.4,0,21.2
	L96.2,437C93.3,439.9,89.4,441.4,85.6,441.4L85.6,441.4z"/>
<path d="M256,512c-8.3,0-15-6.7-15-15v-86.1c0-8.3,6.7-15,15-15s15,6.7,15,15V497C271,505.3,264.3,512,256,512z"/>
<path d="M426.4,441.4c-3.8,0-7.7-1.5-10.6-4.4l-60.9-60.9c-5.9-5.9-5.9-15.4,0-21.2c5.9-5.9,15.4-5.9,21.2,0l60.9,60.9
	c5.9,5.9,5.9,15.4,0,21.2C434.1,439.9,430.3,441.4,426.4,441.4L426.4,441.4z"/>
<path d="M497,271h-86.1c-8.3,0-15-6.7-15-15s6.7-15,15-15H497c8.3,0,15,6.7,15,15S505.3,271,497,271z"/>
<path d="M365.6,161.4c-3.8,0-7.7-1.5-10.6-4.4c-5.9-5.9-5.9-15.4,0-21.2L415.8,75c5.9-5.9,15.4-5.9,21.2,0s5.9,15.4,0,21.2
	l-60.9,60.9C373.2,160,369.4,161.4,365.6,161.4L365.6,161.4z"/>
</svg>
