<?xml version="1.0" encoding="utf-8"?>
<!-- Generator: Adobe Illustrator 24.0.0, SVG Export Plug-In . SVG Version: 6.00 Build 0)  -->
<svg version="1.1" id="Layer_1" xmlns="http://www.w3.org/2000/svg" xmlns:xlink="http://www.w3.org/1999/xlink" x="0px" y="0px"
	 viewBox="0 0 11.5 11.5" style="enable-background:new 0 0 11.5 11.5;" xml:space="preserve">
<path d="M10.8,11.5c-0.2,0-0.4-0.1-0.5-0.2l-10-10C-0.1,1,0,0.5,0.3,0.2c0.2-0.2,0.7-0.2,1,0l10,10c0.3,0.3,0.3,0.8,0,1.1
	C11.1,11.4,10.9,11.5,10.8,11.5z"/>
<path d="M0.8,11.5c-0.2,0-0.4-0.1-0.5-0.2C0,11,0,10.5,0.3,10.2l9.9-10c0.3-0.3,0.8-0.3,1.1,0c0.3,0.3,0.3,0.7,0,1l-9.9,10
	C1.1,11.4,0.9,11.5,0.8,11.5z"/>
</svg>
