<?xml version="1.0" encoding="utf-8"?>
<!-- Generator: Adobe Illustrator 24.0.0, SVG Export Plug-In . SVG Version: 6.00 Build 0)  -->
<svg version="1.1" id="Layer_1" xmlns="http://www.w3.org/2000/svg" xmlns:xlink="http://www.w3.org/1999/xlink" x="0px" y="0px"
	 viewBox="0 0 18.6 18.4" style="enable-background:new 0 0 18.6 18.4;" xml:space="preserve">
<path class="st0" d="M9.3,0.1c0.6,0,1,0.2,1,0.5s-0.4,0.5-1,0.5c-0.6,0-1-0.2-1-0.5S8.7,0.1,9.3,0.1z"/>
<path class="st0" d="M9.3,9.8C9.7,9.8,10,9.4,10,9c0-0.2-0.1-0.4-0.2-0.5L3.4,2.1l-1,1l6.4,6.4C8.9,9.7,9.1,9.8,9.3,9.8z"/>
<path class="st0" d="M16.4,3.2c-1.2-1.5-2.9-2.5-4.7-3c0.2,0.5,0.2,1,0,1.5c4.1,1.3,6.3,5.7,5,9.8s-5.7,6.3-9.8,5s-6.3-5.7-5-9.8
	c0.2-0.5,0.3-0.9,0.6-1.3L1.4,4.3c-2.6,4.3-1.3,10,3.1,12.6c3.6,2.2,8.3,1.6,11.3-1.3C19.2,12.2,19.4,6.9,16.4,3.2L16.4,3.2z"/>
</svg>
