<?xml version="1.0" encoding="UTF-8" standalone="no"?>
<!-- Generator: Adobe Illustrator 24.0.0, SVG Export Plug-In . SVG Version: 6.00 Build 0)  -->

<svg
   version="1.1"
   id="Layer_1"
   x="0px"
   y="0px"
   viewBox="0 0 11.5 11.5"
   style="enable-background:new 0 0 11.5 11.5;"
   xml:space="preserve"
   sodipodi:docname="translate.svg"
   inkscape:version="1.4 (86a8ad7, 2024-10-11)"
   xmlns:inkscape="http://www.inkscape.org/namespaces/inkscape"
   xmlns:sodipodi="http://sodipodi.sourceforge.net/DTD/sodipodi-0.dtd"
   xmlns="http://www.w3.org/2000/svg"
   xmlns:svg="http://www.w3.org/2000/svg"><defs
   id="defs2" /><sodipodi:namedview
   id="namedview2"
   pagecolor="#ffffff"
   bordercolor="#000000"
   borderopacity="0.25"
   inkscape:showpageshadow="2"
   inkscape:pageopacity="0.0"
   inkscape:pagecheckerboard="0"
   inkscape:deskcolor="#d1d1d1"
   inkscape:zoom="49.62045"
   inkscape:cx="3.8996019"
   inkscape:cy="4.3832734"
   inkscape:window-width="1920"
   inkscape:window-height="1009"
   inkscape:window-x="1912"
   inkscape:window-y="-8"
   inkscape:window-maximized="1"
   inkscape:current-layer="Layer_1" />


<path
   d="M 3.9298085,7.1103357 V 6.6560238 H 1.8854173 C 1.5092574,6.6555238 1.2044494,6.3507158 1.2039494,5.9745621 V 1.8857736 c 5e-4,-0.3761537 0.305308,-0.6809617 0.6814679,-0.6814617 h 4.0887823 c 0.3761536,5e-4 0.6809679,0.305308 0.6814679,0.6814617 V 3.9301647 H 7.1099732 V 1.8857736 C 7.1094732,1.2587134 6.6012661,0.7505 5.9741996,0.75 H 1.8854173 C 1.2583508,0.7505 0.7501437,1.2587134 0.7496375,1.8857736 v 4.0887885 c 5.062e-4,0.6270603 0.5087133,1.1352736 1.1357798,1.1357736 z"
   id="path1"
   style="stroke-width:0.685324" /><path
   d="M 3.9270834,4.2963431 C 3.463565,3.8150805 3.1383752,3.2177523 2.9857524,2.5672352 H 4.8647767 C 4.7134603,3.217471 4.3895143,3.8148305 3.9270834,4.2963431 Z m -0.014563,0.6283102 h -6.25e-4 C 4.0652432,4.5255491 4.3593572,4.1963655 4.7387422,3.9992228 5.0184245,3.560105 5.2192235,3.075486 5.3320703,2.5672352 H 5.7473062 V 2.1129295 H 4.2444542 L 3.6765643,1.5445896 3.3553684,1.8657855 3.6025124,2.1129295 H 2.1128295 V 2.5672352 H 2.5162588 C 2.6759193,3.331974 3.0452727,4.03718 3.5829806,4.6039074 3.1394877,4.9366036 2.6317619,5.1736099 2.0919352,5.2999132 L 2.2018756,5.7405935 C 2.8242857,5.5949834 3.407901,5.3166574 3.912808,4.9246533 Z"
   id="path2"
   style="stroke-width:0.685324" /><path
   d="M 8.4174762,8.0189533 H 6.711094 L 7.5642851,6.3766227 Z M 8.6537199,8.4732652 9.180265,9.4863731 9.5827818,9.2773926 7.5642851,5.3907718 5.5457884,9.2773926 5.9483052,9.4863731 6.4748503,8.4732652 Z M 9.6014073,4.8387886 H 5.5271629 C 5.1468841,4.8390386 4.8386761,5.1472467 4.838426,5.5275192 V 9.6017699 C 4.8386761,9.9820423 5.1468841,10.29025 5.5271629,10.2905 H 9.6014073 C 9.9816798,10.29025 10.289888,9.9820423 10.290144,9.6017699 V 5.5275192 C 10.289888,5.1472467 9.9816798,4.8390386 9.6014073,4.8387886 Z M 10.74445,9.5849569 C 10.743825,10.225217 10.224855,10.744056 9.5846006,10.744812 H 5.5439696 C 4.903709,10.744187 4.3848704,10.225217 4.3841141,9.5849569 V 5.5443321 C 4.3847391,4.9040715 4.903709,4.3852267 5.5439696,4.3844767 h 4.0574377 c 0.6369417,0.0025 1.1501117,0.5229449 1.1430427,1.1598554 z"
   id="path3"
   style="stroke-width:0.685324" /><path
   d="m 3.0211908,10.295044 0.9349683,6.25e-4 V 10.75 H 3.0211908 C 2.2687773,10.749375 1.6590113,10.139484 1.6582613,9.3870705 V 8.3457931 L 0.9159168,9.0876814 0.5947209,8.7664854 1.8881424,7.4735202 3.1815576,8.7664854 2.8603616,9.0876814 2.112567,8.3398867 v 1.0462775 c 6.25e-4,0.5015007 0.4071169,0.9078678 0.9086238,0.9086178 z"
   id="path4"
   style="stroke-width:0.685324" /><path
   d="M 10.583627,2.4068685 10.905279,2.7276082 9.6114013,4.0214859 8.3179861,2.7276082 8.6391821,2.4064122 9.3815203,3.1492067 V 2.1129295 C 9.3808953,1.6114226 8.9744096,1.2050619 8.4729027,1.2043119 H 7.5642851 V 0.75 h 0.9086176 c 0.7524135,6.25e-4 1.3621795,0.610516 1.3629295,1.3629295 v 1.0417336 z"
   id="path5"
   style="stroke-width:0.685324" /></svg>
