<?xml version="1.0" encoding="UTF-8" standalone="no"?>
<svg
   width="13.485"
   height="16.483"
   viewBox="0 0 13.485 16.483"
   version="1.1"
   id="svg7"
   sodipodi:docname="trash.svg"
   inkscape:version="1.2.1 (9c6d41e410, 2022-07-14)"
   xmlns:inkscape="http://www.inkscape.org/namespaces/inkscape"
   xmlns:sodipodi="http://sodipodi.sourceforge.net/DTD/sodipodi-0.dtd"
   xmlns="http://www.w3.org/2000/svg"
   xmlns:svg="http://www.w3.org/2000/svg">
  <defs
     id="defs11" />
  <sodipodi:namedview
     id="namedview9"
     pagecolor="#ffffff"
     bordercolor="#000000"
     borderopacity="0.25"
     inkscape:showpageshadow="2"
     inkscape:pageopacity="0.0"
     inkscape:pagecheckerboard="0"
     inkscape:deskcolor="#d1d1d1"
     showgrid="false"
     inkscape:zoom="50.294243"
     inkscape:cx="6.7403341"
     inkscape:cy="9.8420807"
     inkscape:window-width="1920"
     inkscape:window-height="1009"
     inkscape:window-x="1912"
     inkscape:window-y="-8"
     inkscape:window-maximized="1"
     inkscape:current-layer="delete" />
  <g
     id="delete"
     transform="translate(-3 -1)">
    <path
       id="Path_24471"
       d="m 11.878575,12.798889 v -2.4909 -2.4908998 c 0,-0.4749998 -0.35625,-0.7124997 -0.7125,-0.7124997 -0.35625,0 -0.7125,0.2374999 -0.7125,0.7124997 v 2.4908998 2.4909 c 0,0.475 0.35625,0.7125 0.7125,0.7125 0.35625,0 0.7125,-0.2375 0.7125,-0.7125 z m -2.8471503,0 v -2.4909 -2.4908998 c 0,-0.4749998 -0.35625,-0.7124997 -0.7125,-0.7124997 -0.35625,0 -0.7125,0.2374999 -0.7125,0.7124997 v 2.4908998 2.4909 c 0,0.475 0.35625,0.7125 0.7125,0.7125 0.35625,0 0.7125,-0.2375 0.7125,-0.7125 z M 15.435375,3.5477892 h -2.85 v -1.425 C 12.585116,1.9270407 12.505813,1.7497825 12.37764,1.6212657 12.249467,1.4927488 12.072423,1.412973 11.876675,1.4121892 H 7.6111747 c -0.1964891,0 -0.3743766,0.079643 -0.5031418,0.2084081 C 6.9792677,1.7493626 6.8996247,1.9272501 6.8996247,2.1237392 v 1.425 h -2.85 c -0.4749998,0 -0.7124997,0.35625 -0.7124997,0.7125 0,0.35625 0.2374999,0.7125 0.7124997,0.7125 H 15.435375 c 0.475,0 0.7125,-0.35625 0.7125,-0.7125 0,-0.35625 -0.2375,-0.7125 -0.7125,-0.7125 v -4.75e-4 z m -7.1174003,0 v -0.7106 h 2.8500003 v 0.71155 z m 6.4058503,2.13465 c -0.392978,0 -0.71155,0.3185718 -0.71155,0.71155 v 7.9647998 c -0.0212,0.3746 -0.191507,0.705584 -0.450193,0.938332 -0.258685,0.232747 -0.605756,0.367261 -0.980507,0.348918 H 6.8977247 C 6.5240603,15.662768 6.1784177,15.527674 5.9208875,15.295038 5.6633573,15.062403 5.4939395,14.732225 5.4727247,14.358789 V 6.3939892 c 0,-0.4749998 -0.35625,-0.7124997 -0.7125,-0.7124997 -0.35625,0 -0.7125,0.2374999 -0.7125,0.7124997 v 7.9647998 c 0.020982,0.767041 0.3499153,1.453507 0.8653865,1.943891 0.515471,0.490385 1.21748,0.78469 1.9846135,0.767409 h 5.6800503 c 0.767134,0.01728 1.469143,-0.277024 1.984614,-0.767409 0.515471,-0.490384 0.844404,-1.17685 0.865386,-1.943891 V 6.3939892 c 2.2e-5,-0.3900292 -0.313943,-0.7073842 -0.70395,-0.71155 z"
       style="stroke-width:0.95" />
  </g>
</svg>
