<?xml version="1.0" encoding="UTF-8" standalone="no"?>
<svg
   id="Vrstva_2"
   viewBox="0 0 33.34 20.01"
   version="1.1"
   sodipodi:docname="truck.svg"
   inkscape:version="1.2.2 (732a01da63, 2022-12-09)"
   xmlns:inkscape="http://www.inkscape.org/namespaces/inkscape"
   xmlns:sodipodi="http://sodipodi.sourceforge.net/DTD/sodipodi-0.dtd"
   xmlns="http://www.w3.org/2000/svg"
   xmlns:svg="http://www.w3.org/2000/svg">
  <sodipodi:namedview
     id="namedview1280"
     pagecolor="#ffffff"
     bordercolor="#000000"
     borderopacity="0.25"
     inkscape:showpageshadow="2"
     inkscape:pageopacity="0.0"
     inkscape:pagecheckerboard="0"
     inkscape:deskcolor="#d1d1d1"
     showgrid="false"
     inkscape:zoom="20.714642"
     inkscape:cx="9.1963933"
     inkscape:cy="14.627334"
     inkscape:window-width="1920"
     inkscape:window-height="1009"
     inkscape:window-x="1912"
     inkscape:window-y="-8"
     inkscape:window-maximized="1"
     inkscape:current-layer="Vrstva_1-2" />
  <defs
     id="defs1274">
    <style
       id="style1272">.cls-1{fill:#49b382;}</style>
  </defs>
  <g
     id="Vrstva_1-2"
     transform="matrix(0.95,0,0,0.95,0.83825008,0.5015396)">
    <path
       class="cls-1"
       d="m 32.78,14.6 v -1.19 -1.19 c 0,-0.36 -0.1175,-0.7 -0.32,-0.97875 C 32.2575,10.9625 31.97,10.745 31.63,10.63 L 31.415,8.385 31.2,6.14 C 31.16,5.765 31,5.4275 30.7575,5.1675 30.515,4.9075 30.19,4.725 29.82,4.66 L 25.885,4.005 21.95,3.35 C 21.81,3.33 21.67,3.3275 21.53125,3.34125 21.3925,3.355 21.255,3.385 21.12,3.43 V 2.545 1.66 C 21.12,1.2 20.9325,0.7825 20.63,0.48 20.3275,0.1775 19.91,-0.01 19.45,-0.01 H 10.56 1.67 C 1.21,-0.005 0.7925,0.185 0.49,0.48875 0.1875,0.7925 0,1.21 0,1.67 v 7.225 7.225 c 0,0.46 0.1875,0.8775 0.49,1.18 0.3025,0.3025 0.72,0.49 1.18,0.49 H 1.975 2.28 c 0.155,0.75 0.5975,1.37 1.19,1.76375 C 4.0625,19.9475 4.805,20.115 5.56,19.96 6.105,19.85 6.5925,19.58 6.97125,19.20125 7.35,18.8225 7.62,18.335 7.73,17.79 h 0.61 0.61 c 0.155,0.75 0.5975,1.37 1.19,1.76375 0.5925,0.39375 1.335,0.56125 2.09,0.40625 0.545,-0.11 1.0325,-0.38 1.41125,-0.75875 C 14.02,18.8225 14.29,18.335 14.4,17.79 h 0.635 0.635 c 0.115,0.33 0.33,0.6075 0.60375,0.8025 C 16.5475,18.7875 16.88,18.9 17.23,18.9 h 2.22 2.22 c 0.35,0 0.6825,-0.1125 0.95625,-0.3075 C 22.9,18.3975 23.115,18.12 23.23,17.79 h 0.355 0.355 c 0.15,0.75 0.59,1.3675 1.18,1.76 0.59,0.3925 1.33,0.56 2.08,0.41 0.335,-0.065 0.65,-0.1925 0.9325,-0.3725 C 28.415,19.4075 28.665,19.175 28.87,18.9 h 1.675 1.675 c 0.305,0 0.5825,-0.125 0.78375,-0.32625 C 33.205,18.3725 33.33,18.095 33.33,17.79 v -1.11 -1.11 c 0,-0.2 -0.0525,-0.39 -0.14875,-0.555 C 33.085,14.85 32.945,14.71 32.77,14.61 l 0.005,-0.005 z M 30.5,10.56 H 29.695 28.89 c -0.305,0 -0.5825,-0.125 -0.78375,-0.32625 C 27.905,10.0325 27.78,9.755 27.78,9.45 V 8.895 8.34 c 0,-0.155 0.0625,-0.295 0.16375,-0.39625 C 28.045,7.8425 28.185,7.78 28.34,7.78 h 0.95 0.95 l 0.135,1.39 0.135,1.39 H 30.505 Z M 21.31,4.58 C 21.37,4.525 21.4425,4.4875 21.52,4.4675 21.5975,4.4475 21.68,4.445 21.76,4.46 l 3.935,0.655 3.935,0.655 c 0.125,0.02 0.235,0.08 0.31625,0.16625 C 30.0275,6.0225 30.08,6.135 30.09,6.26 l 0.02,0.205 0.02,0.205 H 29.235 28.34 c -0.46,0 -0.8775,0.1875 -1.18,0.49 -0.3025,0.3025 -0.49,0.72 -0.49,1.18 V 8.895 9.45 c 0,0.615 0.25,1.17 0.6525,1.57125 C 27.725,11.4225 28.28,11.67 28.89,11.67 H 30 31.11 c 0.155,0 0.295,0.0625 0.39625,0.16375 C 31.6075,11.935 31.67,12.075 31.67,12.23 v 1.11 1.11 H 26.39 21.11 V 9.725 5 c 0,-0.08 0.0175,-0.16 0.05125,-0.2325 C 21.195,4.695 21.245,4.63 21.31,4.58 Z m 1.92,10.98 h 0.615 0.615 c -0.125,0.165 -0.2325,0.3425 -0.31875,0.52875 C 24.055,16.275 23.99,16.47 23.95,16.67 H 23.645 23.34 v -0.28 -0.28 c 0,-0.095 -0.01,-0.19 -0.0275,-0.28375 C 23.295,15.7325 23.27,15.64 23.24,15.55 l -0.005,0.005 z M 1.11,1.67 C 1.11,1.515 1.1725,1.375 1.27375,1.27375 1.375,1.1725 1.515,1.11 1.67,1.11 h 8.89 8.89 c 0.155,0 0.295,0.0625 0.39625,0.16375 C 19.9475,1.375 20.01,1.515 20.01,1.67 v 6.39 6.39 H 10.56 1.11 V 8.06 Z m 14.45,15 H 14.975 14.39 C 14.345,16.47 14.28,16.275 14.195,16.08875 14.11,15.9025 14.005,15.725 13.88,15.56 h 0.89 0.89 C 15.625,15.65 15.6,15.7425 15.58375,15.83625 15.5675,15.93 15.56,16.025 15.56,16.12 v 0.28 0.28 -0.005 z M 7.21,15.56 H 8.335 9.46 C 9.335,15.725 9.2275,15.9025 9.14125,16.08875 9.055,16.275 8.99,16.47 8.95,16.67 H 8.34 7.73 C 7.685,16.47 7.62,16.275 7.535,16.08875 7.45,15.9025 7.345,15.725 7.22,15.56 H 7.215 Z m -6.1,0.56 V 15.84 15.56 H 1.95 2.79 C 2.665,15.725 2.5575,15.9025 2.47125,16.08875 2.385,16.275 2.32,16.47 2.28,16.67 H 1.975 1.67 C 1.515,16.67 1.375,16.6075 1.27375,16.50625 1.1725,16.405 1.11,16.265 1.11,16.11 v 0.005 z M 5,18.9 C 4.54,18.9 4.1225,18.7125 3.82,18.41 3.5175,18.1075 3.33,17.69 3.33,17.23 c 0,-0.46 0.1875,-0.8775 0.49,-1.18 0.3025,-0.3025 0.72,-0.49 1.18,-0.49 0.46,0 0.8775,0.1875 1.18,0.49 0.3025,0.3025 0.49,0.72 0.49,1.18 0,0.46 -0.1875,0.8775 -0.49,1.18 C 5.8775,18.7125 5.46,18.9 5,18.9 Z m 6.67,0 c -0.46,0 -0.8775,-0.1875 -1.18,-0.49 C 10.1875,18.1075 10,17.69 10,17.23 c 0,-0.46 0.1875,-0.8775 0.49,-1.18 0.3025,-0.3025 0.72,-0.49 1.18,-0.49 0.46,0 0.8775,0.1875 1.18,0.49 0.3025,0.3025 0.49,0.72 0.49,1.18 0,0.46 -0.1875,0.8775 -0.49,1.18 -0.3025,0.3025 -0.72,0.49 -1.18,0.49 z m 5,-1.67 V 16.675 16.12 c 0,-0.155 0.0625,-0.295 0.16375,-0.39625 C 16.935,15.6225 17.075,15.56 17.23,15.56 h 0.835 0.835 v 1.11 1.11 H 18.065 17.23 c -0.155,0 -0.295,-0.0625 -0.39625,-0.16375 C 16.7325,17.515 16.67,17.375 16.67,17.22 l 0,0.005 z m 5.56,0 c 0,0.155 -0.0625,0.295 -0.16375,0.39625 C 21.965,17.7275 21.825,17.79 21.67,17.79 H 20.835 20 v -1.11 -1.11 h 0.835 0.835 c 0.155,0 0.295,0.0625 0.39625,0.16375 C 22.1675,15.835 22.23,15.975 22.23,16.13 v 0.555 0.555 -0.005 z m 4.44,1.67 c -0.46,0 -0.8775,-0.1875 -1.18,-0.49 C 25.1875,18.1075 25,17.69 25,17.23 c 0,-0.46 0.1875,-0.8775 0.49,-1.18 0.3025,-0.3025 0.72,-0.49 1.18,-0.49 0.46,0 0.8775,0.1875 1.18,0.49 0.3025,0.3025 0.49,0.72 0.49,1.18 0,0.46 -0.1875,0.8775 -0.49,1.18 -0.3025,0.3025 -0.72,0.49 -1.18,0.49 z m 5.56,-1.11 H 30.815 29.4 C 29.48,17.4 29.4725,17.0025 29.385,16.62375 29.2975,16.245 29.13,15.885 28.89,15.57 h 1.675 1.675 v 1.11 1.11 h -0.005 z"
       id="path1276"
       sodipodi:nodetypes="ccsscccscccsccsssccsscsssccscscccscscccsscsscccscsccssscsscccccssscssscccccccscccsccccssscssscssscccccssccccsccccsscccssscssscccccscccscccsscccccccscccsccccccccsccsscccssssssssssssssssssccssscccccssccccsscccccsssccccssssssssscccsccccccc" />
  </g>
</svg>
