<?xml version="1.0" encoding="UTF-8" standalone="no"?>
<svg
   version="1.1"
   id="Layer_1"
   x="0px"
   y="0px"
   viewBox="0 0 512.00001 512"
   xml:space="preserve"
   sodipodi:docname="truck-alt.svg"
   width="512"
   height="512"
   inkscape:version="1.3 (0e150ed6c4, 2023-07-21)"
   xmlns:inkscape="http://www.inkscape.org/namespaces/inkscape"
   xmlns:sodipodi="http://sodipodi.sourceforge.net/DTD/sodipodi-0.dtd"
   xmlns="http://www.w3.org/2000/svg"
   xmlns:svg="http://www.w3.org/2000/svg"><path
   d="M 501.76,184.32 H 460.8 V 20.48 C 460.79,9.175001 451.62499,0.01 440.32,0 H 71.68 C 60.375,0.01 51.21,9.175001 51.2,20.48 V 184.32 H 10.24 C 4.585,184.32 0,188.905 0,194.56 v 81.92 c 0,5.655 4.585,10.24 10.24,10.24 H 51.2 v 92.16 c 0,2.75 1.115,5.385 3.09,7.3 -2.01,4.105 -3.065,8.61001 -3.09,13.18 v 20.48 c 0.02,16.96 13.76,30.69999 30.72,30.72 v 30.72 c 0.02,16.96 13.76,30.69999 30.72,30.72 h 40.96 c 16.96,-0.02 30.7,-13.76 30.72,-30.72 v -30.72 h 143.36 v 30.72 c 0.02,16.96 13.76,30.69999 30.72,30.72 h 40.96 c 16.96,-0.02 30.69999,-13.76 30.72,-30.72 v -30.72 c 16.96,-0.02 30.7,-13.76 30.72,-30.72 v -20.48 c -0.025,-4.56999 -1.08,-9.075 -3.08501,-13.18 1.97001,-1.915 3.08501,-4.55 3.08501,-7.3 v -92.16 h 40.96 c 5.655,0 10.24,-4.585 10.24,-10.24 v -81.92 c 0,-5.655 -4.585,-10.24 -10.24,-10.24 z m -71.68,184.32 v -66.2 l 10.24,-6.82499 V 368.64 Z m -286.72,0 v -30.72 c 0,-2.715 -1.08,-5.32 -3,-7.24 L 119.88,310.2 c -1.92,-1.92 -4.525,-3 -7.24,-3 H 102.4 V 133.12 c 0.02,-16.96 13.76,-30.7 30.72,-30.72 h 245.76 c 16.96,0.02 30.7,13.76 30.72,30.72 V 307.2 h -10.24 c -2.71499,0 -5.32,1.08 -7.24,3 l -20.48,20.48 c -1.92,1.92 -3,4.525 -3,7.24 v 30.72 z m -71.68,0 V 295.61501 L 81.92,302.44 v 66.2 z m 30.72,-40.96 h 6 l 14.48,14.48 v 26.48 H 102.4 Z m 286.72,14.48 14.48,-14.48 h 6 v 40.96 H 389.12 Z M 71.68,20.48 H 440.32 V 271 l -10.24,6.825 V 133.12 c -0.035,-28.265 -22.935,-51.165 -51.2,-51.2 H 133.12 c -28.265,0.03499 -51.165,22.935 -51.2,51.2 V 277.825 L 71.68,271 Z M 20.48,266.24 V 204.8 H 51.2 v 61.44 z m 143.36,215.04 c -0.005,5.64999 -4.59,10.23499 -10.24,10.24 h -40.96 c -5.65,-0.005 -10.235,-4.59001 -10.24,-10.24 v -30.72 h 61.44 z m 245.76,0 c -0.005,5.64999 -4.59001,10.23499 -10.24,10.24 H 358.4 c -5.65,-0.005 -10.235,-4.59001 -10.24,-10.24 v -30.72 h 61.44 z m 30.72,-61.44 c -0.005,5.65 -4.59001,10.235 -10.24,10.24 H 81.92 c -5.64999,-0.005 -10.235,-4.59 -10.24,-10.24 v -20.48 c 0.005,-5.64999 4.59001,-10.23499 10.24,-10.24 h 348.16 c 5.64999,0.005 10.23499,4.59001 10.24,10.24 z m 51.2,-153.6 H 460.8 V 204.8 h 30.72 z m 0,0"
   id="path1"
   style="stroke-width:1.28" /></svg>
