<?xml version="1.0" encoding="UTF-8" standalone="no"?>
<svg
   width="18.529"
   height="15.441"
   viewBox="0 0 18.529 15.441"
   version="1.1"
   id="svg3"
   sodipodi:docname="users-o.svg"
   inkscape:version="1.2.1 (9c6d41e410, 2022-07-14)"
   xmlns:inkscape="http://www.inkscape.org/namespaces/inkscape"
   xmlns:sodipodi="http://sodipodi.sourceforge.net/DTD/sodipodi-0.dtd"
   xmlns="http://www.w3.org/2000/svg"
   xmlns:svg="http://www.w3.org/2000/svg">
  <defs
     id="defs7" />
  <sodipodi:namedview
     id="namedview5"
     pagecolor="#ffffff"
     bordercolor="#000000"
     borderopacity="0.25"
     inkscape:showpageshadow="2"
     inkscape:pageopacity="0.0"
     inkscape:pagecheckerboard="0"
     inkscape:deskcolor="#d1d1d1"
     showgrid="false"
     inkscape:zoom="26.844116"
     inkscape:cx="10.598226"
     inkscape:cy="6.2211026"
     inkscape:window-width="1920"
     inkscape:window-height="1009"
     inkscape:window-x="1912"
     inkscape:window-y="-8"
     inkscape:window-maximized="1"
     inkscape:current-layer="svg3" />
  <path
     id="Path_24455"
     style="fill:#000000"
     d="M 211.08984 408.96094 C 210.53661 408.9486 209.98805 409.05633 209.48242 409.26758 C 208.13408 409.83091 207.09261 411.13077 207.09961 412.85938 C 207.09113 413.93191 207.52356 414.90343 208.22656 415.60352 C 208.92955 416.30361 209.90406 416.7336 210.97656 416.7207 C 212.70518 416.72069 214.00084 415.67488 214.55859 414.32422 C 215.11633 412.97357 214.93563 411.3173 213.71094 410.09766 C 212.9455 409.33538 212.01191 408.9815 211.08984 408.96094 z M 210.91602 410.54102 C 211.24605 410.53316 211.5731 410.59533 211.875 410.7207 C 212.68008 411.05504 213.30272 411.82873 213.30273 412.85938 C 213.31333 413.50503 213.05531 414.09085 212.63281 414.51172 C 212.21031 414.93258 211.62413 415.1889 210.97852 415.17578 C 209.94788 415.17178 209.17691 414.54659 208.8457 413.74023 C 208.51448 412.93388 208.62342 411.94603 209.35352 411.21875 C 209.80983 410.7642 210.36596 410.55411 210.91602 410.54102 z "
     transform="translate(-204,-409)" />
  <path
     style="fill:#000000"
     d="m 215.624,409.695 c 0.041,-0.21246 0.17104,-0.38235 0.34209,-0.48167 0.17106,-0.0993 0.38309,-0.12809 0.58791,-0.0583 1.05801,0.26002 1.90313,0.9324 2.40994,1.80197 0.5068,0.86956 0.6753,1.9363 0.38006,2.98503 -0.16777,0.68805 -0.52091,1.30027 -1.0043,1.78175 -0.48338,0.48148 -1.097,0.8322 -1.7857,0.99725 h -0.077 -0.077 c -0.18823,0.008 -0.36508,-0.0535 -0.50332,-0.16375 -0.13825,-0.11024 -0.23788,-0.26889 -0.27168,-0.45425 -0.0611,-0.20389 -0.0293,-0.41229 0.0698,-0.58126 0.0991,-0.16898 0.2654,-0.29853 0.47318,-0.34474 0.41668,-0.10793 0.78771,-0.32459 1.08156,-0.61844 0.29385,-0.29385 0.51051,-0.66488 0.61844,-1.08156 0.16177,-0.62948 0.052,-1.26468 -0.25587,-1.78203 -0.30784,-0.51735 -0.81372,-0.91686 -1.44413,-1.07497 -0.19708,-0.0603 -0.35462,-0.19109 -0.452,-0.35715 -0.0974,-0.16607 -0.13459,-0.36741 -0.091,-0.56885"
     transform="translate(-204,-409)"
     id="path451" />
  <path
     style="fill:#000000"
     d="m 219.66,418.419 c -0.49883,-0.1465 -0.84885,0.16061 -0.94765,0.53417 -0.0988,0.37356 0.0536,0.81356 0.55965,0.93283 0.51006,0.12879 0.94155,0.42558 1.24227,0.82166 0.30073,0.39607 0.4707,0.89143 0.45773,1.41734 v 0.772 0.772 c 0,0.51667 0.3875,0.775 0.775,0.775 0.3875,0 0.775,-0.25833 0.775,-0.775 v -0.772 -0.772 c 0.0473,-0.88754 -0.23395,-1.72547 -0.74479,-2.3858 -0.51083,-0.66033 -1.25124,-1.14306 -2.12221,-1.3202"
     transform="translate(-204,-409)"
     id="path449" />
  <path
     style="fill:#000000"
     d="m 217.952,422.124 v 0.772 0.772 c 0,0.51667 -0.3875,0.775 -0.775,0.775 -0.3875,0 -0.775,-0.25833 -0.775,-0.775 v -0.772 -0.772 c 0.0106,-0.64566 -0.24782,-1.23122 -0.67032,-1.65209 -0.4225,-0.42086 -1.00906,-0.67703 -1.65468,-0.66391 h -3.1 -3.1 c -0.64562,-0.0131 -1.23218,0.24305 -1.65468,0.66391 -0.4225,0.42087 -0.68094,1.00643 -0.67032,1.65209 v 0.772 0.772 c 0,0.51667 -0.3875,0.775 -0.775,0.775 -0.3875,0 -0.775,-0.25833 -0.775,-0.775 v -0.772 -0.772 c -0.008,-1.07254 0.42427,-2.044 1.12727,-2.74409 0.70299,-0.7001 1.67623,-1.12883 2.74873,-1.11591 h 3.1 3.1 c 1.0725,-0.0129 2.04574,0.41581 2.74873,1.11591 0.703,0.70009 1.13575,1.67155 1.12727,2.74409"
     transform="translate(-204,-409)"
     id="path445" />
</svg>
