<?xml version="1.0" encoding="utf-8"?>
<!-- Generator: Adobe Illustrator 24.0.0, SVG Export Plug-In . SVG Version: 6.00 Build 0)  -->
<svg version="1.1" id="Layer_1" xmlns="http://www.w3.org/2000/svg" xmlns:xlink="http://www.w3.org/1999/xlink" x="0px" y="0px"
	 viewBox="0 0 19.6 19.6" style="enable-background:new 0 0 19.6 19.6;" xml:space="preserve">
<path class="st0" d="M16.9,3C13.1-0.9,6.9-1,3,2.7S-1,12.6,2.7,16.5c0.1,0.1,0.2,0.2,0.3,0.3c0,0,0,0,0,0C3.1,16.9,3.1,17,3.2,17
	c0.2,0.1,0.3,0.3,0.5,0.4c0.1,0.1,0.2,0.1,0.3,0.2c0.2,0.1,0.3,0.2,0.5,0.3c0.1,0.1,0.2,0.1,0.3,0.2c0.2,0.1,0.3,0.2,0.5,0.3
	c0.1,0.1,0.3,0.1,0.4,0.2s0.3,0.1,0.4,0.2S6.4,19,6.5,19s0.3,0.1,0.4,0.1c0.2,0,0.3,0.1,0.5,0.1c0.1,0,0.3,0.1,0.4,0.1
	c0.2,0,0.4,0.1,0.6,0.1c0.1,0,0.2,0,0.4,0.1c0.3,0,0.6,0,1,0s0.6,0,1,0c0.1,0,0.2,0,0.4-0.1c0.2,0,0.4-0.1,0.6-0.1
	c0.1,0,0.3-0.1,0.4-0.1c0.2,0,0.3-0.1,0.5-0.1c0.1,0,0.3-0.1,0.4-0.1s0.3-0.1,0.5-0.2s0.3-0.1,0.4-0.2s0.3-0.1,0.4-0.2
	c0.2-0.1,0.3-0.2,0.5-0.3c0.1-0.1,0.2-0.1,0.3-0.2c0.2-0.1,0.3-0.2,0.5-0.3c0.1-0.1,0.2-0.1,0.3-0.2c0.2-0.1,0.3-0.3,0.5-0.4
	c0.1-0.1,0.1-0.1,0.2-0.2c0,0,0,0,0,0C20.5,13.1,20.6,6.9,16.9,3C16.9,3,16.9,3,16.9,3z M15.3,16.1c-0.1,0.1-0.3,0.2-0.4,0.3
	c-0.1,0.1-0.2,0.1-0.2,0.2c-0.1,0.1-0.3,0.2-0.4,0.3C14.2,16.9,14.1,17,14,17c-0.1,0.1-0.2,0.1-0.4,0.2c-0.1,0.1-0.2,0.1-0.3,0.2
	s-0.2,0.1-0.4,0.2s-0.3,0.1-0.4,0.1s-0.2,0.1-0.4,0.1c-0.1,0-0.3,0.1-0.4,0.1c-0.1,0-0.2,0.1-0.3,0.1c-0.2,0-0.3,0.1-0.5,0.1
	c-0.1,0-0.2,0-0.3,0c-0.3,0-0.5,0-0.8,0s-0.5,0-0.8,0c-0.1,0-0.2,0-0.3,0c-0.2,0-0.3,0-0.5-0.1C8.1,18,8,18,7.8,18
	c-0.1,0-0.3-0.1-0.4-0.1c-0.1,0-0.2-0.1-0.4-0.1s-0.3-0.1-0.4-0.1s-0.2-0.1-0.4-0.2S6.1,17.3,6,17.3S5.7,17.1,5.6,17
	c-0.1-0.1-0.2-0.1-0.3-0.2c-0.1-0.1-0.3-0.2-0.4-0.3c-0.1-0.1-0.2-0.1-0.2-0.2c-0.1-0.1-0.3-0.2-0.4-0.3c0,0-0.1-0.1-0.1-0.1
	c0-2.4,1.6-4.5,3.8-5.2c1.1,0.5,2.4,0.5,3.6,0C13.8,11.6,15.4,13.7,15.3,16.1C15.4,16.1,15.3,16.1,15.3,16.1z M7.4,5.6
	c0.8-1.3,2.5-1.8,3.8-1.1S13,7,12.2,8.3c-0.3,0.5-0.6,0.8-1.1,1.1c0,0,0,0,0,0c-0.2,0.1-0.4,0.2-0.6,0.2c0,0-0.1,0-0.1,0
	c-0.1,0-0.1,0-0.2,0c-0.1,0-0.3,0-0.4,0H9.8c-0.1,0-0.3,0-0.4,0c-0.1,0-0.1,0-0.2,0c0,0-0.1,0-0.1,0C8.8,9.6,8.6,9.5,8.4,9.4h0
	C7.1,8.7,6.6,7,7.4,5.6z M16.6,14.6L16.6,14.6c-0.4-2.1-1.8-3.9-3.7-4.8c1.6-1.7,1.5-4.4-0.2-5.9S8.3,2.4,6.7,4.1
	c-1.5,1.6-1.5,4.1,0,5.7c-1.9,1-3.3,2.7-3.7,4.8c-2.7-3.8-1.8-9,2-11.7s9-1.8,11.7,2C18.7,7.8,18.7,11.7,16.6,14.6L16.6,14.6z"/>
</svg>
