<?xml version="1.0" encoding="utf-8"?>
<!-- Generator: Adobe Illustrator 21.0.0, SVG Export Plug-In . SVG Version: 6.00 Build 0)  -->
<svg version="1.1" id="Layer_1" xmlns="http://www.w3.org/2000/svg" xmlns:xlink="http://www.w3.org/1999/xlink" x="0px" y="0px"
	 viewBox="0 0 20 20">
<path d="M10,20c-1.8,0-3.6-0.4-5.2-1.2c-0.7-0.4-1.3-0.8-1.9-1.3c-1.1-1.1-1.2-2.8-0.1-3.9l0.1-0.1c1-1,2.3-1.7,3.8-2.1
	c2.8-0.7,5.7-0.5,8.4,0.6c0.8,0.4,1.6,0.8,2.2,1.5c1.1,1.1,1.1,2.8,0,3.9c-1.1,1.2-2.7,1.9-4.2,2.2C12,19.9,11,19.9,10,20z"/>
<path d="M10,0c2.4,0,4.4,1.9,4.4,4.4S12.5,8.7,10,8.7S5.7,6.8,5.7,4.4S7.5,0,9.9,0C9.9,0,9.9,0,10,0z"/>
</svg>
