<?xml version="1.0" encoding="UTF-8" standalone="no"?>
<svg
   width="18.296"
   height="18.545"
   viewBox="0 0 18.296 18.545"
   version="1.1"
   id="svg908"
   sodipodi:docname="user-alt.svg"
   inkscape:version="1.2.1 (9c6d41e410, 2022-07-14)"
   xmlns:inkscape="http://www.inkscape.org/namespaces/inkscape"
   xmlns:sodipodi="http://sodipodi.sourceforge.net/DTD/sodipodi-0.dtd"
   xmlns="http://www.w3.org/2000/svg"
   xmlns:svg="http://www.w3.org/2000/svg">
  <defs
     id="defs912" />
  <sodipodi:namedview
     id="namedview910"
     pagecolor="#ffffff"
     bordercolor="#000000"
     borderopacity="0.25"
     inkscape:showpageshadow="2"
     inkscape:pageopacity="0.0"
     inkscape:pagecheckerboard="0"
     inkscape:deskcolor="#d1d1d1"
     showgrid="false"
     inkscape:zoom="44.702076"
     inkscape:cx="9.1718335"
     inkscape:cy="9.3060555"
     inkscape:window-width="1920"
     inkscape:window-height="1009"
     inkscape:window-x="1912"
     inkscape:window-y="-8"
     inkscape:window-maximized="1"
     inkscape:current-layer="Layer_2" />
  <g
     id="Layer_2"
     data-name="Layer 2"
     transform="translate(-2.18 -1.985)"
     style="fill:#000000">
    <path
       id="Path_24457"
       style="fill:#000000"
       d="M 14.702531 6.7132344 C 12.251042 6.7132344 10.456476 8.2352702 9.7376875 10.158547 C 9.0188988 12.081823 9.3767749 14.406148 11.227922 16.014016 C 9.7571126 16.608485 8.4893389 17.558175 7.5189375 18.750344 C 6.548536 19.942512 5.8747823 21.376992 5.5912031 22.937844 C 5.5384078 23.22569 5.5514638 23.517088 5.6244062 23.793312 C 5.6973487 24.069537 5.8309122 24.330777 6.0189375 24.555031 C 6.2081983 24.78263 6.442802 24.961685 6.7044844 25.084328 C 6.9661668 25.20697 7.2541794 25.273949 7.5501875 25.273781 L 14.706437 25.273781 L 21.864641 25.273781 C 22.160648 25.273949 22.448661 25.206972 22.710344 25.084328 C 22.972025 24.961685 23.20663 24.78263 23.395891 24.555031 C 23.583915 24.330777 23.717479 24.069537 23.790422 23.793312 C 23.863364 23.517088 23.87642 23.22569 23.823625 22.937844 C 23.539167 21.37598 22.86398 19.942568 21.891984 18.750344 C 20.919987 17.55812 19.649692 16.60725 18.177141 16.014016 C 20.028288 14.406148 20.386164 12.081823 19.667375 10.158547 C 18.948587 8.2352702 17.15402 6.7132344 14.702531 6.7132344 z M 14.833391 8.051125 C 15.777453 8.074804 16.733129 8.4391442 17.515031 9.2210469 C 18.766076 10.472091 18.948877 12.166813 18.376359 13.549172 C 17.803842 14.93153 16.475896 16.000344 14.706437 16.000344 C 13.609601 16.000344 12.616634 15.557025 11.897844 14.838234 C 11.179054 14.119445 10.735734 13.126477 10.735734 12.029641 C 10.735734 10.260182 11.804548 8.932236 13.186906 8.3597188 C 13.705291 8.1450248 14.266953 8.0369176 14.833391 8.051125 z M 12.692766 16.926125 C 12.846654 16.989726 13.001689 17.045693 13.159562 17.094094 L 12.849016 17.869484 L 12.268937 19.322609 C 12.170778 19.568347 12.149548 19.829949 12.200578 20.078469 C 12.251605 20.32699 12.374861 20.561213 12.561906 20.748391 L 13.165422 21.353859 L 13.770891 21.957375 C 13.894923 22.081587 14.039517 22.178698 14.198625 22.244484 C 14.357733 22.31027 14.530903 22.344447 14.706437 22.344094 C 14.882333 22.343785 15.053175 22.309171 15.212297 22.242531 C 15.371418 22.17589 15.518364 22.078598 15.641984 21.953469 L 16.247453 21.348 L 16.852922 20.744484 C 17.040175 20.557213 17.161267 20.323274 17.212297 20.074562 C 17.263332 19.82585 17.244271 19.562629 17.145891 19.31675 L 16.563859 17.865578 L 16.253312 17.092141 C 16.408617 17.044272 16.562813 16.988713 16.71425 16.926125 C 18.205899 17.314735 19.517021 18.118198 20.524797 19.203469 C 21.532574 20.28874 22.235837 21.655918 22.513078 23.172219 C 22.530918 23.266109 22.528466 23.363105 22.505266 23.453469 C 22.481997 23.543834 22.439224 23.627869 22.378312 23.701516 C 22.314763 23.778166 22.235816 23.839865 22.147844 23.881203 C 22.059874 23.922543 21.962251 23.943703 21.862687 23.943703 L 14.706437 23.943703 L 7.5482344 23.943703 C 7.4486705 23.943702 7.3530033 23.922543 7.2650312 23.881203 C 7.1770593 23.839865 7.0981105 23.778162 7.0345625 23.701516 C 6.9724391 23.628255 6.9279657 23.544027 6.9037031 23.453469 C 6.8794404 23.362911 6.8748102 23.266726 6.8919844 23.172219 C 7.1694009 21.656109 7.8744508 20.288557 8.8822187 19.203469 C 9.8899867 18.11838 11.20126 17.314658 12.692766 16.926125 z M 14.491594 17.324562 L 14.663469 17.324562 C 14.676513 17.324659 14.689486 17.326516 14.702531 17.326516 C 14.715576 17.326516 14.728549 17.324659 14.741594 17.324562 L 14.915422 17.324562 L 15.415422 18.568703 L 15.915422 19.812844 L 15.311906 20.416359 L 14.706437 21.021828 L 14.102922 20.416359 L 13.499406 19.812844 L 13.9955 18.568703 L 14.491594 17.324562 z "
       transform="translate(-3.378,-4.738)" />
  </g>
</svg>
