<?xml version="1.0" encoding="utf-8"?>
<!-- Generator: Adobe Illustrator 24.0.0, SVG Export Plug-In . SVG Version: 6.00 Build 0)  -->
<svg version="1.1" id="Layer_1" xmlns="http://www.w3.org/2000/svg" xmlns:xlink="http://www.w3.org/1999/xlink" x="0px" y="0px"
	 viewBox="0 0 13.5 16.2" style="enable-background:new 0 0 13.5 16.2;" xml:space="preserve">
<path class="st0" d="M6.7,7.8c1,0,2-0.4,2.7-1.1C10.1,6,10.5,5,10.5,4c0-1-0.4-2-1.1-2.7c-1.5-1.5-3.9-1.5-5.4,0c0,0,0,0,0,0
	C3.2,1.9,2.8,2.9,2.8,4c0,1,0.4,2,1.1,2.7C4.7,7.4,5.6,7.8,6.7,7.8z M4.6,1.9c1.1-1.1,3-1.1,4.1,0c0,0,0,0,0,0
	C9.3,2.4,9.6,3.2,9.6,4c0,0.8-0.3,1.5-0.9,2.1c-1.1,1.1-3,1.1-4.1,0c0,0,0,0,0,0C4.1,5.5,3.7,4.7,3.8,4C3.7,3.2,4.1,2.4,4.6,1.9
	L4.6,1.9z"/>
<path class="st0" d="M13.4,12.4c0-0.3-0.1-0.7-0.1-1c-0.1-0.3-0.1-0.7-0.2-1c-0.1-0.3-0.2-0.6-0.4-0.9c-0.2-0.3-0.4-0.6-0.6-0.8
	c-0.3-0.2-0.6-0.4-0.9-0.6c-0.4-0.1-0.8-0.2-1.2-0.2c-0.2,0-0.4,0.1-0.6,0.3C9.1,8.2,8.9,8.4,8.6,8.5C8.4,8.7,8.1,8.8,7.8,8.9
	c-0.7,0.2-1.4,0.2-2.1,0C5.4,8.8,5.2,8.7,4.9,8.5C4.7,8.4,4.4,8.2,4.2,8.1C4.1,7.9,3.9,7.8,3.6,7.8C3.2,7.8,2.8,7.9,2.5,8
	C2.1,8.2,1.8,8.4,1.6,8.6C1.3,8.8,1.1,9.1,0.9,9.4C0.8,9.7,0.6,10,0.5,10.4c-0.1,0.3-0.2,0.7-0.2,1c-0.1,0.3-0.1,0.7-0.1,1
	c0,0.3,0,0.6,0,0.9c0,0.8,0.3,1.5,0.8,2c0.6,0.5,1.3,0.8,2,0.7h7.7c0.7,0,1.5-0.2,2-0.7c0.5-0.5,0.8-1.3,0.8-2
	C13.4,13,13.4,12.7,13.4,12.4L13.4,12.4z M12,14.7c-0.4,0.3-0.9,0.5-1.4,0.5H2.9c-0.5,0-1-0.1-1.4-0.5C1.2,14.3,1,13.8,1,13.3
	c0-0.3,0-0.6,0-0.9c0-0.3,0.1-0.6,0.1-0.9c0.1-0.3,0.1-0.6,0.2-0.9c0.1-0.3,0.2-0.5,0.3-0.8C1.9,9.7,2,9.5,2.2,9.3
	C2.4,9.1,2.6,9,2.8,8.9C3,8.8,3.3,8.8,3.5,8.8c0,0,0.1,0.1,0.2,0.1C3.9,9,4.2,9.1,4.4,9.3c0.3,0.2,0.7,0.4,1.1,0.5
	c0.9,0.3,1.8,0.3,2.6,0c0.4-0.1,0.7-0.3,1.1-0.5C9.4,9.1,9.6,9,9.8,8.9C9.9,8.8,10,8.8,10,8.8c0.3,0,0.5,0.1,0.7,0.1
	C11,9,11.2,9.1,11.3,9.3c0.2,0.2,0.3,0.4,0.5,0.6c0.1,0.2,0.3,0.5,0.3,0.8c0.1,0.3,0.2,0.6,0.2,0.9c0.1,0.3,0.1,0.6,0.1,0.9l0,0
	c0,0.3,0,0.6,0,0.9C12.5,13.8,12.4,14.3,12,14.7L12,14.7z"/>
</svg>
