<?xml version="1.0" encoding="utf-8"?>
<!-- Generator: Adobe Illustrator 24.0.0, SVG Export Plug-In . SVG Version: 6.00 Build 0)  -->
<svg version="1.1" id="Layer_1" xmlns="http://www.w3.org/2000/svg" xmlns:xlink="http://www.w3.org/1999/xlink" x="0px" y="0px"
	 viewBox="0 0 17.3 14.7" style="enable-background:new 0 0 17.3 14.7;" xml:space="preserve">
<path d="M5.6,8.3c0.5,1.3,1,2.5,1.5,3.7c0.4,0.7,0.8,1.4,1.2,2c0.2,0.3,0.4,0.3,0.6,0c1.2-1.6,2.1-3.4,2.6-5.3
	c0-0.1,0.1-0.2,0.1-0.3c0.4,0.1,0.9,0.3,1.3,0.4s0.8,0.3,1.2,0.4c1.7,0.5,2.9,1.9,3.1,3.7c0.1,0.8,0.3,0.8-0.8,1.1
	c-1.4,0.4-2.9,0.6-4.3,0.6c-2.3,0.2-4.5,0.2-6.8,0c-1.6-0.1-3.2-0.3-4.8-0.7C0,13.7,0,13.6,0,13.2c0.1-0.9,0.4-1.7,0.9-2.4
	c0.4-0.5,0.8-0.9,1.3-1.1C3.3,9.1,4.5,8.7,5.6,8.3z"/>
<path d="M5.1,2.3c0-0.1,0.1-0.1,0.1-0.2c0.3-0.5,0.3-0.5,0.9-0.3c0.1,0.1,0.3,0,0.4-0.1c0,0,0,0,0,0c0.1-0.1,0.1-0.2,0.1-0.4
	C6.4,0.7,6.4,0.7,7.1,0.4c0.1,0.1,0.2,0.2,0.3,0.4C7.5,0.9,7.7,1,7.9,0.9c0.2-0.1,0.2-0.2,0.3-0.4c0.1-0.5,0.3-0.6,0.8-0.5
	C8.9,0.1,9,0.2,9,0.3C9.2,0.5,9,0.8,9.3,0.9C9.5,1,9.7,1,9.8,0.7c0.1-0.1,0.2-0.2,0.3-0.4c0.1,0,0.1,0.1,0.2,0.1
	c0.5,0.3,0.5,0.3,0.3,0.8c0,0.1,0,0.3,0.1,0.4c0.1,0.1,0.2,0.1,0.4,0.1c0.7-0.2,0.6-0.2,1,0.5c-0.2,0.3-0.7,0.3-0.5,0.9
	c0.2,0.4,0.5,0.2,0.8,0.3c0,0,0,0.1,0,0.2c0,0.6,0,0.5-0.5,0.7c-0.1,0-0.2,0.1-0.3,0.2c-0.1,0.1-0.1,0.3,0.1,0.4c0,0,0,0,0,0
	c0.2,0.1,0.3,0.2,0.4,0.4C12,5.5,12,5.5,11.9,5.6c-0.3,0.4-0.3,0.4-0.7,0.3c-0.2-0.1-0.4-0.1-0.5,0.1c-0.1,0.1-0.2,0.3-0.1,0.4
	c0,0.1,0,0.1,0.1,0.2c0.1,0.3,0.1,0.4-0.2,0.5c-0.1,0.1-0.2,0.1-0.4,0.2C10,7.2,9.9,7.1,9.8,6.9C9.8,6.8,9.6,6.7,9.4,6.7
	c-0.2,0-0.3,0.2-0.3,0.4c0,0.3-0.1,0.5-0.5,0.5c-0.3,0-0.5,0-0.5-0.4c0-0.2-0.1-0.3-0.2-0.4c-0.2-0.1-0.4-0.1-0.5,0
	c0,0,0,0.1-0.1,0.1C7.3,7,7.2,7.1,7.1,7.3c0,0-0.1,0-0.1-0.1C6.4,6.9,6.4,6.9,6.5,6.3c0-0.1,0-0.2-0.1-0.3C6.4,5.9,6.2,5.8,6.1,5.8
	C5.4,6,5.4,6,5.1,5.3L5.5,5c0.1-0.1,0.3-0.2,0.2-0.4c0-0.2-0.2-0.3-0.4-0.3C5,4.3,4.7,4,4.8,3.7c0-0.1,0-0.2,0.1-0.2
	c0-0.1,0.2-0.1,0.3-0.1c0.2-0.1,0.5,0,0.6-0.3c0.1-0.2,0-0.4-0.1-0.5C5.4,2.5,5.3,2.4,5.1,2.3z M6.8,3.8c0,1,0.8,1.8,1.8,1.8
	c1,0,1.8-0.8,1.8-1.8c0-1-0.8-1.8-1.8-1.8c0,0,0,0,0,0C7.6,2,6.8,2.8,6.8,3.8z"/>
<path d="M8.6,13.5c-0.2-0.4-0.4-0.8-0.6-1.2c-0.1-0.3,0-0.7,0.2-1c0.1-0.1,0.5-0.1,0.8-0.1c0.1,0,0.1,0.2,0.2,0.3
	C9.3,12.3,9.3,12.5,8.6,13.5z"/>
<path d="M8.1,10.6L8,9.6h1.3c-0.1,0.4-0.1,0.7-0.2,1.1L8.1,10.6z"/>
</svg>
