<?xml version="1.0" encoding="utf-8"?>
<!-- Generator: Adobe Illustrator 24.0.0, SVG Export Plug-In . SVG Version: 6.00 Build 0)  -->
<svg version="1.1" id="Layer_1" xmlns="http://www.w3.org/2000/svg" xmlns:xlink="http://www.w3.org/1999/xlink" x="0px" y="0px"
	 viewBox="0 0 20.3 17.7" style="enable-background:new 0 0 20.3 17.7;" xml:space="preserve">
<path class="st0" d="M20.1,13.2c-0.2-0.4-0.6-0.6-1-0.4c-0.4,0.2-0.6,0.6-0.4,1l0,0c0.2,0.5,0.1,1.1-0.2,1.6
	c-0.3,0.5-0.8,0.7-1.4,0.7H3.3c-0.9,0-1.7-0.8-1.7-1.7c0-0.3,0.1-0.6,0.3-0.9L8.7,2.4c0.5-0.8,1.5-1.1,2.3-0.6
	c0.2,0.1,0.4,0.3,0.6,0.6l5.1,8.2c0.2,0.4,0.7,0.5,1.1,0.3c0.4-0.2,0.5-0.7,0.3-1.1l0,0L13,1.6c-1-1.5-3-2-4.5-1.1
	C8,0.8,7.6,1.1,7.4,1.6L0.5,12.7c-1,1.5-0.5,3.6,1.1,4.5c0.5,0.3,1.1,0.5,1.7,0.5H17c1.1,0,2.1-0.5,2.7-1.4
	C20.4,15.4,20.5,14.2,20.1,13.2z"/>
<path class="st0" d="M10.2,14.6c0.4,0,0.8-0.4,0.8-0.8S10.6,13,10.2,13l0,0c-0.4,0-0.8,0.4-0.8,0.8S9.7,14.6,10.2,14.6z"/>
<path class="st0" d="M11,11V5.2c0-0.4-0.4-0.8-0.8-0.8c-0.4,0-0.8,0.4-0.8,0.8V11c0,0.4,0.4,0.8,0.8,0.8C10.6,11.8,11,11.4,11,11
	L11,11L11,11z"/>
</svg>
