<?xml version="1.0" encoding="utf-8"?>
<!-- Generator: Adobe Illustrator 24.0.0, SVG Export Plug-In . SVG Version: 6.00 Build 0)  -->
<svg version="1.1" id="Layer_1" xmlns="http://www.w3.org/2000/svg" xmlns:xlink="http://www.w3.org/1999/xlink" x="0px" y="0px"
	 viewBox="0 0 24.6 24.6" style="enable-background:new 0 0 24.6 24.6;" xml:space="preserve">
<path class="st0" d="M24.4,11.8c-3-3.6-7.4-5.7-12.1-5.9C7.6,6.1,3.2,8.3,0.2,11.8c-0.2,0.3-0.2,0.6,0,0.9c3,3.6,7.4,5.7,12.1,5.9
	c5.3,0,10-3.3,12.1-5.9C24.5,12.5,24.4,12.1,24.4,11.8z M17.2,12.3c0,2.7-2.2,4.9-4.9,4.9S7.4,15,7.4,12.3s2.2-4.9,4.9-4.9h0
	C15,7.4,17.2,9.6,17.2,12.3L17.2,12.3z M1.7,12.3c1.6-1.6,3.5-2.9,5.5-3.8c-1.7,2.3-1.7,5.4,0,7.7C5.1,15.2,3.3,13.9,1.7,12.3
	L1.7,12.3z M17.3,16.1c1.7-2.3,1.7-5.4,0-7.7c2.1,0.9,4,2.2,5.5,3.8C21.3,13.9,19.4,15.2,17.3,16.1L17.3,16.1z"/>
<path class="st0" d="M9.8,12.3c0,1.4,1.1,2.5,2.5,2.5s2.5-1.1,2.5-2.5c0-1.4-1.1-2.5-2.5-2.5C10.9,9.8,9.8,10.9,9.8,12.3z
	 M13.3,12.3c0,0.6-0.5,1-1,1s-1-0.5-1-1c0-0.6,0.5-1,1-1C12.8,11.3,13.3,11.7,13.3,12.3z"/>
<path class="st0" d="M12.3,3.1c0.4,0,0.7-0.3,0.7-0.7l0,0V0.7C13,0.3,12.7,0,12.3,0s-0.7,0.3-0.7,0.7v1.7
	C11.6,2.8,11.9,3.1,12.3,3.1L12.3,3.1z"/>
<path class="st0" d="M16.6,4.1c0.3,0.2,0.8,0.1,1-0.3c0,0,0,0,0,0l1-1.7c0.2-0.3,0.1-0.8-0.2-1c-0.3-0.2-0.8-0.1-1,0.2c0,0,0,0,0,0
	l-1,1.7C16.1,3.5,16.2,3.9,16.6,4.1C16.6,4.1,16.6,4.1,16.6,4.1z"/>
<path class="st0" d="M7,3.8c0.2,0.3,0.6,0.5,1,0.3s0.5-0.6,0.3-1l-1-1.7C7.1,1.1,6.6,1,6.3,1.2S5.8,1.8,6,2.1L7,3.8z"/>
<path class="st0" d="M12.3,21.4c-0.4,0-0.7,0.3-0.7,0.7v1.7c0,0.4,0.3,0.7,0.7,0.7s0.7-0.3,0.7-0.7l0,0v-1.7
	C13,21.7,12.7,21.4,12.3,21.4z"/>
<path class="st0" d="M8,20.5c-0.3-0.2-0.8-0.1-1,0.3c0,0,0,0,0,0l-1,1.7c-0.2,0.3-0.1,0.8,0.3,1c0.3,0.2,0.8,0.1,1-0.3l0,0l1-1.7
	C8.4,21.1,8.3,20.7,8,20.5z"/>
<path class="st0" d="M17.6,20.7c-0.2-0.3-0.6-0.5-1-0.3c-0.3,0.2-0.5,0.6-0.3,1l0,0l1,1.7c0.2,0.4,0.6,0.5,1,0.3s0.5-0.6,0.3-1
	c0,0,0,0,0,0L17.6,20.7z"/>
</svg>
