<?xml version="1.0" encoding="UTF-8" standalone="no"?>
<svg
   width="18.866"
   height="18.871"
   viewBox="0 0 18.866 18.871"
   version="1.1"
   id="svg4"
   sodipodi:docname="cog.svg"
   inkscape:version="1.2.1 (9c6d41e410, 2022-07-14)"
   xmlns:inkscape="http://www.inkscape.org/namespaces/inkscape"
   xmlns:sodipodi="http://sodipodi.sourceforge.net/DTD/sodipodi-0.dtd"
   xmlns="http://www.w3.org/2000/svg"
   xmlns:svg="http://www.w3.org/2000/svg">
  <defs
     id="defs8" />
  <sodipodi:namedview
     id="namedview6"
     pagecolor="#ffffff"
     bordercolor="#000000"
     borderopacity="0.25"
     inkscape:showpageshadow="2"
     inkscape:pageopacity="0.0"
     inkscape:pagecheckerboard="0"
     inkscape:deskcolor="#d1d1d1"
     showgrid="false"
     inkscape:zoom="43.929839"
     inkscape:cx="9.4013548"
     inkscape:cy="12.224038"
     inkscape:window-width="1920"
     inkscape:window-height="1009"
     inkscape:window-x="1912"
     inkscape:window-y="-8"
     inkscape:window-maximized="1"
     inkscape:current-layer="Group_10576" />
  <g
     id="Group_10576"
     data-name="Group 10576"
     transform="translate(145.787 -454.418)">
    <path
       id="Path_24522"
       data-name="Path 24522"
       d="m -126.93,470.246 c -0.071,0.87753 -0.49062,1.69004 -1.165,2.256 -0.7003,0.58979 -1.57319,0.84063 -2.41894,0.76935 -0.84575,-0.0713 -1.66435,-0.46467 -2.25606,-1.16335 l -6.65,-7.756 -0.05,-0.058 -0.075,0.018 c -1.12056,0.27832 -2.30276,0.1625 -3.348,-0.328 -2.5095,-1.18115 -3.59008,-4.17019 -2.416,-6.683 0.0302,-0.063 0.0708,-0.12046 0.12,-0.17 0.11567,-0.11795 0.2738,-0.18459 0.439,-0.185 v 0 c 0.16378,-3.8e-4 0.321,0.0644 0.437,0.18 l 2.4,2.4 0.089,0.088 1.228,-1.238 -2.487,-2.487 c -0.049,-0.0501 -0.0896,-0.10784 -0.12,-0.171 -0.0711,-0.14913 -0.0797,-0.32047 -0.024,-0.476 0.0548,-0.15508 0.16926,-0.28182 0.318,-0.352 1.04881,-0.49298 2.23565,-0.60884 3.36,-0.328 1.2943,0.32105 2.40672,1.14583 3.09,2.291 0.68814,1.14265 0.89119,2.51289 0.564,3.806 l -0.019,0.075 7.815,6.7 v 0 c 0.14258,0.12177 0.2744,0.2556 0.394,0.4 0.57034,0.66809 0.84944,1.53673 0.775,2.412 z m -1.261,-0.443 c -0.0401,-0.54829 -0.2984,-1.05761 -0.717,-1.414 l -8.13,-6.968 c -0.19562,-0.16846 -0.26685,-0.44025 -0.179,-0.683 0.20483,-0.56435 0.27336,-1.16913 0.2,-1.765 -0.12377,-0.99641 -0.64081,-1.90196 -1.436,-2.515 -0.79228,-0.61676 -1.79829,-0.89113 -2.794,-0.762 l -0.253,0.033 2.225,2.225 c 0.11685,0.11616 0.18238,0.27424 0.182,0.439 1.6e-4,0.16472 -0.0653,0.32271 -0.182,0.439 l -2.111,2.111 c -0.24351,0.24084 -0.63549,0.24084 -0.879,0 l -2.219,-2.225 -0.033,0.253 c -0.0733,0.59587 -0.005,1.20064 0.2,1.765 0.3393,0.94468 1.0426,1.71425 1.953,2.137 0.90788,0.4279 1.94915,0.47507 2.892,0.131 0.24149,-0.0867 0.5114,-0.0164 0.68,0.177 l 6.963,8.131 c 0.035,0.041 0.072,0.08 0.11,0.119 0.38936,0.38649 0.91639,0.60234 1.465,0.6 0.52292,0.001 1.02679,-0.19619 1.41,-0.552 v 0 l 0.054,-0.053 c 0.0396,-0.0375 0.0767,-0.0776 0.111,-0.12 0.35639,-0.41599 0.53205,-0.957 0.488,-1.503 z"
       fill="#fff"
       style="fill:#000000"
       sodipodi:nodetypes="ccscccccccsscccccccccccccsccccccccccccccccccccccccscccc" />
  </g>
</svg>
